<?xml version="1.0" encoding="UTF-8" standalone="no"?>
<!-- Created with Inkscape (http://www.inkscape.org/) -->

<svg
   xmlns:dc="http://purl.org/dc/elements/1.1/"
   xmlns:cc="http://creativecommons.org/ns#"
   xmlns:rdf="http://www.w3.org/1999/02/22-rdf-syntax-ns#"
   xmlns:svg="http://www.w3.org/2000/svg"
   xmlns="http://www.w3.org/2000/svg"
   xmlns:sodipodi="http://sodipodi.sourceforge.net/DTD/sodipodi-0.dtd"
   xmlns:inkscape="http://www.inkscape.org/namespaces/inkscape"
   width="144.71347mm"
   height="25.33816mm"
   viewBox="0 0 144.71347 25.33816"
   version="1.1"
   id="svg951"
   inkscape:version="0.92.5 (2060ec1f9f, 2020-04-08)"
   sodipodi:docname="arch.svg">
  <defs
     id="defs945" />
  <sodipodi:namedview
     id="base"
     pagecolor="#ffffff"
     bordercolor="#666666"
     borderopacity="1.0"
     inkscape:pageopacity="0.0"
     inkscape:pageshadow="2"
     inkscape:zoom="2.1732485"
     inkscape:cx="165.2165"
     inkscape:cy="-24.14324"
     inkscape:document-units="mm"
     inkscape:current-layer="layer1"
     showgrid="false"
     inkscape:window-width="1294"
     inkscape:window-height="704"
     inkscape:window-x="72"
     inkscape:window-y="27"
     inkscape:window-maximized="1" />
  <metadata
     id="metadata948">
    <rdf:RDF>
      <cc:Work
         rdf:about="">
        <dc:format>image/svg+xml</dc:format>
        <dc:type
           rdf:resource="http://purl.org/dc/dcmitype/StillImage" />
        <dc:title></dc:title>
      </cc:Work>
    </rdf:RDF>
  </metadata>
  <g
     inkscape:label="Layer 1"
     inkscape:groupmode="layer"
     id="layer1"
     transform="translate(-0.61177968,-117.10728)">
    <path
       style="opacity:1;fill:#000000;fill-opacity:0.95999995;fill-rule:nonzero;stroke:#000000;stroke-width:0.3175;stroke-miterlimit:4;stroke-dasharray:none;stroke-opacity:0"
       id="path1496"
       d="m 2.5735779,131.60419 c -0.025869,-0.2549 0.00573,-0.50643 0.073094,-0.75218 0.074229,-0.26629 0.1894943,-0.51091 0.3394885,-0.74211 0.1861812,-0.26756 0.4405203,-0.47737 0.6826416,-0.69226 0.4279069,-0.30502 0.5921013,-0.5253 0.8290764,-0.0928 0.1004165,0.34926 0.09316,0.71646 0.1706324,1.07122 0.1088536,0.38165 0.2775289,0.39438 0.6341107,0.34663 0.2942588,-0.0667 0.5664047,-0.21363 0.825804,-0.36436 0.054609,-0.0317 -0.2103898,0.13483 -0.1676151,0.0884 0.06494,-0.0705 0.1578171,-0.10896 0.2367256,-0.16343 0.4087514,-0.30088 0.7421986,-0.67758 1.0190829,-1.10002 0.02769,-0.0514 0.05538,-0.10273 0.08307,-0.15409 0,0 0.4308957,-0.19366 0.4308957,-0.19366 v 0 c -0.027717,0.0529 -0.055433,0.10577 -0.08315,0.15866 -0.276211,0.42836 -0.6104358,0.81062 -1.0187673,1.11935 -0.5182422,0.36577 -1.0851469,0.72955 -1.7047823,0.89121 -0.3799782,0.0389 -0.558732,-0.0111 -0.6720052,-0.40506 -0.075106,-0.35019 -0.072833,-0.71156 -0.1670531,-1.05696 -0.02354,-0.0408 -0.066123,-0.13096 -0.1128109,-0.16343 -0.061137,-0.0425 -0.1332767,0.002 -0.1162212,-0.01 0.080652,-0.0565 0.5172787,-0.31666 0.2539056,-0.15108 -0.2426581,0.21249 -0.4979752,0.41953 -0.6892356,0.6814 -0.1522371,0.22648 -0.2674099,0.46575 -0.3441848,0.72835 -0.070831,0.23697 -0.1024359,0.47944 -0.078689,0.7269 0,0 -0.4240136,0.2293 -0.4240136,0.2293 z"
       inkscape:connector-curvature="0" />
    <path
       style="opacity:1;fill:#000000;fill-opacity:0.95999995;fill-rule:nonzero;stroke:#000000;stroke-width:0.3175;stroke-miterlimit:4;stroke-dasharray:none;stroke-opacity:0"
       id="path1498"
       d="m 5.4944824,128.27917 c 0.3010165,0.26236 0.3382923,0.69269 0.3645324,1.06615 -0.02385,0.58858 -0.096219,1.17373 -0.1345436,1.76158 -0.030309,0.53391 -0.036152,1.06878 -0.037934,1.60342 -4.233e-4,0.27831 7.144e-4,0.55663 0.00603,0.8349 0.00774,0.0235 0.039325,0.0966 0.050365,0.0351 0,0 -0.382348,0.299 -0.382348,0.299 v 0 c -0.053938,-0.0218 -0.082485,-0.0574 -0.097305,-0.11518 0.0035,-0.28063 0.00486,-0.56127 0.00677,-0.84191 0.0048,-0.53609 0.00981,-1.07239 0.040565,-1.60777 0.036725,-0.5859 0.1100167,-1.16873 0.1357461,-1.7552 -0.024712,-0.35147 -0.055212,-0.77992 -0.3542263,-1.01534 0,0 0.4023447,-0.26473 0.4023447,-0.26473 z"
       inkscape:connector-curvature="0" />
    <path
       style="opacity:1;fill:#000000;fill-opacity:0.95999995;fill-rule:nonzero;stroke:#000000;stroke-width:0.3175;stroke-miterlimit:4;stroke-dasharray:none;stroke-opacity:0"
       id="path1500"
       d="m 8.0059987,131.99841 c -0.052991,0.4217 -0.1222058,0.84167 -0.1928972,1.26084 -0.080962,0.44511 -0.1311147,0.89481 -0.1600599,1.34606 0.00977,0.1113 0.00359,0.25359 0.080074,0.34655 0.011023,-0.0106 0.018722,-0.0107 0.059676,-0.011 0.1954027,0.009 0.381091,-0.062 0.5663517,-0.11516 0.2245342,-0.0882 0.4519443,-0.1667 0.6854563,-0.22718 0.01909,-0.005 0.038177,-0.009 0.057266,-0.0138 0,0 -0.3832937,0.2926 -0.3832937,0.2926 v 0 c -0.018476,0.004 -0.036952,0.009 -0.055429,0.0134 -0.2316533,0.0607 -0.4556578,0.14369 -0.6806978,0.2251 -0.189906,0.0551 -0.3797432,0.11732 -0.5800145,0.11117 -0.045443,0.004 -0.05811,0.0107 -0.086905,-0.0278 -0.075547,-0.11023 -0.079804,-0.25365 -0.086,-0.38198 0.035268,-0.45351 0.084823,-0.90596 0.1656456,-1.35388 0.070104,-0.41397 0.1340538,-0.82971 0.1822604,-1.24669 0,0 0.4285673,-0.21836 0.4285673,-0.21836 z"
       inkscape:connector-curvature="0" />
    <path
       style="opacity:1;fill:#ff0000;fill-opacity:0.95999995;fill-rule:nonzero;stroke:#000000;stroke-width:0.3175;stroke-miterlimit:4;stroke-dasharray:none;stroke-opacity:0"
       id="path1502"
       d="m 2.303355,127.67191 c -0.2357814,0.039 -0.4691453,0.0723 -0.6990227,0.13812 -0.2082087,0.033 -0.84833679,0.40387 -0.090604,-0.0271 -0.06487,0.041 -0.1307086,0.0827 -0.1869873,0.13533 -0.045111,0.12521 -0.084039,0.24879 -0.1064492,0.38045 -0.052327,0.31993 -0.00944,0.64134 0.016508,0.96134 0.049785,0.58386 0.096717,1.16889 0.1619324,1.75133 0.047797,0.55879 0.1308276,1.11169 0.2411148,1.66116 0.063772,0.34348 0.1180315,0.68724 0.1996933,1.02707 0.05379,0.13534 0.1215616,0.26672 0.2047372,0.38654 0.04316,0.0747 0.00206,0.16687 0.06072,0.23159 0.062211,0.008 0.1150954,0.0525 0.1775164,0.0752 0.09311,0.003 0.1803836,-0.0147 0.270378,-0.0359 0,0 -0.3803171,0.28846 -0.3803171,0.28846 v 0 c -0.096898,0.0178 -0.1923857,0.0388 -0.2907031,0.016 -0.064869,-0.0277 -0.1359752,-0.0554 -0.1927922,-0.0943 -0.057263,-0.0741 -0.040747,-0.14996 -0.060206,-0.23685 -0.085629,-0.12569 -0.1556771,-0.26226 -0.2088703,-0.40477 -0.0771,-0.34239 -0.1329351,-0.68713 -0.1917648,-1.03306 -0.1084908,-0.55155 -0.1903083,-1.10638 -0.23900323,-1.66673 -0.0651586,-0.58205 -0.11080565,-1.16666 -0.16803409,-1.74949 -0.0292692,-0.32151 -0.0771842,-0.64418 -0.0312288,-0.96671 0.0193352,-0.13467 0.0566767,-0.26316 0.0959242,-0.38964 0.015005,-0.0802 0.12186872,-0.11492 0.17873422,-0.16459 0.2965115,-0.16945 0.5827603,-0.35616 0.9180879,-0.43627 0.2330637,-0.0634 0.4718149,-0.0967 0.7107368,-0.13058 0,0 -0.3901001,0.28343 -0.3901001,0.28343 z"
       inkscape:connector-curvature="0" />
    <path
       style="opacity:1;fill:#ff0000;fill-opacity:0.95999995;fill-rule:nonzero;stroke:#000000;stroke-width:0.3175;stroke-miterlimit:4;stroke-dasharray:none;stroke-opacity:0"
       id="path1504"
       d="m 9.9859469,127.35064 c 0.2490051,-0.0975 0.4936751,-0.21936 0.7610841,-0.25344 0.264156,-0.0232 0.32585,0.24126 0.351202,0.45275 0.01935,0.40913 -0.05992,0.81292 -0.109423,1.21725 -0.04794,0.28965 -0.05088,0.57286 -0.0072,0.86167 0.05602,0.24025 0.148741,0.46918 0.212625,0.70692 0.07078,0.26686 0.180816,0.52045 0.264187,0.78313 0.06271,0.22189 0.127761,0.44094 0.163302,0.66923 0.03192,0.20163 0.03337,0.40603 0.03664,0.60961 0.01686,0.14633 -0.01547,0.27722 -0.06776,0.41185 -0.01312,0.0343 -0.02936,0.0673 -0.04402,0.10087 -0.01387,0.0244 -0.0088,0.0596 -0.0085,0.0889 4.24e-4,0.006 1.99e-4,0.0133 2.91e-4,0.0196 -0.385905,0.32958 -0.423779,0.20734 -0.776626,0.26929 -0.140473,0.0278 -0.281376,0.0534 -0.42309,0.0739 0,0 0.383047,-0.28711 0.383047,-0.28711 v 0 c 0.141528,-0.022 0.282327,-0.0479 0.423188,-0.0737 0.292945,-0.0345 0.59742,-0.0822 -0.03875,0.24189 -3.97e-4,-0.007 -0.0013,-0.0151 -9e-4,-0.0226 -1.83e-4,-0.0379 0.0025,-0.0762 -0.0039,-0.11366 0.02026,-0.0296 0.0366,-0.0617 0.05069,-0.0949 0.0558,-0.12945 0.09774,-0.25231 0.07963,-0.39626 -0.0012,-0.2018 -0.0043,-0.40421 -0.03193,-0.60447 -0.03387,-0.22642 -0.09864,-0.44291 -0.16008,-0.66283 -0.08065,-0.26436 -0.190003,-0.51886 -0.263402,-0.78563 -0.06481,-0.2392 -0.158494,-0.46942 -0.216782,-0.7108 -0.0447,-0.29432 -0.04363,-0.5814 0.0078,-0.87654 0.04979,-0.40034 0.12915,-0.80007 0.110306,-1.20524 -0.02055,-0.19641 -0.07002,-0.42111 -0.312737,-0.38656 -0.264217,0.0464 -0.5101819,0.16195 -0.755067,0.26782 0,0 0.3761031,-0.30084 0.3761031,-0.30084 z"
       inkscape:connector-curvature="0" />
    <path
       style="opacity:1;fill:#000000;fill-opacity:0.95999995;fill-rule:nonzero;stroke:#000000;stroke-width:0.3175;stroke-miterlimit:4;stroke-dasharray:none;stroke-opacity:0"
       id="path1506"
       d="m 14.87397,130.53588 c 0.482835,-0.0668 0.971961,-0.0727 1.458544,-0.084 0.616965,-0.0116 1.234069,-0.0139 1.851127,-0.0157 0.27642,-0.0159 0.554082,-0.0431 0.823725,-0.10841 0.05898,-0.0159 0.05095,-0.038 0.08593,0.0229 0,0 -0.425273,0.23508 -0.425273,0.23508 v 0 c 0.03171,0.0376 -0.01266,0.0212 -0.04488,0.0342 -0.268692,0.0536 -0.542387,0.0795 -0.815972,0.0899 -0.615359,-2.7e-4 -1.230777,-2.7e-4 -1.84602,0.0133 -0.490784,0.0136 -0.985484,0.0202 -1.470566,0.103 0,0 0.38338,-0.29027 0.38338,-0.29027 z"
       inkscape:connector-curvature="0" />
    <path
       style="opacity:1;fill:#000000;fill-opacity:0.95999995;fill-rule:nonzero;stroke:#000000;stroke-width:0.3175;stroke-miterlimit:4;stroke-dasharray:none;stroke-opacity:0"
       id="path1508"
       d="m 18.1581,129.27151 c 0.313464,0.22016 0.681894,0.32914 1.049341,0.41994 0.420185,0.0687 0.840167,0.13918 1.260376,0.20882 0.171573,0.0476 0.24412,0.14123 0.09419,0.26813 -0.341605,0.23201 -0.688617,0.45372 -1.01952,0.70135 -0.230843,0.17568 -0.4615,0.36755 -0.589721,0.6327 0,0 -0.433893,0.19848 -0.433893,0.19848 v 0 c 0.116406,-0.27843 0.35516,-0.47746 0.589474,-0.65847 0.326489,-0.2468 0.667972,-0.46914 1.007132,-0.69746 0.157227,-0.0944 0.148603,-0.11176 -0.03689,-0.17202 -0.417936,-0.0757 -0.836763,-0.14451 -1.255138,-0.21667 -0.374579,-0.0947 -0.749378,-0.20729 -1.071857,-0.42769 0,0 0.406506,-0.25711 0.406506,-0.25711 z"
       inkscape:connector-curvature="0" />
    <path
       style="opacity:1;fill:#ff0000;fill-opacity:0.95999995;fill-rule:nonzero;stroke:#000000;stroke-width:0.3175;stroke-miterlimit:4;stroke-dasharray:none;stroke-opacity:0"
       id="path1510"
       d="m 25.675148,122.53917 c -0.239806,-0.0643 -0.490094,-0.0478 -0.731061,7.9e-4 -0.257225,0.0472 -0.507361,0.11994 -0.760913,0.18233 -0.145987,0.0392 -0.294707,0.0643 -0.444951,0.0793 -0.218668,0.0132 -0.115853,0.0247 0.337527,-0.21995 0.0026,0.0996 -0.04693,0.18847 -0.07158,0.28354 -0.0952,0.27936 -0.119782,0.57348 -0.164674,0.86311 -0.08329,0.48265 -0.106182,0.97244 -0.122812,1.46104 0.01822,0.56549 0.06199,1.12962 0.08467,1.695 0.01954,0.52313 0.02232,1.04664 0.02577,1.57006 0.0019,0.42914 9.53e-4,0.85829 0.0014,1.28744 0.007,0.38153 -0.01526,0.76412 0.01404,1.14479 0.04794,0.32887 0.0626,0.66165 0.108123,0.99057 0.07674,0.34644 0.144808,0.69384 0.208625,1.04327 0.09075,0.45988 0.121598,0.92768 0.141064,1.39504 -0.006,0.42023 0.04946,0.83612 0.08891,1.25342 0.03467,0.41923 0.04145,0.84012 0.04571,1.26056 0.0027,0.41473 0.0031,0.82947 0.0024,1.24421 -0.0011,0.46099 -0.0019,0.92198 -0.0019,1.38296 5.1e-5,0.40243 0.0016,0.80485 0.0023,1.20727 5.82e-4,0.26176 0.001,0.52353 0.003,0.78529 0.001,0.10017 0.0024,0.20035 0.0019,0.30052 6.09e-4,0.067 8.5e-5,0.13409 4.24e-4,0.20113 0.0033,0.0861 -0.01312,0.0481 0.01778,0.0475 0.02552,0.001 0.05106,0.001 0.07647,-0.001 -0.136342,0.0736 -0.268711,0.15506 -0.409027,0.22075 -0.02434,0.0114 0.02205,-0.0533 0.04533,-0.0667 0.159673,-0.092 0.320373,-0.18252 0.484425,-0.26649 0.06354,-0.0325 0.135119,-0.0463 0.201243,-0.0732 0.306639,-0.0931 0.600942,-0.21868 0.894827,-0.34511 0.158342,-0.074 0.312322,-0.15681 0.464723,-0.24227 0,0 -0.373281,0.30114 -0.373281,0.30114 v 0 c -0.151755,0.0827 -0.304833,0.1632 -0.462406,0.23443 -0.295249,0.12743 -0.593337,0.2467 -0.899189,0.3468 -0.03662,0.0142 -0.07311,0.0287 -0.109854,0.0426 -0.24396,0.092 -0.01801,7.9e-4 0.250875,-0.17135 0.01888,-0.0121 -0.0429,0.0147 -0.06149,0.0272 -0.139243,0.0937 -0.279078,0.1865 -0.418616,0.27976 -0.02744,-0.001 -0.05501,-0.002 -0.08194,-0.008 -0.05732,-0.0198 -0.05485,-0.0538 -0.05155,-0.10534 3.44e-4,-0.0672 -1.87e-4,-0.13438 4.24e-4,-0.20157 -5.03e-4,-0.1008 8.73e-4,-0.20161 0.0019,-0.30241 0.0019,-0.26276 0.0024,-0.52554 0.003,-0.78831 7.41e-4,-0.40324 0.0023,-0.80647 0.0025,-1.20971 2.33e-4,-0.46057 -3.71e-4,-0.92113 -6.88e-4,-1.3817 -9.4e-5,-0.4147 0.0017,-0.82941 -0.0015,-1.24411 -0.0046,-0.41904 -0.0098,-0.83855 -0.04531,-1.25637 -0.03902,-0.41861 -0.09473,-0.83587 -0.08661,-1.25737 -0.0189,-0.46495 -0.04849,-0.93056 -0.140437,-1.3878 -0.06646,-0.34915 -0.134692,-0.6969 -0.212943,-1.0432 -0.04907,-0.32955 -0.05771,-0.66427 -0.107924,-0.99404 -0.03149,-0.38197 -0.0077,-0.76594 -0.01437,-1.14888 10e-4,-0.42951 0.0011,-0.85903 0.0011,-1.28854 -3.44e-4,-0.52354 -0.0037,-1.04717 -0.02132,-1.57046 -0.0221,-0.56629 -0.0656,-1.13128 -0.08708,-1.69753 0.01531,-0.48892 0.03477,-0.97923 0.113742,-1.46284 0.04461,-0.28873 0.06249,-0.5832 0.15505,-0.86256 0.02031,-0.0955 0.06705,-0.18065 0.07165,-0.27435 0.383266,-0.25811 0.262037,-0.26861 0.483932,-0.28576 0.146999,-0.0155 0.292011,-0.0433 0.43511,-0.0805 0.253153,-0.0646 0.505002,-0.13209 0.762237,-0.17949 0.248781,-0.041 0.501861,-0.0533 0.748029,0.012 0,0 -0.396805,0.2737 -0.396805,0.2737 z"
       inkscape:connector-curvature="0" />
    <path
       style="opacity:1;fill:#000000;fill-opacity:0.95999995;fill-rule:nonzero;stroke:#000000;stroke-width:0.3175;stroke-miterlimit:4;stroke-dasharray:none;stroke-opacity:0"
       id="path1512"
       d="m 25.728997,132.2024 c 0.104739,-0.33945 0.343815,-0.61816 0.58249,-0.87301 0.287062,-0.26627 0.716917,-0.65658 1.095293,-0.7257 0.229862,0.0528 0.291745,0.3347 0.347392,0.53389 0.06919,0.29378 0.207661,0.54432 0.448268,0.72747 0.278241,0.17769 0.556477,0.0899 0.831659,-0.0454 0.06272,-0.0354 0.257006,-0.085 0.188169,-0.10627 -0.07425,-0.0229 -0.193315,0.17493 -0.210923,0.0993 -0.01916,-0.0823 0.133509,-0.10389 0.19681,-0.1599 0.187614,-0.16602 0.339778,-0.34898 0.486588,-0.55049 0,0 0.429829,-0.18624 0.429829,-0.18624 v 0 c -0.377706,0.53125 -0.862098,0.91742 -1.459098,1.19695 -0.293246,0.13055 -0.582758,0.2003 -0.865979,0.006 -0.24258,-0.19469 -0.389305,-0.45137 -0.462441,-0.75408 -0.04704,-0.16725 -0.101291,-0.45664 -0.312073,-0.46925 -0.178393,0.0567 -0.143839,0.0517 0.243834,-0.16471 0.03631,-0.0203 -0.06969,0.0454 -0.103783,0.0692 -0.149349,0.10431 -0.293923,0.21617 -0.41983,0.34856 -0.236307,0.2438 -0.477147,0.51659 -0.58147,0.84564 0,0 -0.434735,0.20826 -0.434735,0.20826 z"
       inkscape:connector-curvature="0" />
    <path
       style="opacity:1;fill:#000000;fill-opacity:0.95999995;fill-rule:nonzero;stroke:#000000;stroke-width:0.3175;stroke-miterlimit:4;stroke-dasharray:none;stroke-opacity:0"
       id="path1514"
       d="m 28.813008,129.18875 c -0.08366,0.35714 -0.08922,0.72746 -0.102872,1.09239 0.0011,0.59873 -0.05342,1.19492 -0.08946,1.79205 -0.03194,0.5595 -0.04085,1.11994 -0.04398,1.68023 -0.0011,0.25816 -5.3e-4,0.51633 0.0042,0.77445 2.65e-4,0.0123 5.3e-4,0.0246 7.94e-4,0.037 0,0 -0.431077,0.21986 -0.431077,0.21986 v 0 c 1.79e-4,-0.0126 2.64e-4,-0.0252 5.29e-4,-0.0378 0.0034,-0.26048 0.0052,-0.52096 0.0082,-0.78144 0.0081,-0.56191 0.01804,-1.12393 0.04852,-1.68516 0.03623,-0.59604 0.09164,-1.19126 0.08622,-1.78899 0.0104,-0.36523 0.01503,-0.73449 0.0841,-1.09435 0,0 0.434734,-0.20826 0.434734,-0.20826 z"
       inkscape:connector-curvature="0" />
    <path
       style="opacity:1;fill:#000000;fill-opacity:0.95999995;fill-rule:nonzero;stroke:#000000;stroke-width:0.3175;stroke-miterlimit:4;stroke-dasharray:none;stroke-opacity:0"
       id="path1516"
       d="m 31.125149,133.22014 c -0.07215,0.4611 -0.09427,0.92871 -0.138049,1.3933 -0.0671,0.62776 -0.127042,1.25225 -0.125698,1.88403 0.02312,0.21866 -0.02117,0.51998 0.111273,0.71648 0,0 -0.419005,0.24263 -0.419005,0.24263 v 0 c -0.119322,-0.22095 -0.09447,-0.508 -0.10737,-0.74772 0.004,-0.63347 0.0633,-1.26 0.12791,-1.88976 0.04107,-0.46305 0.06438,-0.92752 0.118253,-1.38914 0,0 0.432686,-0.20982 0.432686,-0.20982 z"
       inkscape:connector-curvature="0" />
    <path
       style="opacity:1;fill:#000000;fill-opacity:0.95999995;fill-rule:nonzero;stroke:#000000;stroke-width:0.3175;stroke-miterlimit:4;stroke-dasharray:none;stroke-opacity:0"
       id="path1518"
       d="m 30.622703,133.30075 c 0.289533,-0.25134 0.613373,-0.46067 0.968491,-0.6094 0.328054,-0.0463 0.398375,0.34991 0.449109,0.59189 0.04802,0.43877 -0.07743,0.8684 -0.221517,1.27812 -0.184859,0.46866 -0.656437,0.63873 -1.071822,0.86528 -0.04889,0.0228 -0.09777,0.0456 -0.146661,0.0684 0,0 0.370684,-0.29488 0.370684,-0.29488 v 0 c 0.04888,-0.0228 0.09776,-0.0457 0.146645,-0.0685 -0.08697,0.0547 -0.176564,0.10549 -0.260897,0.16419 -0.04346,0.0303 0.09325,-0.0504 0.138017,-0.0787 0.17626,-0.11137 0.322114,-0.25877 0.396555,-0.45634 0.149029,-0.40055 0.276481,-0.8228 0.233524,-1.2549 -0.04565,-0.21623 -0.104868,-0.59914 -0.409078,-0.51752 -0.184264,0.0831 -0.172474,0.082 0.215834,-0.1429 0.03385,-0.0196 -0.06686,0.0408 -0.09872,0.0635 -0.01519,0.0108 -0.175877,0.13864 -0.190408,0.15001 -0.02469,0.0193 -0.04969,0.0383 -0.07454,0.0574 0,0 -0.445217,0.18441 -0.445217,0.18441 z"
       inkscape:connector-curvature="0" />
    <path
       style="opacity:1;fill:#000000;fill-opacity:0.95999995;fill-rule:nonzero;stroke:#000000;stroke-width:0.3175;stroke-miterlimit:4;stroke-dasharray:none;stroke-opacity:0"
       id="path1520"
       d="m 32.720346,133.33761 c -0.006,0.41223 -0.0062,0.82455 -0.0069,1.23682 0.0019,0.57376 0.0066,1.14645 -0.03411,1.71897 -0.05048,0.32329 -0.02045,0.66035 -0.08536,0.98107 -0.581139,1.13089 -0.438066,-0.0748 -0.425906,-0.15499 0.04204,-0.3552 0.183759,-0.68223 0.339403,-1.00024 0.195193,-0.40279 0.343167,-0.43941 0.762164,-0.66397 0.175929,0.11567 0.154813,0.39023 0.166883,0.57685 0.01873,0.30752 -0.03622,0.61323 -0.07267,0.91766 7.94e-4,0.0326 0.0013,0.0653 0.0021,0.0979 0,0 -0.425852,0.21848 -0.425852,0.21848 v 0 c -0.0013,-0.035 -0.0024,-0.0701 -0.0037,-0.10509 0.03775,-0.30199 0.09787,-0.60529 0.07845,-0.91063 -0.0085,-0.12999 0.01675,-0.44374 -0.129858,-0.50284 0.715783,-0.43977 0.173937,-0.12875 0.0531,0.1767 -0.157673,0.31208 -0.30353,0.63405 -0.342249,0.98561 -0.07456,0.45212 0.116877,0.31785 -0.462534,0.61043 -0.0141,0.007 0.01865,-0.0255 0.028,-0.0383 0.09038,-0.31398 0.03922,-0.66091 0.102174,-0.98069 0.04542,-0.57129 0.04036,-1.14278 0.03522,-1.71562 -7.94e-4,-0.40992 -7.94e-4,-0.81989 -0.0069,-1.22977 0,0 0.428567,-0.21837 0.428567,-0.21837 z"
       inkscape:connector-curvature="0" />
    <path
       style="opacity:1;fill:#000000;fill-opacity:0.95999995;fill-rule:nonzero;stroke:#000000;stroke-width:0.3175;stroke-miterlimit:4;stroke-dasharray:none;stroke-opacity:0"
       id="path1522"
       d="m 34.547061,134.66198 c 7.94e-4,0.29915 -0.01894,0.59954 0.01016,0.89762 0.07077,0.29837 0.201289,0.28605 0.434829,0.1549 -0.09754,0.0485 -0.185589,0.12525 -0.292626,0.14547 -0.05373,0.0102 0.08148,-0.0731 0.119205,-0.11271 0.127421,-0.1337 0.226145,-0.28297 0.309843,-0.44651 0.04433,-0.10099 0.07379,-0.20799 0.08503,-0.31748 0.140211,-0.0459 0.273455,-0.12754 0.420634,-0.13758 0.03745,-0.003 -0.01384,0.0738 -0.02222,0.1104 -0.01122,0.049 -0.02482,0.0975 -0.03657,0.14639 -0.05045,0.20994 -0.08259,0.41807 -0.110228,0.63219 -0.04916,0.56276 -0.117621,1.12393 -0.228134,1.67807 -0.09835,0.46834 -0.277964,0.83208 -0.655516,1.12967 -0.26388,0.14402 -0.683366,0.56193 -0.993442,0.33673 -0.0082,-0.02 -0.01633,-0.0399 -0.0245,-0.0599 0,0 0.422637,-0.23362 0.422637,-0.23362 v 0 c 0.0028,0.0112 0.0055,0.0224 0.0083,0.0336 0.06241,0.0382 0.108022,0.0464 0.182925,0.0326 0.03557,-0.007 0.132538,-0.0509 0.10496,-0.0275 -0.0479,0.0406 -0.50874,0.31033 -0.138816,0.0924 0.388276,-0.28199 0.57231,-0.63459 0.674762,-1.10127 0.115964,-0.55182 0.184065,-1.11221 0.228713,-1.67415 0.03022,-0.26495 0.07942,-0.51645 0.13524,-0.77633 0.0078,-0.0363 -0.0093,-0.0858 0.01918,-0.10961 0.135911,-0.11384 0.30004,-0.18894 0.450059,-0.28342 -0.0217,0.11149 -0.04188,0.22599 -0.08747,0.33184 -0.211651,0.42666 -0.504624,0.6898 -0.944303,0.90883 -0.270106,0.12327 -0.4113,0.0668 -0.483349,-0.23342 -0.02946,-0.29841 -0.008,-0.59888 -0.01894,-0.89837 0,0 0.429633,-0.21891 0.429633,-0.21891 z"
       inkscape:connector-curvature="0" />
    <path
       style="opacity:1;fill:#000000;fill-opacity:0.95999995;fill-rule:nonzero;stroke:#000000;stroke-width:0.3175;stroke-miterlimit:4;stroke-dasharray:none;stroke-opacity:0"
       id="path1524"
       d="m 37.06782,133.93419 c -0.230409,0.19332 -0.441465,0.4084 -0.627118,0.64485 -0.122251,0.16634 -0.03947,0.27273 0.07951,0.40159 0.193122,0.18047 0.351941,0.36764 0.457335,0.61108 0.119356,0.30121 0.101912,0.58974 -0.04829,0.87234 -0.214577,0.27124 -0.507529,0.56637 -0.862959,0.62667 0,0 0.383447,-0.29317 0.383447,-0.29317 v 0 c 0.16387,-0.056 0.142073,-0.0522 -0.297725,0.19115 -0.0295,0.0163 0.05446,-0.0398 0.08062,-0.0611 0.09835,-0.08 0.179335,-0.17453 0.262539,-0.26972 0.159062,-0.26765 0.18388,-0.53939 0.06817,-0.83347 -0.102682,-0.2393 -0.263033,-0.41877 -0.453191,-0.59469 -0.130101,-0.13997 -0.230233,-0.27766 -0.106797,-0.46323 0.183171,-0.23648 0.388575,-0.45696 0.619236,-0.64793 0,0 0.445217,-0.18441 0.445217,-0.18441 z"
       inkscape:connector-curvature="0" />
    <path
       style="opacity:1;fill:#ff0000;fill-opacity:0.95999995;fill-rule:nonzero;stroke:#000000;stroke-width:0.3175;stroke-miterlimit:4;stroke-dasharray:none;stroke-opacity:0"
       id="path1526"
       d="m 37.020457,121.42295 c 0.397105,-0.0133 0.791126,0.0377 1.187392,0.0456 0.395721,-0.002 0.791244,-0.0179 1.186556,-0.035 0.222197,0.008 0.252134,0.13658 0.268126,0.3329 -0.03174,0.44081 -0.15671,0.86733 -0.233455,1.30154 -0.15561,0.75294 -0.207158,1.51998 -0.241679,2.28623 -0.06099,0.94473 -0.103473,1.89026 -0.165756,2.83489 -0.0494,0.85487 -0.129265,1.70774 -0.218924,2.55922 -0.09232,0.76104 -0.215657,1.51767 -0.327779,2.27591 -0.134123,0.82295 -0.255558,1.6472 -0.331703,2.47765 -0.06195,0.75672 -0.07226,1.51622 -0.07669,2.27503 -0.0024,0.51263 -0.02633,1.02893 -0.0966,1.53719 -0.02973,0.27822 -0.113681,0.54304 -0.193464,0.80947 -0.02016,0.13115 -0.07341,0.24749 -0.131683,0.36498 -0.01656,0.0409 -0.07085,0.1154 -0.02666,0.15173 0.0313,0.0446 0.05767,0.0925 0.08217,0.14115 0.0044,0.009 0.0086,0.018 0.01283,0.0271 -0.01415,-0.0465 0.04709,-0.0286 0.08068,-0.0291 0.0076,-1e-4 0.01527,-2.6e-4 0.02289,-5.3e-4 -0.140586,0.0952 -0.277339,0.19638 -0.421759,0.28569 -0.02825,0.0175 -0.15313,-0.003 -0.179605,-0.001 -0.08957,0.007 -0.178043,0.024 -0.26712,0.0356 -0.409655,0.0567 -0.817936,0.12037 -1.229294,0.16605 -0.05128,0.005 -0.102566,0.0107 -0.153847,0.0161 0,0 0.380968,-0.28265 0.380968,-0.28265 v 0 c 0.05037,-0.005 0.100735,-0.01 0.151101,-0.0145 0.41234,-0.0441 0.820716,-0.1115 1.231167,-0.16882 0.121412,-0.0165 0.239546,-0.0335 0.362053,-0.0345 0.03221,-2.5e-4 0.120785,-0.022 0.09663,-5.3e-4 -0.115652,0.10205 -0.242666,0.19045 -0.363998,0.28568 -0.0074,-3e-5 -0.01476,-8e-5 -0.02217,-5e-5 -0.0454,1.3e-4 -0.08426,0.0115 -0.117134,-0.0273 -0.0021,-0.006 -0.003,-0.0117 -0.006,-0.0169 -0.02066,-0.0448 -0.04355,-0.089 -0.07348,-0.12835 -0.05438,-0.0635 -0.03849,-0.13466 1.33e-4,-0.20545 0.06036,-0.11592 0.12202,-0.22714 0.138879,-0.35911 0.08293,-0.26553 0.172405,-0.52857 0.204354,-0.80674 0.07855,-0.50698 0.102537,-1.02423 0.109553,-1.53653 0.0082,-0.76096 0.0186,-1.52264 0.08109,-2.28149 0.07621,-0.83061 0.194646,-1.65552 0.328298,-2.47876 0.111688,-0.75781 0.233373,-1.51413 0.328652,-2.27428 0.09155,-0.85213 0.175786,-1.70549 0.226814,-2.56113 0.06195,-0.94366 0.103952,-1.88818 0.162451,-2.83207 0.03125,-0.76604 0.07806,-1.53321 0.229437,-2.28666 0.07169,-0.42879 0.187647,-0.84983 0.224086,-1.2837 -0.01516,-0.19837 -0.01064,-0.26148 -0.228317,-0.2718 -0.393261,0.0115 -0.786519,0.0272 -1.180007,0.0268 -0.399987,-0.0111 -0.798555,-0.057 -1.199354,-0.0355 0,0 0.390099,-0.28343 0.390099,-0.28343 z"
       inkscape:connector-curvature="0" />
    <path
       style="opacity:1;fill:#000000;fill-opacity:0.95999995;fill-rule:nonzero;stroke:#000000;stroke-width:0.3175;stroke-miterlimit:4;stroke-dasharray:none;stroke-opacity:0"
       id="path1528"
       d="m 41.768535,131.40608 c 0.391752,0.004 0.783524,0.005 1.175292,0.006 0.66665,-0.0117 1.326235,-0.10367 1.983055,-0.21017 0.239146,0.009 0.621218,-0.19949 0.85082,-0.0898 0,0 -0.402322,0.26978 -0.402322,0.26978 v 0 c -0.26207,-0.0735 -0.555514,0.10578 -0.817219,0.097 -0.658746,0.10467 -1.320644,0.19264 -1.988698,0.20519 -0.397013,0.001 -0.794031,0.002 -1.19103,0.006 0,0 0.390102,-0.28343 0.390102,-0.28343 z"
       inkscape:connector-curvature="0" />
    <path
       style="opacity:1;fill:#000000;fill-opacity:0.95999995;fill-rule:nonzero;stroke:#000000;stroke-width:0.3175;stroke-miterlimit:4;stroke-dasharray:none;stroke-opacity:0"
       id="path1530"
       d="m 44.587805,129.98225 c 0.377343,0.1285 0.764672,0.22395 1.143773,0.34674 0.297817,0.12418 0.583702,0.25777 0.632293,0.60511 -0.05892,0.34195 -0.339982,0.60393 -0.55254,0.86401 0,0 -0.432671,0.18429 -0.432671,0.18429 v 0 c 0.207553,-0.25339 0.472583,-0.50553 0.562137,-0.82678 -0.02508,-0.31734 -0.33246,-0.45486 -0.597175,-0.56287 -0.382458,-0.12298 -0.772494,-0.22021 -1.155039,-0.34305 0,0 0.399222,-0.26745 0.399222,-0.26745 z"
       inkscape:connector-curvature="0" />
    <path
       style="opacity:1;fill:#ff0000;fill-opacity:0.95999995;fill-rule:nonzero;stroke:#000000;stroke-width:0.3175;stroke-miterlimit:4;stroke-dasharray:none;stroke-opacity:0"
       id="path1532"
       d="m 52.222619,121.60388 c -0.283504,0.0576 -0.573363,0.0734 -0.861669,0.0871 -0.324948,0.006 -0.64566,0.0638 -0.960247,0.14143 -0.193473,0.049 -0.389466,0.0856 -0.587147,0.11235 -0.13612,0.0239 -0.521896,0.25967 0.305713,-0.18816 0.01278,-0.007 -0.02275,0.0181 -0.03318,0.0282 -0.02818,0.0274 -0.05133,0.0571 -0.07635,0.0873 -0.142764,0.14438 -0.242845,0.31438 -0.323234,0.4993 -0.189494,0.50576 -0.264977,1.0475 -0.30758,1.5832 -0.03351,0.9316 -0.01506,1.8643 -0.0079,2.79627 0.01545,0.9661 -0.03462,1.93173 -0.107776,2.89468 -0.06439,0.76135 -0.09335,1.52481 -0.108955,2.28851 0.01598,0.66121 -0.0597,1.31925 -0.06715,1.9796 0.01307,0.62863 0.03492,1.25699 0.04728,1.88567 0.0094,0.59178 0.01278,1.18362 0.01461,1.77546 -0.01365,0.36666 -0.06091,0.7308 -0.0934,1.09602 0.0037,0.19097 -0.04858,0.37152 -0.09307,0.55488 -0.02524,0.10109 -0.03976,0.20398 -0.04658,0.30781 -0.0034,0.0539 -0.0033,0.1079 -0.0021,0.16184 -7.93e-4,0.0143 0.0052,0.0504 -0.0043,-0.01 0.229105,-0.0515 0.464989,-0.10584 0.696121,-0.15881 0.507598,-0.14512 1.013135,-0.29787 1.519555,-0.4474 0.07474,-0.0227 0.149479,-0.0453 0.224219,-0.068 0,0 -0.370277,0.2859 -0.370277,0.2859 v 0 c -0.07409,0.0221 -0.148172,0.0441 -0.222258,0.0662 -0.508077,0.14901 -1.014164,0.30509 -1.524066,0.44741 -0.23749,0.0555 -0.476287,0.12533 -0.716973,0.15935 -0.03473,-0.0314 -0.03507,-0.021 -0.03466,-0.054 -7.2e-5,-0.0554 7.94e-4,-0.1107 0.0019,-0.16605 0.0079,-0.10664 0.01947,-0.21294 0.04678,-0.31665 0.0421,-0.18262 0.104471,-0.36002 0.09913,-0.55041 0.03542,-0.36576 0.0882,-0.73001 0.105875,-1.09733 -1.19e-4,-0.59226 -2.64e-4,-1.18456 -0.01029,-1.77676 -0.01148,-0.62904 -0.03589,-1.25767 -0.04838,-1.88667 0.0075,-0.66094 0.08404,-1.31951 0.06959,-1.98132 0.01601,-0.76569 0.04825,-1.53105 0.114541,-2.29422 0.07677,-0.96248 0.130416,-1.92789 0.114689,-2.89388 -0.0078,-0.93114 -0.02918,-1.86274 -0.0052,-2.79373 0.03633,-0.53682 0.108212,-1.07879 0.285686,-1.58914 0.07297,-0.1864 0.164156,-0.36831 0.311926,-0.50742 0.142266,-0.20972 0.375822,-0.37487 0.632933,-0.40691 0.194683,-0.0259 0.387258,-0.0639 0.577811,-0.11157 0.316169,-0.0753 0.638815,-0.12628 0.964369,-0.13337 0.289171,-0.0151 0.580646,-0.0324 0.863206,-0.0999 0,0 -0.382924,0.29281 -0.382924,0.29281 z"
       inkscape:connector-curvature="0" />
    <path
       style="opacity:1;fill:#000000;fill-opacity:0.95999995;fill-rule:nonzero;stroke:#000000;stroke-width:0.3175;stroke-miterlimit:4;stroke-dasharray:none;stroke-opacity:0"
       id="path1534"
       d="m 52.066409,130.28446 c -0.07898,0.34962 -0.150085,0.70085 -0.222634,1.05188 -0.06229,0.36343 -0.146706,0.7224 -0.211854,1.08535 -0.04601,0.10401 0.0039,0.15607 0.0347,0.23882 -0.148693,0.0622 -0.291814,0.13982 -0.446079,0.18645 -0.04093,0.0124 -0.04061,-0.32941 -0.03802,-0.36006 0.05413,-0.32758 0.162631,-0.64284 0.233333,-0.96724 0.07056,-0.36862 0.09745,-0.7434 0.110191,-1.11789 0.01894,-0.18899 -0.01701,-0.38338 0.01484,-0.57068 0.08195,-0.2643 0.358778,-0.4052 0.622094,-0.46812 0.207206,-0.0731 0.418362,-0.13632 0.632706,-0.18569 0.18365,-0.0346 0.369382,-0.0538 0.555321,-0.0705 0,0 -0.383657,0.284 -0.383657,0.284 v 0 c -0.184261,0.0164 -0.368469,0.0361 -0.549629,0.0749 -0.214863,0.0532 -0.426831,0.11863 -0.635479,0.19239 -0.177779,0.0729 -0.152739,0.066 0.30602,-0.19357 0.05728,-0.0324 -0.171599,0.14857 -0.113202,0.15772 -0.05457,0.17905 0.005,0.38134 -0.02455,0.56542 -0.01741,0.37753 -0.04392,0.75522 -0.111829,1.1276 -0.06658,0.32208 -0.170494,0.63502 -0.226941,0.95861 -0.0575,0.44858 0.2378,0.22975 -0.380645,0.60301 0.03449,0.0296 -0.0235,-0.0387 -0.02519,-0.0427 -0.02857,-0.0673 -0.02265,-0.13453 -0.003,-0.20381 0.07166,-0.36345 0.157258,-0.72412 0.218622,-1.08943 0.07045,-0.34931 0.144918,-0.69798 0.210119,-1.04815 0,0 0.434737,-0.20826 0.434737,-0.20826 z"
       inkscape:connector-curvature="0" />
    <path
       style="opacity:1;fill:#000000;fill-opacity:0.95999995;fill-rule:nonzero;stroke:#000000;stroke-width:0.3175;stroke-miterlimit:4;stroke-dasharray:none;stroke-opacity:0"
       id="path1536"
       d="m 51.629923,131.52783 c 0.297133,-0.0635 0.592537,-0.13562 0.892442,-0.18903 0,0 -0.378989,0.28567 -0.378989,0.28567 v 0 c -0.303379,0.0538 -0.600374,0.13658 -0.903554,0.18678 0,0 0.390101,-0.28342 0.390101,-0.28342 z"
       inkscape:connector-curvature="0" />
    <path
       style="opacity:1;fill:#000000;fill-opacity:0.95999995;fill-rule:nonzero;stroke:#000000;stroke-width:0.3175;stroke-miterlimit:4;stroke-dasharray:none;stroke-opacity:0"
       id="path1538"
       d="m 51.51153,132.88646 c 0.154874,0.004 0.07011,0.003 0.254323,0.003 0,0 -0.383982,0.27884 -0.383982,0.27884 v 0 c -0.191315,-2.7e-4 -0.102301,0.003 -0.267147,-0.008 0,0 0.396806,-0.2737 0.396806,-0.2737 z"
       inkscape:connector-curvature="0" />
    <path
       style="opacity:1;fill:#000000;fill-opacity:0.95999995;fill-rule:nonzero;stroke:#000000;stroke-width:0.3175;stroke-miterlimit:4;stroke-dasharray:none;stroke-opacity:0"
       id="path1540"
       d="m 51.884616,132.60555 c 0.323115,-0.0934 0.630174,-0.23949 0.956265,-0.32096 0.03869,-0.008 0.07739,-0.0159 0.116076,-0.0238 0,0 -0.380386,0.28849 -0.380386,0.28849 v 0 c -0.03725,0.008 -0.0745,0.0158 -0.111747,0.0236 -0.326517,0.0902 -0.636876,0.23235 -0.963586,0.32296 0,0 0.383378,-0.29027 0.383378,-0.29027 z"
       inkscape:connector-curvature="0" />
    <path
       style="opacity:1;fill:#000000;fill-opacity:0.95999995;fill-rule:nonzero;stroke:#000000;stroke-width:0.3175;stroke-miterlimit:4;stroke-dasharray:none;stroke-opacity:0"
       id="path1542"
       d="m 53.90407,131.14619 c -0.02122,0.25869 -0.09175,0.50908 -0.120219,0.76634 -0.01855,0.2692 0.05568,0.25542 -0.410437,0.32885 -0.03262,0.005 0.02854,-0.0596 0.0428,-0.0893 0.131844,-0.29359 0.353536,-0.53362 0.564933,-0.77193 0.248322,-0.19801 0.497578,-0.61933 0.776115,-0.27916 0.101648,0.15378 0.0706,0.32729 0.04475,0.49836 -0.01357,0.0804 -0.0069,0.0427 -0.01976,0.11315 0,0 -0.434412,0.21081 -0.434412,0.21081 v 0 c 0.01484,-0.0702 0.0072,-0.0327 0.02262,-0.11265 0.02657,-0.1566 0.06733,-0.31937 -0.02609,-0.46162 -0.01878,-0.0218 -0.04825,-0.0634 -0.07913,-0.0742 -0.01095,-0.004 -0.04442,0.009 -0.03474,0.002 0.684625,-0.45347 0.319709,-0.19792 0.189164,-0.0815 -0.211762,0.23272 -0.437044,0.46811 -0.567626,0.75782 -0.123262,0.26874 -0.622457,0.61368 -0.49661,0.17134 0.02846,-0.25559 0.09936,-0.50312 0.120078,-0.76033 0,0 0.428567,-0.21836 0.428567,-0.21836 z"
       inkscape:connector-curvature="0" />
    <path
       style="opacity:1;fill:#000000;fill-opacity:0.95999995;fill-rule:nonzero;stroke:#000000;stroke-width:0.3175;stroke-miterlimit:4;stroke-dasharray:none;stroke-opacity:0"
       id="path1544"
       d="m 55.878396,130.75338 c -0.03089,0.0182 -0.124251,0.0717 -0.09266,0.0547 0.09761,-0.0524 0.186349,-0.12399 0.290738,-0.16115 0.05227,-0.0186 -0.08878,0.0668 -0.130006,0.10394 -0.125153,0.11272 -0.217286,0.24616 -0.312719,0.38337 -0.09855,0.19205 -0.203573,0.41739 -0.06078,0.60882 0.214191,0.15421 0.52496,0.0144 0.745916,-0.0667 0.05159,-0.0266 0.204658,-0.10939 0.154755,-0.0798 -0.524516,0.31138 -0.214234,0.1171 -0.120714,0.0415 0.104913,-0.0848 0.193183,-0.18464 0.279651,-0.2873 0.04207,-0.0529 0.0825,-0.10731 0.116994,-0.1655 0.0026,-0.004 0.0048,-0.0174 0.0075,-0.0131 0.01095,0.0174 0.01392,0.0388 0.02085,0.0582 0.130617,-0.0733 0.255947,-0.15692 0.39185,-0.21986 0.0047,-0.002 -0.0075,0.0101 -0.05712,0.12369 -0.04216,0.0966 -0.0725,0.19236 -0.09942,0.29418 -0.02991,0.16796 -0.125621,0.37564 0.1279,0.35706 0.03892,-0.0111 0.07875,-0.0194 0.116758,-0.0333 0.141345,-0.0517 0.360812,-0.18001 0.290184,-0.13682 -0.511267,0.31258 -0.122613,0.0334 0.0093,-0.10726 0.156794,-0.21888 0.301659,-0.43242 0.0078,-0.59258 -0.254836,-0.0916 -0.502269,-0.0116 -0.734787,0.10133 0,0 0.370705,-0.29443 0.370705,-0.29443 v 0 c 0.247528,-0.10646 0.504552,-0.17547 0.765138,-0.0669 0.306964,0.1925 0.205176,0.41052 0.02659,0.6698 -0.321302,0.36392 -0.768403,0.63029 -1.240565,0.74064 -0.27192,-0.0352 -0.214842,-0.22156 -0.169849,-0.4312 0.01191,-0.0495 0.111699,-0.40438 0.144457,-0.42903 0.136602,-0.10279 0.286493,-0.18661 0.429741,-0.27992 0.01434,0.0155 0.0325,0.0281 0.04303,0.0463 0.0205,0.0356 -0.126503,0.16409 -0.127016,0.19177 -0.300321,0.36454 -0.685527,0.6198 -1.125947,0.80299 -0.244774,0.0849 -0.563407,0.21302 -0.78644,0.0205 -0.152638,-0.21369 -0.06841,-0.44329 0.03949,-0.66384 0.287938,-0.4234 0.556688,-0.64538 1.054854,-0.87093 0,0 -0.376103,0.30085 -0.376103,0.30085 z"
       inkscape:connector-curvature="0" />
    <path
       style="opacity:1;fill:#000000;fill-opacity:0.95999995;fill-rule:nonzero;stroke:#000000;stroke-width:0.3175;stroke-miterlimit:4;stroke-dasharray:none;stroke-opacity:0"
       id="path1546"
       d="m 58.710028,130.99027 c -0.01799,-0.16342 -0.06233,-0.30716 -0.23926,-0.33211 0.02474,-0.0306 -0.280522,0.13152 -0.210987,0.0974 0.09068,-0.0445 0.170331,-0.1233 0.270449,-0.13675 0.06109,-0.008 -0.0962,0.0773 -0.141224,0.11939 -0.133649,0.12496 -0.151871,0.15793 -0.2653,0.29937 -0.139375,0.19688 -0.296069,0.47811 -0.05925,0.65637 0.110802,0.0331 0.222163,0.007 0.326033,-0.0395 0.05156,-0.0231 0.200702,-0.1033 0.148627,-0.0814 -0.233751,0.0982 -0.363479,0.22015 -0.03499,-0.0366 0.444616,-0.36 0.727652,-0.8332 0.943531,-1.35386 0.106338,-0.3351 0.241829,-0.68906 0.202639,-1.04663 -0.05071,-0.22058 -0.183402,-0.15944 0.367437,-0.27776 0.03109,-0.007 -0.01902,0.0607 -0.02699,0.0915 -0.01069,0.0413 -0.01931,0.0832 -0.02899,0.12479 -0.102412,0.44856 -0.2379,0.88812 -0.367688,1.32918 -0.102161,0.33807 -0.163762,0.70505 0.0027,1.03065 0.121131,0.13034 0.268224,0.099 0.424944,0.0658 0,0 -0.379248,0.28595 -0.379248,0.28595 v 0 c -0.177866,0.0264 -0.335497,0.0375 -0.459904,-0.11562 -0.169333,-0.33849 -0.117975,-0.71524 -0.0094,-1.06717 0.127725,-0.43835 0.265041,-0.87433 0.35958,-1.32153 0.0046,-0.0228 0.03899,-0.20812 0.04956,-0.21677 0.373139,-0.30526 0.426201,-0.44173 0.492599,-0.15109 0.0388,0.36746 -0.097,0.72945 -0.206195,1.07443 -0.212466,0.52546 -0.489437,1.00597 -0.931389,1.37446 -0.337974,0.27353 -0.196734,0.17308 -0.767109,0.50622 -0.157129,0.0918 -0.336722,0.15629 -0.511803,0.0798 -0.257378,-0.22094 -0.1285,-0.48092 0.03268,-0.72585 0.292142,-0.37879 0.689203,-0.7478 1.173996,-0.83809 0.188891,0.056 0.246547,0.20068 0.274558,0.38664 0,0 -0.429635,0.21891 -0.429635,0.21891 z"
       inkscape:connector-curvature="0" />
    <path
       style="opacity:1;fill:#000000;fill-opacity:0.95999995;fill-rule:nonzero;stroke:#000000;stroke-width:0.3175;stroke-miterlimit:4;stroke-dasharray:none;stroke-opacity:0"
       id="path1548"
       d="m 61.197325,130.40621 c -0.08122,0.25129 -0.182665,0.49921 -0.236984,0.75796 -0.008,0.0716 -0.03952,0.29207 0.06654,0.31496 0,0 -0.404866,0.26447 -0.404866,0.26447 v 0 c -0.111339,-0.0842 -0.107659,-0.24474 -0.08992,-0.3716 0.04764,-0.25913 0.152866,-0.50614 0.230489,-0.75753 0,0 0.434737,-0.20826 0.434737,-0.20826 z"
       inkscape:connector-curvature="0" />
    <path
       style="opacity:1;fill:#000000;fill-opacity:0.95999995;fill-rule:nonzero;stroke:#000000;stroke-width:0.3175;stroke-miterlimit:4;stroke-dasharray:none;stroke-opacity:0"
       id="path1550"
       d="m 62.438573,130.53328 c 0.05551,0.24296 0.04751,0.48959 0.0231,0.73555 -0.02379,0.0151 0.0066,0.1242 -0.01969,0.13957 -0.0071,0.004 0.0021,-0.0276 -0.0054,-0.0243 -0.396978,0.1759 -0.499483,0.33723 -0.373393,0.15859 0.07416,-0.10335 0.151318,-0.20451 0.228356,-0.30572 0,0 0.443532,-0.19038 0.443532,-0.19038 v 0 c -0.07827,0.0998 -0.155826,0.20018 -0.230143,0.30297 -0.140581,0.22108 -0.596749,0.4863 -0.473265,0.13222 0.031,-0.24118 0.04508,-0.48371 -0.0172,-0.7218 0,0 0.424069,-0.22672 0.424069,-0.22672 z"
       inkscape:connector-curvature="0" />
    <path
       style="opacity:1;fill:#000000;fill-opacity:0.95999995;fill-rule:nonzero;stroke:#000000;stroke-width:0.3175;stroke-miterlimit:4;stroke-dasharray:none;stroke-opacity:0"
       id="path1552"
       d="m 62.305048,130.27914 c -0.02806,0.2609 -0.10732,0.51156 -0.172452,0.76466 -0.01304,0.0126 -0.05098,0.2719 -0.06187,0.21833 0,0 -0.410374,0.26043 -0.410374,0.26043 v 0 c -0.05169,-0.0745 0.03527,-0.1897 0.04148,-0.27303 0.06649,-0.24857 0.145481,-0.49469 0.17358,-0.75148 0,0 0.429635,-0.21891 0.429636,-0.21891 z"
       inkscape:connector-curvature="0" />
    <path
       style="opacity:1;fill:#000000;fill-opacity:0.95999995;fill-rule:nonzero;stroke:#000000;stroke-width:0.3175;stroke-miterlimit:4;stroke-dasharray:none;stroke-opacity:0"
       id="path1554"
       d="m 63.701596,130.74678 c 0.01889,-0.2263 -0.06885,-0.40187 -0.252831,-0.52819 -0.283363,-0.13135 -0.549822,0.0191 -0.797581,0.15861 0.08429,-0.0454 0.160195,-0.11219 0.252868,-0.13626 0.02154,-0.006 -0.106778,0.0669 -0.254342,0.21757 -0.116501,0.11896 -0.163488,0.22678 -0.209341,0.38393 -0.03134,0.29402 0.02111,0.41484 0.303295,0.50721 0.18773,0.0275 0.362828,-0.001 0.538954,-0.0692 0.06686,-0.0258 0.243448,-0.1426 0.195521,-0.0893 -0.05377,0.0598 -0.140874,0.14277 -0.21445,0.11037 -0.06391,-0.0282 0.10744,-0.0892 0.161161,-0.13384 0.182758,-0.17911 0.322947,-0.39166 0.388072,-0.63968 0.0066,-0.0387 0.01789,-0.0662 0.0042,-0.10384 -0.0043,-0.0119 -0.04446,0.0244 -0.03306,0.0188 0.355422,-0.17303 0.460822,-0.31003 0.301678,-0.12776 -0.206317,0.37254 -0.327613,0.79254 -0.453266,1.19848 -0.157927,0.60087 -0.260361,1.21405 -0.385839,1.82201 -0.09823,0.47143 -0.166402,0.95495 -0.388141,1.38711 -0.308634,0.42287 -0.638358,0.66602 -1.120259,0.4078 -0.289521,-0.22034 -0.466818,-0.55166 -0.435198,-0.92259 0.0074,-0.0863 0.03349,-0.17004 0.05024,-0.25506 0.188884,-0.53748 0.611018,-0.90999 1.045374,-1.25242 0,0 0.425696,-0.17022 0.425696,-0.17022 v 0 c -0.431445,0.33277 -0.854638,0.6946 -1.051631,1.21965 -0.01791,0.0816 -0.04496,0.1618 -0.05375,0.24492 -0.03745,0.35416 0.132551,0.67263 0.415473,0.8753 0.113757,0.054 0.143179,0.0837 0.269671,0.0856 0.04128,5.3e-4 0.152331,-0.0459 0.122653,-0.0172 -0.08446,0.0817 -0.193755,0.13422 -0.298577,0.18727 -0.04065,0.0206 0.07251,-0.0558 0.103925,-0.0888 0.03537,-0.0371 0.06365,-0.0804 0.09547,-0.12064 0.23481,-0.42563 0.305705,-0.90831 0.403403,-1.37961 0.127968,-0.60814 0.229624,-1.22195 0.381973,-1.82486 0.12327,-0.40769 0.24642,-0.82378 0.432851,-1.20692 0.13445,-0.21259 0.641416,-0.57966 0.600371,-0.18503 -0.05767,0.25891 -0.204491,0.4807 -0.386051,0.67133 -0.412268,0.36188 -0.942673,0.70094 -1.511025,0.62499 -0.298164,-0.11225 -0.363543,-0.25443 -0.337399,-0.56964 0.02702,-0.10691 0.03972,-0.19165 0.09942,-0.28751 0.19794,-0.31785 0.623062,-0.49471 0.908023,-0.67861 0.265758,-0.14167 0.541544,-0.27237 0.833075,-0.11845 0.187963,0.13959 0.291399,0.3262 0.279014,0.56572 0,0 -0.429636,0.21891 -0.429636,0.21891 z"
       inkscape:connector-curvature="0" />
    <path
       style="opacity:1;fill:#ff0000;fill-opacity:0.95999995;fill-rule:nonzero;stroke:#000000;stroke-width:0.3175;stroke-miterlimit:4;stroke-dasharray:none;stroke-opacity:0"
       id="path1556"
       d="m 64.774854,121.4037 c 0.351481,-0.0507 0.700744,-0.11435 1.052933,-0.16123 0.259972,-0.007 0.532641,-0.0924 0.791763,-0.0442 0.218253,0.11944 0.149747,0.38901 0.13176,0.59427 -0.101703,0.60194 -0.233225,1.19938 -0.360259,1.79665 -0.24484,1.10013 -0.454919,2.2066 -0.637146,3.31865 -0.189743,1.21859 -0.414306,2.43107 -0.651634,3.64114 -0.23658,1.1924 -0.496782,2.37955 -0.673817,3.58261 -0.154697,1.11702 -0.273868,2.23875 -0.397936,3.35952 -0.07853,0.82531 -0.133006,1.65251 -0.200925,2.47879 -0.02371,0.306 -0.04643,0.61216 -0.06076,0.91877 0.01701,0.20547 -0.273156,0.32805 -0.470699,0.30575 -0.152982,-0.0527 -0.312862,-0.0823 -0.475446,-0.10027 -0.471929,-0.0337 -0.945565,-0.0333 -1.41846,-0.0349 -0.07135,-0.005 -0.142698,-0.0104 -0.214048,-0.0156 0,0 0.38182,-0.27323 0.38182,-0.27323 v 0 c 0.06988,0.005 0.13975,0.01 0.209627,0.0149 0.476356,0.004 0.953463,10e-4 1.42894,0.0336 0.164809,0.019 0.322506,0.0567 0.482555,0.0942 0.202348,0.0159 -0.429958,0.44163 -0.355748,0.19178 0.02609,-0.31001 0.05346,-0.61991 0.08063,-0.92982 0.0763,-0.82862 0.132654,-1.6586 0.214172,-2.48666 0.128514,-1.12193 0.249224,-2.24508 0.403257,-3.36382 0.177853,-1.20361 0.43607,-2.3918 0.673433,-3.58474 0.237726,-1.20987 0.465376,-2.42168 0.653418,-3.64044 0.180271,-1.10954 0.385879,-2.21407 0.621652,-3.31329 0.121099,-0.59264 0.244689,-1.18571 0.34372,-1.7822 0.01318,-0.16782 0.09377,-0.44078 -0.100976,-0.52917 -0.257175,-0.0289 -0.519641,0.0344 -0.775845,0.0493 -0.354463,0.0479 -0.707113,0.10872 -1.058905,0.17241 0,0 0.382923,-0.2928 0.382923,-0.2928 z"
       inkscape:connector-curvature="0" />
    <path
       style="opacity:1;fill:#000000;fill-opacity:0.95999995;fill-rule:nonzero;stroke:#000000;stroke-width:0.3175;stroke-miterlimit:4;stroke-dasharray:none;stroke-opacity:0"
       id="path1558"
       d="m 67.349176,131.28469 c 0.485619,0.008 0.971688,-0.0352 1.454613,-0.0835 0.560597,-0.0564 1.122826,-0.11681 1.674725,-0.23281 0.138258,-0.0307 0.274058,-0.0705 0.409141,-0.11265 0,0 -0.378833,0.29248 -0.378833,0.29248 v 0 c -0.133636,0.0385 -0.267832,0.0751 -0.404103,0.10333 -0.55167,0.1075 -1.111184,0.16864 -1.670177,0.22356 -0.489895,0.0485 -0.981909,0.0921 -1.474497,0.0923 0,0 0.389131,-0.28272 0.389131,-0.28272 z"
       inkscape:connector-curvature="0" />
    <path
       style="opacity:1;fill:#000000;fill-opacity:0.95999995;fill-rule:nonzero;stroke:#000000;stroke-width:0.3175;stroke-miterlimit:4;stroke-dasharray:none;stroke-opacity:0"
       id="path1560"
       d="m 70.021703,129.75849 c 0.276892,0.23429 0.637244,0.33786 0.981144,0.43105 0.283564,0.11313 0.643572,0.10213 0.885944,0.3033 0.09762,0.27944 -0.242218,0.51708 -0.415938,0.68775 -0.191223,0.18038 -0.372745,0.3675 -0.532453,0.57626 0,0 -0.433999,0.18696 -0.433999,0.18696 v 0 c 0.157525,-0.2129 0.338529,-0.40225 0.531733,-0.58348 0.154006,-0.15277 0.474568,-0.36696 0.443786,-0.61242 -0.239043,-0.19036 -0.591283,-0.18059 -0.866058,-0.29282 -0.35093,-0.0984 -0.712385,-0.20721 -1.000665,-0.43949 0,0 0.406506,-0.25711 0.406506,-0.25711 z"
       inkscape:connector-curvature="0" />
    <path
       style="opacity:1;fill:#ff0000;fill-opacity:0.95999995;fill-rule:nonzero;stroke:#000000;stroke-width:0.3175;stroke-miterlimit:4;stroke-dasharray:none;stroke-opacity:0"
       id="path1562"
       d="m 72.824852,122.13544 c 0.424892,-0.0595 0.854851,-0.0725 1.283182,-0.0859 0.400785,-0.0104 0.801698,-0.0135 1.202584,-0.0171 0.106767,0.001 0.216308,-0.0366 0.266705,0.0776 0.02686,0.13181 -0.05202,0.25293 -0.116498,0.36169 -0.226717,0.31598 -0.493475,0.60108 -0.750883,0.89202 -0.38573,0.45151 -0.705313,0.95466 -0.99637,1.4709 -0.265851,0.42211 -0.435973,0.88931 -0.617718,1.35026 -0.01019,0.0941 -0.239154,0.3961 -0.09735,0.45773 0.279329,0.048 0.565769,-0.0346 0.839584,-0.0861 0.430911,-0.11173 0.870027,-0.18327 1.312267,-0.2302 0.191664,-0.002 0.405292,-0.08 0.586161,0.007 0.09855,0.10356 0.08473,0.24962 0.08621,0.38274 -0.04156,0.28257 -0.186436,0.5456 -0.312635,0.79941 -0.225583,0.41594 -0.564594,0.7479 -0.885721,1.08902 -0.355084,0.34996 -0.726194,0.68315 -1.090383,1.02354 -0.09301,0.10224 -0.3722,0.27997 -0.264676,0.44757 0.239411,0.0618 0.49947,0.009 0.740043,-0.0238 0.355981,-0.0839 0.715081,-0.15008 1.077632,-0.19743 0.143676,-0.004 0.268467,-0.0877 0.367207,0.0335 0.0867,0.21761 -0.115652,0.43014 -0.233297,0.59355 -0.366601,0.49297 -0.827629,0.89759 -1.276842,1.31155 -0.58303,0.56123 -1.10192,1.18419 -1.587484,1.83029 -0.355161,0.47379 -0.645771,0.9912 -0.891426,1.529 -0.0079,0.016 -0.161195,0.32711 -0.04745,0.33269 0.06292,0.003 0.121005,-0.0353 0.180507,-0.056 0.443627,-0.15827 0.89032,-0.31045 1.341562,-0.44595 0.272634,-0.0771 0.579085,-0.24502 0.870627,-0.17235 0.16814,0.16855 -0.110577,0.55715 -0.2017,0.71247 -0.307721,0.50505 -0.602638,1.01751 -0.918469,1.51766 -0.371126,0.54939 -0.743188,1.09804 -1.123175,1.64135 -0.259469,0.38839 -0.5379,0.76454 -0.787995,1.1591 -0.0468,0.10395 -0.262379,0.32737 -0.09038,0.40357 0.293749,0.0805 0.598057,-5.3e-4 0.889003,-0.0558 0.211749,-0.0545 0.425617,-0.0997 0.639683,-0.14395 0,0 -0.373764,0.28344 -0.373764,0.28344 v 0 c -0.214542,0.0449 -0.428484,0.0922 -0.641437,0.14426 -0.299439,0.0569 -0.619199,0.13785 -0.917104,0.0338 -0.205444,-0.14295 -0.02731,-0.30889 0.06126,-0.4747 0.250968,-0.39786 0.536517,-0.77337 0.79656,-1.16533 0.382929,-0.54212 0.754576,-1.0919 1.12767,-1.64081 0.313661,-0.49772 0.606121,-1.00767 0.908823,-1.51193 0.04986,-0.0837 0.345128,-0.53821 0.235977,-0.62805 -0.289471,-0.0438 -0.574723,0.10751 -0.845267,0.1828 -0.453999,0.1373 -0.902814,0.29205 -1.349344,0.45179 -0.357198,0.0902 -0.292616,-0.12829 -0.183732,-0.37259 0.249947,-0.54253 0.545873,-1.06481 0.902555,-1.54474 0.484918,-0.64728 1.002231,-1.27188 1.582206,-1.837 0.44356,-0.41155 0.903308,-0.80901 1.266735,-1.29736 0.10438,-0.14306 0.29755,-0.33639 0.252097,-0.53078 -0.07637,-0.0768 -0.240136,0.0123 -0.334385,7.9e-4 -0.361641,0.0463 -0.718342,0.11793 -1.074489,0.19542 -0.245449,0.0332 -0.550154,0.10764 -0.778809,-0.0161 -0.127773,-0.20862 0.103973,-0.37807 0.245824,-0.51139 0.366056,-0.34035 0.738217,-0.6743 1.09659,-1.02279 0.317791,-0.33821 0.655791,-0.6648 0.884417,-1.07363 0.124878,-0.24696 0.259591,-0.50423 0.316021,-0.77582 -0.0016,-0.10797 0.01902,-0.24868 -0.06123,-0.33329 -0.176361,-0.0665 -0.380841,0.0107 -0.562525,0.006 -0.441301,0.0474 -0.878295,0.12255 -1.308669,0.23229 -0.280048,0.0536 -0.589307,0.14874 -0.870797,0.064 -0.172042,-0.13485 0.02984,-0.36006 0.07494,-0.52085 0.191479,-0.46089 0.353306,-0.93665 0.625131,-1.36013 0.28923,-0.51758 0.605981,-1.02262 0.987653,-1.4778 0.253688,-0.28808 0.514244,-0.57112 0.742992,-0.87969 0.06022,-0.0951 0.13435,-0.20271 0.130392,-0.31876 -0.0232,-0.0738 -0.176522,-0.0165 -0.22865,-0.0337 -0.39769,-0.002 -0.795433,8e-4 -1.192991,0.0119 -0.430998,0.0147 -0.864809,0.0271 -1.290534,0.10109 0,0 0.383381,-0.29028 0.383381,-0.29028 z"
       inkscape:connector-curvature="0" />
    <path
       style="opacity:1;fill:#000000;fill-opacity:0.95999995;fill-rule:nonzero;stroke:#000000;stroke-width:0.3175;stroke-miterlimit:4;stroke-dasharray:none;stroke-opacity:0"
       id="path1564"
       d="m 78.119956,129.67573 c -0.134086,0.40781 -0.303422,0.80308 -0.466103,1.20004 -0.172353,0.43253 -0.338082,0.86707 -0.438253,1.32249 -0.01069,0.12156 -0.05759,0.24514 -0.05534,0.36843 1.14e-4,0.006 0.01114,0.0153 0.0055,0.0177 -0.145002,0.0626 -0.294656,0.11373 -0.441984,0.1706 0.0047,-0.26747 0.05353,-0.53391 0.09544,-0.79789 0.07717,-0.48633 0.169873,-0.96956 0.229706,-1.45857 0.03849,-0.21776 0.01159,-0.44462 0.07741,-0.65682 0.155493,-0.2733 0.482338,-0.39313 0.761759,-0.51287 0.224213,-0.0634 0.4523,-0.11613 0.680357,-0.166 0.184272,-0.0366 0.371393,-0.0542 0.558761,-0.0638 0,0 -0.385583,0.28351 -0.385583,0.28351 v 0 c -0.185423,0.0116 -0.370755,0.0296 -0.552643,0.069 -0.226647,0.052 -0.456697,0.0979 -0.676,0.17494 -0.15399,0.0731 -0.511003,0.26707 0.178118,-0.11969 0.123298,-0.0692 -0.257369,0.17808 -0.128683,0.13073 -0.0798,0.20778 -0.05028,0.43615 -0.09213,0.65291 -0.06271,0.48908 -0.157715,0.97258 -0.229661,1.46016 -0.04002,0.25876 -0.08323,0.52123 -0.08607,0.78295 -0.797727,0.42457 -0.440537,0.33431 -0.42064,0.20456 0.01714,-0.11174 0.03136,-0.22401 0.05615,-0.33448 0.101053,-0.45943 0.26986,-0.89706 0.443111,-1.33357 0.158383,-0.39222 0.325186,-0.78214 0.452075,-1.18606 0,0 0.434735,-0.20825 0.434735,-0.20825 z"
       inkscape:connector-curvature="0" />
    <path
       style="opacity:1;fill:#000000;fill-opacity:0.95999995;fill-rule:nonzero;stroke:#000000;stroke-width:0.3175;stroke-miterlimit:4;stroke-dasharray:none;stroke-opacity:0"
       id="path1566"
       d="m 77.561725,131.04085 c 0.309306,0.0107 0.615497,0.006 0.922282,-0.0346 0.111995,-0.008 0.215344,-0.014 0.321532,0.022 0,0 -0.397354,0.27141 -0.397354,0.27141 v 0 c -0.100555,-0.0254 -0.200721,-0.0188 -0.303937,-0.0102 -0.310267,0.0373 -0.620417,0.0354 -0.932622,0.0348 0,0 0.390099,-0.28342 0.390099,-0.28342 z"
       inkscape:connector-curvature="0" />
    <path
       style="opacity:1;fill:#000000;fill-opacity:0.95999995;fill-rule:nonzero;stroke:#000000;stroke-width:0.3175;stroke-miterlimit:4;stroke-dasharray:none;stroke-opacity:0"
       id="path1568"
       d="m 76.948828,132.31781 c 0.239916,0.13562 0.509601,0.0903 0.770308,0.0633 0,0 -0.377105,0.27977 -0.377105,0.27977 v 0 c -0.274262,0.0265 -0.558509,0.0637 -0.80409,-0.0913 0,0 0.410887,-0.25179 0.410887,-0.25179 z"
       inkscape:connector-curvature="0" />
    <path
       style="opacity:1;fill:#000000;fill-opacity:0.95999995;fill-rule:nonzero;stroke:#000000;stroke-width:0.3175;stroke-miterlimit:4;stroke-dasharray:none;stroke-opacity:0"
       id="path1570"
       d="m 79.71466,131.13136 c -0.01691,0.32471 -0.06569,0.64726 -0.09197,0.97174 -0.01167,0.2029 -0.02788,0.40613 -0.02789,0.60952 -0.143975,0.0536 -0.279683,0.14022 -0.431927,0.16078 -0.0339,0.005 7.94e-4,-0.0684 0.0011,-0.1026 0.0026,-0.2493 0.04063,-0.47587 0.105711,-0.71656 0.1079,-0.32959 0.253519,-0.64946 0.504727,-0.89311 0.234831,-0.16578 0.05354,-0.042 0.568722,-0.33198 0,0 -0.375195,0.29955 -0.375195,0.29955 v 0 c 0.36453,-0.21727 0.447699,-0.26611 0.248298,-0.14856 -0.2618,0.23086 -0.413109,0.54384 -0.522234,0.87213 -0.06672,0.23563 -0.106955,0.45593 -0.103638,0.70111 5.3e-4,0.0335 0.02697,0.0784 0.0019,0.10054 -0.12804,0.11265 -0.286952,0.18438 -0.43043,0.27657 0.0204,-0.20477 0.01738,-0.41181 0.03872,-0.61658 0.02619,-0.32135 0.07331,-0.64211 0.08448,-0.96364 0,0 0.429635,-0.21891 0.429635,-0.21891 z"
       inkscape:connector-curvature="0" />
    <path
       style="opacity:1;fill:#000000;fill-opacity:0.95999995;fill-rule:nonzero;stroke:#000000;stroke-width:0.3175;stroke-miterlimit:4;stroke-dasharray:none;stroke-opacity:0"
       id="path1572"
       d="m 81.285341,130.89319 c -0.06151,0.30967 -0.158705,0.61037 -0.240694,0.91486 -0.01164,0.1788 -0.150241,0.40909 -0.07806,0.58761 0.0021,-0.005 0.01101,-0.0173 0.0062,-0.0149 -0.136644,0.0664 -0.26329,0.15437 -0.405133,0.20878 -0.01984,0.008 0.01333,-0.0403 0.01926,-0.0608 0.03698,-0.12765 0.07927,-0.24625 0.131569,-0.36881 0.139153,-0.3018 0.311333,-0.5948 0.551135,-0.82732 0.245989,-0.17818 0.506355,-0.38746 0.814853,-0.32383 0,0 -0.392017,0.27552 -0.392017,0.27552 v 0 c -0.03001,-0.003 -0.05986,-0.0104 -0.09003,-0.01 -0.03139,7.9e-4 -0.116686,0.0353 -0.09309,0.0146 0.06159,-0.0541 0.500759,-0.31957 0.200848,-0.13712 -0.249179,0.21854 -0.421349,0.51199 -0.56066,0.80986 -0.05092,0.11582 -0.103613,0.23231 -0.129365,0.35711 -0.0051,0.0247 0.0109,0.0598 -0.0092,0.075 -0.405551,0.30494 -0.312015,0.36922 -0.466688,0.23732 -0.07667,-0.19392 0.05281,-0.42552 0.0734,-0.61977 0.08103,-0.30247 0.182835,-0.60059 0.232995,-0.91026 0,0 0.434737,-0.20826 0.434737,-0.20826 z"
       inkscape:connector-curvature="0" />
    <path
       style="opacity:1;fill:#000000;fill-opacity:0.95999995;fill-rule:nonzero;stroke:#000000;stroke-width:0.3175;stroke-miterlimit:4;stroke-dasharray:none;stroke-opacity:0"
       id="path1574"
       d="m 83.087638,131.25579 c -0.191286,0.21124 -0.382538,0.42923 -0.427829,0.71805 0.0314,0.32329 0.344792,0.29596 0.591648,0.25862 -0.08638,0.10762 0.484402,-0.21532 0.369972,-0.1479 -0.466341,0.27475 -0.158456,0.0803 -0.07837,-0.002 0.110884,-0.11338 0.107482,-0.14492 0.161184,-0.28487 0.0034,-0.0438 0.01574,-0.0878 0.01011,-0.1313 -0.03604,-0.27804 -0.501684,-0.28727 -0.699579,-0.29966 -0.282925,0.0239 -0.143373,0.007 -0.418719,0.0489 0,0 0.37624,-0.28157 0.37624,-0.28157 v 0 c 0.27804,-0.0374 0.136707,-0.0237 0.424077,-0.0403 0.332462,0.0283 0.779967,0.0664 0.73702,0.50334 -0.01725,0.0529 -0.02703,0.10876 -0.05177,0.15855 -0.18341,0.36918 -0.81306,0.65153 -1.208085,0.75869 -0.28493,0.0326 -0.599681,0.0183 -0.641549,-0.33022 0.03612,-0.29942 0.220202,-0.52035 0.410441,-0.7443 0,0 0.445217,-0.18442 0.445217,-0.18442 z"
       inkscape:connector-curvature="0" />
    <path
       style="opacity:1;fill:#000000;fill-opacity:0.95999995;fill-rule:nonzero;stroke:#000000;stroke-width:0.3175;stroke-miterlimit:4;stroke-dasharray:none;stroke-opacity:0"
       id="path1576"
       d="m 80.087556,130.85528 c -0.204999,0.0223 -0.395957,0.0907 -0.580141,0.17997 -0.04801,0.0233 -0.189058,0.0987 -0.143491,0.071 0.09273,-0.0565 0.190161,-0.1049 0.285242,-0.15734 0,0 -0.442958,0.172 -0.442958,0.172 v 0 c 0.406773,-0.23907 0.788517,-0.49432 1.26473,-0.55588 0,0 -0.383382,0.29028 -0.383382,0.29028 z"
       inkscape:connector-curvature="0" />
    <path
       style="opacity:1;fill:#000000;fill-opacity:0.95999995;fill-rule:nonzero;stroke:#000000;stroke-width:0.3175;stroke-miterlimit:4;stroke-dasharray:none;stroke-opacity:0"
       id="path1578"
       d="m 85.302944,130.89319 c -0.08116,0.25624 -0.167786,0.51667 -0.182539,0.78666 0.02304,0.34295 0.16451,0.12916 -0.374534,0.3953 0.03101,-0.22694 -0.01921,-0.45546 -0.05139,-0.67988 -0.0013,-0.0802 -0.01066,-0.15077 0.01841,-0.22786 0.109191,-0.28968 0.603985,-0.45409 0.874937,-0.54858 0.189566,-0.0683 0.388829,-0.0775 0.587463,-0.0893 0,0 -0.379408,0.27952 -0.379408,0.27952 v 0 c -0.196873,0.0144 -0.393461,0.0288 -0.580099,0.10039 -0.246665,0.0925 -0.261522,0.1119 0.09718,-0.10889 0.03611,-0.0222 -0.07368,0.0434 -0.104524,0.0725 -0.08739,0.0824 -0.09731,0.18708 -0.09247,0.30016 0.03086,0.22889 0.08207,0.4588 0.06493,0.69048 -0.430173,0.28363 -0.457023,0.43035 -0.487355,0.0312 0.01127,-0.27145 0.09809,-0.53436 0.17467,-0.79334 0,0 0.434737,-0.20826 0.434737,-0.20826 z"
       inkscape:connector-curvature="0" />
    <path
       style="opacity:1;fill:#ff0000;fill-opacity:0.95999995;fill-rule:nonzero;stroke:#000000;stroke-width:0.3175;stroke-miterlimit:4;stroke-dasharray:none;stroke-opacity:0"
       id="path1580"
       d="m 86.828465,122.51901 c 0.445511,0.007 0.890974,-0.005 1.335915,0.0205 0.403331,0.0318 0.829398,0.0605 1.172422,0.29338 0.257657,0.29716 -0.0363,0.63184 -0.225554,0.87733 -0.374158,0.43625 -0.713563,0.89746 -1.04557,1.36593 -0.279736,0.4239 -0.520552,0.87239 -0.688068,1.3522 -0.09151,0.36257 0.0108,0.51586 0.350401,0.63657 0.325237,0.0786 0.660286,0.07 0.989018,0.1255 0.194612,0.0225 0.326676,0.0686 0.344027,0.27969 -0.06078,0.32012 -0.263221,0.59159 -0.440111,0.85778 -0.286522,0.37494 -0.555352,0.76294 -0.837919,1.14079 -0.23921,0.33211 -0.545447,0.6089 -0.763532,0.95577 -0.131543,0.26664 0.125227,0.23375 0.318013,0.24957 0.272923,0.0353 0.554784,-0.0232 0.825286,0.0242 0.234386,0.0558 0.115779,0.26243 0.02484,0.39826 -0.291414,0.2998 -0.605401,0.575 -0.893894,0.87841 -0.378521,0.36614 -0.670484,0.79613 -0.922706,1.25482 -0.187928,0.33497 -0.295867,0.67768 -0.14338,1.04294 0.180811,0.25506 0.494435,0.35449 0.74282,0.52978 0.24746,0.21443 0.235204,0.38153 0.109802,0.66143 -0.277373,0.43727 -0.619225,0.83067 -0.934791,1.24073 -0.450503,0.61066 -0.907777,1.21577 -1.395455,1.79731 -0.343035,0.41923 -0.716415,0.83696 -0.902303,1.35385 -0.009,0.0397 -0.0181,0.0794 -0.02715,0.11912 0,0 -0.42939,0.20695 -0.42939,0.20695 v 0 c 0.0093,-0.0419 0.01863,-0.0839 0.02796,-0.12578 0.184031,-0.52639 0.56239,-0.95111 0.911119,-1.37602 0.488645,-0.57899 0.946676,-1.18185 1.39301,-1.79396 0.309594,-0.40708 0.642538,-0.7983 0.924674,-1.22505 0.123922,-0.25841 0.160861,-0.39889 -0.0787,-0.60304 -0.256114,-0.17874 -0.575693,-0.28521 -0.755859,-0.55323 -0.164928,-0.3974 -0.06741,-0.71612 0.131895,-1.08438 0.252484,-0.46048 0.537279,-0.89782 0.917591,-1.26563 0.284543,-0.30155 0.587711,-0.58145 0.887071,-0.86782 0.07478,-0.10301 0.229516,-0.27558 0.02061,-0.31269 -0.270605,-0.0348 -0.547629,0.006 -0.819264,-0.0247 -0.215024,-0.0203 -0.499226,-0.0492 -0.366455,-0.33321 0.217119,-0.35216 0.524258,-0.63087 0.76972,-0.96293 0.282705,-0.37571 0.547309,-0.7647 0.835155,-1.13662 0.171992,-0.25988 0.366577,-0.52002 0.444066,-0.82674 0.0024,-0.1887 -0.148254,-0.20074 -0.306464,-0.22615 -0.329997,-0.0548 -0.667748,-0.0462 -0.992378,-0.13426 -0.354463,-0.13867 -0.475832,-0.31719 -0.383464,-0.70175 0.168042,-0.48468 0.410565,-0.93762 0.689838,-1.36742 0.331486,-0.46756 0.666263,-0.93106 1.040529,-1.36602 0.16813,-0.21386 0.480642,-0.53392 0.254537,-0.80523 -0.337103,-0.22301 -0.756224,-0.24624 -1.148966,-0.27876 -0.449064,-0.0219 -0.89858,-0.0114 -1.348068,-0.009 0,0 0.389131,-0.28272 0.389131,-0.28272 z"
       inkscape:connector-curvature="0" />
    <path
       style="opacity:1;fill:#000000;fill-opacity:0.95999995;fill-rule:nonzero;stroke:#000000;stroke-width:0.3175;stroke-miterlimit:4;stroke-dasharray:none;stroke-opacity:0"
       id="path1582"
       d="m 90.359086,130.55422 c 0.489477,0.005 0.979006,0.005 1.468509,0.006 0.54806,-0.0254 1.094981,-0.0699 1.642597,-0.10332 0.155035,-0.009 0.309986,-0.0192 0.465095,-0.0266 0.03881,5.3e-4 0.01863,-0.005 0.05716,0.0258 0,0 -0.406677,0.26359 -0.406677,0.26359 v 0 c -0.02537,-0.005 -0.0114,-0.004 -0.0421,-0.003 -0.150894,0.004 -0.301664,0.0116 -0.452432,0.0185 -0.545944,0.0286 -1.090853,0.0739 -1.63712,0.096 -0.49472,2.6e-4 -0.98947,2.7e-4 -1.484167,0.006 0,0 0.389131,-0.28272 0.389131,-0.28272 z"
       inkscape:connector-curvature="0" />
    <path
       style="opacity:1;fill:#000000;fill-opacity:0.95999995;fill-rule:nonzero;stroke:#000000;stroke-width:0.3175;stroke-miterlimit:4;stroke-dasharray:none;stroke-opacity:0"
       id="path1584"
       d="m 93.031613,129.14976 c 0.331663,0.2435 0.714566,0.4072 1.095576,0.55685 0.228481,0.11106 0.679754,0.22593 0.793554,0.48344 0.01662,0.0376 0.01738,0.0803 0.02609,0.12044 -0.08791,0.38268 -0.470998,0.6096 -0.766048,0.83186 -0.176821,0.14543 -0.09561,0.0711 -0.245308,0.22123 0,0 -0.437907,0.1821 -0.437907,0.1821 v 0 c 0.149289,-0.15732 0.06776,-0.0801 0.246497,-0.22973 0.290464,-0.21552 0.64802,-0.42865 0.78128,-0.78083 -0.0052,-0.0345 -0.0026,-0.0712 -0.01566,-0.1036 -0.09794,-0.243 -0.560847,-0.36062 -0.769855,-0.46517 -0.386347,-0.15362 -0.772446,-0.32035 -1.114719,-0.55947 0,0 0.406506,-0.25712 0.406506,-0.25712 z"
       inkscape:connector-curvature="0" />
    <path
       style="opacity:1;fill:#ff0000;fill-opacity:0.95999995;fill-rule:nonzero;stroke:#000000;stroke-width:0.3175;stroke-miterlimit:4;stroke-dasharray:none;stroke-opacity:0"
       id="path1586"
       d="m 100.06168,121.5652 c -0.206762,-0.0593 -0.421651,-0.0776 -0.63535,-0.0915 -0.258283,-0.0139 -0.51395,0.0464 -0.769519,0.0775 -0.09301,0.0257 -0.185238,0.0541 -0.276508,0.0853 -0.0217,0.007 -0.08456,0.0348 -0.06488,0.023 0.628451,-0.37692 0.447513,-0.258 0.316817,-0.17071 -0.159787,0.12091 -0.205743,0.30744 -0.26162,0.48924 -0.109223,0.40794 -0.173752,0.82524 -0.218609,1.24466 -0.05873,0.68536 -0.06092,1.37397 -0.06591,2.06134 -0.0044,0.80241 -0.0019,1.60484 -7.93e-4,2.40726 0.02183,0.71467 -0.03352,1.42727 -0.07066,2.14032 -0.03357,0.6388 -0.08069,1.27819 -0.147074,1.91454 -0.06423,0.61656 -0.127947,1.23325 -0.18525,1.85054 -0.05242,0.63228 -0.126273,1.26199 -0.165106,1.89545 -0.0062,0.50227 -0.05932,1.00097 -0.106053,1.5005 -0.01103,0.25857 -0.07348,0.51042 -0.12883,0.76208 -0.05799,0.15709 -0.431007,0.53998 -0.53489,0.396 -0.09816,-0.13605 0.28602,-0.17542 0.42903,-0.26313 0.243067,-0.0132 0.471363,-0.13648 0.698053,-0.21804 0.164785,-0.0708 0.334938,-0.1265 0.502023,-0.1915 0,0 -0.371293,0.29121 -0.371293,0.29121 v 0 c -0.167865,0.0641 -0.337619,0.12289 -0.503608,0.19176 -0.228878,0.0855 -0.480438,0.22984 -0.729914,0.19121 0.463278,-0.39333 0.498491,-0.38758 -0.03633,-0.0732 -0.04207,0.0247 0.180988,-0.11721 0.113736,-0.11587 0.06071,-0.25069 0.127101,-0.50235 0.140727,-0.76101 0.05055,-0.50021 0.108725,-0.9995 0.114655,-1.50294 0.0392,-0.63415 0.112657,-1.26452 0.165825,-1.89742 0.05738,-0.61711 0.117308,-1.23399 0.183144,-1.85019 0.06926,-0.63599 0.115858,-1.27557 0.151956,-1.91416 0.03652,-0.7128 0.09405,-1.42507 0.07424,-2.13946 -4e-5,-0.80259 -1.78e-4,-1.60519 0.0011,-2.40778 0.0035,-0.68708 0.0011,-1.37535 0.05491,-2.0608 0.04209,-0.42011 0.101738,-0.83794 0.204441,-1.24794 0.05711,-0.18731 0.09413,-0.37662 0.243195,-0.51682 0.272883,-0.18511 0.53467,-0.34134 0.856077,-0.39878 0.256874,-0.0327 0.514747,-0.0887 0.774677,-0.0699 0.216901,0.0157 0.433871,0.0381 0.644381,0.0955 0,0 -0.3968,0.27371 -0.3968,0.27371 z"
       inkscape:connector-curvature="0" />
    <path
       style="opacity:1;fill:#000000;fill-opacity:0.95999995;fill-rule:nonzero;stroke:#000000;stroke-width:0.3175;stroke-miterlimit:4;stroke-dasharray:none;stroke-opacity:0"
       id="path1588"
       d="m 100.77664,126.62677 c -0.0744,0.50006 -0.2259,0.98409 -0.32468,1.47996 -0.11714,0.59177 -0.2066,1.18818 -0.31549,1.78152 -0.016,0.13665 -0.0559,0.27157 -0.0671,0.40899 -0.002,0.0234 0.002,0.0903 0.0126,0.0692 0.005,-0.0101 -0.001,-0.0225 -0.002,-0.0338 -0.128043,0.0691 -0.256083,0.13821 -0.38412,0.20732 0,0 0.4451,-0.18795 0.4451,-0.18795 v 0 c -0.148423,0.0925 -0.296846,0.18497 -0.44527,0.27746 -0.136768,-0.0936 0.01728,-0.40385 0.01876,-0.53612 0.118856,-0.59371 0.21028,-1.19164 0.32466,-1.78616 0.0939,-0.4895 0.23958,-0.9679 0.30807,-1.46154 0,0 0.42963,-0.21891 0.42963,-0.21891 z"
       inkscape:connector-curvature="0" />
    <path
       style="opacity:1;fill:#000000;fill-opacity:0.95999995;fill-rule:nonzero;stroke:#000000;stroke-width:0.3175;stroke-miterlimit:4;stroke-dasharray:none;stroke-opacity:0"
       id="path1590"
       d="m 99.884565,127.44946 c 0.185055,-0.29385 0.533385,-0.44983 0.844785,-0.57075 0.0418,-0.0162 0.0897,0.005 0.13451,0.007 0.43478,0.0819 0.61053,0.46066 0.73339,0.84332 0.11763,0.5718 -0.004,1.13801 -0.22667,1.66664 -0.19493,0.411 -0.51254,0.73086 -0.878,0.99234 -0.23215,0.13936 -0.44774,0.32157 -0.712507,0.39084 0,0 0.379897,-0.29408 0.379897,-0.29408 v 0 c 0.33341,-0.12418 -0.563449,0.32764 -0.10686,0.0763 0.37047,-0.25174 0.69318,-0.56642 0.89557,-0.97165 0.22859,-0.51544 0.35259,-1.07338 0.23965,-1.63565 -0.11833,-0.36521 -0.28596,-0.73187 -0.70998,-0.78846 -0.25911,0.009 -0.13071,0.027 0.17338,-0.19522 0.0319,-0.0233 -0.071,0.035 -0.10433,0.0562 -0.0909,0.058 -0.16681,0.13335 -0.22403,0.22466 0,0 -0.438805,0.19852 -0.438805,0.19852 z"
       inkscape:connector-curvature="0" />
    <path
       style="opacity:1;fill:#000000;fill-opacity:0.95999995;fill-rule:nonzero;stroke:#000000;stroke-width:0.3175;stroke-miterlimit:4;stroke-dasharray:none;stroke-opacity:0"
       id="path1592"
       d="m 102.40902,129.07493 c 0.21571,-0.0663 0.42695,-0.14964 0.62796,-0.2525 0.062,-0.0318 0.24221,-0.13794 0.18327,-0.10071 -0.0788,0.0498 -0.16203,0.0923 -0.24305,0.13846 0.11477,-0.0945 0.39269,-0.23006 0.35612,-0.41639 -0.0782,-0.15705 -0.26116,-0.11683 -0.40021,-0.0789 -0.0409,0.0159 -0.0816,0.032 -0.12254,0.0477 -0.0938,0.0361 -0.36264,0.17348 -0.2716,0.13092 0.0907,-0.0424 0.16705,-0.12328 0.26578,-0.13993 0.064,-0.0108 -0.10289,0.0794 -0.15283,0.12088 -0.0526,0.0437 -0.10308,0.0898 -0.15461,0.13477 -0.26755,0.26576 -0.43758,0.59085 -0.42791,0.97077 0.0803,0.34044 0.17523,0.43373 0.51952,0.47267 0.19696,0.005 0.3809,-0.0526 0.56591,-0.1109 0,0 -0.37188,0.28725 -0.37188,0.28725 v 0 c -0.19065,0.0552 -0.37996,0.11045 -0.58142,0.0974 -0.34634,-0.0526 -0.47742,-0.18579 -0.55358,-0.52972 -0.018,-0.39085 0.14463,-0.72933 0.4139,-1.01026 0.36673,-0.32661 0.77933,-0.61365 1.25164,-0.76136 0.17057,-0.0331 0.35696,-0.0418 0.44363,0.13916 0.0649,0.21699 -0.19443,0.3629 -0.3396,0.4767 -0.44623,0.25787 -0.8883,0.54056 -1.39188,0.6743 0,0 0.38338,-0.29027 0.38338,-0.29027 z"
       inkscape:connector-curvature="0" />
    <path
       style="opacity:1;fill:#000000;fill-opacity:0.95999995;fill-rule:nonzero;stroke:#000000;stroke-width:0.3175;stroke-miterlimit:4;stroke-dasharray:none;stroke-opacity:0"
       id="path1594"
       d="m 104.45146,128.54338 c -0.0307,0.0119 -0.0625,0.0212 -0.0921,0.0356 -0.0344,0.0167 -0.13315,0.0753 -0.0993,0.0575 0.10063,-0.0532 0.19212,-0.12651 0.29979,-0.16336 0.0479,-0.0164 -0.0787,0.0642 -0.11454,0.1 -0.0711,0.0711 -0.14022,0.16557 -0.20143,0.24456 -0.15544,0.21583 -0.26973,0.44436 -0.20063,0.71076 0.0872,0.2154 0.27415,0.21387 0.46645,0.14578 0.0374,-0.0201 0.14922,-0.0809 0.11204,-0.0604 -0.42307,0.23282 -0.33557,0.20024 -0.1675,0.0668 0.12707,-0.10092 0.24227,-0.21035 0.35368,-0.32796 0.15474,-0.17142 0.29289,-0.3619 0.37486,-0.579 -0.0278,-0.19756 0.47154,-0.52316 0.4678,-0.25764 -0.0331,0.23175 -0.11673,0.45156 -0.17595,0.67733 -0.0258,0.16024 -0.0129,0.3285 0.18549,0.29293 0.0307,-0.008 0.0619,-0.0135 0.0922,-0.0229 0.0867,-0.0268 0.32795,-0.15561 0.24483,-0.11914 -0.092,0.0404 -0.1693,0.11838 -0.26774,0.13867 -0.0539,0.0111 0.084,-0.0712 0.12396,-0.10903 0.0403,-0.0381 0.0777,-0.0791 0.11653,-0.11861 0.15096,-0.17795 0.30222,-0.38027 0.26037,-0.62391 -0.10056,-0.20727 -0.32212,-0.18088 -0.5149,-0.14538 -0.14623,0.0339 -0.60341,0.29185 0.0137,-0.0375 0,0 -0.44211,0.17333 -0.44211,0.17333 v 0 c 0.27171,-0.16291 0.50539,-0.34406 0.80902,-0.42159 0.22336,-0.0298 0.44878,-0.0263 0.55749,0.20516 0.0553,0.25828 -0.0867,0.47399 -0.24664,0.66801 -0.3066,0.32298 -0.69257,0.60677 -1.13362,0.6973 -0.21724,-0.0105 -0.25782,-0.17899 -0.2293,-0.37174 0.059,-0.22159 0.13717,-0.43788 0.17647,-0.66402 -0.001,-0.23794 0.57568,-0.49151 0.39829,-0.16451 -0.0792,0.22426 -0.21667,0.42163 -0.37356,0.59917 -0.31052,0.34226 -0.68469,0.61374 -1.11327,0.79659 -0.22087,0.0566 -0.41506,0.0203 -0.5098,-0.20934 -0.074,-0.28054 0.0219,-0.52002 0.18671,-0.75208 0.27364,-0.36347 0.57182,-0.60871 1.0257,-0.75417 0,0 -0.38292,0.29281 -0.38292,0.29281 z"
       inkscape:connector-curvature="0" />
    <path
       style="opacity:1;fill:#000000;fill-opacity:0.95999995;fill-rule:nonzero;stroke:#000000;stroke-width:0.3175;stroke-miterlimit:4;stroke-dasharray:none;stroke-opacity:0"
       id="path1596"
       d="m 107.65174,128.31187 c 0.0143,-0.27053 -0.11468,-0.21047 -0.29219,-0.10689 0.0964,-0.0514 0.18575,-0.11902 0.28915,-0.15429 0.0499,-0.017 -0.0846,0.0632 -0.12413,0.098 -0.0443,0.039 -0.0869,0.08 -0.12699,0.12331 -0.11666,0.12611 -0.19813,0.26277 -0.27542,0.41465 -0.0938,0.20351 -0.12046,0.42748 0.11184,0.53095 -0.0493,0.1116 0.43253,-0.16155 0.32082,-0.0866 -0.0805,0.054 -0.16213,0.11067 -0.25393,0.14186 -0.0622,0.0211 0.11068,-0.0711 0.16296,-0.11095 0.0564,-0.0429 0.10836,-0.0914 0.16253,-0.13705 0.36974,-0.34988 0.56505,-0.82591 0.71595,-1.30203 0.0945,-0.36709 0.17481,-0.74701 0.13155,-1.12685 -0.0262,-0.0367 -0.003,-0.16734 -0.0494,-0.19676 -0.007,-0.004 -0.005,0.0285 0.003,0.025 0.13502,-0.0616 0.25573,-0.15381 0.39458,-0.20618 0.0236,-0.009 -0.0207,0.046 -0.031,0.069 -0.10797,0.41822 -0.20801,0.838 -0.29609,1.26092 -0.11828,0.50065 -0.2305,1.00319 -0.23069,1.51941 0.0159,0.199 0.0624,0.40688 0.29157,0.41161 0,0 -0.3908,0.27715 -0.3908,0.27715 v 0 c -0.2402,-0.0476 -0.30538,-0.24677 -0.32103,-0.47489 0.005,-0.52018 0.11308,-1.02709 0.23443,-1.53159 0.0856,-0.42149 0.18468,-0.83964 0.27726,-1.25936 0.10872,-0.38613 0.55189,-0.54245 0.54111,-0.11566 0.0438,0.38722 -0.0395,0.77489 -0.13335,1.14962 -0.14772,0.48032 -0.33939,0.9631 -0.70156,1.32407 -0.31514,0.27891 -0.79678,0.68099 -1.22805,0.6322 -0.23782,-0.13637 -0.24925,-0.36038 -0.14295,-0.59842 0.22635,-0.47017 0.56725,-0.74095 1.04103,-0.97573 0.21653,-0.10047 0.35742,-0.0814 0.34992,0.1865 0,0 -0.42963,0.2189 -0.42963,0.2189 z"
       inkscape:connector-curvature="0" />
    <path
       style="opacity:1;fill:#000000;fill-opacity:0.95999995;fill-rule:nonzero;stroke:#000000;stroke-width:0.3175;stroke-miterlimit:4;stroke-dasharray:none;stroke-opacity:0"
       id="path1598"
       d="m 110.01729,127.9713 c -0.056,0.28288 -0.12235,0.56359 -0.17114,0.848 0.005,0.0646 -0.11541,0.45322 -0.002,0.47274 0.0133,-0.009 0.0266,-0.0187 0.0399,-0.028 0,0 -0.3834,0.29314 -0.3834,0.29314 v 0 c -0.021,-7.9e-4 -0.0419,-0.002 -0.0629,-0.002 -0.14247,-0.12205 -0.0225,-0.37192 -0.0183,-0.52749 0.0495,-0.28379 0.11617,-0.5636 0.16251,-0.84774 0,0 0.43473,-0.20826 0.43473,-0.20826 z"
       inkscape:connector-curvature="0" />
    <path
       style="opacity:1;fill:#000000;fill-opacity:0.95999995;fill-rule:nonzero;stroke:#000000;stroke-width:0.3175;stroke-miterlimit:4;stroke-dasharray:none;stroke-opacity:0"
       id="path1600"
       d="m 109.68993,127.22276 c -0.10692,0.0531 -0.0531,0.0263 -0.16143,0.0805 -0.0244,0.0122 -0.0967,0.0504 -0.0731,0.0367 0.6823,-0.39761 0.43991,-0.27529 0.32678,-0.17621 -0.055,-0.093 0.0583,-0.0827 0.12355,-0.096 0,0 -0.38157,0.29118 -0.38157,0.29118 v 0 c -0.0763,0.021 -0.14016,0.0807 -0.18792,-0.004 0.13451,-0.23977 0.49994,-0.29155 0.72983,-0.43303 0,0 -0.3761,0.30084 -0.3761,0.30084 z"
       inkscape:connector-curvature="0" />
    <path
       style="opacity:1;fill:#000000;fill-opacity:0.95999995;fill-rule:nonzero;stroke:#000000;stroke-width:0.3175;stroke-miterlimit:4;stroke-dasharray:none;stroke-opacity:0"
       id="path1602"
       d="m 111.11198,127.98508 c -0.0869,0.30897 -0.19285,0.61182 -0.26929,0.92369 -0.005,0.10892 -0.10214,0.31591 -0.0585,0.40067 -0.13646,0.0683 -0.26768,0.14825 -0.40937,0.20488 -0.0173,0.007 0.0175,-0.0331 0.0237,-0.0507 0.0121,-0.0343 0.0201,-0.0699 0.0311,-0.1045 0.0544,-0.17189 0.12029,-0.33658 0.19177,-0.50201 0.13863,-0.24499 0.24328,-0.53214 0.45263,-0.72836 0.50565,-0.31563 0.63746,-0.4238 0.60909,0.13814 -0.0318,0.28532 -0.13475,0.55469 -0.18097,0.83656 -0.0123,0.10552 -0.0134,0.0571 -0.003,0.14514 0,0 -0.42598,0.22458 -0.42598,0.22458 v 0 c -0.0158,-0.10062 -0.0141,-0.0474 -5.3e-4,-0.15969 0.0456,-0.28138 0.14917,-0.54856 0.18473,-0.8327 0.003,-0.0523 0.0138,-0.17593 0.005,-0.23311 -0.002,-0.0123 -0.0219,-0.0874 -0.0517,-0.0958 -0.0137,-0.004 -0.0539,0.0158 -0.042,0.008 0.11397,-0.0746 0.23372,-0.14002 0.35058,-0.21003 -0.23294,0.16081 -0.3243,0.48111 -0.47018,0.71105 -0.0712,0.16211 -0.13683,0.3232 -0.18769,0.49302 -0.0102,0.0341 -0.0199,0.0684 -0.0277,0.10309 -0.005,0.0235 0.009,0.0577 -0.0113,0.0713 -0.13979,0.096 -0.29787,0.16214 -0.44681,0.24321 -0.10239,-0.1107 0.0383,-0.33099 0.0399,-0.45777 0.0748,-0.31022 0.18021,-0.61107 0.26372,-0.91882 0,0 0.43269,-0.20982 0.43269,-0.20982 z"
       inkscape:connector-curvature="0" />
    <path
       style="opacity:1;fill:#000000;fill-opacity:0.95999995;fill-rule:nonzero;stroke:#000000;stroke-width:0.3175;stroke-miterlimit:4;stroke-dasharray:none;stroke-opacity:0"
       id="path1604"
       d="m 113.28054,128.33389 c -0.16501,0.17868 -0.30607,0.35967 -0.27556,0.61235 0.11123,0.26792 0.41472,0.0721 0.58617,-0.0295 -0.0814,0.0368 -0.16488,0.15168 -0.24407,0.11042 -0.0653,-0.034 0.10825,-0.10036 0.15642,-0.15608 0.17936,-0.2075 0.29757,-0.44932 0.37233,-0.71065 0.016,-0.38577 -0.34052,-0.32264 -0.61074,-0.26277 0.10723,-0.0682 -0.5161,0.1997 -0.38037,0.17018 0.086,-0.0187 0.15271,-0.13493 0.23816,-0.11392 0.0624,0.0153 -0.0923,0.0898 -0.13242,0.13993 -0.0924,0.11531 -0.11035,0.17192 -0.17219,0.30213 -0.0708,0.19521 -0.0335,0.36228 0.0582,0.53963 0,0 -0.41317,0.23592 -0.41317,0.23592 v 0 c -0.097,-0.18887 -0.14392,-0.36905 -0.0753,-0.57917 0.25103,-0.56501 0.67436,-0.78698 1.25237,-0.97917 0.33609,-0.0638 0.65496,-0.0924 0.6628,0.34392 -0.0847,0.31174 -0.24879,0.69653 -0.51951,0.895 -0.17915,0.13134 -0.37326,0.24094 -0.55989,0.36141 -0.21794,0.11611 -0.51873,0.26295 -0.64156,-0.0445 -0.0407,-0.26766 0.0831,-0.45337 0.25309,-0.65065 0,0 0.44522,-0.18442 0.44522,-0.18442 z"
       inkscape:connector-curvature="0" />
    <path
       style="opacity:1;fill:#000000;fill-opacity:0.95999995;fill-rule:nonzero;stroke:#000000;stroke-width:0.3175;stroke-miterlimit:4;stroke-dasharray:none;stroke-opacity:0"
       id="path1606"
       d="m 114.2513,128.35798 c -0.21575,0.42235 -0.34297,0.88434 -0.4694,1.3396 -0.1735,0.58727 -0.25045,1.19566 -0.35209,1.79783 -0.0823,0.41412 -0.29097,0.96055 -0.85138,0.88209 -0.31182,-0.13347 -0.323,-0.456 -0.27903,-0.74803 0.1557,-0.51014 0.6081,-0.82457 0.99794,-1.15367 0,0 0.42797,-0.17307 0.42797,-0.17307 v 0 c -0.38213,0.32266 -0.83191,0.62689 -1.00148,1.11906 -0.0456,0.25841 -0.0562,0.57726 0.24412,0.67646 0.19298,-0.005 0.18465,-0.0197 -0.22394,0.19943 -0.0349,0.0187 0.0641,-0.0487 0.0865,-0.0813 0.10202,-0.14865 0.12982,-0.34923 0.18059,-0.51657 0.10663,-0.60329 0.18525,-1.21322 0.35383,-1.80361 0.12277,-0.45548 0.2508,-0.91393 0.44756,-1.34373 0,0 0.43882,-0.19449 0.43882,-0.19449 z"
       inkscape:connector-curvature="0" />
    <path
       style="opacity:1;fill:#ff0000;fill-opacity:0.95999995;fill-rule:nonzero;stroke:#000000;stroke-width:0.3175;stroke-miterlimit:4;stroke-dasharray:none;stroke-opacity:0"
       id="path1608"
       d="m 117.01849,121.7702 c 0.3296,-0.0895 0.64573,-0.22068 0.96633,-0.33725 0.1348,-0.0466 0.26905,-0.0955 0.40609,-0.13523 0.0975,0.12429 -0.10318,0.31848 -0.16533,0.4181 -0.0386,0.0618 -0.0746,0.12515 -0.11191,0.18772 -0.3369,0.62215 -0.49692,1.32201 -0.6717,2.00255 -0.2736,1.00868 -0.44276,2.03945 -0.60281,3.07076 -0.13633,0.95981 -0.2565,1.92181 -0.39321,2.88155 -0.12348,0.7764 -0.21228,1.55671 -0.30525,2.33704 -0.0658,0.6129 -0.12986,1.22574 -0.19641,1.8386 -0.0337,0.4077 -0.10928,0.81016 -0.15896,1.21602 -0.0404,0.19012 -0.0759,0.38358 -0.16443,0.55793 -0.0653,0.0918 -0.0792,0.20429 -0.14772,0.29264 -0.3302,0.28129 -0.73756,0.47536 -1.14624,0.61517 -0.48945,0.16384 -1.00074,0.25744 -1.50741,0.35265 -0.0644,0.0114 -0.12872,0.0229 -0.19308,0.0343 0,0 0.37619,-0.28339 0.37619,-0.28339 v 0 c 0.0633,-0.0109 0.1267,-0.0218 0.19005,-0.0327 0.50638,-0.0948 1.01724,-0.18887 1.50435,-0.35951 0.22463,-0.0828 0.16477,-0.0543 0.36541,-0.15087 0.0453,-0.0218 0.17668,-0.0952 0.13495,-0.0672 -0.56749,0.38063 -0.29403,0.17024 -0.16946,0.0766 0.0921,-0.073 0.0833,-0.18918 0.15381,-0.28064 0.0965,-0.16808 0.13358,-0.35734 0.17764,-0.54477 0.0552,-0.40687 0.13133,-0.81091 0.16891,-1.21995 0.0681,-0.61402 0.13574,-1.2278 0.20211,-1.84197 0.0957,-0.7817 0.18528,-1.56367 0.31161,-2.34133 0.13979,-0.96081 0.26169,-1.92413 0.39956,-2.88523 0.16034,-1.03089 0.32614,-2.06187 0.5947,-3.07147 0.16944,-0.68052 0.32478,-1.37935 0.64878,-2.00615 0.0581,-0.10184 0.24,-0.45297 0.32166,-0.50018 -0.13303,0.0395 -0.26438,0.0845 -0.39519,0.1307 -0.323,0.11854 -0.64327,0.24811 -0.97642,0.33581 0,0 0.38338,-0.29027 0.38338,-0.29027 z"
       inkscape:connector-curvature="0" />
    <path
       style="opacity:1;fill:#000000;fill-opacity:0.95999995;fill-rule:nonzero;stroke:#000000;stroke-width:0.3175;stroke-miterlimit:4;stroke-dasharray:none;stroke-opacity:0"
       id="path1610"
       d="m 119.1987,129.45815 c 0.50592,0.0196 1.01054,-0.0206 1.51527,-0.0491 0.68433,-0.0662 1.36883,-0.12783 2.05549,-0.16348 0.36507,-0.0176 0.7305,-0.026 1.09592,-0.0316 0.0922,-0.0109 0.17451,0.0288 0.25778,0.0622 0,0 -0.40054,0.2687 -0.40054,0.2687 v 0 c -0.0797,-0.0306 -0.15775,-0.0584 -0.24496,-0.0488 -0.36042,-5.3e-4 -0.72082,0.007 -1.08089,0.0232 -0.68539,0.0347 -1.36861,0.0955 -2.05167,0.16107 -0.51188,0.0305 -1.02333,0.0688 -1.5365,0.0612 0,0 0.3901,-0.28343 0.3901,-0.28343 z"
       inkscape:connector-curvature="0" />
    <path
       style="opacity:1;fill:#000000;fill-opacity:0.95999995;fill-rule:nonzero;stroke:#000000;stroke-width:0.3175;stroke-miterlimit:4;stroke-dasharray:none;stroke-opacity:0"
       id="path1612"
       d="m 122.72515,128.05671 c 0.28002,0.24108 0.64246,0.36157 0.98584,0.48288 0.31887,0.11347 0.63435,0.23127 0.92783,0.40105 0.17432,0.11467 0.15037,0.2629 0.0295,0.40628 -0.27485,0.27907 -0.58199,0.52288 -0.86013,0.79886 -0.16311,0.16943 -0.30347,0.35498 -0.43586,0.54852 0,0 -0.42897,0.18747 -0.42897,0.18747 v 0 c 0.13044,-0.19701 0.27077,-0.38373 0.43252,-0.55683 0.27273,-0.27686 0.57706,-0.51858 0.85104,-0.79361 0.11937,-0.1127 0.17186,-0.22461 0.0116,-0.33093 -0.28885,-0.16952 -0.60174,-0.28454 -0.91584,-0.39849 -0.35118,-0.12643 -0.71803,-0.25082 -1.00837,-0.4934 0,0 0.41089,-0.2518 0.41089,-0.2518 z"
       inkscape:connector-curvature="0" />
    <path
       style="opacity:1;fill:#ff0000;fill-opacity:0.95999995;fill-rule:nonzero;stroke:#000000;stroke-width:0.3175;stroke-miterlimit:4;stroke-dasharray:none;stroke-opacity:0"
       id="path1614"
       d="m 134.63741,125.09582 c -0.33313,-0.0627 -0.67736,0.005 -1.00549,0.0689 -0.44456,0.0904 -0.88814,0.18625 -1.32746,0.29958 -0.21127,0.0978 -0.48678,0.0439 -0.68985,0.15385 0.12629,-0.0711 0.25179,-0.14355 0.37885,-0.21323 0.0191,-0.0105 -0.0313,0.0309 -0.05,0.0421 -0.14585,0.0873 -0.30058,0.16024 -0.44097,0.25606 -0.12278,0.0838 0.25531,-0.15281 0.38796,-0.21989 0.0161,-0.008 -0.0234,0.0276 -0.035,0.0414 -0.13264,0.2585 -0.17542,0.55393 -0.23338,0.83581 -0.11299,0.57013 -0.13997,1.15156 -0.16075,1.73088 -0.0151,0.56321 -0.0152,1.12671 -0.0134,1.69008 0.002,0.31724 0.003,0.63448 0.007,0.95171 0.001,0.10186 0.002,0.20373 0.003,0.3056 -5.3e-4,0.0351 -0.002,0.0844 0.006,0.10901 0.15284,0.0677 0.31335,0.0559 0.4788,0.0495 0.29828,-0.0186 0.5962,-0.0655 0.89118,-0.11465 0,0 -0.37454,0.28157 -0.37454,0.28157 v 0 c -0.29847,0.0486 -0.59888,0.0996 -0.90109,0.11448 -0.17584,0.006 -0.35128,0.0139 -0.5087,-0.0784 -0.0326,-0.0432 -0.0242,-0.088 -0.0235,-0.14134 0.002,-0.1028 0.002,-0.20561 0.002,-0.30841 0.002,-0.31906 0.003,-0.63813 0.004,-0.9572 0.002,-0.56474 0.002,-1.12958 0.0179,-1.69416 0.0191,-0.58008 0.0447,-1.16199 0.15009,-1.73407 0.056,-0.28682 0.10196,-0.57804 0.21192,-0.85052 0.16965,-0.23226 -0.3271,0.43631 0.46748,-0.31584 0.10832,-0.10254 -0.25799,0.14981 -0.38648,0.22556 -0.019,0.0112 0.0319,-0.0309 0.0507,-0.0424 0.14783,-0.0909 0.29982,-0.17489 0.44974,-0.26234 0.22224,-0.0673 0.46411,-0.0646 0.68508,-0.14147 0.43957,-0.11109 0.88342,-0.20486 1.32747,-0.29595 0.33707,-0.0628 0.68699,-0.12793 1.02835,-0.06 0,0 -0.3968,0.2737 -0.3968,0.2737 z"
       inkscape:connector-curvature="0" />
    <path
       style="opacity:1;fill:#000000;fill-opacity:0.95999995;fill-rule:nonzero;stroke:#000000;stroke-width:0.3175;stroke-miterlimit:4;stroke-dasharray:none;stroke-opacity:0"
       id="path1616"
       d="m 134.5575,129.40758 c 0.031,-0.35387 0.28507,-0.59975 0.52672,-0.8331 0.35363,-0.29021 0.92642,-0.76741 1.36477,-0.81344 0.31061,0.0968 0.31991,0.45259 0.34666,0.72763 0.008,0.28667 0.0299,0.57965 0.28875,0.74478 0.30161,0.0965 0.5536,-0.0949 0.81403,-0.21354 0.0562,-0.0256 -0.10712,0.0613 -0.16067,0.092 0.45874,-0.28843 0.88255,-0.63378 1.26653,-1.01575 0.0359,-0.0422 0.0719,-0.0845 0.10781,-0.12672 0,0 0.43549,-0.18487 0.43549,-0.18487 v 0 c -0.0363,0.0439 -0.0726,0.0878 -0.10892,0.13177 -0.3857,0.3845 -0.80955,0.73377 -1.26738,1.02915 -0.21216,0.12227 -0.42302,0.24682 -0.63648,0.36681 -0.25966,0.14596 -0.55404,0.29389 -0.85214,0.17813 -0.27444,-0.194 -0.29604,-0.46578 -0.30578,-0.78324 -0.0232,-0.23949 -0.0194,-0.59909 -0.30944,-0.6606 -0.24901,0.0453 -0.0945,0.0333 0.1451,-0.15098 0.0505,-0.0388 -0.11169,0.0613 -0.16543,0.0955 -0.18795,0.11941 -0.35733,0.26427 -0.52923,0.40495 -0.23485,0.22187 -0.49316,0.45222 -0.53075,0.79266 0,0 -0.42964,0.21891 -0.42964,0.21891 z"
       inkscape:connector-curvature="0" />
    <path
       style="opacity:1;fill:#000000;fill-opacity:0.95999995;fill-rule:nonzero;stroke:#000000;stroke-width:0.3175;stroke-miterlimit:4;stroke-dasharray:none;stroke-opacity:0"
       id="path1618"
       d="m 138.26226,125.65813 c -0.0978,0.37272 -0.20726,0.74198 -0.29751,1.11689 -0.15539,0.63899 -0.275,1.28635 -0.38551,1.93444 -0.11402,0.61566 -0.21758,1.23349 -0.3114,1.85257 -0.0476,0.32594 -0.0761,0.65429 -0.0884,0.98337 0.01,0.0369 -0.0294,0.11987 0.0182,0.11551 0,0 -0.402,0.27169 -0.402,0.27169 v 0 c -0.069,-0.0419 -0.0495,-0.0985 -0.0449,-0.1714 0.0203,-0.3326 0.0496,-0.66483 0.0997,-0.9944 0.0961,-0.62038 0.20297,-1.23932 0.31775,-1.85648 0.10864,-0.64768 0.22668,-1.29458 0.37747,-1.93389 0.0868,-0.37201 0.19305,-0.73896 0.28191,-1.11004 0,0 0.43474,-0.20826 0.43474,-0.20826 z"
       inkscape:connector-curvature="0" />
    <path
       style="opacity:1;fill:#000000;fill-opacity:0.95999995;fill-rule:nonzero;stroke:#000000;stroke-width:0.3175;stroke-miterlimit:4;stroke-dasharray:none;stroke-opacity:0"
       id="path1620"
       d="m 140.33091,128.47207 c -0.10806,0.37936 -0.23867,0.75169 -0.34103,1.13279 -0.0686,0.33584 -0.14066,0.67143 -0.20401,1.00847 -0.0256,0.13726 -0.0422,0.27611 -0.0493,0.41554 -0.0146,0.0621 0.0915,-0.006 0.15145,-0.0229 0.27444,-0.0607 0.54755,-0.12875 0.81877,-0.2037 0.2246,-0.0615 0.45455,-0.0977 0.68587,-0.12106 0.0677,-0.006 0.0365,-0.003 0.0937,-0.007 0,0 -0.3895,0.28703 -0.3895,0.28703 v 0 c -0.0551,0.004 -0.0249,0.002 -0.0904,0.007 -0.22817,0.0229 -0.45446,0.0619 -0.67561,0.12341 -0.27326,0.0751 -0.54888,0.14048 -0.82417,0.20736 -0.065,0.0169 -0.21337,0.0636 -0.20294,-0.0525 0.01,-0.14236 0.0265,-0.28453 0.054,-0.42462 0.065,-0.33908 0.14281,-0.67577 0.20859,-1.01456 0.10085,-0.37809 0.22976,-0.7475 0.33203,-1.12508 0,0 0.43269,-0.20981 0.43269,-0.20981 z"
       inkscape:connector-curvature="0" />
    <path
       style="opacity:1;fill:#ff0000;fill-opacity:0.95999995;fill-rule:nonzero;stroke:#000000;stroke-width:0.3175;stroke-miterlimit:4;stroke-dasharray:none;stroke-opacity:0"
       id="path1622"
       d="m 142.69894,123.3903 c 0.35592,0.0739 0.72271,0.0808 1.0849,0.0936 0.38799,0.0107 0.78071,0.0353 1.15598,0.13948 0.19127,0.0494 0.26407,0.14904 0.21045,0.33719 -0.12611,0.31708 -0.23436,0.63627 -0.3061,0.97025 -0.14239,0.66402 -0.22626,1.33772 -0.31317,2.01058 -0.10356,0.76644 -0.14373,1.53883 -0.16708,2.31121 -0.003,0.53866 -0.009,1.07505 -0.0631,1.61116 -0.0223,0.20567 -0.0437,0.41145 -0.0562,0.61797 -0.001,0.0265 -0.003,0.0556 -0.004,0.0815 -0.14715,0.0844 -0.29118,0.17453 -0.44146,0.25325 -0.0213,0.0111 -0.17025,0.0283 -0.19565,0.0349 -0.0846,0.0219 -0.16776,0.0488 -0.25192,0.0722 -0.25302,0.094 -0.51837,0.14426 -0.77673,0.21918 0,0 0.37596,-0.28926 0.37596,-0.28926 v 0 c 0.25986,-0.0711 0.5234,-0.12892 0.77766,-0.21983 0.23106,-0.0655 0.92177,-0.28056 0.0796,0.15307 -8e-4,-0.0295 0.003,-0.0594 0.005,-0.0889 0.0176,-0.20863 0.0399,-0.41677 0.0656,-0.62456 0.0623,-0.53675 0.0751,-1.07398 0.0773,-1.61423 0.0245,-0.77406 0.0666,-1.54806 0.16779,-2.31644 0.0843,-0.67177 0.16448,-1.34437 0.30042,-2.00824 0.0655,-0.33401 0.16667,-0.65358 0.29158,-0.96974 0.0724,-0.18221 0.01,-0.21438 -0.16832,-0.27191 -0.37083,-0.10325 -0.75933,-0.12377 -1.14253,-0.13532 -0.36811,-0.0131 -0.74032,-0.0207 -1.10249,-0.0934 0,0 0.39681,-0.2737 0.39681,-0.2737 z"
       inkscape:connector-curvature="0" />
    <text
       xml:space="preserve"
       style="font-style:normal;font-weight:normal;font-size:2.82222223px;line-height:1.25;font-family:sans-serif;letter-spacing:0px;word-spacing:0px;fill:#000080;fill-opacity:1;stroke:none;stroke-width:0.26458332"
       x="6.6960053"
       y="119.2515"
       id="text1626"><tspan
         sodipodi:role="line"
         id="tspan1624"
         x="6.6960053"
         y="119.2515"
         style="fill:#000080;stroke-width:0.26458332">Embedding</tspan></text>
    <text
       xml:space="preserve"
       style="font-style:normal;font-weight:normal;font-size:2.82222223px;line-height:1.25;font-family:sans-serif;letter-spacing:0px;word-spacing:0px;fill:#000080;fill-opacity:1;stroke:none;stroke-width:0.26458332"
       x="35.936161"
       y="119.29961"
       id="text1626-3"><tspan
         sodipodi:role="line"
         id="tspan1624-6"
         x="35.936161"
         y="119.29961"
         style="fill:#000080;stroke-width:0.26458332">Encoding</tspan><tspan
         sodipodi:role="line"
         x="35.936161"
         y="122.82738"
         style="fill:#000080;stroke-width:0.26458332"
         id="tspan1646" /></text>
    <text
       xml:space="preserve"
       style="font-style:normal;font-weight:normal;font-size:2.82222223px;line-height:1.25;font-family:sans-serif;letter-spacing:0px;word-spacing:0px;fill:#000080;fill-opacity:1;stroke:none;stroke-width:0.26458332"
       x="63.450657"
       y="119.54311"
       id="text1626-7"><tspan
         sodipodi:role="line"
         id="tspan1624-5"
         x="63.450657"
         y="119.54311"
         style="fill:#000080;stroke-width:0.26458332">Errors</tspan></text>
    <text
       xml:space="preserve"
       style="font-style:normal;font-weight:normal;font-size:2.82222223px;line-height:1.25;font-family:sans-serif;letter-spacing:0px;word-spacing:0px;fill:#000080;fill-opacity:1;stroke:none;stroke-width:0.26458332"
       x="84.512634"
       y="119.29961"
       id="text1626-35"><tspan
         sodipodi:role="line"
         id="tspan1624-62"
         x="84.512634"
         y="119.29961"
         style="fill:#000080;stroke-width:0.26458332">Decoding</tspan><tspan
         sodipodi:role="line"
         x="84.512634"
         y="122.82738"
         style="fill:#000080;stroke-width:0.26458332"
         id="tspan1664" /></text>
    <text
       xml:space="preserve"
       style="font-style:normal;font-weight:normal;font-size:2.82222223px;line-height:1.25;font-family:sans-serif;letter-spacing:0px;word-spacing:0px;fill:#000080;fill-opacity:1;stroke:none;stroke-width:0.26458332"
       x="112.75761"
       y="119.66485"
       id="text1626-9"><tspan
         sodipodi:role="line"
         id="tspan1624-1"
         x="112.75761"
         y="119.66485"
         style="fill:#000080;stroke-width:0.26458332">Projecting</tspan><tspan
         sodipodi:role="line"
         x="112.75761"
         y="123.19263"
         style="fill:#000080;stroke-width:0.26458332"
         id="tspan1674" /><tspan
         sodipodi:role="line"
         x="112.75761"
         y="126.72041"
         style="fill:#000080;stroke-width:0.26458332"
         id="tspan1676" /></text>
  </g>
</svg>
