<?xml version="1.0" encoding="UTF-8" standalone="no"?>
<!-- Created with Inkscape (http://www.inkscape.org/) -->

<svg
   xmlns:dc="http://purl.org/dc/elements/1.1/"
   xmlns:cc="http://creativecommons.org/ns#"
   xmlns:rdf="http://www.w3.org/1999/02/22-rdf-syntax-ns#"
   xmlns:svg="http://www.w3.org/2000/svg"
   xmlns="http://www.w3.org/2000/svg"
   xmlns:sodipodi="http://sodipodi.sourceforge.net/DTD/sodipodi-0.dtd"
   xmlns:inkscape="http://www.inkscape.org/namespaces/inkscape"
   width="210mm"
   height="297mm"
   viewBox="0 0 210 297"
   version="1.1"
   id="svg901"
   sodipodi:docname="black_box.svg"
   inkscape:version="0.92.5 (2060ec1f9f, 2020-04-08)">
  <defs
     id="defs895" />
  <sodipodi:namedview
     id="base"
     pagecolor="#ffffff"
     bordercolor="#666666"
     borderopacity="1.0"
     inkscape:pageopacity="0.0"
     inkscape:pageshadow="2"
     inkscape:zoom="1.0866242"
     inkscape:cx="334.24421"
     inkscape:cy="560"
     inkscape:document-units="mm"
     inkscape:current-layer="layer1"
     showgrid="false"
     inkscape:window-width="1294"
     inkscape:window-height="704"
     inkscape:window-x="72"
     inkscape:window-y="27"
     inkscape:window-maximized="1" />
  <metadata
     id="metadata898">
    <rdf:RDF>
      <cc:Work
         rdf:about="">
        <dc:format>image/svg+xml</dc:format>
        <dc:type
           rdf:resource="http://purl.org/dc/dcmitype/StillImage" />
      </cc:Work>
    </rdf:RDF>
  </metadata>
  <g
     inkscape:label="Layer 1"
     inkscape:groupmode="layer"
     id="layer1">
    <path
       style="opacity:1;fill:#000000;fill-opacity:0.95999995;fill-rule:nonzero;stroke:#000000;stroke-width:0.3175;stroke-miterlimit:4;stroke-dasharray:none;stroke-opacity:0"
       id="path1448"
       d="m 64.327661,117.19109 c -0.678588,-0.13805 -1.338742,0.0234 -1.970556,0.26625 -1.101905,0.65997 0.523195,-0.31783 1.351161,-0.74422 0.118983,-0.0613 -0.215733,0.15857 -0.32026,0.24215 -0.313666,0.25082 -0.614352,0.52048 -0.9214,0.77939 -0.552255,0.44598 -1.0618,0.94001 -1.486324,1.50947 -0.390242,0.60057 -0.693616,1.25299 -1.028194,1.88563 -0.372616,0.83188 -0.755759,1.65912 -1.098818,2.50383 -0.279011,0.71085 -0.487023,1.45817 -0.506761,2.22453 0.03806,0.70835 0.277976,1.10428 0.7669,1.58732 0.437409,0.38862 0.924999,0.64748 1.49574,0.76457 0.698735,0.10946 1.398788,0.11318 2.091724,-0.0243 0.850281,-0.15208 1.670127,-0.41009 2.459336,-0.7571 0.758749,-0.39436 1.370079,-0.71848 -1.305398,0.76594 -0.114401,0.0635 0.222271,-0.13821 0.330438,-0.21181 0.295362,-0.20096 0.547439,-0.42597 0.800028,-0.67682 0.450049,-0.46045 0.803892,-1.00301 1.142373,-1.54769 0.282985,-0.48968 0.512742,-0.99923 0.641864,-1.5501 0.07797,-0.40232 0.147301,-0.78202 -0.07806,-1.14145 -0.425823,-0.44861 -1.061019,-0.51832 -1.642353,-0.60045 -0.121156,1.8e-4 -0.242308,2.7e-4 -0.363461,5.3e-4 0,0 1.931985,-1.3942 1.931985,-1.3942 v 0 c 0.12609,0.008 0.252182,0.0163 0.378272,0.0244 0.646568,0.10854 1.332042,0.22781 1.774857,0.75916 0.281228,0.44883 0.249266,0.80064 0.158424,1.30836 -0.112945,0.57932 -0.331808,1.11079 -0.618217,1.62682 -0.328861,0.56017 -0.685117,1.11411 -1.120989,1.59734 -1.063927,1.13995 -2.501641,1.83738 -3.892579,2.51117 -0.803942,0.32957 -1.639409,0.56818 -2.496482,0.71596 -0.717513,0.1033 -1.447956,0.0975 -2.161212,-0.0442 -0.594045,-0.16019 -1.110408,-0.45798 -1.563518,-0.87761 -0.547454,-0.5525 -0.775618,-0.96508 -0.860573,-1.75228 -0.0065,-0.79417 0.211508,-1.57512 0.488283,-2.31458 0.338797,-0.85064 0.728189,-1.67709 1.081037,-2.52193 0.331531,-0.63778 0.64135,-1.28857 1.006523,-1.90708 0.38699,-0.60995 0.918086,-1.11175 1.470856,-1.57222 1.255437,-1.05938 2.329709,-1.99232 3.971634,-2.63238 0.676542,-0.22049 1.384728,-0.33802 2.087097,-0.15494 0,0 -1.993379,1.35249 -1.993379,1.35249 z"
       inkscape:connector-curvature="0" />
    <path
       style="opacity:1;fill:#000000;fill-opacity:0.95999995;fill-rule:nonzero;stroke:#000000;stroke-width:0.3175;stroke-miterlimit:4;stroke-dasharray:none;stroke-opacity:0"
       id="path1450"
       d="m 61.904728,124.51454 c -0.08202,0.35757 -0.314724,0.70387 -0.320093,1.07713 0.935178,-0.86544 -2.609696,1.4456 -1.70063,0.8871 0.105069,-0.12815 0.21844,-0.29418 0.04035,-0.38584 -0.619128,0.52693 -1.789631,1.02238 1.659263,-0.89995 0.104307,-0.0581 -0.187698,0.1484 -0.272992,0.23198 -0.08164,0.0601 -0.327951,0.53058 -0.156813,0.18747 -3.756337,2.0877 -1.932885,1.40959 -1.511067,0.53305 0.04776,-0.3078 0.0159,-0.22955 -0.174252,-0.17284 -0.637506,0.50698 -1.768684,0.99185 1.784384,-0.99363 -0.07274,0.0413 -0.09972,0.12207 -0.171669,0.16077 7.93e-4,0.0316 0.01413,0.0539 -0.01042,-0.0968 0,0 -1.933202,1.46785 -1.933202,1.46785 v 0 c -0.122367,-0.09 -0.198152,-0.15561 -0.236027,-0.30738 -0.0075,-0.099 0.01384,-0.24759 0.113588,-0.31045 0.618154,-0.3895 1.504794,-1.22552 2.405095,-1.35486 0.306578,0.0387 0.408138,0.27959 0.404397,0.56558 -0.145312,1.07198 -2.2201,1.71841 -2.594774,1.979 -0.395137,-0.11699 -0.338675,-0.43595 -0.141899,-0.72681 0.701863,-0.83569 0.906754,-0.68585 2.462705,-1.57511 0.147261,-0.0842 0.275457,-0.0661 0.41851,0.016 0.239895,0.21179 0.271687,0.44669 0.139895,0.73761 -0.436477,0.8827 -0.05936,0.18217 -2.247825,1.39698 -0.18142,0.10071 -0.357664,-0.0838 -0.426054,-0.22633 -0.04917,-0.41021 0.196017,-0.77532 0.289129,-1.16652 0,0 2.180413,-1.02401 2.180413,-1.02401 z"
       inkscape:connector-curvature="0" />
    <path
       style="opacity:1;fill:#000000;fill-opacity:0.95999995;fill-rule:nonzero;stroke:#000000;stroke-width:0.3175;stroke-miterlimit:4;stroke-dasharray:none;stroke-opacity:0"
       id="path1452"
       d="m 34.475933,121.0848 c 0.03052,-0.74616 0.429564,-1.32522 0.918448,-1.85571 1.346168,-1.30028 2.801154,-2.05371 4.446021,-3.00631 0.828305,-0.44694 1.720242,-0.7278 2.653395,-0.82895 0.929611,-0.032 1.454074,0.31747 2.034985,1.00073 0.674954,0.9643 0.734136,2.13688 0.693658,3.27318 -0.0882,1.72853 -0.702707,3.21469 -1.515502,4.71431 -0.968359,1.69732 -2.288365,3.12116 -3.782957,4.36218 -1.725829,1.1858 -3.707325,2.54385 -5.813559,3.00009 -0.252558,0.0547 -0.510739,0.0791 -0.766109,0.11866 -1.239208,0.0517 -2.463951,-0.28689 -3.378314,-1.16002 -0.17271,-0.16492 -0.313314,-0.36048 -0.469972,-0.54072 -0.730215,-1.02633 -1.071311,-2.25892 -0.895011,-3.51514 0.04045,-0.28821 0.120348,-0.56948 0.180523,-0.85422 0.532288,-1.83408 1.659202,-3.22056 3.006767,-4.51968 0,0 2.147758,-0.88243 2.147758,-0.88243 v 0 c -1.378871,1.27549 -2.495415,2.56385 -3.070728,4.39633 -0.06208,0.27363 -0.142081,0.54381 -0.186229,0.82091 -0.189892,1.19182 0.11734,2.37179 0.817435,3.34641 0.148362,0.16796 0.280842,0.35143 0.445093,0.50389 0.88815,0.82442 2.081855,1.09862 3.261714,1.0058 0.792104,-0.14568 1.525019,-0.33681 2.264532,-0.66637 0.260175,-0.11595 0.993251,-0.55062 0.765826,-0.37912 -0.371221,0.27995 -0.772375,0.52978 -1.201836,0.70792 -0.282096,0.11702 0.502071,-0.34786 0.753108,-0.52178 1.509458,-1.20487 2.840519,-2.60274 3.819503,-4.28091 0.797986,-1.44271 1.446393,-2.92898 1.530895,-4.60263 0.04312,-1.07339 0.0046,-2.1898 -0.641011,-3.09913 -0.556718,-0.62254 -1.048028,-0.88301 -1.904532,-0.80754 -0.912121,0.13538 -1.782238,0.43721 -2.58614,0.8931 2.574253,-1.50947 1.82222,-1.11099 1.131184,-0.62648 -0.416272,0.29187 -0.79511,0.61838 -1.184823,0.94321 -0.120047,0.10007 -0.243454,0.19603 -0.365181,0.29404 -0.480388,0.46543 -0.906682,0.97675 -0.961408,1.67216 0,0 -2.147533,1.09422 -2.147533,1.09422 z"
       inkscape:connector-curvature="0" />
    <path
       style="opacity:1;fill:#000000;fill-opacity:0.95999995;fill-rule:nonzero;stroke:#000000;stroke-width:0.3175;stroke-miterlimit:4;stroke-dasharray:none;stroke-opacity:0"
       id="path1454"
       d="m 35.048854,124.55675 c -0.436383,0.54234 -0.860592,1.18638 -0.747334,1.90779 0.0376,0.0687 0.05902,0.1491 0.112807,0.20596 0.328875,0.34768 1.126345,-0.0428 1.439032,-0.21647 -3.189015,1.81886 -1.653455,1.11575 -1.159354,0.41329 0.201554,-0.28654 0.302993,-0.59043 0.376126,-0.92742 0.03694,-0.50022 -0.251216,-0.77326 -0.732287,-0.78295 0.157819,-0.24598 -0.960686,0.47046 -0.668996,0.31077 0.615032,-0.33669 1.207632,-0.71504 1.83429,-1.02957 0.08067,-0.0405 -0.128849,0.12753 -0.182166,0.20036 -0.05425,0.0741 -0.0925,0.15869 -0.138752,0.23804 -0.191427,0.40483 -0.26552,0.78766 -0.01659,1.17594 0.118713,0.0817 0.254754,0.0481 0.381646,-0.006 0.05184,-0.0223 0.195342,-0.11303 0.146076,-0.0855 -1.980816,1.10597 -2.447176,1.63934 -1.845241,0.98063 0.162483,-0.39816 -0.181147,-0.64013 -0.506743,-0.77247 -0.261753,-0.0148 -0.135197,-0.0299 -0.380066,0.0417 0,0 1.93,-1.4373 1.93,-1.4373 v 0 c 0.301429,0.007 0.149289,-0.0141 0.455557,0.0703 0.438968,0.23505 0.758619,0.58604 0.704123,1.11742 -0.365514,0.96861 -0.04649,0.23721 -2.256105,1.48414 -0.236363,0.13339 -0.54682,-0.0124 -0.710975,-0.18094 -0.28153,-0.45978 -0.289843,-0.90162 -0.08351,-1.40157 0.506733,-1.15354 0.911268,-0.93603 2.532454,-1.90067 0.236678,-0.14083 0.491093,-0.20705 0.76581,-0.18861 0.57507,0.13626 0.922306,0.50529 0.921698,1.12047 -0.274855,1.73107 -1.690397,2.26 -3.227354,3.04339 -0.649716,0.2662 -1.460044,0.43651 -1.802299,-0.34777 -0.02323,-0.1117 -0.06453,-0.22112 -0.06972,-0.33509 -0.02937,-0.64528 0.376518,-1.2479 0.716402,-1.75784 0,0 2.211458,-0.93959 2.211458,-0.93959 z"
       inkscape:connector-curvature="0" />
    <path
       style="opacity:1;fill:#000000;fill-opacity:0.95999995;fill-rule:nonzero;stroke:#000000;stroke-width:0.3175;stroke-miterlimit:4;stroke-dasharray:none;stroke-opacity:0"
       id="path1456"
       d="m 59.491535,125.36168 c -0.08613,0.0244 -0.174212,0.0427 -0.258381,0.0732 -0.311571,0.11281 -0.69528,0.35449 -0.555646,0.27566 3.011051,-1.70002 2.018778,-1.30577 1.414266,-0.65199 0.033,-0.0375 -0.196956,0.25201 -0.11371,0.26462 0.05408,0.008 0.05193,-0.0982 0.09065,-0.13679 0.03937,-0.0393 0.08601,-0.0705 0.129021,-0.1058 -3.150386,1.79798 -1.712762,1.32812 -1.266902,0.12383 0.01275,-0.0369 0.09112,-0.35951 -0.0435,-0.35649 -0.04113,7.9e-4 -0.05396,0.0625 -0.08521,0.0893 4.211254,-2.22448 1.878298,-1.54913 1.746099,-0.66416 0.01291,-0.0296 0.0061,0.12978 0.03461,0.10595 0.01789,-0.0149 -0.0019,-0.0478 0.0064,-0.0696 0.0072,-0.0192 0.05621,-0.058 0.03816,-0.0483 -1.78085,0.96164 -2.69552,1.55046 -1.971369,1.08581 0.726126,-0.8387 -1.374846,0.49471 2.317086,-1.1747 0,0 -2.147443,1.12196 -2.147443,1.12196 v 0 c 1.876608,-1.00219 2.527274,-1.88731 2.060253,-0.89561 -0.399394,0.81448 -2.093664,2.0583 -2.488404,0.98358 -0.168018,-1.13463 1.858269,-1.66747 2.346732,-1.89333 0.328364,0.0779 0.410226,0.39134 0.363742,0.6964 -0.449983,1.38168 -1.288923,1.63951 -2.788904,2.40563 -0.455534,0.14582 -0.633299,-0.21388 -0.437513,-0.5964 0.8597,-1.08485 2.220881,-1.71921 3.535955,-2.08125 0,0 -1.925986,1.44851 -1.925986,1.44851 z"
       inkscape:connector-curvature="0" />
    <path
       style="opacity:1;fill:#000000;fill-opacity:0.95999995;fill-rule:nonzero;stroke:#000000;stroke-width:0.3175;stroke-miterlimit:4;stroke-dasharray:none;stroke-opacity:0"
       id="path1458"
       d="m 52.829322,143.04241 c -1.058418,0.93431 -2.33753,1.59734 -3.60217,2.21388 -0.354817,0.17496 -0.731972,0.29883 -1.126151,0.22525 -0.477414,-0.11312 -0.967081,-0.14919 -1.455431,-0.17726 -0.633558,0.0228 -1.232588,0.22444 -1.830459,0.41561 -0.299638,0.0984 -0.238191,0.0679 -0.515014,0.1975 -0.06864,0.0321 -0.269338,0.1388 -0.203777,0.10079 3.403047,-1.97279 2.153719,-1.36859 1.55031,-0.8083 -0.394223,0.4203 -0.545893,0.96488 -0.65256,1.51557 -0.09997,0.49529 -0.109776,0.95538 0.15598,1.39386 0.163629,0.16303 0.07304,0.0923 0.272031,0.21188 0,0 -2.028685,1.29527 -2.028685,1.29527 v 0 c -0.236426,-0.17888 -0.128037,-0.0788 -0.325143,-0.30039 -0.290791,-0.48753 -0.333161,-0.99794 -0.223229,-1.55337 0.09679,-0.58099 0.226766,-1.15467 0.582287,-1.63922 0.837067,-0.96013 2.083638,-1.48056 3.276436,-1.87595 0.614214,-0.19101 1.239223,-0.36978 1.88949,-0.34912 0.49236,0.0356 0.980977,0.0943 1.468223,0.17259 0.369803,-0.017 0.710578,-0.15045 1.035746,-0.32343 0.730078,-0.39185 1.968971,-1.13013 -1.288129,0.76419 -0.06156,0.0358 0.229391,-0.10505 0.570841,-0.36781 0.07829,-0.0602 0.15114,-0.12725 0.226711,-0.19087 0,0 2.222693,-0.92067 2.222693,-0.92067 z"
       inkscape:connector-curvature="0" />
    <path
       style="opacity:1;fill:#000000;fill-opacity:0.95999995;fill-rule:nonzero;stroke:#000000;stroke-width:0.3175;stroke-miterlimit:4;stroke-dasharray:none;stroke-opacity:0"
       id="path1460"
       d="m 47.421027,146.929 c 0.338338,0.1993 0.728649,0.28997 1.114155,0.34686 0.843468,0.0905 1.462471,-0.56245 -1.898875,1.12288 -0.05121,0.0257 0.01773,-0.11328 0.02275,-0.17035 0.03009,-0.21515 -0.11094,-0.21452 -0.282614,-0.24581 -0.272691,-0.0643 -0.478756,0.0247 -0.728168,0.1179 -0.811102,0.32163 -0.165497,0.071 1.898446,-1.09247 0.02289,-0.0129 -0.04536,0.0268 -0.06619,0.0428 -0.05794,0.0445 -0.08744,0.089 -0.112025,0.15629 0.01638,0.078 0.212699,0.0581 0.29487,0.0643 0.02874,0.001 0.06025,0.0167 0.08621,0.004 0.02344,-0.0112 0.06484,-0.0781 0.04202,-0.0656 -2.956418,1.6103 -2.588218,1.53621 -1.902971,1.06166 0.06329,0.14458 0.07876,0.0902 0.04747,0.16292 0,0 2.005441,-1.371 2.005441,-1.371 v 0 c 0.117171,0.0907 0.05044,0.0267 0.168114,0.22064 -0.01161,0.0453 -0.03674,0.12643 -0.0791,0.15193 -2.088375,1.25745 -1.35373,1.38549 -2.345479,1.23005 -0.243411,-0.0497 -0.432964,-0.14951 -0.499816,-0.40687 0.127458,-1.02007 1.438952,-1.33632 2.371849,-1.6412 0.272963,-0.079 0.536678,-0.0855 0.812734,-0.005 0.244734,0.0852 0.4581,0.242 0.45407,0.52684 -0.02582,0.96428 -1.352378,1.77232 -2.272789,1.52056 -0.399997,-0.0943 -0.795618,-0.21683 -1.154282,-0.42207 0,0 2.024179,-1.30968 2.024179,-1.30968 z"
       inkscape:connector-curvature="0" />
    <path
       style="opacity:1;fill:#000000;fill-opacity:0.95999995;fill-rule:nonzero;stroke:#000000;stroke-width:0.3175;stroke-miterlimit:4;stroke-dasharray:none;stroke-opacity:0"
       id="path1462"
       d="m 48.611088,147.52459 c 0.167648,0.30315 0.222282,0.62982 0.250264,0.96947 0,0 -2.134462,1.10248 -2.134462,1.10248 v 0 c -0.008,-0.30659 -0.03824,-0.59349 -0.201695,-0.86298 0,0 2.085893,-1.20897 2.085893,-1.20897 z"
       inkscape:connector-curvature="0" />
    <path
       style="opacity:1;fill:#000000;fill-opacity:0.95999995;fill-rule:nonzero;stroke:#000000;stroke-width:0.3175;stroke-miterlimit:4;stroke-dasharray:none;stroke-opacity:0"
       id="path1464"
       d="m 45.202212,149.9595 c 0.247825,0.48642 0.601562,0.88683 1.05944,1.18102 0.444883,0.30613 0.940816,0.46815 1.479148,0.45083 0.387371,-0.0283 0.772533,-0.0789 1.155742,-0.14121 0,0 -1.932091,1.44629 -1.932091,1.44629 v 0 c -0.386551,0.0479 -0.774512,0.0951 -1.164553,0.0975 -0.570267,-0.0449 -1.089721,-0.22697 -1.557507,-0.56333 -0.467539,-0.3354 -0.843761,-0.75865 -1.126071,-1.26212 0,0 2.085892,-1.20897 2.085892,-1.20897 z"
       inkscape:connector-curvature="0" />
    <path
       style="opacity:1;fill:#000000;fill-opacity:0.95999995;fill-rule:nonzero;stroke:#000000;stroke-width:0.3175;stroke-miterlimit:4;stroke-dasharray:none;stroke-opacity:0"
       id="path1466"
       d="m 60.549575,109.00197 c 1.038407,-0.12181 2.092386,-0.0487 3.131526,0.0333 1.680443,0.16598 3.361852,0.24622 5.048017,0.151 0.924134,-0.0591 1.831409,-0.23405 2.736316,-0.41915 0,0 -1.842101,1.39384 -1.842101,1.39384 v 0 c -0.910645,0.17211 -1.823423,0.33558 -2.750762,0.38899 -1.700016,0.0812 -3.395382,-0.003 -5.090096,-0.1552 -1.050181,-0.0626 -2.117254,-0.13127 -3.158887,0.0557 0,0 1.925987,-1.4485 1.925987,-1.4485 z"
       inkscape:connector-curvature="0" />
    <path
       style="opacity:1;fill:#000000;fill-opacity:0.95999995;fill-rule:nonzero;stroke:#000000;stroke-width:0.3175;stroke-miterlimit:4;stroke-dasharray:none;stroke-opacity:0"
       id="path1468"
       d="m 24.084164,108.40366 c 1.446389,0.46732 2.951463,0.7209 4.450222,0.9534 2.864453,0.40584 5.753608,0.41464 8.634751,0.24207 1.293088,-0.0864 2.572832,-0.2903 3.851511,-0.4915 0,0 -1.821408,1.3652 -1.821408,1.3652 v 0 c -1.269153,0.18064 -2.539092,0.36485 -3.819985,0.44227 -2.905072,0.15525 -5.818394,0.14059 -8.707528,-0.24721 -1.537286,-0.22888 -3.0731,-0.4863 -4.571805,-0.90531 0,0 1.984242,-1.35892 1.984242,-1.35892 z"
       inkscape:connector-curvature="0" />
    <path
       style="opacity:1;fill:#000000;fill-opacity:0.95999995;fill-rule:nonzero;stroke:#000000;stroke-width:0.3175;stroke-miterlimit:4;stroke-dasharray:none;stroke-opacity:0"
       id="path1470"
       d="m 32.304609,126.04634 c 1.056007,-0.0938 3.088298,-1.43235 -0.614019,0.66472 0.301868,-0.22137 0.232868,-0.51623 0.07186,-0.80591 -0.205537,-0.21345 -0.530149,-0.36753 -0.82586,-0.29287 -0.69909,0.56501 -0.09058,0.0633 1.85166,-1.02362 0.03541,-0.0198 -0.07071,0.0416 -0.0993,0.0704 -0.114294,0.11511 -0.131204,0.25873 -0.145634,0.41093 0.06206,0.52892 0.564721,0.62138 1.007641,0.70819 0.26606,-0.001 0.312087,0.0181 0.570254,-0.0602 0.0944,-0.0286 0.360048,-0.15939 0.274781,-0.1098 -3.100023,1.80271 -1.96587,1.31293 -1.439773,0.59751 0.264636,-0.51709 -0.02217,-0.94938 -0.370462,-1.33192 -0.331483,-0.28551 -0.698494,-0.56083 -1.141677,-0.38642 -0.789061,0.55656 0.223975,-0.16606 1.705084,-0.94176 0.07427,-0.0389 -0.128061,0.10943 -0.181938,0.17367 -0.168079,0.20038 -0.252688,0.42895 -0.31786,0.6768 -0.07643,0.41203 0.09495,0.64563 0.511993,0.63521 -0.207529,0.24692 1.037108,-0.47379 0.739224,-0.30655 -3.175127,1.78258 -1.973604,1.35412 -1.471274,0.65242 0.182899,-0.42786 -0.240138,-0.48276 -0.569769,-0.47438 -0.764633,0.24927 -2.120101,0.98313 1.425601,-0.86789 0.07984,-0.0417 -0.141319,0.1127 -0.202909,0.17841 -0.175448,0.1872 -0.176016,0.2305 -0.282638,0.45329 -0.12155,0.35174 -0.125175,0.78548 0.324763,0.83213 0.691636,-0.45431 1.704284,-0.84295 -1.66483,0.91634 -0.05292,0.0276 0.08208,-0.0881 0.111733,-0.13996 0.06996,-0.12221 0.06444,-0.1944 0.07995,-0.32941 -0.0064,-0.13958 -0.01979,-0.24177 -0.159301,-0.28284 0,0 2.038205,-1.30125 2.038205,-1.30125 v 0 c 0.156104,0.14402 0.254823,0.28236 0.273942,0.50405 -0.0024,0.12614 0.0011,0.31171 -0.03209,0.4332 -0.272267,1.00157 -1.640496,1.61303 -2.641113,1.558 -0.491368,-0.23209 -0.640183,-0.66114 -0.505063,-1.18291 0.408313,-1.27765 1.893761,-2.04256 3.185329,-2.16803 0.498115,0.0767 0.924798,0.3193 0.809636,0.89303 -0.456951,1.01371 -1.616075,1.26004 -2.58885,1.81954 -0.253839,0.146 -0.543047,0.20926 -0.833128,0.20058 -0.495742,-0.12426 -0.770086,-0.4459 -0.710478,-0.97715 0.223589,-1.37597 1.546503,-2.02317 2.876532,-2.40677 0.51272,-0.016 0.909698,0.25075 1.269389,0.59867 0.404315,0.45737 0.71896,0.98002 0.513963,1.60703 -0.667364,1.21118 -2.191366,2.03249 -3.563546,1.90019 -0.557196,-0.14177 -1.065294,-0.35595 -1.187262,-0.97763 -0.08481,-1.20475 1.347132,-1.84561 2.486501,-1.97694 0.379691,0.0491 0.728068,0.20747 0.966545,0.51755 0.195619,0.35125 0.337685,0.76242 0.07794,1.12044 -1.270809,0.74973 -2.153393,1.49092 -3.549734,1.67035 0,0 1.925987,-1.44851 1.925987,-1.44851 z"
       inkscape:connector-curvature="0" />
    <path
       style="opacity:1;fill:#000000;fill-opacity:0.95999995;fill-rule:nonzero;stroke:#000000;stroke-width:0.3175;stroke-miterlimit:4;stroke-dasharray:none;stroke-opacity:0"
       id="path1472"
       d="m 58.297129,124.71707 c -0.08698,0.0495 -0.173953,0.0991 -0.260929,0.14866 0,0 1.861039,-1.50157 1.861039,-1.50157 v 0 c 0.09326,-0.0503 0.186518,-0.10055 0.279779,-0.15082 0,0 -1.879889,1.50373 -1.879889,1.50373 z"
       inkscape:connector-curvature="0" />
    <path
       style="opacity:1;fill:#000000;fill-opacity:0.95999995;fill-rule:nonzero;stroke:#000000;stroke-width:0.3175;stroke-miterlimit:4;stroke-dasharray:none;stroke-opacity:0"
       id="path1520"
       d="m 27.390598,162.20298 c 0.137501,0.89789 0.256249,1.79766 0.369636,2.69922 0.267935,1.52879 0.456123,3.06801 0.637765,4.60877 0.194463,1.86251 0.418846,3.72107 0.734039,5.56719 0.285482,1.92652 0.667845,3.83593 1.030647,5.7488 0.337542,1.64301 0.745432,3.2702 1.024273,4.92481 0.251177,1.33372 0.369327,2.68608 0.559718,4.02857 0.122389,0.8168 0.341059,1.61231 0.526675,2.41539 0.104179,0.6795 0.233539,1.35508 0.336386,2.03487 0.09355,0.44764 0.102494,0.88291 0.01667,1.32962 -0.06401,0.2836 -0.104129,0.57068 -0.126849,0.86022 -0.02093,0.38244 -0.01908,0.76573 -0.02013,1.14861 0.0013,0.23464 0.0044,0.4693 0.01246,0.70381 0.02265,0.10759 -0.07372,-0.047 0.06277,0.0844 -0.0011,-0.0192 -0.0024,-0.0383 -0.0035,-0.0575 0,0 -1.98828,1.39649 -1.98828,1.39649 v 0 c -0.02543,-0.0231 -0.05087,-0.0461 -0.07631,-0.0692 -0.06812,-0.0682 -0.174168,-0.14431 -0.158258,-0.25098 0.0066,-0.23861 0.0092,-0.47731 0.01003,-0.716 -0.0013,-0.38527 -0.0052,-0.77064 0.0019,-1.15588 0.0132,-0.30049 0.04843,-0.60011 0.119296,-0.89288 0.0877,-0.42757 0.135395,-0.82913 0.03615,-1.26514 -0.09272,-0.67607 -0.228468,-1.34487 -0.324043,-2.02038 -0.177911,-0.81457 -0.393827,-1.62025 -0.509821,-2.44788 -0.170833,-1.3464 -0.281196,-2.70075 -0.529841,-4.03642 -0.267372,-1.65711 -0.667308,-3.28692 -1.000495,-4.93136 -0.360368,-1.91469 -0.734928,-3.827 -1.030174,-5.7532 -0.322085,-1.84794 -0.550024,-3.70845 -0.746479,-5.57374 -0.190549,-1.53373 -0.384774,-3.06613 -0.677722,-4.58466 -0.125095,-0.89127 -0.230029,-1.7846 -0.415462,-2.66616 0,0 2.128868,-1.12937 2.128868,-1.12937 z"
       inkscape:connector-curvature="0" />
    <path
       style="opacity:1;fill:#000000;fill-opacity:0.95999995;fill-rule:nonzero;stroke:#000000;stroke-width:0.3175;stroke-miterlimit:4;stroke-dasharray:none;stroke-opacity:0"
       id="path1522"
       d="m 26.331692,164.3579 c 1.589223,-1.10554 3.318458,-2.00394 5.090428,-2.77615 1.948204,-0.85965 3.949912,-1.58381 5.94891,-2.31379 2.028767,-0.68206 4.011345,-1.48649 5.976493,-2.33162 1.517404,-0.66062 3.067981,-1.24004 4.61676,-1.8218 1.322194,-0.47431 2.598398,-1.06021 3.879037,-1.63446 1.284502,-0.63302 2.587874,-1.23296 3.937746,-1.71283 1.102911,-0.42156 2.266889,-0.63396 3.405772,-0.93044 0.789779,-0.17465 1.543728,-0.4691 2.324264,-0.67511 0.67155,-0.15289 1.359522,-0.18255 2.045158,-0.20145 0.522669,0.0285 1.03188,-0.0664 1.540219,-0.17487 0.19988,-0.0427 0.406241,-0.0857 0.611759,-0.0827 0.228325,0.0314 0.405419,-0.0803 0.624827,-0.12914 0.317529,-0.19147 0.729432,-0.17308 1.036238,-0.36953 -0.657408,0.37484 -1.314783,0.74973 -1.972225,1.12451 -0.04389,0.025 0.08027,-0.067 0.129352,-0.079 0.109791,-0.0268 0.108116,0.20845 0.107804,0.32147 -1.08e-4,0.0391 -0.06549,0.0427 -0.09823,0.064 3.905427,-2.24935 1.257125,-0.70008 -0.261694,0.0704 -0.04028,0.0204 -0.09031,-0.002 -0.135464,-0.003 0,0 1.943303,-1.43771 1.943303,-1.43771 v 0 c 0.03756,-0.008 0.145635,-0.0446 0.112681,-0.0248 -0.646335,0.38886 -2.619139,1.49752 -1.957747,1.13485 0.735769,-0.40345 1.453959,-0.83816 2.180942,-1.25724 0.275526,-0.1279 0.496215,0.18616 0.234563,0.33935 -0.721257,0.4223 -1.449858,0.83193 -2.174787,1.2479 -0.356116,0.1037 -0.708557,0.21581 -1.059606,0.33551 -0.220853,0.065 -0.431041,0.10651 -0.662472,0.0999 -0.194247,0.0284 -0.388382,0.056 -0.580276,0.0985 -0.512585,0.0902 -1.026131,0.15009 -1.548032,0.13259 -0.674616,0.0241 -1.351815,0.0685 -2.007111,0.24332 -0.770721,0.21927 -1.527365,0.48881 -2.311744,0.65976 -1.130768,0.27917 -2.278076,0.50801 -3.367577,0.93084 -1.342308,0.50031 -2.642528,1.10098 -3.930017,1.72796 -1.280481,0.57084 -2.558593,1.14842 -3.880956,1.61782 -1.538685,0.57808 -3.078787,1.15424 -4.58619,1.81101 -1.961679,0.83538 -3.944353,1.61959 -5.963793,2.30587 -2.011672,0.73468 -4.021516,1.47658 -5.97621,2.35497 -0.595037,0.2686 -0.816864,0.35934 -1.379868,0.64701 -0.183729,0.0939 -0.721262,0.40053 -0.545629,0.29225 2.946088,-1.81621 1.556957,-0.90189 0.881507,-0.50323 0,0 -2.228131,0.89934 -2.228131,0.89934 z"
       inkscape:connector-curvature="0" />
    <path
       style="opacity:1;fill:#000000;fill-opacity:0.95999995;fill-rule:nonzero;stroke:#000000;stroke-width:0.3175;stroke-miterlimit:4;stroke-dasharray:none;stroke-opacity:0"
       id="path1524"
       d="m 67.342855,150.49904 c 0.330351,1.06042 0.710737,2.10514 1.071997,3.15548 0.579236,1.66108 0.970105,3.37655 1.412626,5.07668 0.549912,1.98641 1.211823,3.93742 1.906436,5.87689 0.613373,1.66426 1.236914,3.33121 1.983169,4.94134 0.56384,1.17708 1.127408,2.35573 1.745655,3.50545 0.405558,0.87661 0.851117,1.7338 1.269111,2.60437 0.35715,0.74524 0.648864,1.51931 0.920686,2.299 0.215776,0.69289 0.403418,1.38794 0.512392,2.10584 0.04002,0.53729 -0.01413,1.06993 -0.216762,1.5699 -0.03639,0.0562 -0.07279,0.1125 -0.109186,0.16874 0,0 -2.218007,0.93865 -2.218007,0.93865 v 0 c 0.04494,-0.0386 0.08989,-0.0772 0.134837,-0.11574 0.268023,-0.43366 0.295888,-0.94767 0.296402,-1.44701 -0.0946,-0.70667 -0.275045,-1.38893 -0.483807,-2.07007 -0.26194,-0.77407 -0.552108,-1.54021 -0.900118,-2.28005 -0.408096,-0.87167 -0.860686,-1.72226 -1.249936,-2.60311 -0.607232,-1.16135 -1.168075,-2.34646 -1.726708,-3.53176 -0.736309,-1.62357 -1.350211,-3.30299 -1.960491,-4.97699 -0.692976,-1.94608 -1.360951,-3.90135 -1.924288,-5.88971 -0.446977,-1.69012 -0.842179,-3.39607 -1.435759,-5.04329 -0.368271,-1.04493 -0.746149,-2.08628 -1.138301,-3.12251 0,0 2.110052,-1.1621 2.110052,-1.1621 z"
       inkscape:connector-curvature="0" />
    <path
       style="opacity:1;fill:#000000;fill-opacity:0.95999995;fill-rule:nonzero;stroke:#000000;stroke-width:0.3175;stroke-miterlimit:4;stroke-dasharray:none;stroke-opacity:0"
       id="path1526"
       d="m 36.52561,200.42256 c 1.116539,-0.80478 2.316787,-1.48896 3.501633,-2.18706 2.410296,-1.46526 4.881044,-2.82795 7.338174,-4.21232 0.221072,-0.12456 -0.440106,0.25269 -0.660157,0.37903 3.145094,-1.84863 6.369439,-3.55313 9.532136,-5.37057 -0.26089,0.14448 -1.018482,0.61599 -0.782669,0.43343 0.326659,-0.25289 0.707474,-0.42684 1.057523,-0.64621 1.123246,-0.70394 2.220037,-1.45226 3.307689,-2.20964 0.950272,-0.71297 1.956149,-1.33871 2.972408,-1.951 0.806704,-0.45761 1.610971,-0.91954 2.420118,-1.37281 0.12121,-0.0679 0.246948,-0.12739 0.370681,-0.19058 1.615445,-0.82503 -2.51541,1.53818 -0.862756,0.50954 0.145539,-0.0906 0.287642,-0.18657 0.431461,-0.27986 1.505659,-1.03325 3.087809,-1.94635 4.690986,-2.81929 0.489376,-0.29633 1.017844,-0.5001 1.580613,-0.59437 0.27238,-0.0477 0.569253,-0.13607 0.821478,-0.25877 0.0445,-0.022 0.176525,-0.0909 0.133493,-0.0661 -4.339437,2.49776 -0.420865,0.10813 1.021794,-0.49196 0.682596,-0.287 1.374259,-0.55237 2.065139,-0.81865 0.459881,-0.17071 0.940329,-0.26546 1.426189,-0.3203 0.03061,-0.0211 0.124254,-0.0814 0.09182,-0.0633 -0.669047,0.37865 -1.338091,0.75729 -2.007137,1.13593 0.02151,-0.0254 0.07149,-0.0179 0.09398,-0.0442 0.01582,-0.0185 0.02294,-0.0429 0.0344,-0.0644 0.720616,-0.40494 1.441233,-0.80989 2.161849,-1.21483 0.0971,-0.0408 0.187802,-0.008 0.287227,-0.003 0.04353,0.001 0.08692,0.004 0.130122,0.009 -0.836676,1.11145 -1.604108,1.17105 -2.514015,1.71262 -0.05508,0.0304 -0.110149,0.0609 -0.165225,0.0913 0,0 1.873999,-1.51181 1.873999,-1.51181 v 0 c 0.05698,-0.0315 0.113969,-0.0631 0.170955,-0.0946 0.830186,-0.41682 2.264183,-0.60016 -1.345028,1.219 -0.03895,2.3e-4 -0.07794,-8e-4 -0.116908,-2.7e-4 -0.08623,0.003 -0.150228,0.0367 -0.2281,0.0728 0.669554,-0.38533 1.345247,-0.7602 2.008663,-1.156 0.0177,-0.0106 -0.04355,-0.0156 -0.06161,-0.006 -0.03978,0.0219 -0.0315,0.0936 -0.0707,0.11653 -2.112208,1.23719 -1.341228,1.12103 -2.280015,1.24339 -0.468018,0.0624 -0.926981,0.17699 -1.366983,0.35019 -0.690594,0.27112 -1.387147,0.52802 -2.065779,0.8285 -0.205462,0.0891 -0.318476,0.1344 -0.513699,0.23204 -0.07051,0.0353 -0.277043,0.15052 -0.208994,0.11071 4.002669,-2.34149 0.930155,-0.46914 -0.452724,0.22337 -0.279135,0.0877 -0.552548,0.19528 -0.846579,0.22211 -0.534744,0.11977 -1.029007,0.35304 -1.502309,0.62647 -0.411258,0.2253 -2.63425,1.44823 1.168175,-0.69941 0.821748,-0.46413 -2.588707,1.57196 -1.814899,1.17206 -1.043985,0.71145 -2.145366,1.30118 -3.250285,1.92715 -0.121316,0.0687 -0.248459,0.12662 -0.372504,0.19029 -0.122518,0.0629 -0.484759,0.26111 -0.367186,0.18939 0.541843,-0.3305 1.093806,-0.64412 1.64071,-0.96619 -1.029165,0.62431 -2.070827,1.2266 -3.030892,1.95738 -2.411338,1.68533 -4.898813,3.25871 -7.476564,4.67958 -2.090761,1.19726 -4.185697,2.40289 -6.320766,3.51987 -0.209867,0.10979 0.408834,-0.23927 0.613252,-0.35891 -1.053934,0.60914 -2.106714,1.22029 -3.1618,1.82743 -0.101963,0.0587 -2.224575,1.27 -2.376858,1.33805 -0.30004,0.13407 1.140124,-0.65309 0.846725,-0.50505 -0.340416,0.17177 -1.586098,0.93978 -1.929244,1.14898 -1.149736,0.67964 -2.308479,1.35101 -3.405714,2.11359 0,0 -2.235295,0.89704 -2.235295,0.89704 z"
       inkscape:connector-curvature="0" />
    <path
       style="opacity:1;fill:#000000;fill-opacity:0.95999995;fill-rule:nonzero;stroke:#000000;stroke-width:0.3175;stroke-miterlimit:4;stroke-dasharray:none;stroke-opacity:0"
       id="path1528"
       d="m 33.053999,199.29869 c 1.304607,-0.37172 2.596665,-0.78511 3.882548,-1.21683 2.171631,-0.74962 4.259802,-1.72121 6.34324,-2.68411 2.146337,-0.98883 4.292005,-1.97928 6.432386,-2.98097 1.961481,-0.94901 3.93887,-1.86566 5.894342,-2.82693 1.530575,-0.73974 3.080671,-1.44327 4.57412,-2.25685 0.200575,-0.11316 0.801049,-0.45483 0.601726,-0.33948 -2.336356,1.35212 -1.550729,0.90971 -0.825056,0.43659 0.595075,-0.38798 1.166498,-0.80741 1.741101,-1.22463 0.974956,-0.70376 1.9034,-1.46993 2.88158,-2.16881 0.751581,-0.54044 1.549093,-1.01172 2.331096,-1.50578 1.331722,-0.85333 2.727047,-1.57879 4.156194,-2.24459 0.619691,-0.29964 1.241927,-0.59726 1.848127,-0.92373 0.481357,-0.26432 0.993442,-0.4571 1.490311,-0.68831 0.351123,-0.10729 0.686599,-0.25416 1.035807,-0.36483 0.388069,-0.11266 0.798973,-0.0519 1.186338,-0.15182 0.310714,-0.0939 0.626105,-0.15624 0.948233,-0.19154 1.193032,-0.0365 0.964242,-0.36294 -1.622063,1.40552 0,0 1.955181,-1.41983 1.955181,-1.41983 v 0 c -1.94133,1.51942 -1.110848,1.34425 -2.270064,1.45968 -0.314809,0.0465 -0.620226,0.13463 -0.93231,0.1953 -0.391594,0.0435 -0.793779,0.0435 -1.16732,0.18518 -0.336791,0.1302 -0.685663,0.22547 -1.01482,0.37541 -0.496782,0.21972 -0.996347,0.43128 -1.473706,0.69239 -0.6122,0.31186 -1.226132,0.62096 -1.848656,0.91173 -0.847667,0.40743 -3.628091,1.84347 -0.0807,-0.10019 -0.780309,0.50116 -1.585719,0.96369 -2.34346,1.49936 -0.997386,0.68633 -1.927434,1.46465 -2.907786,2.17505 -1.757336,1.2748 -3.54869,2.48568 -5.506424,3.44909 -1.492647,0.78855 -3.027225,1.49339 -4.54815,2.2249 -1.95366,0.95054 -3.922099,1.87083 -5.880788,2.81097 -2.140283,0.99869 -4.284117,1.98983 -6.429621,2.97724 -2.097519,0.96415 -4.199115,1.93679 -6.385253,2.68577 -1.317974,0.44256 -2.640362,0.87156 -3.971721,1.27225 0,0 1.905569,-1.4672 1.905569,-1.4672 z"
       inkscape:connector-curvature="0" />
    <path
       style="opacity:1;fill:#000000;fill-opacity:0.95999995;fill-rule:nonzero;stroke:#000000;stroke-width:0.3175;stroke-miterlimit:4;stroke-dasharray:none;stroke-opacity:0"
       id="path1530"
       d="m 72.492605,153.84935 c 0.814802,0.10453 1.617604,0.27204 2.411195,0.48291 1.49729,0.37364 3.030675,0.55587 4.560898,0.73287 1.962624,0.208 3.937325,0.24383 5.909003,0.27054 1.918293,-0.0553 3.83512,-0.14497 5.753772,-0.19075 1.503794,-0.0864 3.006021,-0.19465 4.510691,-0.26555 0.708332,-0.067 1.412081,-0.17428 2.117235,-0.26817 0.194953,0.0367 0.113041,0.002 0.252519,0.0871 0,0 -2.016731,1.34573 -2.016731,1.34573 v 0 c -0.08354,-1.9e-4 -0.02829,-8e-4 -0.165667,0.006 -0.694705,0.0784 -1.387133,0.18088 -2.085628,0.22121 -1.490924,0.0575 -2.979163,0.16241 -4.469582,0.23022 -1.918002,0.0489 -3.834329,0.1461 -5.752642,0.17883 -1.980097,-0.0303 -3.963379,-0.0681 -5.934036,-0.28102 -1.550585,-0.17853 -3.104427,-0.35937 -4.624141,-0.72692 -0.793501,-0.19318 -1.598412,-0.36939 -2.416805,-0.40608 0,0 1.949919,-1.4167 1.949919,-1.4167 z"
       inkscape:connector-curvature="0" />
    <path
       style="opacity:1;fill:#000000;fill-opacity:0.95999995;fill-rule:nonzero;stroke:#000000;stroke-width:0.3175;stroke-miterlimit:4;stroke-dasharray:none;stroke-opacity:0"
       id="path1532"
       d="m 34.180314,170.69483 c -0.08657,0.0369 -0.174461,0.0709 -0.259702,0.11084 -0.103785,0.0486 -0.205208,0.10209 -0.307099,0.15454 -0.502978,0.25888 -2.767063,1.49727 1.462606,-0.85196 0.08708,-0.0484 -0.167346,0.1084 -0.247018,0.16819 -0.07831,0.0588 -0.150934,0.12474 -0.226401,0.18711 -0.434941,0.37839 -0.576024,0.86468 -0.571159,1.42217 0.16369,0.8369 0.982165,1.07748 1.70229,1.30185 1.719728,0.48895 3.519037,0.54745 5.294019,0.61767 2.446337,0.0357 4.885446,-0.17718 7.322597,-0.35644 2.735953,-0.27864 5.482032,-0.41347 8.229851,-0.4972 2.532767,-0.0288 5.063419,-0.0923 7.586269,-0.32558 2.259446,-0.34797 4.495456,-0.83382 6.739863,-1.26808 2.044181,-0.3887 4.069051,-0.86951 6.083448,-1.38906 1.67781,-0.40429 3.371511,-0.74073 5.047218,-1.15294 1.246849,-0.28905 2.49663,-0.56811 3.736451,-0.88631 0.9758,-0.2365 1.954361,-0.46501 2.918624,-0.74595 0.57318,-0.24767 1.184188,-0.40052 1.762332,-0.63194 0.91006,-0.47141 -1.254633,1.23876 -2.045145,1.46282 0,0 1.92817,-1.45357 1.92817,-1.45357 v 0 c 1.052451,-0.0975 -1.000197,1.23201 -1.786451,1.47528 -0.585073,0.17981 -1.15407,0.40503 -1.736614,0.59259 -0.965176,0.26645 -1.939671,0.49759 -2.912877,0.73252 -1.234424,0.30345 -2.474831,0.58205 -3.713811,0.86614 -1.671037,0.39396 -3.354358,0.7347 -5.023249,1.13862 -2.011963,0.50896 -4.033301,0.98135 -6.073468,1.36454 -2.244413,0.43484 -4.480812,0.92759 -6.745544,1.24341 -2.519932,0.21808 -5.046888,0.27035 -7.575317,0.30106 -2.747484,0.0836 -5.491732,0.23224 -8.227436,0.50779 -2.450875,0.18717 -4.904647,0.40056 -7.365378,0.35578 -1.807247,-0.0692 -3.637685,-0.12924 -5.388478,-0.62826 -0.831501,-0.27366 -1.669751,-0.59216 -1.888871,-1.53102 -0.028,-0.59947 0.05306,-1.16164 0.486109,-1.61424 1.046236,-0.97881 2.386774,-1.59341 3.696451,-2.14824 0,0 -1.90228,1.47787 -1.90228,1.47787 z"
       inkscape:connector-curvature="0" />
    <path
       style="opacity:1;fill:#ff0000;fill-opacity:0.95999995;fill-rule:nonzero;stroke:#000000;stroke-width:0.3175;stroke-miterlimit:4;stroke-dasharray:none;stroke-opacity:0"
       id="path1534"
       d="m 94.179026,148.67684 c 0.704938,0.68325 1.117873,1.58654 1.466072,2.48824 0.440167,1.41293 0.9114,2.81407 1.398744,4.21149 0.61337,1.78316 1.21044,3.57152 1.791526,5.36551 0.611028,1.99988 1.406262,3.92778 2.217842,5.85171 0.76064,1.74966 1.64713,3.44081 2.49764,5.14764 0.81863,1.5695 1.52255,3.19728 2.1681,4.84465 0.63837,1.69203 1.23532,3.39843 1.89605,5.08192 0.60636,1.46438 1.12282,2.96013 1.59359,4.47258 0.33411,1.30949 0.72365,2.60322 1.09068,3.90354 0.3094,0.9814 0.6256,1.9606 0.94005,2.94039 0.23996,0.70366 0.50392,1.3987 0.75331,2.09908 0.20483,0.65256 0.47454,1.27591 0.79245,1.88052 0.24555,0.50113 0.4673,1.01417 0.69164,1.52525 0.19625,0.39217 0.38223,0.78914 0.60132,1.16936 0.12013,0.21817 0.17765,0.45711 0.21587,0.70085 0.009,0.0569 0.0114,0.11486 0.0246,0.17095 0,0 -2.18481,1.07333 -2.18481,1.07333 v 0 c 0.007,-0.0177 0.0267,-0.0794 0.0129,-0.11827 -0.0164,-0.21721 -0.0569,-0.42942 -0.15912,-0.62449 -0.21083,-0.39375 -0.40346,-0.79563 -0.60018,-1.19651 -0.21965,-0.50719 -0.44235,-1.01365 -0.67722,-1.51377 -0.32157,-0.61575 -0.5921,-1.25118 -0.80488,-1.91294 -0.24582,-0.70516 -0.5143,-1.40227 -0.74682,-2.11211 -0.30262,-0.98772 -0.61738,-1.97171 -0.9187,-2.95987 -0.36632,-1.29954 -0.74506,-2.59544 -1.07599,-3.90469 -0.46625,-1.50933 -0.96267,-3.00734 -1.56655,-4.46852 -0.65527,-1.68546 -1.25574,-3.39066 -1.89436,-5.08248 -0.64439,-1.64081 -1.34701,-3.26153 -2.15822,-4.82744 -0.84424,-1.71561 -1.731462,-3.41216 -2.488658,-5.16887 -0.811879,-1.93065 -1.606716,-3.86536 -2.226116,-5.86903 -0.586021,-1.78869 -1.195621,-3.56909 -1.816492,-5.34588 -0.490511,-1.39176 -0.974823,-2.78395 -1.41896,-4.19122 -0.336661,-0.85826 -0.737696,-1.74014 -1.454894,-2.34979 0,0 2.039596,-1.28113 2.039596,-1.28113 z"
       inkscape:connector-curvature="0" />
    <path
       style="opacity:1;fill:#000000;fill-opacity:0.95999995;fill-rule:nonzero;stroke:#000000;stroke-width:0.3175;stroke-miterlimit:4;stroke-dasharray:none;stroke-opacity:0"
       id="path1536"
       d="m 75.673703,187.39193 c 0.633844,0.56883 1.205696,1.20473 1.794201,1.81997 0.794779,0.8408 1.629494,1.6427 2.415595,2.49158 0.73356,0.77469 1.469123,1.54705 2.273824,2.24889 0.630595,0.55304 1.310203,1.04479 1.960525,1.57359 0.582716,0.48376 1.241849,0.76179 1.993625,0.81601 0.982348,-0.0562 1.930257,-0.35203 2.847337,-0.69141 1.052799,-0.42744 2.108529,-0.85131 3.110979,-1.3882 0.967576,-0.57173 1.955562,-1.09755 2.968122,-1.58338 0.80259,-0.39366 1.59461,-0.80956 2.382605,-1.2319 0.114541,-0.0676 0.227902,-0.13734 0.343622,-0.20296 0.41941,-0.23781 0.240922,-0.1227 0.667205,-0.35422 0.110657,-0.0601 0.437889,-0.24893 0.328605,-0.18637 -1.84685,1.0573 -2.268,1.34501 -1.417876,0.7832 0.544561,-0.38142 1.125109,-0.70648 1.666457,-1.0925 0.913882,-0.59534 1.892481,-1.1064 2.836031,-1.63978 0.0879,-0.0497 0.35381,-0.19469 0.26643,-0.1441 -2.428284,1.40599 -2.282102,1.32096 -1.4931,0.84864 0.71347,-0.41735 1.41232,-0.85905 2.10468,-1.31037 0.77991,-0.49398 1.56366,-0.97671 2.30794,-1.52356 0.84164,-0.62185 1.69681,-1.22374 2.56713,-1.80472 0.71634,-0.54184 1.45284,-1.05979 2.15601,-1.61869 0.43145,-0.40886 0.87297,-0.80081 1.34381,-1.16367 0.26379,-0.18956 0.5131,-0.39714 0.72522,-0.64363 0.28649,-0.18059 0.16834,-0.39219 0.39189,0.0312 0.67469,-0.3839 1.34939,-0.7678 2.02408,-1.1517 0,0 -2.24464,0.91458 -2.24464,0.91458 v 0 c 0.71381,-0.41874 1.42762,-0.83747 2.14143,-1.25621 0.23507,0.36682 0.16449,0.26516 -0.062,0.56964 -0.29794,0.11964 -0.42779,0.53495 -0.74991,0.64237 -0.45824,0.38236 -0.95796,0.71554 -1.35849,1.16627 -0.69038,0.58868 -1.46849,1.07013 -2.16752,1.6499 -0.87275,0.57278 -1.72722,1.17086 -2.56663,1.7913 -0.74041,0.55114 -1.50655,1.05576 -2.29715,1.53317 -0.68485,0.45567 -1.3804,0.89612 -2.08876,1.31429 -1.1933,0.72535 -5.142855,2.98117 -1.08661,0.61337 0.17362,-0.10135 -0.67962,0.3987 -0.5243,0.29812 -0.53172,0.40898 -1.11981,0.72826 -1.673408,1.10515 -1.260541,0.88862 -2.655877,1.55902 -3.992748,2.32127 -0.785791,0.41761 -1.575556,0.82915 -2.377527,1.21475 -1.009147,0.48372 -1.979184,1.03587 -2.95502,1.58307 -1.017892,0.5171 -2.073897,0.95379 -3.137316,1.3683 -0.940855,0.32873 -1.917488,0.62647 -2.923738,0.61509 -0.779558,-0.10766 -1.472118,-0.41055 -2.07291,-0.9282 -0.650782,-0.53075 -1.329931,-1.02624 -1.9553,-1.58786 -0.801412,-0.71452 -1.533511,-1.4992 -2.27144,-2.27799 -0.787767,-0.84642 -1.621491,-1.64872 -2.423853,-2.4813 -0.588579,-0.60541 -1.153745,-1.24445 -1.816703,-1.7699 0,0 2.039596,-1.28112 2.039596,-1.28112 z"
       inkscape:connector-curvature="0" />
    <path
       style="opacity:1;fill:#000000;fill-opacity:0.95999995;fill-rule:nonzero;stroke:#000000;stroke-width:0.3175;stroke-miterlimit:4;stroke-dasharray:none;stroke-opacity:0"
       id="path1538"
       d="m 51.963407,192.90043 c -0.04804,1.14941 -0.0241,2.29732 0.02873,3.44585 0.153784,1.89496 0.335241,3.78764 0.51447,5.68037 0.188415,1.95003 0.2722,3.90765 0.493487,5.85456 0.144219,1.17971 0.465286,2.32398 0.712253,3.48342 0.09618,0.53548 0.239258,1.07424 0.11725,1.61443 -0.697275,1.28055 -2.337779,1.76153 -3.656703,2.26343 -1.400662,0.52298 -2.795558,1.05713 -4.228914,1.48503 -1.041647,0.30998 -2.093873,0.58233 -3.139308,0.87948 0,0 1.880007,-1.44486 1.880007,-1.44486 v 0 c 1.033148,-0.27666 2.069693,-0.54239 3.093601,-0.85189 1.439635,-0.44586 2.84516,-0.98545 4.251259,-1.52653 0.162438,-0.0666 0.326583,-0.12916 0.487317,-0.19977 0.743009,-0.32638 1.737194,-0.96418 -1.349536,0.84084 -0.227079,0.13279 0.717317,-0.41427 0.484648,-0.42175 0.219115,-0.47552 0.0177,-1.0227 -0.03388,-1.51855 -0.221731,-1.17733 -0.533302,-2.33728 -0.667954,-3.53053 -0.204539,-1.95282 -0.282646,-3.91503 -0.471657,-5.86927 -0.185248,-1.89069 -0.374425,-3.78072 -0.552664,-5.67204 -0.06573,-1.13904 -0.09915,-2.27714 -0.109934,-3.418 0,0 2.147533,-1.09422 2.147533,-1.09422 z"
       inkscape:connector-curvature="0" />
    <path
       style="opacity:1;fill:#666666;fill-opacity:0.95999995;fill-rule:nonzero;stroke:#000000;stroke-width:0.3175;stroke-miterlimit:4;stroke-dasharray:none;stroke-opacity:0"
       id="path1540"
       d="m 85.528649,185.82477 c 0.807656,0.0831 1.610109,0.20157 2.415709,0.3025 0.816692,0.10119 1.639398,0.13017 2.461374,0.14636 0.816509,0.0104 1.633122,0.009 2.449682,0.009 0.851111,0.0505 1.684565,-0.0754 2.517645,-0.22845 0.788935,-0.2107 1.590376,-0.37044 2.374961,-0.59688 0.88134,-0.21405 1.727785,-0.54446 2.5827,-0.84304 0.93814,-0.33799 1.88401,-0.65411 2.82149,-0.99464 0.77956,-0.31478 1.55964,-0.6283 2.32162,-0.98444 0.62473,-0.26336 1.25781,-0.50283 1.89577,-0.73188 0.58907,-0.14608 1.17407,-0.30662 1.75816,-0.47392 0.6318,-0.23417 1.28843,-0.38863 1.92582,-0.60623 0.66564,-0.20629 1.34773,-0.35351 2.01585,-0.5496 0.62242,-0.13489 1.22763,-0.33401 1.852,-0.4601 0.567,-0.10868 1.13447,-0.11414 1.70359,-0.0348 0.51591,0.0455 0.96511,0.28454 1.40588,0.53542 0.50646,0.30605 0.93947,0.71297 1.36801,1.11677 0.49935,0.51281 1.05558,0.96343 1.59427,1.43326 0.56964,0.44754 0.99735,1.02662 1.39116,1.62765 0.34676,0.52445 0.70379,1.04314 1.07402,1.55146 0.37644,0.51183 0.81104,0.96953 1.29235,1.38212 0.47733,0.4261 0.95424,0.83819 1.51472,1.15057 0.63244,0.3509 1.34362,0.50789 2.02681,0.72726 0.7837,0.19949 1.56795,0.40048 2.35516,0.58713 0.98207,0.22218 1.99266,0.21966 2.99055,0.30816 1.17531,0.11067 2.35345,0.16904 3.52898,0.2769 1.26442,0.0828 2.52608,0.19048 3.78891,0.29441 1.41349,0.0756 2.82262,0.20804 4.23584,0.28924 1.52575,0.0774 3.05371,0.0891 4.58107,0.0975 1.36276,0.003 2.72553,0.003 4.08829,0.001 1.3726,-0.0135 2.7425,-0.01 4.11283,0.0716 1.39205,0.0604 2.77685,0.21378 4.16677,0.3062 1.45412,0.0613 2.9078,0.14605 4.35637,0.28898 1.36495,0.14025 2.73168,0.27377 4.09133,0.45956 1.15521,0.13696 2.30897,0.28352 3.46438,0.41909 0.94152,0.12571 1.89429,0.0921 2.83778,0.18097 0.73786,0.093 1.47844,0.15502 2.22122,0.1891 0.62662,0.023 1.2538,0.0233 1.88076,0.0239 0.61291,0.08 1.22454,0.16067 1.84155,0.20232 0.66029,0.0449 1.31222,0.16498 1.9724,0.22281 0.62841,0.05 1.25904,0.0565 1.88907,0.0604 0.39499,0.0668 0.85883,-0.10616 1.23634,0.0411 0.0987,0.0853 0.19868,0.14649 0.32092,0.19209 0.0958,0.0315 -0.0234,-0.007 0.0495,0.0152 0,0 -1.20911,0.81657 -1.20911,0.81657 v 0 c -0.0773,-0.0341 0.0466,0.0213 -0.053,-0.0234 -0.1085,-0.0518 -0.20072,-0.12561 -0.30626,-0.17988 -0.39462,-0.0586 -0.80389,0.0145 -1.20073,-0.0187 -0.63139,-0.007 -1.2635,-0.0155 -1.8928,-0.0723 -0.659,-0.0628 -1.31127,-0.18114 -1.97212,-0.21937 -0.61463,-0.0453 -1.22323,-0.13704 -1.83648,-0.19376 -0.62813,-0.001 -1.25645,-0.003 -1.88412,-0.0301 -0.7415,-0.0408 -1.48036,-0.11008 -2.21774,-0.19824 -0.94296,-0.0778 -1.89309,-0.0631 -2.83276,-0.18993 -1.15284,-0.14059 -2.30504,-0.28421 -3.45762,-0.4266 -1.35701,-0.18284 -2.72002,-0.3198 -4.08202,-0.4595 -1.44877,-0.13663 -2.90161,-0.2217 -4.35529,-0.28477 -1.39006,-0.0948 -2.77584,-0.24296 -4.1682,-0.3037 -1.36892,-0.0796 -2.73785,-0.0731 -4.10878,-0.0643 -1.36184,-2e-4 -2.7237,0.004 -4.08552,-0.004 -1.52796,-0.0105 -3.05635,-0.0293 -4.58271,-0.10521 -1.41627,-0.0831 -2.82945,-0.20755 -4.24594,-0.28625 -1.26338,-0.1052 -2.52636,-0.20589 -3.791,-0.29436 -1.17698,-0.10674 -2.3572,-0.15945 -3.53371,-0.27225 -1.00565,-0.0794 -2.02275,-0.0912 -3.01026,-0.32043 -0.79037,-0.1895 -1.58089,-0.38168 -2.36553,-0.59265 -0.69342,-0.21724 -1.40935,-0.38882 -2.04668,-0.75018 -0.56165,-0.326 -1.04689,-0.7424 -1.53083,-1.17335 -0.48657,-0.4223 -0.92557,-0.8917 -1.30973,-1.41015 -0.37133,-0.51045 -0.72862,-1.0319 -1.07572,-1.55894 -0.38468,-0.592 -0.80849,-1.15614 -1.36814,-1.59549 -0.5404,-0.47095 -1.09772,-0.92326 -1.6004,-1.43558 -0.42323,-0.39502 -0.8521,-0.79175 -1.35516,-1.08465 -0.42864,-0.24311 -0.8736,-0.44901 -1.37266,-0.49051 -0.56022,-0.0668 -1.12082,-0.0402 -1.67472,0.0735 -0.61893,0.13542 -1.22541,0.32161 -1.84246,0.46517 -0.67085,0.18288 -1.34739,0.34586 -2.0112,0.55413 -0.64168,0.20721 -1.29414,0.37907 -1.93056,0.60264 -0.583,0.16901 -1.17252,0.31267 -1.75445,0.4833 -0.63293,0.23212 -1.26529,0.46441 -1.88253,0.73656 -0.76489,0.34591 -1.54032,0.66637 -2.32286,0.97011 -0.93845,0.33677 -1.88348,0.65442 -2.821328,0.99254 -0.858433,0.29893 -1.708639,0.62729 -2.593917,0.84057 -0.788762,0.21509 -1.587235,0.39166 -2.38148,0.58514 -0.837684,0.15171 -1.678228,0.25117 -2.532044,0.20729 -0.81838,0.001 -1.636821,0.005 -2.455132,-0.009 -0.823505,-0.0191 -1.647402,-0.056 -2.465009,-0.16202 -0.811136,-0.10329 -1.620443,-0.21491 -2.434646,-0.29197 0,0 1.179735,-0.83181 1.179735,-0.83181 z"
       inkscape:connector-curvature="0" />
    <path
       style="opacity:1;fill:#666666;fill-opacity:0.95999995;fill-rule:nonzero;stroke:#000000;stroke-width:0.3175;stroke-miterlimit:4;stroke-dasharray:none;stroke-opacity:0"
       id="path1542"
       d="m 83.481335,186.84115 c -0.617974,-0.11499 -1.225214,-0.27374 -1.848194,-0.36584 -0.591727,-0.0376 -1.171506,-0.16 -1.757926,-0.24105 -0.459743,-0.0523 -0.901671,-0.20322 -1.338614,-0.34926 -0.454118,-0.14883 -0.930299,-0.18833 -1.404356,-0.21269 -0.414634,-0.0987 -0.853016,-0.11979 -1.256472,-0.25883 -0.263255,-0.12691 -0.540673,-0.18659 -0.828579,-0.21861 -0.27228,-0.11021 -0.552813,-0.18017 -0.841439,-0.23086 -0.129794,-0.0289 -0.260585,-0.0319 -0.392649,-0.0317 -0.08128,0.003 -0.162542,0.002 -0.243856,0.003 -0.112022,-2.7e-4 -0.22406,7.9e-4 -0.336085,-7e-5 -0.18457,0.0205 -0.326546,-0.0164 -0.492662,-0.0939 -0.249933,-0.0937 -0.517416,-0.12267 -0.781944,-0.14055 -0.199615,-0.0133 -0.392311,0.10309 -0.570209,0.19051 -0.01577,0.008 -0.03154,0.0165 -0.04731,0.0247 0,0 1.138521,-0.90833 1.138521,-0.90833 v 0 c 0.01598,-0.007 0.03198,-0.0143 0.04796,-0.0214 0.196072,-0.0838 0.392197,-0.16578 0.610438,-0.12744 0.275805,0.0273 0.552553,0.0694 0.810313,0.17628 0.150866,0.0555 0.303194,0.0479 0.462238,0.0447 0.112294,-8e-4 0.224599,4e-5 0.336889,-0.002 0.08195,-2.6e-4 0.163901,-0.003 0.245808,0.001 0.135684,0.006 0.269219,0.0253 0.401892,0.0549 0.283868,0.0587 0.556855,0.14732 0.83531,0.2245 0.291555,0.043 0.569003,0.1244 0.840309,0.24073 0.402537,0.10977 0.820367,0.16793 1.231773,0.23345 0.483007,0.0315 0.966158,0.0847 1.426594,0.24348 0.430596,0.14325 0.868661,0.27625 1.320715,0.33022 0.58534,0.0868 1.167003,0.19496 1.757325,0.24352 0.623647,0.10134 1.233411,0.2671 1.85787,0.36101 0,0 -1.183661,0.83047 -1.183661,0.83047 z"
       inkscape:connector-curvature="0" />
    <path
       style="opacity:1;fill:#666666;fill-opacity:0.95999995;fill-rule:nonzero;stroke:#000000;stroke-width:0.3175;stroke-miterlimit:4;stroke-dasharray:none;stroke-opacity:0"
       id="path1544"
       d="m 187.75298,193.14813 c 1.53957,-1.01435 3.18248,-1.84942 4.82437,-2.6805 1.51175,-0.73239 3.01366,-1.48421 4.51001,-2.24754 1.31164,-0.75855 2.67383,-1.42183 4.03522,-2.08476 0.97661,-0.48466 1.95814,-0.95738 2.93729,-1.43677 0.59854,-0.29046 1.2187,-0.5361 1.80352,-0.85388 0.14464,-0.0846 0.31252,-0.12222 0.46168,-0.196 0.0392,-0.0194 0.15008,-0.0898 0.1121,-0.0681 -0.38042,0.21682 -1.52601,0.85928 -1.13944,0.65364 0.45841,-0.24385 0.90336,-0.51222 1.35503,-0.76833 0.12396,-0.0483 0.248,-0.0999 0.37794,-0.13013 0.0874,0.0129 0.12152,-0.0393 0.20151,-0.0839 0.21737,-0.0685 0.44445,-0.1054 0.66955,-0.14 0.0486,-0.008 0.0979,-0.0154 0.14623,-0.0111 0.051,0.009 0.11799,0.004 0.17471,0.004 0.0881,0.001 0.17617,5.3e-4 0.26424,-1.7e-4 0,0 -1.18017,0.85745 -1.18017,0.85745 v 0 c -0.0881,-8e-4 -0.17626,-0.001 -0.26439,-5.3e-4 -0.0533,-5.3e-4 -0.14025,-0.005 -0.17384,7.9e-4 -0.0407,0.009 -0.0869,0.0189 -0.12997,0.0234 -0.21855,0.0367 -0.4415,0.0743 -0.64185,0.17331 -0.0761,0.0328 -0.15052,0.0336 -0.2217,0.0672 -0.12086,0.0424 -0.24111,0.0872 -0.35578,0.14474 2.63453,-1.53497 0.0763,0.0284 -0.77967,0.37711 -0.58587,0.30176 -1.19916,0.5471 -1.79069,0.8376 -0.9751,0.47448 -1.95083,0.94672 -2.92373,1.42575 -1.35782,0.66046 -2.71148,1.3297 -4.02341,2.07867 -1.49582,0.76298 -2.99973,1.50943 -4.50873,2.24598 -0.0219,0.0111 -1.44918,0.73385 -1.48752,0.75397 -0.22839,0.11982 -0.4231,0.34501 -0.67986,0.36939 -0.23809,0.0226 0.4036,-0.25873 0.61856,-0.36357 0.29964,-0.14615 -1.00169,0.58712 -0.85217,0.52352 0,0 -1.33904,0.52892 -1.33904,0.52892 z"
       inkscape:connector-curvature="0" />
    <path
       style="opacity:1;fill:#666666;fill-opacity:0.95999995;fill-rule:nonzero;stroke:#000000;stroke-width:0.3175;stroke-miterlimit:4;stroke-dasharray:none;stroke-opacity:0"
       id="path1548"
       d="m 204.74675,182.98419 c -0.88969,-0.009 -1.77946,-0.008 -2.66919,-0.01 -1.59596,-0.0253 -3.18964,-0.13473 -4.78533,-0.18702 -1.87461,-0.0274 -3.74683,-0.0619 -5.61638,-0.20922 -1.93449,-0.19541 -3.8597,-0.46542 -5.78536,-0.73109 -1.22843,-0.18074 -2.44886,-0.41807 -3.5992,-0.89313 -0.5042,-0.22189 -0.93746,-0.55728 -1.3869,-0.86858 -0.71594,-0.54689 -1.5955,-0.77205 -2.46183,-0.95033 -1.91214,-0.33764 -3.84657,-0.53957 -5.77803,-0.73126 -2.43345,-0.25736 -4.86232,-0.56807 -7.28244,-0.93028 -1.9748,-0.27813 -3.94653,-0.59045 -5.90165,-0.98505 -1.41753,-0.24781 -2.81019,-0.61239 -4.20973,-0.94235 -1.0297,-0.30544 -2.07863,-0.54063 -3.1099,-0.83976 -0.98147,-0.26669 -1.95536,-0.56621 -2.91636,-0.89958 -0.96762,-0.34209 -1.95119,-0.63141 -2.95851,-0.82829 -1.07889,-0.24583 -2.18141,-0.35422 -3.27604,-0.50458 -0.90433,-0.0876 -1.79802,-0.25194 -2.70078,-0.35175 -1.10982,-0.0998 -2.22571,-0.0993 -3.33907,-0.10783 -1.4314,-0.0229 -2.86407,0.0315 -4.2944,-0.0328 -1.33989,-0.0422 -2.66652,-0.2211 -3.99205,-0.40695 -1.20245,-0.21368 -2.40418,-0.43052 -3.60439,-0.65627 -1.01834,-0.17208 -2.04196,-0.31512 -3.06585,-0.45153 -0.84107,-0.17642 -1.69238,-0.29064 -2.5407,-0.42489 -1.02066,-0.16373 -2.05642,-0.15494 -3.08412,-0.23662 -0.9329,-0.0718 -1.86376,-0.18815 -2.77952,-0.38171 -0.63122,-0.16116 -1.26783,-0.3212 -1.89031,-0.51514 -0.42323,-0.0835 -0.79474,-0.30716 -1.20326,-0.43124 -0.39606,-0.18699 -0.82261,-0.26354 -1.25419,-0.31028 -0.50831,-0.0562 -1.00591,-0.17169 -1.51626,-0.22403 -0.41271,-0.0348 -0.82691,-0.0512 -1.24103,-0.055 -0.005,-0.003 -0.0103,-0.007 -0.0155,-0.01 0.42584,-0.28159 0.85167,-0.56317 1.27751,-0.84475 0,0 -1.17537,0.85472 -1.17537,0.85472 v 0 c 0.36559,-0.28132 0.73119,-0.56265 1.09678,-0.84397 -0.002,-0.002 -0.003,-0.005 -0.004,-0.007 0.41125,0.0218 0.82343,0.0311 1.23332,0.0742 0.51032,0.0578 1.00985,0.17368 1.52074,0.22281 0.43878,0.0569 0.86659,0.15346 1.2741,0.33102 0.40036,0.13921 0.77659,0.34325 1.1947,0.43341 0.62068,0.1828 1.24402,0.36399 1.874,0.51053 0.9108,0.18267 1.83196,0.3072 2.75864,0.37417 1.03302,0.0732 2.07323,0.0736 3.09803,0.24097 0.84733,0.13381 1.69751,0.24834 2.5378,0.4233 1.02242,0.14327 2.04634,0.28058 3.06262,0.4623 1.19721,0.22288 2.39357,0.44961 3.59378,0.65581 1.32276,0.1847 2.64746,0.35429 3.98422,0.39591 1.42906,0.0576 2.86003,0.012 4.28995,0.0297 1.12232,0.006 2.24786,-0.002 3.36614,0.107 0.90046,0.10535 1.79356,0.26448 2.69542,0.35974 1.09611,0.15263 2.19975,0.26479 3.28021,0.51194 1.0107,0.20565 2.00031,0.49467 2.97146,0.84251 0.9609,0.32809 1.93257,0.62731 2.91244,0.89335 1.02954,0.29251 2.07173,0.53943 3.09931,0.83934 1.3915,0.33732 2.7787,0.69752 4.18892,0.9508 1.94713,0.3944 3.90962,0.71319 5.87608,0.99448 2.41874,0.36385 4.84639,0.67631 7.27983,0.9236 1.94564,0.18874 3.89426,0.38579 5.82127,0.71894 0.88853,0.18622 1.7848,0.42019 2.52085,0.97904 0.44208,0.30281 0.86683,0.63299 1.36146,0.84954 1.12993,0.47509 2.33618,0.7032 3.54405,0.88734 1.92165,0.27205 3.84383,0.54304 5.77648,0.72685 1.86926,0.14025 3.74107,0.17269 5.61485,0.20277 1.60247,0.0513 3.20362,0.15824 4.80681,0.16588 0.89873,-0.002 1.7975,-0.001 2.69619,-0.01 0,0 -1.16995,0.85001 -1.16995,0.85001 z"
       inkscape:connector-curvature="0" />
    <path
       style="opacity:1;fill:#666666;fill-opacity:0.95999995;fill-rule:nonzero;stroke:#000000;stroke-width:0.3175;stroke-miterlimit:4;stroke-dasharray:none;stroke-opacity:0"
       id="path1550"
       d="m 114.88561,165.93125 c 0.98749,-0.77912 2.02964,-1.47518 3.18663,-1.9872 0,0 -1.11811,0.88822 -1.11811,0.88822 v 0 c -0.41119,0.1953 -1.06002,0.51624 0.50064,-0.33559 0.12797,-0.0699 -0.24837,0.15316 -0.36701,0.23791 -0.29438,0.21031 -0.56917,0.4514 -0.85255,0.67599 0,0 -1.3496,0.52067 -1.3496,0.52067 z"
       inkscape:connector-curvature="0" />
    <path
       style="opacity:1;fill:#666666;fill-opacity:0.95999995;fill-rule:nonzero;stroke:#000000;stroke-width:0.3175;stroke-miterlimit:4;stroke-dasharray:none;stroke-opacity:0"
       id="path1552"
       d="m 121.78468,168.3892 c 0.97727,-0.45767 1.91819,-0.98938 2.9042,-1.43048 0.60354,-0.28336 1.22776,-0.51864 1.84261,-0.77614 0,0 -1.12007,0.88316 -1.12007,0.88316 v 0 c -0.6109,0.25152 -1.22877,0.48749 -1.82664,0.76925 -0.99135,0.4549 -1.94165,0.99156 -2.93155,1.44842 0,0 1.13145,-0.89421 1.13145,-0.89421 z"
       inkscape:connector-curvature="0" />
    <path
       style="opacity:1;fill:#666666;fill-opacity:0.95999995;fill-rule:nonzero;stroke:#000000;stroke-width:0.3175;stroke-miterlimit:4;stroke-dasharray:none;stroke-opacity:0"
       id="path1554"
       d="m 129.85017,170.09696 c 1.15155,-0.39486 2.24826,-0.9294 3.35583,-1.43081 0.71963,-0.30688 1.45212,-0.57974 2.19055,-0.83725 0,0 -1.12108,0.87337 -1.12108,0.87337 v 0 c -0.73176,0.25449 -1.45681,0.52695 -2.16781,0.83548 -1.11986,0.50628 -2.23059,1.03838 -3.39126,1.44677 0,0 1.13377,-0.88756 1.13377,-0.88756 z"
       inkscape:connector-curvature="0" />
    <path
       style="opacity:1;fill:#666666;fill-opacity:0.95999995;fill-rule:nonzero;stroke:#000000;stroke-width:0.3175;stroke-miterlimit:4;stroke-dasharray:none;stroke-opacity:0"
       id="path1556"
       d="m 139.80302,170.82411 c 0.99658,-0.30229 1.95917,-0.69966 2.93826,-1.05102 0.76152,-0.308 1.5493,-0.52517 2.35563,-0.6741 0,0 -1.13842,0.86018 -1.13842,0.86018 v 0 c -0.79725,0.15543 -1.57443,0.38185 -2.32986,0.6829 -0.98537,0.35984 -1.96372,0.73847 -2.95706,1.07625 0,0 1.13145,-0.89421 1.13145,-0.89421 z"
       inkscape:connector-curvature="0" />
    <path
       style="opacity:1;fill:#666666;fill-opacity:0.95999995;fill-rule:nonzero;stroke:#000000;stroke-width:0.3175;stroke-miterlimit:4;stroke-dasharray:none;stroke-opacity:0"
       id="path1558"
       d="m 152.21119,173.61198 c 0.93633,-0.0956 1.83846,-0.39697 2.73536,-0.66901 0.56837,-0.15783 1.12291,-0.36055 1.68067,-0.55165 0,0 -1.12998,0.87882 -1.12998,0.87882 v 0 c -0.55436,0.18595 -1.10615,0.38115 -1.66998,0.53713 -0.91266,0.27245 -1.83116,0.58102 -2.78602,0.65473 0,0 1.16995,-0.85002 1.16995,-0.85002 z"
       inkscape:connector-curvature="0" />
    <path
       style="opacity:1;fill:#666666;fill-opacity:0.95999995;fill-rule:nonzero;stroke:#000000;stroke-width:0.3175;stroke-miterlimit:4;stroke-dasharray:none;stroke-opacity:0"
       id="path1560"
       d="m 163.63426,174.71595 c 0.82395,-0.41553 1.71251,-0.67831 2.57841,-0.9899 0.77831,-0.24666 1.54043,-0.53944 2.32982,-0.75016 0,0 -1.14182,0.87635 -1.14182,0.87635 v 0 c -0.77977,0.21161 -1.53551,0.49797 -2.30427,0.74505 -0.87377,0.31175 -1.76653,0.58661 -2.59007,1.0209 0,0 1.12793,-0.90224 1.12793,-0.90224 z"
       inkscape:connector-curvature="0" />
    <path
       style="opacity:1;fill:#666666;fill-opacity:0.95999995;fill-rule:nonzero;stroke:#000000;stroke-width:0.3175;stroke-miterlimit:4;stroke-dasharray:none;stroke-opacity:0"
       id="path1562"
       d="m 171.7063,176.46048 c 1.05149,-0.41905 2.10097,-0.84547 3.13734,-1.30084 0.72978,-0.29767 1.45659,-0.60142 2.1924,-0.88412 0,0 -1.12951,0.88534 -1.12951,0.88534 v 0 c -0.72781,0.27632 -1.44621,0.57536 -2.16602,0.87175 -1.05084,0.45508 -2.10785,0.89967 -3.17755,1.30818 0,0 1.14334,-0.88031 1.14334,-0.88031 z"
       inkscape:connector-curvature="0" />
    <path
       style="opacity:1;fill:#666666;fill-opacity:0.95999995;fill-rule:nonzero;stroke:#000000;stroke-width:0.3175;stroke-miterlimit:4;stroke-dasharray:none;stroke-opacity:0"
       id="path1564"
       d="m 180.92885,177.67473 c 0.85426,-0.32553 1.69623,-0.68255 2.54135,-1.03116 0.56111,-0.23747 1.1431,-0.41938 1.74061,-0.53675 0,0 -1.14658,0.86929 -1.14658,0.86929 v 0 c -0.58554,0.12726 -1.15629,0.30943 -1.70787,0.54486 -0.85573,0.34844 -1.70249,0.71927 -2.56888,1.04048 0,0 1.14137,-0.88672 1.14137,-0.88672 z"
       inkscape:connector-curvature="0" />
    <path
       style="opacity:1;fill:#666666;fill-opacity:0.95999995;fill-rule:nonzero;stroke:#000000;stroke-width:0.3175;stroke-miterlimit:4;stroke-dasharray:none;stroke-opacity:0"
       id="path1566"
       d="m 187.77077,179.83328 c 0.96594,-0.31072 1.91877,-0.65964 2.87005,-1.01224 0.55684,-0.25733 1.14279,-0.43883 1.71614,-0.65339 0,0 -1.1239,0.87883 -1.1239,0.87883 v 0 c -0.57203,0.20771 -1.14897,0.40224 -1.70713,0.64639 -0.95964,0.35229 -1.92353,0.69238 -2.88662,1.03462 0,0 1.13146,-0.89421 1.13146,-0.89421 z"
       inkscape:connector-curvature="0" />
    <path
       style="opacity:1;fill:#666666;fill-opacity:0.95999995;fill-rule:nonzero;stroke:#000000;stroke-width:0.3175;stroke-miterlimit:4;stroke-dasharray:none;stroke-opacity:0"
       id="path1568"
       d="m 195.78892,179.90408 c 1.02994,-0.25227 2.06045,-0.50486 3.09635,-0.73229 1.03824,-0.27146 2.0955,-0.45004 3.15201,-0.63052 0,0 -1.14802,0.86255 -1.14802,0.86255 v 0 c -1.04879,0.15987 -2.091,0.35684 -3.12013,0.6169 -1.0485,0.23716 -2.09123,0.4995 -3.1358,0.75247 0,0 1.15559,-0.86911 1.15559,-0.86911 z"
       inkscape:connector-curvature="0" />
    <path
       style="opacity:1;fill:#666666;fill-opacity:0.95999995;fill-rule:nonzero;stroke:#000000;stroke-width:0.3175;stroke-miterlimit:4;stroke-dasharray:none;stroke-opacity:0"
       id="path1570"
       d="m 183.77143,195.29963 c -1.14699,0.54586 -2.30338,1.07379 -3.43825,1.6449 -0.18587,0.0854 -0.37173,0.17077 -0.5576,0.25615 0,0 1.10312,-0.87688 1.10312,-0.87688 v 0 c 0.18384,-0.0856 0.36769,-0.17118 0.55153,-0.25677 1.14806,-0.56952 2.31394,-1.10239 3.46483,-1.66619 0,0 -1.12363,0.89879 -1.12363,0.89879 z"
       inkscape:connector-curvature="0" />
    <path
       style="opacity:1;fill:#666666;fill-opacity:0.95999995;fill-rule:nonzero;stroke:#000000;stroke-width:0.3175;stroke-miterlimit:4;stroke-dasharray:none;stroke-opacity:0"
       id="path1572"
       d="m 175.02502,195.23215 c -1.23561,0.43732 -2.43627,0.96071 -3.62365,1.51417 0,0 1.09116,-0.86764 1.09116,-0.86764 v 0 c 1.20474,-0.55706 2.42225,-1.08793 3.67583,-1.52685 0,0 -1.14334,0.88032 -1.14334,0.88032 z"
       inkscape:connector-curvature="0" />
    <path
       style="opacity:1;fill:#666666;fill-opacity:0.95999995;fill-rule:nonzero;stroke:#000000;stroke-width:0.3175;stroke-miterlimit:4;stroke-dasharray:none;stroke-opacity:0"
       id="path1574"
       d="m 164.5549,194.01469 c -1.08615,0.41515 -2.16542,0.84825 -3.23708,1.2995 -0.1966,0.0858 -0.3932,0.17152 -0.5898,0.25728 0,0 1.10304,-0.87262 1.10304,-0.87262 v 0 c 0.19656,-0.085 0.39312,-0.16997 0.58969,-0.25496 1.08531,-0.45378 2.17491,-0.89936 3.27749,-1.30952 0,0 -1.14334,0.88032 -1.14334,0.88032 z"
       inkscape:connector-curvature="0" />
    <path
       style="opacity:1;fill:#666666;fill-opacity:0.95999995;fill-rule:nonzero;stroke:#000000;stroke-width:0.3175;stroke-miterlimit:4;stroke-dasharray:none;stroke-opacity:0"
       id="path1576"
       d="m 157.28028,193.28742 c -1.10233,0.36286 -2.20936,0.71133 -3.29505,1.12171 -0.23893,0.0932 -0.47787,0.18642 -0.7168,0.27963 0,0 1.09788,-0.86168 1.09788,-0.86168 v 0 c 0.23984,-0.0932 0.47967,-0.18637 0.71951,-0.27955 1.10229,-0.41016 2.22336,-0.76542 3.33583,-1.14683 0,0 -1.14137,0.88672 -1.14137,0.88672 z"
       inkscape:connector-curvature="0" />
    <path
       style="opacity:1;fill:#666666;fill-opacity:0.95999995;fill-rule:nonzero;stroke:#000000;stroke-width:0.3175;stroke-miterlimit:4;stroke-dasharray:none;stroke-opacity:0"
       id="path1578"
       d="m 145.5626,192.55374 c -0.54659,0.13332 -1.07712,0.32499 -1.61016,0.50293 0,0 1.10653,-0.8599 1.10653,-0.8599 v 0 c 0.54594,-0.18337 1.09031,-0.37421 1.64697,-0.52335 0,0 -1.14334,0.88032 -1.14334,0.88032 z"
       inkscape:connector-curvature="0" />
    <path
       style="opacity:1;fill:#666666;fill-opacity:0.95999995;fill-rule:nonzero;stroke:#000000;stroke-width:0.3175;stroke-miterlimit:4;stroke-dasharray:none;stroke-opacity:0"
       id="path1580"
       d="m 136.55343,192.31025 c -0.47288,0.15278 -0.22086,0.0764 -0.7571,0.22573 0,0 1.12776,-0.86855 1.12776,-0.86855 v 0 c 0.54286,-0.16047 0.28549,-0.0807 0.77268,-0.2375 0,0 -1.14334,0.88032 -1.14334,0.88032 z"
       inkscape:connector-curvature="0" />
    <path
       style="opacity:1;fill:#666666;fill-opacity:0.95999995;fill-rule:nonzero;stroke:#000000;stroke-width:0.3175;stroke-miterlimit:4;stroke-dasharray:none;stroke-opacity:0"
       id="path1582"
       d="m 128.97556,191.09017 c -0.85384,0.27846 -1.71544,0.53179 -2.57758,0.78302 0,0 1.09919,-0.84768 1.09919,-0.84768 v 0 c 0.87733,-0.26042 1.75201,-0.52872 2.62277,-0.8104 0,0 -1.14438,0.87506 -1.14438,0.87506 z"
       inkscape:connector-curvature="0" />
    <path
       style="opacity:1;fill:#666666;fill-opacity:0.95999995;fill-rule:nonzero;stroke:#000000;stroke-width:0.3175;stroke-miterlimit:4;stroke-dasharray:none;stroke-opacity:0"
       id="path1584"
       d="m 116.67021,180.94562 c -0.42935,0.33198 -0.79914,0.73262 -1.17641,1.12063 0,0 -1.31106,0.54556 -1.31106,0.54556 v 0 c 0.37152,-0.38563 0.73167,-0.78769 1.14629,-1.12796 0,0 1.34118,-0.53823 1.34118,-0.53823 z"
       inkscape:connector-curvature="0" />
    <path
       style="opacity:1;fill:#666666;fill-opacity:0.95999995;fill-rule:nonzero;stroke:#000000;stroke-width:0.3175;stroke-miterlimit:4;stroke-dasharray:none;stroke-opacity:0"
       id="path1586"
       d="m 96.90121,186.99354 c 0.310754,-0.17658 1.241513,-0.70893 0.932265,-0.52973 -1.331523,0.77159 -2.655718,1.49506 -4.029808,2.18219 -0.23377,0.11211 -0.467542,0.22421 -0.701315,0.33632 0,0 1.090647,-0.86976 1.090647,-0.86976 v 0 c 0.233841,-0.11306 0.467683,-0.22612 0.701524,-0.33918 0.636238,-0.31848 1.275882,-0.62865 1.898177,-0.97401 0.17186,-0.0954 0.680098,-0.39434 0.512188,-0.29217 -0.266144,0.16196 -1.07714,0.6267 -0.806971,0.47155 0.511585,-0.29378 1.020818,-0.59164 1.531225,-0.88745 0,0 -1.127932,0.90224 -1.127932,0.90224 z"
       inkscape:connector-curvature="0" />
    <path
       style="opacity:1;fill:#666666;fill-opacity:0.95999995;fill-rule:nonzero;stroke:#000000;stroke-width:0.3175;stroke-miterlimit:4;stroke-dasharray:none;stroke-opacity:0"
       id="path1588"
       d="m 83.982353,186.67522 c -1.001975,0.2339 -1.971964,0.58596 -2.945707,0.91448 0,0 1.108181,-0.8617 1.108181,-0.8617 v 0 c 0.988192,-0.33479 1.973087,-0.69503 2.993117,-0.92188 0,0 -1.155591,0.8691 -1.155591,0.8691 z"
       inkscape:connector-curvature="0" />
    <path
       style="opacity:1;fill:#666666;fill-opacity:0.95999995;fill-rule:nonzero;stroke:#000000;stroke-width:0.3175;stroke-miterlimit:4;stroke-dasharray:none;stroke-opacity:0"
       id="path1590"
       d="m 75.193672,185.00552 c -1.574578,0.5604 -3.130775,1.17268 -4.671793,1.81926 -1.192085,0.49885 -2.383861,0.99539 -3.552012,1.54828 0,0 1.090139,-0.86746 1.090139,-0.86746 v 0 c 1.164788,-0.54012 2.35051,-1.03032 3.534375,-1.52695 1.566151,-0.65366 3.143623,-1.28441 4.742633,-1.85345 0,0 -1.143342,0.88032 -1.143342,0.88032 z"
       inkscape:connector-curvature="0" />
    <path
       style="opacity:1;fill:#666666;fill-opacity:0.95999995;fill-rule:nonzero;stroke:#000000;stroke-width:0.3175;stroke-miterlimit:4;stroke-dasharray:none;stroke-opacity:0"
       id="path1592"
       d="m 81.80476,187.72401 c -0.953772,0.53775 -1.91149,1.06285 -2.887702,1.55861 -0.159975,0.0864 -0.31995,0.17277 -0.479925,0.25915 0,0 1.102416,-0.8869 1.102416,-0.8869 v 0 c 0.15952,-0.0847 0.31904,-0.16938 0.478559,-0.25408 0.98632,-0.50038 1.946852,-1.04398 2.914587,-1.57902 0,0 -1.127935,0.90224 -1.127935,0.90224 z"
       inkscape:connector-curvature="0" />
    <path
       style="opacity:1;fill:#ff0000;fill-opacity:0.95999995;fill-rule:nonzero;stroke:#000000;stroke-width:0.3175;stroke-miterlimit:4;stroke-dasharray:none;stroke-opacity:0"
       id="path1594"
       d="m 108.26991,202.89188 c 0.42242,-0.71692 1.00652,-1.30687 1.60124,-1.87968 0.56401,-0.53055 1.1974,-0.97159 1.85403,-1.37749 0.88197,-0.56418 1.78324,-1.05257 2.75403,-1.42821 0.44202,-0.26589 0.95703,-0.31868 1.43416,-0.48 0.36818,-0.13508 0.75562,-0.19612 1.14384,-0.23645 0.35688,-0.14492 0.74409,-0.16185 1.11215,-0.25948 0.32122,-0.10806 0.65153,-0.17811 0.98605,-0.2281 0.2156,-0.0491 0.38705,-0.007 0.5856,0.0709 0.23094,0.15858 0.46007,0.31711 0.68159,0.48916 0.24881,0.12078 0.4645,0.26343 0.64014,0.47614 0.18479,0.25874 0.41519,0.48123 0.59581,0.7422 0.22686,0.27689 0.39136,0.59338 0.59631,0.88756 0.2296,0.29058 0.50118,0.54172 0.74816,0.81619 0.24336,0.19536 0.41353,0.44226 0.53567,0.72583 0.0576,0.087 0.13899,0.14452 0.23604,0.17675 0.28362,-0.4109 -0.83297,0.55088 -1.2422,0.83691 -0.0397,-5.3e-4 -0.0794,-0.001 -0.11904,-0.001 0,0 1.1744,-0.85171 1.1744,-0.85171 v 0 c 0.0407,2.1e-4 0.0813,5.3e-4 0.122,5.3e-4 -1.83764,1.49574 -0.66638,1.09324 -1.14913,0.82449 -0.11775,-0.068 -0.21836,-0.15848 -0.28897,-0.27619 -0.10819,-0.27355 -0.27791,-0.49658 -0.50519,-0.68571 -0.25365,-0.27638 -0.52464,-0.53642 -0.75603,-0.83298 -0.20578,-0.29371 -0.37317,-0.60839 -0.5994,-0.88599 -0.1796,-0.25603 -0.40609,-0.47582 -0.58985,-0.72944 -0.17495,-0.19886 -0.40001,-0.31603 -0.62621,-0.45039 -0.20874,-0.16466 -0.42564,-0.31903 -0.65705,-0.45054 -0.18049,-0.06 -0.35728,-0.0458 -0.54326,-0.0113 -0.32949,0.0538 -0.65089,0.14034 -0.97181,0.23169 -0.37673,0.0802 -0.75536,0.14789 -1.12736,0.24871 -0.3826,0.0459 -0.75915,0.12562 -1.12315,0.25446 -0.48562,0.13371 -0.97465,0.24876 -1.42439,0.4871 -0.52678,0.21434 -2.42519,1.16728 -0.28633,0.0218 -0.65813,0.40416 -1.30495,0.825 -1.87362,1.35286 -0.58941,0.55983 -1.17282,1.12866 -1.60226,1.82638 0,0 -1.31597,0.59539 -1.31597,0.59539 z"
       inkscape:connector-curvature="0" />
    <path
       style="opacity:1;fill:#ff0000;fill-opacity:0.95999995;fill-rule:nonzero;stroke:#000000;stroke-width:0.3175;stroke-miterlimit:4;stroke-dasharray:none;stroke-opacity:0"
       id="path1596"
       d="m 109.17089,203.35197 c -0.33609,0.53583 -0.48869,1.12046 -0.5132,1.74598 -5.3e-4,0.44976 0.085,0.91674 0.26754,1.33001 0.13662,0.20071 0.17348,0.46153 0.30134,0.66266 0.0536,0.0643 0.11803,0.11776 0.19773,0.14337 0.0149,-0.0112 0.0107,-0.007 10e-4,-0.0293 0,0 -1.16849,0.8766 -1.16849,0.8766 v 0 c -0.0153,-0.0154 -0.0294,-0.0311 -0.0493,-0.041 -0.0908,-0.0602 -0.17429,-0.12938 -0.23754,-0.21958 -0.1276,-0.21147 -0.16963,-0.47167 -0.30554,-0.68292 -0.19147,-0.43216 -0.27977,-0.9229 -0.28636,-1.39299 0.0147,-0.64245 0.14421,-1.24381 0.46996,-1.80667 0,0 1.32249,-0.58615 1.32249,-0.58615 z"
       inkscape:connector-curvature="0" />
    <path
       style="opacity:1;fill:#ff0000;fill-opacity:0.95999995;fill-rule:nonzero;stroke:#000000;stroke-width:0.3175;stroke-miterlimit:4;stroke-dasharray:none;stroke-opacity:0"
       id="path1598"
       d="m 109.61607,207.38384 c 0.82956,-0.19278 1.60742,-0.55465 2.37901,-0.90634 0.93175,-0.42099 1.80004,-0.96488 2.72859,-1.3916 0.93887,-0.38154 1.85013,-0.81929 2.75093,-1.28224 0.85021,-0.41195 1.70573,-0.81223 2.55427,-1.22866 0.56365,-0.30253 1.14547,-0.58176 1.75329,-0.78383 0.39839,-0.0704 0.76998,-0.22465 1.15486,-0.34209 0.12841,-0.0242 0.25613,-0.10213 0.38891,-0.0871 0.57258,-0.0463 -1.53806,1.07523 -1.06228,0.5688 0,0 1.33698,-0.57807 1.33698,-0.57807 v 0 c -0.28527,0.48963 -0.88376,0.82512 -1.4461,0.87577 -0.11904,0.0416 -0.2439,0.0652 -0.36303,0.10687 -0.37965,0.12031 -0.75561,0.24832 -1.14382,0.33965 -0.5969,0.21747 -1.17223,0.49145 -1.73266,0.78987 -0.84538,0.41734 -1.70491,0.80362 -2.54742,1.22611 -0.90213,0.46067 -1.81929,0.88583 -2.7535,1.27787 -0.92177,0.44019 -1.79559,0.97421 -2.7296,1.39013 -0.7833,0.353 -1.57334,0.70309 -2.41177,0.90522 0,0 1.14334,-0.88032 1.14334,-0.88032 z"
       inkscape:connector-curvature="0" />
    <path
       style="opacity:1;fill:#ff0000;fill-opacity:0.95999995;fill-rule:nonzero;stroke:#000000;stroke-width:0.3175;stroke-miterlimit:4;stroke-dasharray:none;stroke-opacity:0"
       id="path1600"
       d="m 108.46243,209.21075 c -0.35234,1.09028 -0.81821,2.13815 -1.26852,3.19033 -0.40767,1.00636 -0.76268,2.03327 -1.10508,3.06343 -0.0116,0.27098 -0.27415,0.5764 -0.23009,0.85385 0,0 -1.34494,0.56738 -1.34494,0.56738 v 0 c 0.009,0.006 0.0184,0.0271 0.0256,0.0192 0.10882,-0.12157 0.12884,-0.72189 0.25632,-0.83348 0.35163,-1.03614 0.72127,-2.06692 1.12339,-3.08453 0.44588,-1.03967 0.91458,-2.07477 1.23511,-3.16177 0,0 1.30825,-0.6144 1.30825,-0.6144 z"
       inkscape:connector-curvature="0" />
    <path
       style="opacity:1;fill:#ff0000;fill-opacity:0.95999995;fill-rule:nonzero;stroke:#000000;stroke-width:0.3175;stroke-miterlimit:4;stroke-dasharray:none;stroke-opacity:0"
       id="path1602"
       d="m 113.18463,208.22781 c 0.25663,1.07487 0.22564,2.186 0.22178,3.28299 -0.007,0.89593 -0.0206,1.79181 -0.0236,2.68776 -0.0181,0.2691 0.0151,0.53411 0.13277,0.77738 0,0 -1.26515,0.7161 -1.26515,0.7161 v 0 c -0.121,-0.26541 -0.17305,-0.55105 -0.1475,-0.84329 0.0185,-0.89953 0.0365,-1.79909 0.0475,-2.69874 0.007,-1.07952 0.0482,-2.17906 -0.23276,-3.23158 0,0 1.26697,-0.69062 1.26697,-0.69062 z"
       inkscape:connector-curvature="0" />
    <path
       style="opacity:1;fill:#ff0000;fill-opacity:0.95999995;fill-rule:nonzero;stroke:#000000;stroke-width:0.3175;stroke-miterlimit:4;stroke-dasharray:none;stroke-opacity:0"
       id="path1604"
       d="m 118.80815,205.50825 c 0.36984,1.05369 0.71094,2.11527 1.01175,3.19068 0.34186,1.21899 0.64014,2.4492 0.9818,3.66821 0.20503,0.49384 0.18945,1.06344 0.37817,1.55823 0.0149,0.0232 0.0298,0.0463 0.0447,0.0695 0,0 -1.2563,0.72966 -1.2563,0.72966 v 0 c -0.0185,-0.0314 -0.0369,-0.0627 -0.0554,-0.0941 -0.19236,-0.50078 -0.15098,-1.08379 -0.3571,-1.58587 -0.32796,-1.22361 -0.62185,-2.45599 -0.96768,-3.67478 -0.30144,-1.06324 -0.6367,-2.11548 -1.0351,-3.14686 0,0 1.25518,-0.71468 1.25518,-0.71468 z"
       inkscape:connector-curvature="0" />
    <path
       style="opacity:1;fill:#ff0000;fill-opacity:0.95999995;fill-rule:nonzero;stroke:#000000;stroke-width:0.3175;stroke-miterlimit:4;stroke-dasharray:none;stroke-opacity:0"
       id="path1606"
       d="m 123.67615,203.03886 c 0.65049,0.83563 1.35345,1.62986 2.06517,2.41372 0.93165,1.03522 1.93529,2.00296 2.99015,2.91153 0.60349,0.48147 1.15801,1.01995 1.69588,1.57262 0.15814,0.16711 0.0826,0.0874 0.22669,0.23919 0,0 -1.23751,0.75251 -1.23751,0.75251 v 0 c -0.14072,-0.15331 -0.0666,-0.0731 -0.22254,-0.24059 -0.51706,-0.56241 -1.06568,-1.09654 -1.65874,-1.57904 -1.05104,-0.9196 -2.0527,-1.89513 -2.9905,-2.93047 -0.72372,-0.78936 -1.44006,-1.58681 -2.12014,-2.41408 0,0 1.25154,-0.72539 1.25154,-0.72539 z"
       inkscape:connector-curvature="0" />
    <path
       inkscape:connector-curvature="0"
       d="m 119.15689,188.81802 c -0.2752,0.39765 -0.6311,0.78571 -0.72241,1.27507 -0.0663,0.1813 0.32953,-0.11548 0.31307,-0.10672 -1.07913,0.57463 -1.37876,0.87518 -0.92857,0.45632 0.10289,-0.002 0.455,-0.64692 0.38087,-0.43659 -0.46875,0.31773 0.14556,-0.10258 1.03345,-0.56314 0.0562,-0.0292 -0.1006,0.077 -0.14839,0.11852 -0.12432,0.10801 -0.21081,0.20636 -0.28601,0.35066 -0.003,0.0206 -0.006,0.0412 -0.01,0.0619 0,0 -1.29439,0.66111 -1.29439,0.66111 v 0 c -0.004,-0.0384 -0.008,-0.0767 -0.0114,-0.11504 0.21168,-0.67936 1.42118,-1.30944 1.90843,-1.34898 0.31005,0.23051 -0.0641,0.5115 -0.23845,0.71953 -0.50468,0.53209 -0.15755,0.19151 -1.53346,1.00008 -0.20552,0.12078 -0.42813,0.093 -0.48625,-0.15865 0.0595,-0.5194 0.41773,-0.92215 0.69427,-1.34628 0,0 1.32894,-0.56777 1.32894,-0.56777 z"
       id="path1879"
       style="opacity:1;fill:#ff6600;fill-opacity:0.95999995;fill-rule:nonzero;stroke:#000000;stroke-width:0.3175;stroke-miterlimit:4;stroke-dasharray:none;stroke-opacity:0"
       inkscape:spray-origin="#path1877" />
    <path
       inkscape:connector-curvature="0"
       d="m 114.44528,187.61006 c -0.2752,0.39765 -0.6311,0.78571 -0.72241,1.27507 -0.0663,0.1813 0.32953,-0.11548 0.31307,-0.10672 -1.07913,0.57463 -1.37876,0.87518 -0.92857,0.45632 0.10289,-0.002 0.455,-0.64692 0.38087,-0.43659 -0.46875,0.31773 0.14556,-0.10258 1.03345,-0.56314 0.0562,-0.0292 -0.1006,0.077 -0.14839,0.11852 -0.12432,0.10801 -0.21081,0.20636 -0.28601,0.35066 -0.003,0.0206 -0.006,0.0412 -0.01,0.0619 0,0 -1.29439,0.66111 -1.29439,0.66111 v 0 c -0.004,-0.0384 -0.008,-0.0767 -0.0114,-0.11504 0.21168,-0.67936 1.42118,-1.30944 1.90843,-1.34898 0.31005,0.23051 -0.0641,0.5115 -0.23845,0.71953 -0.50468,0.53209 -0.15755,0.19151 -1.53346,1.00008 -0.20552,0.12078 -0.42813,0.093 -0.48625,-0.15865 0.0595,-0.5194 0.41773,-0.92215 0.69427,-1.34628 0,0 1.32894,-0.56777 1.32894,-0.56777 z"
       id="path1881"
       style="opacity:1;fill:#ff6600;fill-opacity:0.95999995;fill-rule:nonzero;stroke:#000000;stroke-width:0.3175;stroke-miterlimit:4;stroke-dasharray:none;stroke-opacity:0"
       inkscape:spray-origin="#path1877" />
    <path
       inkscape:connector-curvature="0"
       d="m 114.71917,192.34738 c -0.2752,0.39765 -0.6311,0.78571 -0.72241,1.27507 -0.0663,0.1813 0.32953,-0.11548 0.31307,-0.10672 -1.07913,0.57463 -1.37876,0.87518 -0.92857,0.45632 0.10289,-0.002 0.455,-0.64692 0.38087,-0.43659 -0.46875,0.31773 0.14556,-0.10258 1.03345,-0.56314 0.0562,-0.0292 -0.1006,0.077 -0.14839,0.11852 -0.12432,0.10801 -0.21081,0.20636 -0.28601,0.35066 -0.003,0.0206 -0.006,0.0412 -0.01,0.0619 0,0 -1.29439,0.66111 -1.29439,0.66111 v 0 c -0.004,-0.0384 -0.008,-0.0767 -0.0114,-0.11504 0.21168,-0.67936 1.42118,-1.30944 1.90843,-1.34898 0.31005,0.23051 -0.0641,0.5115 -0.23845,0.71953 -0.50468,0.53209 -0.15755,0.19151 -1.53346,1.00008 -0.20552,0.12078 -0.42813,0.093 -0.48625,-0.15865 0.0595,-0.5194 0.41773,-0.92215 0.69427,-1.34628 0,0 1.32894,-0.56777 1.32894,-0.56777 z"
       id="path1883"
       style="opacity:1;fill:#ff6600;fill-opacity:0.95999995;fill-rule:nonzero;stroke:#000000;stroke-width:0.3175;stroke-miterlimit:4;stroke-dasharray:none;stroke-opacity:0"
       inkscape:spray-origin="#path1877" />
    <path
       inkscape:connector-curvature="0"
       d="m 121.74847,191.67484 c -0.2752,0.39765 -0.6311,0.78571 -0.72241,1.27507 -0.0663,0.1813 0.32953,-0.11548 0.31307,-0.10672 -1.07913,0.57463 -1.37876,0.87518 -0.92857,0.45632 0.10289,-0.002 0.455,-0.64692 0.38087,-0.43659 -0.46875,0.31773 0.14556,-0.10258 1.03345,-0.56314 0.0562,-0.0292 -0.1006,0.077 -0.14839,0.11852 -0.12432,0.10801 -0.21081,0.20636 -0.28601,0.35066 -0.003,0.0206 -0.006,0.0412 -0.01,0.0619 0,0 -1.29439,0.66111 -1.29439,0.66111 v 0 c -0.004,-0.0384 -0.008,-0.0767 -0.0114,-0.11504 0.21168,-0.67936 1.42118,-1.30944 1.90843,-1.34898 0.31005,0.23051 -0.0641,0.5115 -0.23845,0.71953 -0.50468,0.53209 -0.15755,0.19151 -1.53346,1.00008 -0.20552,0.12078 -0.42813,0.093 -0.48625,-0.15865 0.0595,-0.5194 0.41773,-0.92215 0.69427,-1.34628 0,0 1.32894,-0.56777 1.32894,-0.56777 z"
       id="path1885"
       style="opacity:1;fill:#ff6600;fill-opacity:0.95999995;fill-rule:nonzero;stroke:#000000;stroke-width:0.3175;stroke-miterlimit:4;stroke-dasharray:none;stroke-opacity:0"
       inkscape:spray-origin="#path1877" />
    <path
       inkscape:connector-curvature="0"
       d="m 118.36021,192.87516 c -0.2752,0.39765 -0.6311,0.78571 -0.72241,1.27507 -0.0663,0.1813 0.32953,-0.11548 0.31307,-0.10672 -1.07913,0.57463 -1.37876,0.87518 -0.92857,0.45632 0.10289,-0.002 0.455,-0.64692 0.38087,-0.43659 -0.46875,0.31773 0.14556,-0.10258 1.03345,-0.56314 0.0562,-0.0292 -0.1006,0.077 -0.14839,0.11852 -0.12432,0.10801 -0.21081,0.20636 -0.28601,0.35066 -0.003,0.0206 -0.006,0.0412 -0.01,0.0619 0,0 -1.29439,0.66111 -1.29439,0.66111 v 0 c -0.004,-0.0384 -0.008,-0.0767 -0.0114,-0.11504 0.21168,-0.67936 1.42118,-1.30944 1.90843,-1.34898 0.31005,0.23051 -0.0641,0.5115 -0.23845,0.71953 -0.50468,0.53209 -0.15755,0.19151 -1.53346,1.00008 -0.20552,0.12078 -0.42813,0.093 -0.48625,-0.15865 0.0595,-0.5194 0.41773,-0.92215 0.69427,-1.34628 0,0 1.32894,-0.56777 1.32894,-0.56777 z"
       id="path1887"
       style="opacity:1;fill:#ff6600;fill-opacity:0.95999995;fill-rule:nonzero;stroke:#000000;stroke-width:0.3175;stroke-miterlimit:4;stroke-dasharray:none;stroke-opacity:0"
       inkscape:spray-origin="#path1877" />
    <path
       inkscape:connector-curvature="0"
       d="m 107.67486,194.223 c -0.2752,0.39765 -0.6311,0.78571 -0.72241,1.27507 -0.0663,0.1813 0.32953,-0.11548 0.31307,-0.10672 -1.07913,0.57463 -1.37876,0.87518 -0.92857,0.45632 0.10289,-0.002 0.455,-0.64692 0.38087,-0.43659 -0.46875,0.31773 0.14556,-0.10258 1.03345,-0.56314 0.0562,-0.0292 -0.1006,0.077 -0.14839,0.11852 -0.12432,0.10801 -0.21081,0.20636 -0.28601,0.35066 -0.003,0.0206 -0.006,0.0412 -0.01,0.0619 0,0 -1.29439,0.66111 -1.29439,0.66111 v 0 c -0.004,-0.0384 -0.008,-0.0767 -0.0114,-0.11504 0.21168,-0.67936 1.42118,-1.30944 1.90843,-1.34898 0.31005,0.23051 -0.0641,0.5115 -0.23845,0.71953 -0.50468,0.53209 -0.15755,0.19151 -1.53346,1.00008 -0.20552,0.12078 -0.42813,0.093 -0.48625,-0.15865 0.0595,-0.5194 0.41773,-0.92215 0.69427,-1.34628 0,0 1.32894,-0.56777 1.32894,-0.56777 z"
       id="path1889"
       style="opacity:1;fill:#ff6600;fill-opacity:0.95999995;fill-rule:nonzero;stroke:#000000;stroke-width:0.3175;stroke-miterlimit:4;stroke-dasharray:none;stroke-opacity:0"
       inkscape:spray-origin="#path1877" />
    <path
       inkscape:connector-curvature="0"
       d="m 111.42674,189.97996 c -0.2752,0.39765 -0.6311,0.78571 -0.72241,1.27507 -0.0663,0.1813 0.32953,-0.11548 0.31307,-0.10672 -1.07913,0.57463 -1.37876,0.87518 -0.92857,0.45632 0.10289,-0.002 0.455,-0.64692 0.38087,-0.43659 -0.46875,0.31773 0.14556,-0.10258 1.03345,-0.56314 0.0562,-0.0292 -0.1006,0.077 -0.14839,0.11852 -0.12432,0.10801 -0.21081,0.20636 -0.28601,0.35066 -0.003,0.0206 -0.006,0.0412 -0.01,0.0619 0,0 -1.29439,0.66111 -1.29439,0.66111 v 0 c -0.004,-0.0384 -0.008,-0.0767 -0.0114,-0.11504 0.21168,-0.67936 1.42118,-1.30944 1.90843,-1.34898 0.31005,0.23051 -0.0641,0.5115 -0.23845,0.71953 -0.50468,0.53209 -0.15755,0.19151 -1.53346,1.00008 -0.20552,0.12078 -0.42813,0.093 -0.48625,-0.15865 0.0595,-0.5194 0.41773,-0.92215 0.69427,-1.34628 0,0 1.32894,-0.56777 1.32894,-0.56777 z"
       id="path1891"
       style="opacity:1;fill:#ff6600;fill-opacity:0.95999995;fill-rule:nonzero;stroke:#000000;stroke-width:0.3175;stroke-miterlimit:4;stroke-dasharray:none;stroke-opacity:0"
       inkscape:spray-origin="#path1877" />
    <path
       inkscape:connector-curvature="0"
       d="m 119.16918,184.82398 c -0.2752,0.39765 -0.6311,0.78571 -0.72241,1.27507 -0.0663,0.1813 0.32953,-0.11548 0.31307,-0.10672 -1.07913,0.57463 -1.37876,0.87518 -0.92857,0.45632 0.10289,-0.002 0.455,-0.64692 0.38087,-0.43659 -0.46875,0.31773 0.14556,-0.10258 1.03345,-0.56314 0.0562,-0.0292 -0.1006,0.077 -0.14839,0.11852 -0.12432,0.10801 -0.21081,0.20636 -0.28601,0.35066 -0.003,0.0206 -0.006,0.0412 -0.01,0.0619 0,0 -1.29439,0.66111 -1.29439,0.66111 v 0 c -0.004,-0.0384 -0.008,-0.0767 -0.0114,-0.11504 0.21168,-0.67936 1.42118,-1.30944 1.90843,-1.34898 0.31005,0.23051 -0.0641,0.5115 -0.23845,0.71953 -0.50468,0.53209 -0.15755,0.19151 -1.53346,1.00008 -0.20552,0.12078 -0.42813,0.093 -0.48625,-0.15865 0.0595,-0.5194 0.41773,-0.92215 0.69427,-1.34628 0,0 1.32894,-0.56777 1.32894,-0.56777 z"
       id="path1893"
       style="opacity:1;fill:#ff6600;fill-opacity:0.95999995;fill-rule:nonzero;stroke:#000000;stroke-width:0.3175;stroke-miterlimit:4;stroke-dasharray:none;stroke-opacity:0"
       inkscape:spray-origin="#path1877" />
    <path
       inkscape:connector-curvature="0"
       d="m 114.60292,184.02533 c -0.2752,0.39765 -0.6311,0.78571 -0.72241,1.27507 -0.0663,0.1813 0.32953,-0.11548 0.31307,-0.10672 -1.07913,0.57463 -1.37876,0.87518 -0.92857,0.45632 0.10289,-0.002 0.455,-0.64692 0.38087,-0.43659 -0.46875,0.31773 0.14556,-0.10258 1.03345,-0.56314 0.0562,-0.0292 -0.1006,0.077 -0.14839,0.11852 -0.12432,0.10801 -0.21081,0.20636 -0.28601,0.35066 -0.003,0.0206 -0.006,0.0412 -0.01,0.0619 0,0 -1.29439,0.66111 -1.29439,0.66111 v 0 c -0.004,-0.0384 -0.008,-0.0767 -0.0114,-0.11504 0.21168,-0.67936 1.42118,-1.30944 1.90843,-1.34898 0.31005,0.23051 -0.0641,0.5115 -0.23845,0.71953 -0.50468,0.53209 -0.15755,0.19151 -1.53346,1.00008 -0.20552,0.12078 -0.42813,0.093 -0.48625,-0.15865 0.0595,-0.5194 0.41773,-0.92215 0.69427,-1.34628 0,0 1.32894,-0.56777 1.32894,-0.56777 z"
       id="path1895"
       style="opacity:1;fill:#ff6600;fill-opacity:0.95999995;fill-rule:nonzero;stroke:#000000;stroke-width:0.3175;stroke-miterlimit:4;stroke-dasharray:none;stroke-opacity:0"
       inkscape:spray-origin="#path1877" />
    <path
       inkscape:connector-curvature="0"
       d="m 126.9129,193.00532 c -0.2752,0.39765 -0.6311,0.78571 -0.72241,1.27507 -0.0663,0.1813 0.32953,-0.11548 0.31307,-0.10672 -1.07913,0.57463 -1.37876,0.87518 -0.92857,0.45632 0.10289,-0.002 0.455,-0.64692 0.38087,-0.43659 -0.46875,0.31773 0.14556,-0.10258 1.03345,-0.56314 0.0562,-0.0292 -0.1006,0.077 -0.14839,0.11852 -0.12432,0.10801 -0.21081,0.20636 -0.28601,0.35066 -0.003,0.0206 -0.006,0.0412 -0.01,0.0619 0,0 -1.29439,0.66111 -1.29439,0.66111 v 0 c -0.004,-0.0384 -0.008,-0.0767 -0.0114,-0.11504 0.21168,-0.67936 1.42118,-1.30944 1.90843,-1.34898 0.31005,0.23051 -0.0641,0.5115 -0.23845,0.71953 -0.50468,0.53209 -0.15755,0.19151 -1.53346,1.00008 -0.20552,0.12078 -0.42813,0.093 -0.48625,-0.15865 0.0595,-0.5194 0.41773,-0.92215 0.69427,-1.34628 0,0 1.32894,-0.56777 1.32894,-0.56777 z"
       id="path1897"
       style="opacity:1;fill:#ff6600;fill-opacity:0.95999995;fill-rule:nonzero;stroke:#000000;stroke-width:0.3175;stroke-miterlimit:4;stroke-dasharray:none;stroke-opacity:0"
       inkscape:spray-origin="#path1877" />
    <path
       style="opacity:1;fill:#333333;fill-opacity:0.95999995;fill-rule:nonzero;stroke:#000000;stroke-width:0.3175;stroke-miterlimit:4;stroke-dasharray:none;stroke-opacity:0"
       id="path1899"
       d="m 65.946882,150.73146 c 0.118694,0.37569 0.246515,0.74844 0.376848,1.12023 0.116557,0.32971 0.105783,0.0734 -1.22991,0.69194 -0.05763,0.0267 0.0052,-0.12692 0.0069,-0.19041 0.01066,-0.28184 0.0081,-0.55439 -0.06204,-0.82811 -0.07102,-0.26436 -0.1293,-0.53061 -0.166921,-0.80169 -0.01005,-0.0715 -0.01669,-0.14348 -0.0245,-0.21528 1.24124,-0.66678 1.308436,-0.96863 1.4733,-0.0991 0.09957,0.34654 0.214302,0.68516 0.363776,1.01341 0.02111,0.0513 0.15716,0.54874 0.246287,0.4483 0.187497,-0.46768 -0.0037,0.0377 -1.163425,0.60496 -0.03061,0.015 0.03068,-0.0611 0.0412,-0.0935 0.03674,-0.11324 0.03345,-0.23909 0.03708,-0.35619 0.03264,-0.3371 -0.07517,-0.65379 -0.151765,-0.97657 -0.05058,-0.25725 -0.08947,-0.51657 -0.106447,-0.7782 -0.185081,-0.55666 1.280959,-1.31263 1.288952,-0.66598 0.0046,0.21142 0.09015,0.43255 0.188378,0.61882 0.120986,0.17403 0.198925,0.37021 0.319429,0.54464 0.05851,0.0814 0.120655,0.16025 0.18782,0.23471 0.0016,0.002 0.0046,5.3e-4 0.0069,7.9e-4 0,0 -1.232765,0.7838 -1.232765,0.7838 v 0 c -0.0078,-0.0104 -0.01482,-0.0215 -0.02384,-0.031 -0.06601,-0.0822 -0.129625,-0.16621 -0.189905,-0.25268 -0.122542,-0.18004 -0.205385,-0.37848 -0.326157,-0.55957 -0.109082,-0.20387 -0.206174,-0.44994 -0.223965,-0.67929 7.94e-4,-0.60166 1.431788,-1.40892 1.296289,-0.66081 0.01037,0.25471 0.04085,0.50807 0.08891,0.75849 0.07673,0.33352 0.197215,0.65918 0.169905,1.00678 0.0024,0.68145 -0.269103,1.58772 -1.400016,1.33597 -0.205711,-0.13213 -0.235913,-0.3555 -0.313643,-0.57283 -0.149487,-0.34062 -0.272745,-0.68805 -0.379187,-1.04444 -0.149699,-0.84998 -0.411793,-0.37775 1.10319,-1.24499 -0.0016,0.0681 0.003,0.13634 0.0105,0.20423 0.02897,0.26644 0.08178,0.52819 0.152821,0.78676 0.07847,0.28545 0.09803,0.56468 0.08449,0.86083 0.0011,0.72417 -1.173615,1.60632 -1.343443,0.85664 -0.118959,-0.376 -0.240435,-0.75129 -0.371033,-1.12343 0,0 1.266031,-0.69726 1.266031,-0.69726 z"
       inkscape:connector-curvature="0" />
    <path
       style="opacity:1;fill:#333333;fill-opacity:0.95999995;fill-rule:nonzero;stroke:#000000;stroke-width:0.3175;stroke-miterlimit:4;stroke-dasharray:none;stroke-opacity:0"
       id="path1901"
       d="m 32.298102,197.01513 c -0.04334,0.53964 0.05323,1.06866 0.139264,1.59832 0.07771,0.35266 0.1895,0.68349 0.41688,0.9661 0.188524,0.19537 0.406969,0.37531 0.660397,0.47982 0.209275,0.0937 0.345843,0.0912 0.523838,-0.0483 0.950026,-0.42799 -1.421042,1.18464 -0.880308,0.49639 0.135998,-0.074 0.188082,-0.2244 0.297786,-0.32248 0.440894,-0.25118 0.880348,-0.50492 1.322684,-0.75356 0.603755,-0.33938 -0.60633,0.81891 -1.175441,0.83709 -0.03499,-0.005 -0.07318,0.007 -0.09999,0.0177 -0.03789,-0.0157 -0.07804,-0.0107 -0.117927,-0.0106 0,0 1.178719,-0.85731 1.178719,-0.85731 v 0 c 0.03516,-2.6e-4 0.07331,0.007 0.104621,-0.0126 0.03646,0.008 0.07476,0.007 0.112686,0.007 0.6041,0.0183 -3.38609,2.22735 0.03038,0.24399 -0.178435,0.0782 -0.161877,0.19244 -0.305832,0.30369 -0.08411,0.0458 -0.05198,0.0128 -0.09534,0.1 -0.564766,0.35486 -0.971799,0.61184 -1.502698,0.86628 -0.209093,0.0842 -0.403167,0.0252 -0.601398,-0.0667 -0.261814,-0.13288 -0.500034,-0.31848 -0.694952,-0.5377 -0.240541,-0.30473 -0.360328,-0.65782 -0.447816,-1.03412 -0.0828,-0.53621 -0.18334,-1.07068 -0.154074,-1.61619 0,0 1.28852,-0.65653 1.28852,-0.65653 z"
       inkscape:connector-curvature="0" />
    <path
       style="opacity:1;fill:#333333;fill-opacity:0.95999995;fill-rule:nonzero;stroke:#000000;stroke-width:1.10433757;stroke-miterlimit:4;stroke-dasharray:none;stroke-opacity:0"
       d="m 123.42356,751.89901 c -0.30303,-0.7897 -0.28251,-4.92837 0.0456,-9.19704 0.45607,-5.9332 0.17217,-9.86995 -1.20532,-16.71414 -0.99105,-4.9241 -2.27691,-12.26592 -2.85748,-16.31516 -0.58057,-4.04924 -2.43339,-14.19534 -4.11739,-22.54689 -3.07636,-15.25671 -5.4308,-29.94235 -8.63122,-53.83646 -1.48794,-11.1089 -1.54522,-13.02799 -0.41573,-13.92948 0.72048,-0.57504 7.19662,-3.35523 14.39143,-6.1782 7.1948,-2.82297 23.84284,-9.34387 36.99564,-14.49089 13.15281,-5.14701 29.30374,-11.74517 35.89097,-14.66256 12.34945,-5.46941 29.743,-10.51126 39.58523,-11.47454 3.03693,-0.29723 6.8676,-0.74884 8.5126,-1.00357 2.51612,-0.38963 2.99092,-0.1763 2.99092,1.34384 0,2.67663 0.96821,4.71838 2.2375,4.71838 1.03201,0 4.81418,11.10267 9.71844,28.52872 2.3217,8.24956 9.57257,28.89697 12.52325,35.6609 1.15923,2.65731 2.02694,4.83307 1.92825,4.83501 -0.0987,0.002 -6.39133,1.24264 -13.98365,2.75709 -11.80776,2.35531 -17.26474,2.88695 -37.73153,3.67597 -13.16002,0.50733 -28.89683,1.39148 -34.97069,1.96477 -15.30643,1.44473 -39.25328,1.42613 -45.91913,-0.0357 -6.23679,-1.3677 -9.91926,-4.32885 -9.13116,-7.34255 0.27911,-1.06733 1.95227,-3.20915 3.71814,-4.7596 1.76587,-1.55045 3.03322,-2.99645 2.81635,-3.21332 -0.71082,-0.71082 -9.81945,4.27489 -12.66318,6.93133 -3.33784,3.11801 -3.81436,8.00041 -1.02704,10.52291 5.28457,4.78246 24.76135,6.18588 53.92349,3.88552 10.12309,-0.79853 26.48109,-1.69732 36.35111,-1.9973 20.10284,-0.61099 25.93829,-1.27233 45.09378,-5.1105 7.33925,-1.47056 13.8729,-2.67533 14.51921,-2.67727 0.64632,-0.002 3.64853,5.02216 6.67158,11.16466 l 5.49644,11.16819 -6.88065,2.99114 c -3.78435,1.64512 -7.9732,3.26535 -9.30855,3.6005 -4.06635,1.02059 -22.3992,11.88375 -43.62815,25.85192 -18.00983,11.85008 -24.46753,15.30487 -53.22248,28.47349 -27.48028,12.58486 -46.85558,19.6545 -47.71658,17.41078 z"
       id="path1903"
       inkscape:connector-curvature="0"
       transform="scale(0.26458333)" />
  </g>
</svg>
