<?xml version="1.0" encoding="UTF-8" standalone="no"?>
<!-- Created with Inkscape (http://www.inkscape.org/) -->

<svg
   xmlns:dc="http://purl.org/dc/elements/1.1/"
   xmlns:cc="http://creativecommons.org/ns#"
   xmlns:rdf="http://www.w3.org/1999/02/22-rdf-syntax-ns#"
   xmlns:svg="http://www.w3.org/2000/svg"
   xmlns="http://www.w3.org/2000/svg"
   xmlns:sodipodi="http://sodipodi.sourceforge.net/DTD/sodipodi-0.dtd"
   xmlns:inkscape="http://www.inkscape.org/namespaces/inkscape"
   width="210mm"
   height="297mm"
   viewBox="0 0 210 297"
   version="1.1"
   id="svg8"
   inkscape:version="0.92.5 (2060ec1f9f, 2020-04-08)"
   sodipodi:docname="drawing.svg">
  <defs
     id="defs2">
    <inkscape:path-effect
       effect="bspline"
       id="path-effect817"
       is_visible="true"
       weight="33.333333"
       steps="2"
       helper_size="0"
       apply_no_weight="true"
       apply_with_weight="true"
       only_selected="false" />
    <inkscape:path-effect
       effect="bspline"
       id="path-effect817-3"
       is_visible="true"
       weight="33.333333"
       steps="2"
       helper_size="0"
       apply_no_weight="true"
       apply_with_weight="true"
       only_selected="false" />
    <inkscape:path-effect
       effect="bspline"
       id="path-effect817-7"
       is_visible="true"
       weight="33.333333"
       steps="2"
       helper_size="0"
       apply_no_weight="true"
       apply_with_weight="true"
       only_selected="false" />
  </defs>
  <sodipodi:namedview
     id="base"
     pagecolor="#ffffff"
     bordercolor="#666666"
     borderopacity="1.0"
     inkscape:pageopacity="0.0"
     inkscape:pageshadow="2"
     inkscape:zoom="1.4901515"
     inkscape:cx="174.1942"
     inkscape:cy="548.57143"
     inkscape:document-units="mm"
     inkscape:current-layer="layer1"
     showgrid="false"
     inkscape:window-width="1294"
     inkscape:window-height="704"
     inkscape:window-x="72"
     inkscape:window-y="27"
     inkscape:window-maximized="1" />
  <metadata
     id="metadata5">
    <rdf:RDF>
      <cc:Work
         rdf:about="">
        <dc:format>image/svg+xml</dc:format>
        <dc:type
           rdf:resource="http://purl.org/dc/dcmitype/StillImage" />
        <dc:title></dc:title>
      </cc:Work>
    </rdf:RDF>
  </metadata>
  <g
     inkscape:label="Layer 1"
     inkscape:groupmode="layer"
     id="layer1">
    <path
       style="fill:none;stroke:#000000;stroke-width:0.965;stroke-linecap:butt;stroke-linejoin:miter;stroke-opacity:1;stroke-miterlimit:4;stroke-dasharray:none"
       d="m 3.1959838,144.303 c 14.3228462,7.22061 28.6455862,14.44116 39.1213072,10.77156 10.475722,-3.66959 17.104474,-18.22917 24.620952,-27.10678 7.516477,-8.8776 15.920912,-12.07365 26.337051,-6.86558 10.416136,5.20806 22.845436,18.8211 36.576466,26.04167 13.73103,7.22057 28.76397,8.04916 37.87835,3.72858 9.11437,-4.32058 12.31041,-13.79032 15.50629,-23.25959"
       id="path815"
       inkscape:connector-curvature="0"
       inkscape:path-effect="#path-effect817"
       inkscape:original-d="m 3.1959838,144.303 c 14.3230062,7.22029 28.6457472,14.44084 42.9682242,21.66166 6.628924,-14.55964 13.257678,-29.11922 19.886121,-43.67844 8.404336,-3.19618 16.808772,-6.39223 25.212761,-9.58795 12.42862,13.61174 24.85792,27.22478 37.28648,40.83757 15.03324,0.82832 30.06618,1.65691 45.09888,2.48576 3.19619,-9.46968 6.39223,-18.93942 9.58795,-28.40874" />
    <path
       transform="translate(-17.255698,33.607647)"
       style="fill:none;stroke:#000000;stroke-width:0.965;stroke-linecap:butt;stroke-linejoin:miter;stroke-opacity:1;stroke-miterlimit:4;stroke-dasharray:none"
       d="m 3.1959838,144.303 c 14.3228462,7.22061 28.6455862,14.44116 39.1213072,10.77156 10.475722,-3.66959 17.104474,-18.22917 24.620952,-27.10678 7.516477,-8.8776 15.920912,-12.07365 26.337051,-6.86558 10.416136,5.20806 22.845436,18.8211 36.576466,26.04167 13.73103,7.22057 28.76397,8.04916 37.87835,3.72858 9.11437,-4.32058 12.31041,-13.79032 15.50629,-23.25959"
       id="path815-6"
       inkscape:connector-curvature="0"
       inkscape:original-d="m 3.1959838,144.303 c 14.3230062,7.22029 28.6457472,14.44084 42.9682242,21.66166 6.628924,-14.55964 13.257678,-29.11922 19.886121,-43.67844 8.404336,-3.19618 16.808772,-6.39223 25.212761,-9.58795 12.42862,13.61174 24.85792,27.22478 37.28648,40.83757 15.03324,0.82832 30.06618,1.65691 45.09888,2.48576 3.19619,-9.46968 6.39223,-18.93942 9.58795,-28.40874"
       inkscape:path-effect="#path-effect817-3" />
    <path
       transform="translate(14.349031,67.698141)"
       style="fill:none;stroke:#000000;stroke-width:0.965;stroke-linecap:butt;stroke-linejoin:miter;stroke-opacity:1;stroke-miterlimit:4;stroke-dasharray:none"
       d="m 3.1959838,144.303 c 14.3228462,7.22061 28.6455862,14.44116 39.1213072,10.77156 10.475722,-3.66959 17.104474,-18.22917 24.620952,-27.10678 7.516477,-8.8776 15.920912,-12.07365 26.337051,-6.86558 10.416136,5.20806 22.845436,18.8211 36.576466,26.04167 13.73103,7.22057 28.76397,8.04916 37.87835,3.72858 9.11437,-4.32058 12.31041,-13.79032 15.50629,-23.25959"
       id="path815-5"
       inkscape:connector-curvature="0"
       inkscape:original-d="m 3.1959838,144.303 c 14.3230062,7.22029 28.6457472,14.44084 42.9682242,21.66166 6.628924,-14.55964 13.257678,-29.11922 19.886121,-43.67844 8.404336,-3.19618 16.808772,-6.39223 25.212761,-9.58795 12.42862,13.61174 24.85792,27.22478 37.28648,40.83757 15.03324,0.82832 30.06618,1.65691 45.09888,2.48576 3.19619,-9.46968 6.39223,-18.93942 9.58795,-28.40874"
       inkscape:path-effect="#path-effect817-7" />
    <path
       style="fill:none;stroke:#c50505;stroke-width:1.365;stroke-linecap:butt;stroke-linejoin:miter;stroke-opacity:1;stroke-miterlimit:4;stroke-dasharray:none"
       d="m 91.618198,120.15557 0.710219,66.40544"
       id="path847"
       inkscape:connector-curvature="0" />
    <path
       style="fill:#ff0000;fill-rule:evenodd;stroke-width:0.26458332"
       id="path864"
       sodipodi:type="arc"
       sodipodi:cx="91.618195"
       sodipodi:cy="120.15557"
       sodipodi:rx="3.5510931"
       sodipodi:ry="4.4388661"
       sodipodi:start="1.4624934"
       sodipodi:end="1.460509"
       d="m 92.002037,124.56843 a 3.5510931,4.4388661 0 0 1 -3.913939,-3.93087 3.5510931,4.4388661 0 0 1 3.142752,-4.89437 3.5510931,4.4388661 0 0 1 3.917057,3.92601 3.5510931,4.4388661 0 0 1 -3.138865,4.89827 l -0.390847,-4.4119 z" />
    <path
       style="fill:#ff0000;fill-rule:evenodd;stroke-width:0.26458332"
       id="path866"
       sodipodi:type="arc"
       sodipodi:cx="92.150864"
       sodipodi:cy="165.07689"
       sodipodi:rx="3.7286475"
       sodipodi:ry="3.7286475"
       sodipodi:start="1.4624934"
       sodipodi:end="1.460509"
       d="m 92.553898,168.78369 a 3.7286475,3.7286475 0 0 1 -4.109635,-3.30193 3.7286475,3.7286475 0 0 1 3.299889,-4.11127 3.7286475,3.7286475 0 0 1 4.112909,3.29785 3.7286475,3.7286475 0 0 1 -3.295808,4.11454 l -0.410389,-3.70599 z" />
    <path
       style="fill:none;fill-rule:evenodd;stroke:#c50505;stroke-width:1.06500006;stroke-miterlimit:4;stroke-dasharray:none;stroke-opacity:1"
       id="path868"
       sodipodi:type="arc"
       sodipodi:cx="92.328415"
       sodipodi:cy="186.561"
       sodipodi:rx="7.1021862"
       sodipodi:ry="6.9246311"
       sodipodi:start="1.4624934"
       sodipodi:end="1.460509"
       d="m 93.0961,193.44506 a 7.1021862,6.9246311 0 0 1 -7.827878,-6.13215 7.1021862,6.9246311 0 0 1 6.285503,-7.63522 7.1021862,6.9246311 0 0 1 7.834114,6.12458 7.1021862,6.9246311 0 0 1 -6.27773,7.6413 L 92.328415,186.561 Z" />
    <path
       style="fill:none;stroke:#eb1414;stroke-width:1.165;stroke-linecap:butt;stroke-linejoin:miter;stroke-opacity:1;stroke-miterlimit:4;stroke-dasharray:none"
       d="m 92.328414,186.561 c 3e-6,1e-5 -8.16751,0.35511 -8.16751,0.35511 l 8.167513,-0.3551"
       id="path870"
       inkscape:connector-curvature="0" />
    <path
       style="fill:none;stroke:#000000;stroke-width:1.365;stroke-linecap:butt;stroke-linejoin:miter;stroke-opacity:1;stroke-miterlimit:4;stroke-dasharray:none"
       d="m 92.328417,186.56101 v 0"
       id="path872"
       inkscape:connector-curvature="0" />
    <path
       style="fill:none;stroke:#d70303;stroke-width:1.265;stroke-linecap:butt;stroke-linejoin:miter;stroke-opacity:1;stroke-miterlimit:4;stroke-dasharray:none"
       d="m 99.785714,185.85079 -7.4573,0.71021"
       id="path874"
       inkscape:connector-curvature="0" />
  </g>
</svg>
