<?xml version="1.0" encoding="UTF-8" standalone="no"?>
<!-- Created with Inkscape (http://www.inkscape.org/) -->

<svg
   xmlns:dc="http://purl.org/dc/elements/1.1/"
   xmlns:cc="http://creativecommons.org/ns#"
   xmlns:rdf="http://www.w3.org/1999/02/22-rdf-syntax-ns#"
   xmlns:svg="http://www.w3.org/2000/svg"
   xmlns="http://www.w3.org/2000/svg"
   xmlns:sodipodi="http://sodipodi.sourceforge.net/DTD/sodipodi-0.dtd"
   xmlns:inkscape="http://www.inkscape.org/namespaces/inkscape"
   width="349.99823mm"
   height="89.587219mm"
   viewBox="0 0 349.99823 89.587219"
   version="1.1"
   id="svg8"
   inkscape:version="0.92.5 (2060ec1f9f, 2020-04-08)"
   sodipodi:docname="tensor_contraction.svg">
  <defs
     id="defs2">
    <marker
       inkscape:stockid="Arrow1Lstart"
       orient="auto"
       refY="0"
       refX="0"
       id="Arrow1Lstart"
       style="overflow:visible"
       inkscape:isstock="true">
      <path
         id="path1071"
         d="M 0,0 5,-5 -12.5,0 5,5 Z"
         style="fill:#000000;fill-opacity:1;fill-rule:evenodd;stroke:#000000;stroke-width:1.00000003pt;stroke-opacity:1"
         transform="matrix(0.8,0,0,0.8,10,0)"
         inkscape:connector-curvature="0" />
    </marker>
    <marker
       inkscape:stockid="Arrow1Lstart"
       orient="auto"
       refY="0"
       refX="0"
       id="Arrow1Lstart-6"
       style="overflow:visible"
       inkscape:isstock="true">
      <path
         inkscape:connector-curvature="0"
         id="path1071-1"
         d="M 0,0 5,-5 -12.5,0 5,5 Z"
         style="fill:#000000;fill-opacity:1;fill-rule:evenodd;stroke:#000000;stroke-width:1.00000003pt;stroke-opacity:1"
         transform="matrix(0.8,0,0,0.8,10,0)" />
    </marker>
  </defs>
  <sodipodi:namedview
     id="base"
     pagecolor="#ffffff"
     bordercolor="#666666"
     borderopacity="1.0"
     inkscape:pageopacity="0.0"
     inkscape:pageshadow="2"
     inkscape:zoom="0.74507576"
     inkscape:cx="876.14152"
     inkscape:cy="140.07649"
     inkscape:document-units="mm"
     inkscape:current-layer="layer1"
     showgrid="false"
     inkscape:window-width="1294"
     inkscape:window-height="704"
     inkscape:window-x="72"
     inkscape:window-y="27"
     inkscape:window-maximized="1"
     inkscape:snap-global="false" />
  <metadata
     id="metadata5">
    <rdf:RDF>
      <cc:Work
         rdf:about="">
        <dc:format>image/svg+xml</dc:format>
        <dc:type
           rdf:resource="http://purl.org/dc/dcmitype/StillImage" />
        <dc:title></dc:title>
      </cc:Work>
    </rdf:RDF>
  </metadata>
  <g
     inkscape:label="Layer 1"
     inkscape:groupmode="layer"
     id="layer1"
     transform="translate(155.73172,-90.809212)">
    <path
       style="fill:none;stroke:#be5d01;stroke-width:1.16499996;stroke-linecap:butt;stroke-linejoin:miter;stroke-miterlimit:4;stroke-dasharray:none;stroke-opacity:1"
       d="M 46.874427,92.101931 V 179.81393 H 139.55795 V 91.391712 H 46.874427 Z"
       id="path12"
       inkscape:connector-curvature="0" />
    <path
       style="fill:none;stroke:#be5d01;stroke-width:1.56299996;stroke-linecap:butt;stroke-linejoin:miter;stroke-miterlimit:4;stroke-dasharray:none;stroke-opacity:0.82156863"
       d="m 140.62328,103.82054 c 13.90714,0.45145 31.07671,0.49509 52.55618,0"
       id="path14"
       inkscape:connector-curvature="0"
       sodipodi:nodetypes="cc" />
    <path
       style="fill:none;stroke:#be5d01;stroke-width:1.56299996;stroke-linecap:butt;stroke-linejoin:miter;stroke-miterlimit:4;stroke-dasharray:none;stroke-opacity:0.82156863"
       d="m 140.27091,114.65127 c 13.90714,0.45145 31.07671,0.49509 52.55618,0"
       id="path14-3"
       inkscape:connector-curvature="0"
       sodipodi:nodetypes="cc" />
    <path
       style="fill:none;stroke:#be5d01;stroke-width:1.56299996;stroke-linecap:butt;stroke-linejoin:miter;stroke-miterlimit:4;stroke-dasharray:none;stroke-dashoffset:0;stroke-opacity:0.82156863"
       d="m 140.27091,124.59433 c 13.90714,0.45145 31.07671,0.49509 52.55618,0"
       id="path14-6"
       inkscape:connector-curvature="0"
       sodipodi:nodetypes="cc" />
    <path
       style="fill:none;stroke:#be5d01;stroke-width:1.56299996;stroke-linecap:butt;stroke-linejoin:miter;stroke-miterlimit:4;stroke-dasharray:none;stroke-opacity:0.82156863"
       d="m 140.27091,157.97461 c 13.90714,0.45145 31.07671,0.49509 52.55618,0"
       id="path14-5"
       inkscape:connector-curvature="0"
       sodipodi:nodetypes="cc" />
    <path
       style="fill:none;stroke:#be5d01;stroke-width:1.56299996;stroke-linecap:butt;stroke-linejoin:miter;stroke-miterlimit:4;stroke-dasharray:none;stroke-dashoffset:0;stroke-opacity:0.82156863"
       d="m 139.20399,136.66862 c 14.56582,0.45001 32.54859,0.49351 55.04538,0"
       id="path14-35"
       inkscape:connector-curvature="0"
       sodipodi:nodetypes="cc" />
    <path
       style="fill:none;stroke:#be5d01;stroke-width:1.56299996;stroke-linecap:butt;stroke-linejoin:miter;stroke-miterlimit:4;stroke-dasharray:none;stroke-dashoffset:0;stroke-opacity:0.82156863"
       d="m 140.98113,147.67644 c 13.90714,0.45145 31.07671,0.49509 52.55618,0"
       id="path14-62"
       inkscape:connector-curvature="0"
       sodipodi:nodetypes="cc" />
    <path
       style="fill:none;stroke:#be5d01;stroke-width:1.56299996;stroke-linecap:butt;stroke-linejoin:miter;stroke-miterlimit:4;stroke-dasharray:none;stroke-opacity:0.82156863"
       d="m -133.97417,102.84394 c 47.903873,0.45145 107.045364,0.49509 181.032531,0"
       id="path14-9"
       inkscape:connector-curvature="0"
       sodipodi:nodetypes="cc" />
    <path
       style="fill:none;stroke:#be5d01;stroke-width:1.56299996;stroke-linecap:butt;stroke-linejoin:miter;stroke-miterlimit:4;stroke-dasharray:none;stroke-opacity:0.82156863"
       d="m -5.8501897,113.67467 c 13.9071403,0.45145 31.0767107,0.49509 52.5561817,0"
       id="path14-3-2"
       inkscape:connector-curvature="0"
       sodipodi:nodetypes="cc" />
    <path
       style="fill:none;stroke:#be5d01;stroke-width:1.56299996;stroke-linecap:butt;stroke-linejoin:miter;stroke-miterlimit:4;stroke-dasharray:none;stroke-opacity:0.82156863"
       d="m -133.69343,156.99801 c 47.736346,0.45145 106.671004,0.49509 180.399422,0"
       id="path14-5-9"
       inkscape:connector-curvature="0"
       sodipodi:nodetypes="cc" />
    <path
       style="fill:none;stroke:#be5d01;stroke-width:1.56299996;stroke-linecap:butt;stroke-linejoin:miter;stroke-miterlimit:4;stroke-dasharray:none;stroke-dashoffset:0;stroke-opacity:0.82156863"
       d="m -6.9155197,135.69145 c 13.9071403,0.45145 31.0767097,0.49509 52.5561797,0"
       id="path14-35-7"
       inkscape:connector-curvature="0"
       sodipodi:nodetypes="cc" />
    <path
       style="fill:none;stroke:#be5d01;stroke-width:1.56299996;stroke-linecap:butt;stroke-linejoin:miter;stroke-miterlimit:4;stroke-dasharray:none;stroke-dashoffset:0;stroke-opacity:0.82156863"
       d="m -133.754,146.69984 c 47.94031,0.45145 107.126775,0.49509 181.17021,0"
       id="path14-62-3"
       inkscape:connector-curvature="0"
       sodipodi:nodetypes="cc" />
    <text
       xml:space="preserve"
       style="font-style:normal;font-weight:normal;font-size:10.58333302px;line-height:1.25;font-family:sans-serif;letter-spacing:0px;word-spacing:0px;fill:#000000;fill-opacity:1;stroke:none;stroke-width:0.26458332"
       x="78.834259"
       y="129.03329"
       id="text966"><tspan
         sodipodi:role="line"
         id="tspan964"
         x="78.834259"
         y="138.39706"
         style="stroke-width:0.26458332"></tspan></text>
    <path
       style="opacity:1;fill:#000000;fill-opacity:1;fill-rule:nonzero;stroke:#0106be;stroke-width:1.16499996;stroke-linejoin:round;stroke-miterlimit:4;stroke-dasharray:none;stroke-dashoffset:0;stroke-opacity:0.82156863"
       id="path972"
       d="m 76.70607,119.80085 c 0.580271,-0.99181 1.334289,-1.85512 2.104581,-2.70115 0.515265,-0.59755 1.011203,-1.21153 1.496065,-1.83391 1.426308,-1.43439 1.345364,0.50328 1.399516,1.25865 -0.01871,1.98291 -0.287366,3.95465 -0.586097,5.91175 -0.405598,2.65227 -0.852688,5.29892 -1.327531,7.93977 -0.601022,2.83165 -1.100465,5.68072 -1.565391,8.53732 -0.445495,2.46568 -0.593053,4.9605 -0.326882,7.45128 0.266263,1.69511 0.74155,2.79665 2.206902,3.7202 1.594387,0.65849 2.917193,0.23385 4.408083,-0.44925 1.792272,-1.13711 3.289247,-2.64857 4.745784,-4.1761 2.053203,-2.17092 3.857032,-4.55795 5.655579,-6.93885 1.877817,-2.50435 3.572553,-5.13457 5.217861,-7.7949 1.41788,-2.44012 2.92313,-4.82789 4.36525,-7.25322 1.16718,-1.88418 2.1725,-3.85581 2.99532,-5.91254 0.44815,-1.07331 0.80079,-2.18128 0.99034,-3.32922 0.0125,-0.0992 0.0263,-0.1982 0.0374,-0.29754 0.008,-0.075 0.0146,-0.15012 0.0211,-0.22525 0.004,-0.0481 -0.0408,-0.12638 0.004,-0.1448 1.02516,-0.42297 1.05002,-0.64784 0.81568,-0.10149 -0.66282,1.55299 -1.1675,3.16837 -1.70955,4.76627 -0.98544,3.00868 -1.87859,6.04474 -2.58268,9.13173 -0.75478,3.265 -1.12467,6.59588 -1.47148,9.92299 -0.24029,2.85277 -0.31236,5.71197 0.0914,8.54996 0.3173,1.42983 0.84905,2.92494 2.08609,3.81713 0.20061,0.14469 0.42543,0.25245 0.63815,0.37867 1.36108,0.54938 2.75572,0.41465 4.14987,0.10524 0,0 -0.80253,0.60959 -0.80253,0.60959 v 0 c -1.41666,0.29809 -2.83262,0.4206 -4.20349,-0.16101 -0.21566,-0.13142 -0.4437,-0.2444 -0.64699,-0.39425 -1.24659,-0.91892 -1.78057,-2.43791 -2.10003,-3.89198 -0.39497,-2.85091 -0.31534,-5.72071 -0.075,-8.58507 0.34516,-3.33057 0.71304,-6.66526 1.46725,-9.93376 0.69803,-3.08435 1.58728,-6.11759 2.55274,-9.12845 0.53056,-1.58907 1.02226,-3.19486 1.6543,-4.74712 0.23117,-0.61226 0.011,-0.19945 1.10335,-0.78344 0.0368,-0.0197 -0.0249,0.0802 -0.0294,0.12171 -0.008,0.0766 -0.0147,0.15349 -0.0238,0.23003 -0.0121,0.10113 -0.0266,0.20196 -0.0399,0.30294 -0.19196,1.15992 -0.55384,2.27868 -1.00787,3.36237 -0.83228,2.06367 -1.83995,4.04541 -3.0134,5.93766 -1.44428,2.42833 -2.95868,4.81487 -4.37578,7.25978 -1.647762,2.66143 -3.340698,5.29547 -5.216475,7.80413 -1.797465,2.38008 -3.593457,4.77148 -5.642014,6.94509 -1.913954,2.01982 -3.909137,3.94336 -6.440858,5.18052 -1.519923,0.67713 -2.878376,1.07914 -4.481089,0.37729 -1.478765,-0.95959 -1.967426,-2.08238 -2.230131,-3.81167 -0.262805,-2.50205 -0.114062,-5.00881 0.335026,-7.48501 0.466323,-2.85631 0.960641,-5.70642 1.562814,-8.53782 0.473644,-2.63835 0.916284,-5.28305 1.319713,-7.93294 0.292275,-1.94445 0.550524,-3.90353 0.56003,-5.87304 -0.03105,-0.3907 -0.0404,-0.63701 -0.104687,-1.01303 -0.01987,-0.11619 -0.04336,-0.23208 -0.07561,-0.34546 -0.02267,-0.0797 -0.144063,-0.17054 -0.08874,-0.23225 0.230651,-0.25724 0.562991,-0.40075 0.84065,-0.60638 0.027,-0.02 -0.0587,0.0327 -0.08805,0.049 -0.496258,0.62464 -0.9998,1.24363 -1.516944,1.85112 -0.766987,0.8356 -1.525645,1.68385 -2.092097,2.67312 0,0 -0.96016,0.42556 -0.96016,0.42556 z"
       inkscape:connector-curvature="0" />
    <path
       style="fill:none;stroke:#a10b70;stroke-width:1.36498487;stroke-linecap:butt;stroke-linejoin:miter;stroke-miterlimit:4;stroke-dasharray:none;stroke-opacity:1"
       d="m -92.377266,113.37421 v 29.02551 h 46.959815 v -35.65991 h -46.959815 z"
       id="path2121"
       inkscape:connector-curvature="0" />
    <path
       style="opacity:1;fill:none;stroke:#a10b70;stroke-width:1.56299996;stroke-linecap:butt;stroke-linejoin:miter;stroke-miterlimit:4;stroke-dasharray:none;stroke-opacity:1"
       d="M -4.6223896,114.57752 H -45.575881"
       id="path2123"
       inkscape:connector-curvature="0" />
    <path
       style="opacity:1;fill:none;stroke:#a10b70;stroke-width:1.56299996;stroke-linecap:butt;stroke-linejoin:miter;stroke-miterlimit:4;stroke-dasharray:none;stroke-opacity:1"
       d="M -6.5604104,135.69145 H -44.317918"
       id="path2123-9"
       inkscape:connector-curvature="0" />
    <path
       style="opacity:1;fill:none;stroke:#a10b70;stroke-width:1.16499996;stroke-linecap:butt;stroke-linejoin:miter;stroke-miterlimit:4;stroke-dasharray:none;stroke-opacity:1"
       d="M -93.442594,136.71797 H -134.39608"
       id="path2123-3"
       inkscape:connector-curvature="0" />
    <path
       style="opacity:1;fill:none;stroke:#a10b70;stroke-width:1.56299996;stroke-linecap:butt;stroke-linejoin:miter;stroke-miterlimit:4;stroke-dasharray:none;stroke-opacity:1"
       d="M -93.763496,111.05597 H -134.71699"
       id="path2123-1"
       inkscape:connector-curvature="0" />
    <path
       style="opacity:1;fill:#000000;fill-opacity:1;fill-rule:nonzero;stroke:#a10b70;stroke-width:1.16499996;stroke-linejoin:round;stroke-miterlimit:4;stroke-dasharray:none;stroke-dashoffset:0;stroke-opacity:1"
       id="path2152"
       d="m -5.9261423,112.16817 c -0.1506908,0.39019 -0.4726596,0.74588 -0.5115878,1.17126 0.012885,0.24976 0.1857058,0.30892 0.406363,0.33447 0.2882582,0.0216 0.5780246,0.0153 0.8668729,0.0117 0.032239,-0.02 0.129921,-0.0782 0.096716,-0.0599 -2.7677163,1.52686 2.310548,-1.29904 -0.4697201,0.23787 0.1201314,-0.13468 0.149434,-0.2941 0.1628986,-0.46776 0.00884,-0.15903 0.00646,-0.31838 0.00333,-0.47754 -0.00132,-0.12205 -0.00132,-0.24414 -0.00265,-0.3662 0.015716,-0.0728 -0.1063149,-0.0267 -0.2129817,-0.0279 -0.2211705,-0.002 -0.4423489,6.6e-4 -0.6635194,7.6e-4 -0.3056149,0.19094 -0.8870553,0.40443 0.5599112,-0.30319 0.1260211,-0.0616 -0.1920293,0.1588 -0.3206697,0.32892 -0.1257458,0.2565 -0.2260626,0.52225 -0.3463528,0.78288 -0.1340564,0.30116 -0.1795965,0.57626 -0.043421,0.88014 0.093768,0.33192 0.3586559,0.41355 0.6634188,0.48083 0.3995526,0.0998 0.7386056,0.0127 1.1151447,-0.11699 0.1817661,-0.0485 0.1889098,-0.0517 0.3663738,-0.0945 0.4500774,-0.10877 0.1459071,-0.0266 -0.6541346,0.40866 -0.089852,0.0489 0.1707329,-0.11351 0.2489517,-0.17943 0.2205461,-0.22571 0.2841122,-0.54254 0.4299135,-0.81476 0.1180941,-0.20256 0.2557436,-0.40801 0.169045,-0.64007 -0.1036082,-0.22119 -0.3596323,-0.32937 -0.5516034,-0.4693 -0.4740619,-0.12497 -1.3764392,0.51805 0.1643777,-0.3524 -0.348951,0.19792 -0.697902,0.39584 -1.0468504,0.59376 -0.045154,0.0209 -0.1782868,0.088 -0.1354587,0.0627 0.2469594,-0.14598 0.4970277,-0.28672 0.7483951,-0.42497 0.2562834,-0.14096 -0.2739205,0.17935 -0.3828309,0.28501 -0.1489154,0.20846 -0.3431778,0.36589 -0.4749271,0.58728 -0.1068493,0.21819 0.019077,0.36523 0.2166673,0.44284 0.329565,0.10187 0.6009772,-0.005 0.9098492,-0.11628 0.047101,-0.0181 0.184904,-0.0798 0.1413007,-0.0543 -1.4559836,0.84827 -0.8743156,0.44443 -0.5510477,0.25553 0.5708147,-0.33356 1.9270292,-1.08446 0.2807414,-0.16912 0.227502,-0.14783 0.3509354,-0.3448 0.4111175,-0.6039 0.052149,-0.23472 -0.091625,-0.33326 -0.2936531,-0.38484 -0.2516055,-0.0639 -0.4447778,-0.0327 -0.6671124,0.0866 -0.430276,0.26087 0.326726,-0.20037 0.7083477,-0.37782 0.03528,-0.0164 -0.047186,0.062 -0.068001,0.0949 -0.062767,0.0991 -0.085709,0.20191 -0.1080373,0.31536 -0.00273,0.16325 -0.08659,0.38846 0.00185,0.53541 0.1707594,0.16542 0.3591374,0.0834 0.5484706,2.4e-4 0.4784857,-0.24731 -0.4501859,0.26515 -0.6861122,0.37646 -0.036761,0.0174 0.056354,-0.0593 0.078203,-0.0936 0.072043,-0.11303 0.098287,-0.24459 0.1266137,-0.37303 -0.040764,-0.2514 -0.2579687,-0.41371 -0.4809119,-0.5034 -0.2770505,-0.11062 -0.5027586,-0.0916 -0.7697232,0.0233 1.2890923,-0.81039 0.6136296,-0.3846 0.4757446,0.18228 -0.097028,0.71665 0.1530906,0.38906 -0.9755716,0.85781 0.00487,-0.151 0.00487,-0.30212 0.00328,-0.45318 -0.00106,-0.0188 -2.461e-4,-0.0422 -2.646e-4,-0.06 0,0 0.9467982,-0.48823 0.9467982,-0.48823 v 0 c 5.292e-4,0.0216 0.00185,0.0437 5.292e-4,0.0655 -0.00132,0.15263 -0.00288,0.30525 -0.00434,0.45788 -1.1115807,0.66579 -0.9736375,0.82655 -0.9245599,0.0793 0.1676267,-0.76028 0.4739507,-0.89118 1.309407,-1.29264 0.2828052,-0.0944 0.5447797,-0.076 0.8193008,0.044 0.2632128,0.1327 0.4842298,0.32821 0.55236,0.62637 -0.1310269,0.68156 -0.5449993,0.95315 -1.3022289,1.20283 -0.2368999,0.0778 -0.4636002,0.0848 -0.635,-0.12174 -0.1021609,-0.17973 -0.049755,-0.40088 -0.034668,-0.60164 0.099647,-0.65198 0.5828797,-0.87608 1.2452535,-1.15491 0.2344817,-0.0975 0.470662,-0.0957 0.7151132,-0.0245 0.2307696,0.0824 0.4143586,0.2514 0.3698981,0.51852 -0.040198,0.2778 -0.1466612,0.51205 -0.3807884,0.67934 -2.7111986,1.618 -0.3521128,0.20961 -0.2796407,0.16803 0.087167,-0.05 -0.1590411,0.12358 -0.2447899,0.17598 -1.0004557,0.61143 -0.6545844,0.4754 -1.1597825,0.65944 -0.3243527,0.10947 -0.6267609,0.1816 -0.9601861,0.0534 -0.2297351,-0.1164 -0.3871569,-0.32897 -0.3014954,-0.5966 0.1281483,-0.23823 0.3055382,-0.40169 0.468884,-0.60861 0.4135623,-0.54391 2.7363314,-1.58333 0.8041878,-0.5463 0.4419785,-0.25362 1.1117448,-0.86168 1.713058,-0.59417 0.2107856,0.15161 0.4771787,0.26967 0.5840201,0.51995 0.1087252,0.26374 0.027773,0.4875 -0.129495,0.72467 -0.1594485,0.27557 -0.2243588,0.5901 -0.4180787,0.84328 -0.4473284,0.49609 -1.1259635,0.75984 -1.7692211,0.91416 -0.3862123,0.12303 -0.7494059,0.17384 -1.1502417,0.07 -0.3255856,-0.0849 -0.6132539,-0.21176 -0.7175817,-0.56084 -0.1470104,-0.33091 -0.1341014,-0.62554 0.00479,-0.96129 0.1223989,-0.26748 0.2371514,-0.52316 0.3395213,-0.79736 0.3184578,-0.5531 0.9882664,-0.90016 1.5832508,-1.07151 0.222496,-0.002 0.44509,-0.004 0.6675464,0.002 0.1132469,0.007 0.3113802,0.005 0.3001248,0.165 -5.292e-4,0.12184 -2.646e-4,0.24368 0.00185,0.3655 0.00106,0.162 0.0036,0.32414 -0.00106,0.48605 -0.011271,0.19008 -0.023945,0.36896 -0.134366,0.53214 -3.0744874,1.94256 0.3599551,-0.16963 -0.3487525,0.24477 -0.3303456,0.19316 -0.6541003,0.39786 -0.9894491,0.5822 -0.035891,0.0197 -0.079827,0.0184 -0.1197425,0.0275 -0.292817,0.001 -0.5877454,0.0112 -0.8787421,-0.0266 -0.261821,-0.059 -0.4541969,-0.17673 -0.4825153,-0.46606 -5.292e-4,-0.44481 0.3380661,-0.80979 0.4941782,-1.21241 0,0 0.9600697,-0.43436 0.9600697,-0.43436 z"
       inkscape:connector-curvature="0" />
    <path
       style="opacity:1;fill:#000000;fill-opacity:1;fill-rule:nonzero;stroke:#a10b70;stroke-width:1.16499996;stroke-linejoin:round;stroke-miterlimit:4;stroke-dasharray:none;stroke-dashoffset:0;stroke-opacity:1"
       id="path2154"
       d="m -7.2803248,135.19937 c -0.4012194,-0.10643 -0.7904559,-0.27618 -1.1696171,-0.0395 0.2567835,-0.13184 0.4957525,-0.30657 0.7703529,-0.39553 0.066006,-0.0214 -0.074647,0.11736 -0.1047194,0.17988 -0.1313392,0.2731 -0.1561359,0.57801 -0.1835864,0.87481 -0.046313,0.36913 0.074676,0.67486 0.4126256,0.83758 0.3218365,0.1225 0.6366563,0.13977 0.9492853,-0.003 0.4370943,-0.25619 -0.3554465,0.20951 -0.6660621,0.36576 -0.04645,0.0234 0.083061,-0.0631 0.1196949,-0.10003 0.1268994,-0.12784 0.2368761,-0.28415 0.3451807,-0.42738 0.2267479,-0.29788 0.3069246,-0.65259 0.350393,-1.01606 0.0077,-0.26633 0.090485,-0.55532 -0.063249,-0.79036 -0.1085638,-0.26373 -0.3709114,-0.35196 -0.5814509,-0.5053 -0.2343283,-0.23753 -0.4482994,-0.23702 -0.7463182,-0.14009 -0.4458467,0.29299 0.1878833,-0.12782 0.6343968,-0.34499 0.050104,-0.0244 -0.082635,0.0751 -0.1191604,0.11721 -0.1228831,0.14154 -0.1686904,0.29243 -0.2173976,0.46967 -0.093541,0.44697 -0.1189064,0.88192 0.048787,1.30965 0.2865305,0.45587 0.6297956,0.83275 1.1351259,1.0318 0.4574408,0.13812 0.8807662,0.18358 1.2956487,-0.075 -1.3640911,0.85513 -0.4097549,0.19382 -0.1285954,-0.4309 0.1596152,-0.39468 0.031901,-0.77784 -0.1597078,-1.1334 -0.1773978,-0.32676 -0.421558,-0.56756 -0.7695194,-0.69766 -0.2815987,-0.0876 -0.5798132,-0.10175 -0.8729107,-0.10558 -0.3203946,0.16654 -0.9208479,0.42242 0.5215202,-0.30088 0.058925,-0.0296 -0.1095851,0.0736 -0.1610836,0.11471 -0.1384247,0.11061 -0.1713151,0.15481 -0.2895838,0.28163 -0.2576328,0.32228 -0.3024294,0.71521 -0.3336211,1.112 -0.057626,0.43147 0.1722332,0.70368 0.5317516,0.89456 0.339897,0.12442 0.7028895,0.1288 1.0601405,0.1335 0.3541791,-0.0963 1.0952559,-0.42278 -0.4137528,0.29861 -0.04689,0.0224 0.078978,-0.0678 0.115361,-0.1049 0.1399646,-0.14277 0.1346358,-0.15309 0.2498778,-0.32553 0.2509758,-0.36807 0.2662237,-0.71496 0.1797235,-1.13288 -0.1052724,-0.34009 -0.4212061,-0.4655 -0.654267,-0.70038 -0.2531586,-0.22764 -0.4448069,-0.16853 -0.7344886,-0.075 1.540674,-1.02358 0.3577325,-0.0723 0.061592,0.32268 -0.2152624,0.31936 -0.382233,0.67358 -0.2902056,1.06022 0.1425628,0.30541 0.3510253,0.50377 0.6740234,0.59273 0.3477551,0.0932 0.6585214,0.0604 0.9918012,-0.0511 -1.3636546,0.79306 -0.6827838,0.45906 -0.4743927,0.11222 0.1025208,-0.17063 0.148262,-0.35613 0.1909948,-0.54767 0.065024,-0.31213 -0.047471,-0.60334 -0.280834,-0.81102 -0.039029,-0.008 -0.179623,-0.16074 -0.2290974,-0.14008 -0.019791,0.008 -0.036798,0.0707 -0.017198,0.062 0.8284607,-0.36941 0.969264,-0.70169 0.7275407,-0.25605 -0.1171734,0.32662 -0.2562013,0.63328 -0.4586314,0.91648 -0.1061032,0.15594 -1.1755649,0.85253 -0.8701722,0.39402 0.028422,-0.15829 -0.055025,-0.29704 -0.1585648,-0.40978 -0.3927184,-0.26167 0.6896126,-0.66001 1.0324359,-0.45385 0.2132912,0.14004 0.1056111,0.07 0.3230668,0.2101 0,0 -0.8862324,0.56946 -0.8862324,0.56946 v 0 c -0.2183263,-0.14039 -0.1095005,-0.0708 -0.3264615,-0.20871 -0.431329,-0.30093 0.4931939,-1.02321 0.7669583,-0.66581 0.1246055,0.15024 0.2113995,0.32373 0.2126721,0.52321 -0.1955377,0.50419 -1.447284,1.00957 -1.0656967,0.46023 0.2157942,-0.27429 0.3709935,-0.56608 0.470408,-0.90096 0.2449539,-0.53111 0.9110716,-1.13838 1.3780188,-0.65575 0.2453164,0.23664 0.3914537,0.56216 0.3294618,0.90722 -0.1608455,0.88338 -0.6131666,1.13907 -1.4973485,1.53974 -0.3435085,0.1016 -0.6847073,0.10012 -1.0313564,-6e-5 -0.3450405,-0.12334 -0.5714603,-0.35212 -0.7301442,-0.68433 -0.1077753,-0.4139 0.022834,-0.79136 0.2547197,-1.14393 0.4405815,-0.65533 1.0034614,-1.04416 1.738159,-1.38784 0.3113273,-0.0945 0.5518891,-0.0573 0.8001344,0.16955 0.2477109,0.24651 0.5755455,0.38999 0.6812227,0.75486 0.095382,0.43771 0.1112705,0.81092 -0.1455632,1.20592 -0.3660589,0.63103 -1.038471,1.07575 -1.7683215,1.17466 -0.3698478,-0.0101 -0.7452095,-0.0237 -1.089152,-0.17634 -0.3738086,-0.22012 -0.6441863,-0.53753 -0.5890312,-0.99887 0.025797,-0.4127 0.064079,-0.82293 0.3034241,-1.1749 0.4543637,-0.52213 1.0814394,-0.95899 1.7573069,-1.12337 0.3011197,0.01 0.6070494,0.0356 0.8921565,0.13916 0.3569679,0.15766 0.6220963,0.4137 0.8066987,0.76009 0.2026259,0.37812 0.3507264,0.79264 0.2024168,1.21826 -0.3339623,0.79641 -0.8240553,1.12818 -1.6473804,1.53036 -0.4442884,0.21131 -0.890069,0.15077 -1.3492824,-0.002 -0.518041,-0.22854 -0.8797105,-0.62578 -1.1775255,-1.10327 -0.1841156,-0.44618 -0.1738207,-0.8937 -0.082259,-1.3658 0.1615572,-0.75842 0.731766,-1.05023 1.4899242,-1.34173 0.315222,-0.0717 0.5598504,-0.0111 0.7984834,0.21622 0.2303727,0.14998 0.4846558,0.27358 0.6051974,0.54009 0.1659731,0.26526 0.1147683,0.55395 0.092932,0.85527 -0.035372,0.3754 -0.1057513,0.75156 -0.3282818,1.06584 -0.4000367,0.58534 -0.8757443,0.97133 -1.5956438,1.23239 -0.334518,0.11 -0.6802808,0.0701 -1.0018633,-0.0718 -0.3487341,-0.20471 -0.5210757,-0.53588 -0.4703339,-0.94606 0.092506,-1.07709 0.1637691,-1.14918 1.2825809,-1.78675 0.4139803,-0.16009 0.8012456,-0.006 1.2140459,0.0993 0,0 -0.8681667,0.59883 -0.8681667,0.59883 z"
       inkscape:connector-curvature="0" />
    <path
       style="opacity:1;fill:#000000;fill-opacity:1;fill-rule:nonzero;stroke:#a10b70;stroke-width:1.56299996;stroke-linejoin:round;stroke-miterlimit:4;stroke-dasharray:none;stroke-dashoffset:0;stroke-opacity:1"
       id="path2169"
       d="m -76.445159,114.96552 c 0.338886,0.76844 0.69151,1.5277 0.999247,2.30963 0.403047,1.18309 0.746754,2.38436 1.096237,3.58383 0.354071,1.28809 0.70993,2.57584 1.068028,3.86295 0.297741,1.24683 0.707731,2.46229 1.026017,3.70343 0.272809,0.94876 0.560345,1.8929 0.938406,2.80543 0.248827,0.60975 0.486216,1.22712 0.803169,1.80549 0.167746,0.40434 0.400619,0.7743 0.573794,1.1756 0.202623,0.34217 0.347003,0.71167 0.547293,1.05488 0.150175,0.25707 0.268401,0.54524 0.543488,0.69124 0.493216,0.24004 1.356929,-0.40683 0.06191,0.29712 0.778399,-0.59291 1.347621,-1.41443 1.911615,-2.20295 0.757245,-1.15128 1.461727,-2.3371 2.137952,-3.53758 0.7469,-1.38072 1.577406,-2.71558 2.298766,-4.11007 0.730647,-1.33912 1.510493,-2.65203 2.289037,-3.96398 0.734844,-1.21312 1.411582,-2.46349 2.20439,-3.64006 0.797163,-1.2205 1.73129,-2.33934 2.615795,-3.49545 0.758902,-1.02182 1.56329,-2.00643 2.364232,-2.9951 0.534283,-0.61555 0.988181,-1.2939 1.464445,-1.95391 0.138107,-0.21403 0.251401,-0.44566 0.316023,-0.69265 0.0047,-0.0883 0.01995,-0.0135 0.02804,-0.019 0,0 0.908142,-0.55668 0.908142,-0.55668 v 0 c 0.02196,0.0408 0.03276,0.0672 0.02119,0.11535 -0.05517,0.2622 -0.177665,0.50544 -0.309959,0.73626 -0.486455,0.66072 -0.941623,1.34634 -1.480294,1.9666 -0.804198,0.98871 -1.611487,1.97303 -2.373008,2.99551 -0.881131,1.15753 -1.82219,2.26967 -2.617811,3.49022 -0.801902,1.16929 -1.470459,2.42454 -2.207895,3.63492 -0.782791,1.30915 -1.557266,2.62518 -2.295255,3.95984 -0.715246,1.3974 -1.550088,2.72964 -2.293636,4.11184 -0.673058,1.20238 -1.378715,2.3869 -2.126488,3.54435 -0.557996,0.79253 -1.124683,1.61166 -1.879372,2.2304 -0.585306,0.34901 -1.215197,1.01241 -1.925484,0.65934 -0.27209,-0.17988 -0.418248,-0.45714 -0.567963,-0.73859 -0.201234,-0.34792 -0.34889,-0.72002 -0.554228,-1.06598 -0.16782,-0.40028 -0.402767,-0.76581 -0.564679,-1.1693 -0.313978,-0.58454 -0.554956,-1.20446 -0.80047,-1.82004 -0.372401,-0.92041 -0.668944,-1.86694 -0.937035,-2.82274 -0.311817,-1.2425 -0.72267,-2.45757 -1.019051,-3.70442 -0.360535,-1.28588 -0.715119,-2.57348 -1.068567,-3.86121 -0.351428,-1.19504 -0.691854,-2.39349 -1.099021,-3.57132 -0.311264,-0.77648 -0.659392,-1.53383 -1.01273,-2.29178 0,0 0.91572,-0.5214 0.91572,-0.5214 z"
       inkscape:connector-curvature="0" />
    <path
       style="fill:none;stroke:#be5d01;stroke-width:1.56299996;stroke-linecap:butt;stroke-linejoin:miter;stroke-miterlimit:4;stroke-dasharray:none;stroke-opacity:0.82156863"
       d="m -45.419122,124.82974 c 24.359849,0.43102 54.4341905,0.47269 92.057788,0"
       id="path14-3-2-9"
       inkscape:connector-curvature="0"
       sodipodi:nodetypes="cc" />
    <path
       style="fill:none;stroke:#be5d01;stroke-width:1.40081429;stroke-linecap:butt;stroke-linejoin:miter;stroke-miterlimit:4;stroke-dasharray:none;stroke-opacity:0.82156863"
       d="m -135.56868,124.81877 c 10.98916,0.45891 24.55624,0.50326 41.528911,0"
       id="path14-3-2-4"
       inkscape:connector-curvature="0"
       sodipodi:nodetypes="cc" />
    <path
       style="opacity:1;fill:#000000;fill-opacity:1;fill-rule:nonzero;stroke:#a10b70;stroke-width:0.56300002;stroke-linejoin:round;stroke-miterlimit:4;stroke-dasharray:none;stroke-dashoffset:0;stroke-opacity:1"
       id="path2192"
       d="m -106.22835,128.8979 c 0.29638,-0.14863 1.95297,-0.94011 0.44467,-0.19981 -0.0924,0.0453 0.17266,-0.11208 0.25899,-0.16812 0.33263,-0.21249 0.63901,-0.46256 0.93441,-0.72349 0.0396,-0.0401 0.0923,-0.0837 0.13396,-0.11561 0.043,0.30603 -0.94053,0.48969 0.81014,-0.35753 0.0306,-0.0148 -0.0493,0.0487 -0.0644,0.0792 -0.0577,0.11643 -0.0827,0.24638 -0.12516,0.3692 -0.202,0.51806 -0.37482,1.04853 -0.59303,1.55982 -0.24351,0.48295 -0.45964,0.99104 -0.74449,1.45152 -0.18373,0.21887 -0.34681,0.44922 -0.42131,0.727 -0.0815,0.19011 -0.24048,0.31462 -0.32646,0.50313 -0.0398,0.1482 -0.11786,0.26467 -0.21611,0.38087 -0.17891,0.23144 -0.42316,0.39034 -0.63285,0.58883 -0.4743,0.35034 -0.97189,0.74519 -1.56414,0.82885 -0.10518,0.013 -0.21106,0.0209 -0.31693,0.0159 -0.0923,-0.003 -0.18541,-0.003 -0.278,-0.003 -0.0453,1.1e-4 -0.0906,2.2e-4 -0.13587,-2.6e-4 -9.8e-4,-10e-6 -0.11979,-5.3e-4 -0.1206,-2.5e-4 -0.0667,0.0279 -0.24213,0.15755 -0.17919,0.12204 0.76303,-0.43041 1.07884,-0.64309 0.73454,-0.41393 -0.40926,0.33173 -0.84427,0.59067 -1.35324,0.6483 -0.0382,0.009 -0.0752,0.003 -0.11108,-0.003 0.79897,-0.67107 0.87722,-0.62232 1.6812,-0.61954 0.68927,0.053 1.35998,-0.0653 2.03878,-0.16312 0.77076,-0.0489 1.51484,-0.24807 2.26842,-0.40042 0.4553,-0.15237 0.90817,-0.31016 1.36824,-0.44838 0.16737,-0.052 0.34678,-0.0581 0.52129,-0.0611 0.4273,0.004 0.0475,-0.006 -0.95281,0.62558 0,0 0.85472,-0.62226 0.85472,-0.62226 v 0 c -0.24146,0.20756 -0.48292,0.41512 -0.72439,0.62268 -0.0117,2.6e-4 -0.0233,5.3e-4 -0.035,0.001 -0.16933,0.008 -0.33899,0.0243 -0.50032,0.0799 -0.45785,0.13687 -0.90603,0.30241 -1.3652,0.43418 -0.75219,0.15525 -1.49909,0.33442 -2.26748,0.39226 -0.68386,0.10036 -1.36188,0.20276 -2.05594,0.15696 -0.68307,0.002 -1.2865,0.22866 0.0373,-0.61393 0.0261,-0.005 0.063,-0.017 0.093,-0.0165 0.0947,-0.0153 0.36086,-0.11944 0.27949,-0.0686 -1.06009,0.66187 -1.06237,0.66682 -0.76318,0.44391 0.41732,-0.29732 0.88095,-0.69572 1.41105,-0.71997 0.0455,-5.3e-4 0.091,-2e-4 0.13647,7.9e-4 0.0934,10e-4 0.18693,0.002 0.2802,0.004 0.1005,-0.004 0.20094,-0.0116 0.30006,-0.0297 0.11355,-0.0245 0.44665,-0.19511 0.28699,-0.1007 -1.4879,0.87979 -0.86705,0.51082 -0.54464,0.31288 0.20266,-0.20892 0.44716,-0.35182 0.63289,-0.58039 0.10131,-0.11246 0.20226,-0.19571 0.22928,-0.34989 0.0784,-0.20009 0.18156,-0.33999 0.33568,-0.48856 0.0639,-0.29125 0.1993,-0.54809 0.41092,-0.76296 0.31398,-0.43458 0.49733,-0.96918 0.75674,-1.43731 0.23189,-0.50166 0.38394,-1.03843 0.59243,-1.55046 0.17745,-0.49184 0.48679,-1.62617 1.30952,-0.95895 -0.031,0.0535 -0.0838,0.0962 -0.13091,0.13894 -0.29769,0.26616 -0.60514,0.52438 -0.9402,0.74252 -0.79813,0.52524 -1.62612,1.03513 -2.51631,1.38897 0,0 0.8378,-0.64062 0.8378,-0.64062 z"
       inkscape:connector-curvature="0" />
    <path
       style="opacity:1;fill:#000000;fill-opacity:1;fill-rule:nonzero;stroke:#a10b70;stroke-width:0.56300002;stroke-linejoin:round;stroke-miterlimit:4;stroke-dasharray:none;stroke-dashoffset:0;stroke-opacity:1"
       id="path2196"
       d="m -22.90513,107.14573 c -0.42715,-0.12226 -0.864,-0.20149 -1.30264,-0.26863 -0.19753,-0.0212 -0.39615,-0.0345 -0.59487,-0.0343 -0.53611,0.004 0.77076,-0.50222 1.04283,-0.67954 0.27867,-0.18575 0.61372,-0.22149 0.93787,-0.25963 0.34789,-0.0447 0.66957,-0.0666 0.99239,0.0807 0.32964,0.0918 0.5115,0.26969 0.63121,0.58417 0.13014,0.44489 0.0421,0.85902 -0.11422,1.28218 -0.31682,0.57312 -0.73434,1.07912 -1.16219,1.5714 -0.32042,0.40115 -0.74959,0.68846 -1.12792,1.02731 -0.1939,0.17443 -0.40392,0.33001 -0.62138,0.47364 -0.0353,0.0229 -0.048,0.0456 -0.0563,-0.0361 -0.007,-0.0644 0.43852,-0.0351 0.46109,-0.0352 0.69986,-0.0259 1.39125,-0.20037 2.06802,-0.37472 0.59961,-0.157 1.20767,-0.26881 1.82442,-0.32682 0.24713,-0.0252 0.49552,-0.0266 0.74364,-0.0259 0.0712,7.9e-4 0.0385,2.2e-4 0.0982,0.001 0,0 -0.86103,0.62321 -0.86103,0.62321 v 0 c -0.058,-0.001 -0.0262,-5.3e-4 -0.0954,-0.001 -0.24381,-0.001 -0.48762,0.006 -0.73045,0.0292 -0.6103,0.0604 -1.21163,0.17804 -1.80517,0.33254 -0.68479,0.17421 -1.38466,0.34366 -2.09342,0.36195 -0.17109,0.002 -0.58727,0.0742 -0.54338,-0.1637 0.22424,-0.13516 0.43545,-0.2913 0.63761,-0.45742 0.3567,-0.36229 0.82247,-0.61404 1.13918,-1.02184 0.42726,-0.48452 0.83471,-0.98483 1.17363,-1.53641 0.16105,-0.39766 0.25771,-0.78495 0.14098,-1.21035 -0.10564,-0.29426 -0.28681,-0.42221 -0.58595,-0.51106 -0.30991,-0.12147 -0.63337,-0.0717 -0.95794,-0.0368 -0.32613,0.0444 -0.638,0.11576 -0.92498,0.28472 -0.60356,0.13554 0.25145,-0.60543 0.64966,-0.59839 0.19996,0.008 0.39983,0.0227 0.59812,0.0503 0.43915,0.0751 0.87607,0.16115 1.3066,0.27673 0,0 -0.86816,0.59883 -0.86816,0.59883 z"
       inkscape:connector-curvature="0" />
    <path
       style="opacity:1;fill:#000000;fill-opacity:1;fill-rule:nonzero;stroke:#a10b70;stroke-width:0.56300002;stroke-linejoin:round;stroke-miterlimit:4;stroke-dasharray:none;stroke-dashoffset:0;stroke-opacity:1"
       id="path2202"
       d="m -20.526289,126.45815 c 0.492456,-0.67797 1.05559,-1.31983 1.933363,-1.52124 0.356471,-0.0335 0.52465,0.19741 0.692664,0.47834 0.21904,0.51941 0.136337,1.13725 0.01558,1.67497 -0.138422,0.55114 -0.269393,1.09442 -0.545007,1.59472 -0.240138,0.36659 -0.560983,0.67717 -0.855329,1.00196 -0.22642,0.20936 -0.43943,0.44068 -0.6755,0.63995 -0.403415,0.21115 -0.825066,0.5857 -1.308078,0.67702 -0.09285,-0.006 -0.06405,-0.0609 -0.0602,-0.16285 0.335227,-0.3043 2.436297,-1.44612 0.587476,-0.38758 0.60498,-0.43147 1.261824,-0.65183 1.919171,-0.95052 0.416877,-0.15874 0.835898,0.0378 1.161674,0.30172 0.397465,0.26021 0.592794,0.6779 0.814612,1.07869 0.217602,0.45586 0.319786,0.9501 0.282795,1.45233 -0.06865,0.54955 -0.254188,1.05337 -0.597419,1.48768 -0.378333,0.49588 -0.842936,0.91254 -1.355542,1.26469 -0.772147,0.53563 -1.427914,0.82344 -2.321219,0.8731 -0.411781,0.071 -0.761571,-0.0872 -1.137869,-0.22148 -0.14877,-0.0596 -0.310166,-0.0658 -0.395179,-0.20584 0,0 0.918239,-0.5325 0.918239,-0.5325 v 0 c 0.100102,0.0664 0.233346,0.10353 0.351803,0.14782 0.366874,0.13341 0.709216,0.25793 1.109102,0.18853 0.22308,-0.0178 0.440994,-0.0386 0.658606,-0.094 0.341421,-0.087 1.149175,-0.49669 -0.158851,0.22556 0.521359,-0.33102 0.988523,-0.74619 1.365806,-1.23638 0.363246,-0.40447 0.542668,-0.89467 0.623723,-1.42959 0.05354,-0.48028 -0.05144,-0.95824 -0.25546,-1.39604 -0.214358,-0.3902 -0.405863,-0.79148 -0.793443,-1.04204 -0.324856,-0.245 -0.706168,-0.38776 -1.096775,-0.20683 -0.389411,0.17809 -1.743242,0.7655 -0.109098,-0.0854 -0.346266,0.20147 -0.691306,0.40507 -1.038799,0.60442 -0.796584,0.45697 0.998138,-0.7349 0.447219,-0.24233 -0.122473,-0.0521 -0.107793,-0.0306 -0.07367,-0.0748 0.370086,-0.11867 0.952291,-0.50028 -0.522132,0.3548 0.262867,-0.15392 0.439751,-0.44434 0.688274,-0.62058 0.294447,-0.32266 0.605777,-0.63647 0.867596,-0.98243 0.291396,-0.48696 0.422939,-1.02128 0.558982,-1.56839 0.131112,-0.50447 0.214797,-1.1066 0.01778,-1.59966 -0.155384,-0.25221 -0.298386,-0.43788 -0.617918,-0.36022 -0.255911,0.10214 -1.012648,0.41137 0.617672,-0.39205 0.0767,-0.0378 -0.129471,0.11185 -0.191318,0.1709 -0.214442,0.20475 -0.385296,0.43822 -0.556879,0.67912 0,0 -0.96647,0.41649 -0.96647,0.41649 z"
       inkscape:connector-curvature="0" />
    <path
       style="opacity:1;fill:#000000;fill-opacity:1;fill-rule:nonzero;stroke:#bd5c00;stroke-width:0.56300002;stroke-linejoin:round;stroke-miterlimit:4;stroke-dasharray:none;stroke-dashoffset:0;stroke-opacity:0.82352941"
       id="path2208"
       d="m 36.642498,106.608 c 0.559149,-0.42529 1.056952,-0.92009 1.572937,-1.39465 0.309774,-0.25575 0.609989,-0.53948 0.750364,-0.92297 0.06697,-0.16083 -0.02516,-0.23914 -0.16791,-0.28789 0.280987,-0.13985 0.554331,-0.29624 0.84296,-0.41955 0.04225,-0.018 -0.07029,0.0612 -0.09489,0.1 -0.03691,0.0582 -0.06012,0.12411 -0.08734,0.18743 -0.133554,0.31069 -0.229741,0.62068 -0.315865,0.94743 -0.25921,0.79247 -0.43638,1.60281 -0.536096,2.42966 -0.122812,0.63698 -0.231413,1.27611 -0.460105,1.88438 -0.24756,0.67932 -0.943708,1.10255 -1.649151,1.23687 -0.33877,0.0647 -0.659815,0.20774 -0.993142,0.30517 -0.24927,0.0937 -0.560253,-0.003 -0.783712,0.1369 1.867614,-1.09035 0.121224,0.008 -0.517523,0.27497 -0.03531,0.0193 -0.07545,0.028 -0.112773,0.0354 0.807299,-0.69306 0.881031,-0.6377 1.710664,-0.63388 0.744844,0.0214 1.477698,0.0126 2.213411,-0.10614 0.572336,-0.10184 1.146784,-0.18511 1.726303,-0.2309 0.05676,-0.004 0.113509,-0.008 0.170265,-0.0115 0,0 -0.849392,0.62579 -0.849392,0.62579 v 0 c -0.05577,0.004 -0.11153,0.007 -0.167293,0.011 -0.575054,0.0468 -1.144826,0.1342 -1.713423,0.23106 -0.740125,0.11142 -1.479868,0.1066 -2.227382,0.0965 -0.706139,0.004 -1.326684,0.23964 -0.01728,-0.62926 0.03021,-0.0164 0.06567,-0.0345 0.09966,-0.0466 1.468406,-0.6535 -2.718324,1.46267 0.515257,-0.27221 0.25775,-0.0665 0.533739,-0.0397 0.789562,-0.12633 0.332375,-0.0993 0.652426,-0.24194 0.995283,-0.30037 0.452088,-0.13578 0.160309,-0.0622 -0.607383,0.40974 -0.04717,0.029 0.102862,-0.0438 0.147238,-0.0769 0.158623,-0.11842 0.256617,-0.30585 0.319091,-0.4873 0.233082,-0.60233 0.355676,-1.23019 0.478221,-1.86448 0.09663,-0.83066 0.267636,-1.64641 0.530248,-2.44169 0.04646,-0.19402 0.279739,-1.18292 0.455168,-1.29108 0.331478,-0.20438 0.682554,-0.37511 1.023832,-0.56267 0.164933,0.0855 0.308787,0.22772 0.240117,0.42738 -0.124573,0.40664 -0.405802,0.71803 -0.739928,0.97711 -0.520465,0.46386 -0.997188,0.97786 -1.565902,1.38613 0,0 -0.974093,0.40349 -0.974093,0.40349 z"
       inkscape:connector-curvature="0" />
    <path
       style="opacity:1;fill:#000000;fill-opacity:1;fill-rule:nonzero;stroke:#bd5c00;stroke-width:0.56300002;stroke-linejoin:round;stroke-miterlimit:4;stroke-dasharray:none;stroke-dashoffset:0;stroke-opacity:0.82352941"
       id="path2210"
       d="m 35.896814,117.23425 c 0.343384,-0.51346 0.781095,-0.97664 1.288409,-1.33093 0.437563,-0.19873 1.302335,-1.06523 1.891596,-0.63802 0.396119,0.32193 0.434949,0.8482 0.484045,1.32169 2.65e-4,0.8007 -0.33668,1.53058 -0.658651,2.24646 -0.414216,0.66531 -0.867426,1.32666 -1.402784,1.90226 -0.272523,0.34106 -0.625223,0.59435 -0.973852,0.84937 -0.143401,0.10979 -0.282839,0.22466 -0.419496,0.3427 -0.05927,0.0507 -0.03852,0.0347 -0.0571,-0.0776 0.277995,-10e-4 0.556003,-4.7e-4 0.834004,0 0.618773,-0.0244 1.229598,-0.17536 1.844183,-0.26253 0.534328,-0.0691 1.073065,-0.0838 1.611053,-0.0932 0.212423,-0.004 0.424876,-0.004 0.637325,-0.004 0,0 -0.855276,0.62118 -0.855276,0.62118 v 0 c -0.210396,-6.4e-4 -0.420801,-2.9e-4 -0.63119,0.002 -0.534421,0.009 -1.069538,0.029 -1.59979,0.10105 -0.618169,0.088 -1.231566,0.24508 -1.856782,0.25364 -0.281112,10e-4 -0.562226,0.003 -0.843322,0.007 -0.101005,-0.10117 -0.138322,-0.0816 -0.06794,-0.14667 0.137399,-0.122 0.280189,-0.23779 0.423633,-0.35255 0.340601,-0.26638 0.724947,-0.48457 0.989242,-0.83793 0.553382,-0.55395 0.985145,-1.22926 1.424395,-1.87303 0.320781,-0.6978 0.651693,-1.41223 0.674399,-2.19287 -0.04403,-0.43961 -0.06625,-0.94424 -0.444129,-1.23646 -0.426715,-0.2408 -1.464069,0.54746 -0.02683,-0.31372 -0.519123,0.32477 -0.944139,0.78842 -1.305073,1.27832 0,0 -0.960067,0.43437 -0.960067,0.43437 z"
       inkscape:connector-curvature="0" />
    <path
       style="opacity:1;fill:#000000;fill-opacity:1;fill-rule:nonzero;stroke:#bd5c00;stroke-width:0.56300002;stroke-linejoin:round;stroke-miterlimit:4;stroke-dasharray:none;stroke-dashoffset:0;stroke-opacity:0.82352941"
       id="path2212"
       d="m 36.646307,127.87858 c 0.497547,-0.6544 1.268582,-1.40069 2.148462,-1.29046 0.383286,0.21678 0.409033,0.67728 0.444331,1.0721 0.05318,0.47298 0.0087,0.91119 -0.18083,1.34776 -0.158938,0.34902 -0.477374,0.57228 -0.710237,0.86823 -0.267872,0.38638 -0.903351,1.00881 -1.298196,0.6941 -0.07574,-0.18159 0.03993,-0.26229 0.19127,-0.34796 1.129143,-0.63913 0.708257,-0.48409 1.341212,-0.69146 0.505352,-0.16644 1.040636,-0.19323 1.568119,-0.21586 0.402424,-0.0295 0.823939,0.11235 0.988209,0.50117 0.08134,0.46866 -0.293616,0.80205 -0.616249,1.07682 -0.881105,0.75385 -1.97557,1.17374 -3.001862,1.67915 -0.246055,0.14726 -0.509186,0.26099 -0.771165,0.37583 0,0 0.823557,-0.65257 0.823557,-0.65257 v 0 c 0.258035,-0.11585 0.514411,-0.2354 0.761961,-0.37274 0.480031,-0.22641 0.232071,-0.11557 0.74454,-0.33105 0.132157,-0.0613 0.503081,-0.28949 0.38966,-0.19804 -0.154673,0.12471 -0.343768,0.19932 -0.515395,0.29942 -0.20823,0.12145 0.791538,-0.43577 0.597183,-0.40788 0.295447,-0.24064 0.690253,-0.52865 0.66571,-0.95471 -0.127519,-0.35979 -0.577673,-0.41563 -0.912217,-0.39457 -0.523285,0.0271 -1.052248,0.062 -1.549916,0.24049 -0.963819,0.3644 1.25562,-0.72181 0.184401,-0.1857 0.572765,-0.13053 -1.220928,0.90902 -0.56238,0.30286 0.227907,-0.3032 0.535816,-0.52313 0.726197,-0.84973 0.206145,-0.41713 0.253547,-0.8362 0.202959,-1.29813 -0.02532,-0.32902 -0.0204,-0.78946 -0.368932,-0.94451 -0.411851,-0.0125 -0.886518,0.28529 0.29501,-0.36867 0.08038,-0.0445 -0.153836,0.10163 -0.222485,0.16268 -0.189278,0.16835 -0.249299,0.26902 -0.396447,0.46695 0,0 -0.96647,0.41648 -0.96647,0.41648 z"
       inkscape:connector-curvature="0" />
    <path
       style="opacity:1;fill:#000000;fill-opacity:1;fill-rule:nonzero;stroke:#bd5c00;stroke-width:0.56300002;stroke-linejoin:round;stroke-miterlimit:4;stroke-dasharray:none;stroke-dashoffset:0;stroke-opacity:0.82352941"
       id="path2214"
       d="m 38.855647,137.01518 c -0.182938,0.67295 -0.190047,1.37484 -0.320603,2.05601 -0.120396,0.51937 -0.241557,1.03929 -0.312499,1.56807 -0.01818,0.14782 -0.03222,0.29616 -0.03869,0.44496 0.04642,-0.11001 0.434141,-0.0528 0.548732,-0.0532 0.377164,-0.004 0.740339,-0.14648 1.107372,-0.22783 0,0 -0.835888,0.63659 -0.835888,0.63659 v 0 c -0.369887,0.0877 -0.739142,0.22045 -1.123257,0.21116 -0.207584,0.003 -0.483721,0.0665 -0.646266,-0.0862 0.0058,-0.15388 0.02416,-0.30696 0.04276,-0.45975 0.07189,-0.53239 0.19304,-1.05591 0.317482,-1.57825 0.145314,-0.67798 0.143586,-1.38004 0.30971,-2.05599 0,0 0.951153,-0.45564 0.951153,-0.45564 z"
       inkscape:connector-curvature="0" />
    <path
       style="opacity:1;fill:#000000;fill-opacity:1;fill-rule:nonzero;stroke:#bd5c00;stroke-width:0.56300002;stroke-linejoin:round;stroke-miterlimit:4;stroke-dasharray:none;stroke-dashoffset:0;stroke-opacity:0.82352941"
       id="path2216"
       d="m 42.406742,137.37029 c -0.311063,0.8991 -0.472919,1.839 -0.675407,2.76636 -0.188629,0.83671 -0.285287,1.68862 -0.336751,2.54352 -0.01709,0.34135 -0.0227,0.6832 -0.01905,1.02494 1.06e-4,0.0411 2.09e-4,0.0822 2.64e-4,0.12323 0,0 -0.942221,0.48087 -0.942221,0.48087 v 0 c -5.29e-4,-0.041 -7.93e-4,-0.0819 -0.0013,-0.1229 2.6e-5,-0.34598 0.0053,-0.69185 0.02798,-1.03725 0.05319,-0.86154 0.153212,-1.72027 0.341593,-2.56373 0.201512,-0.9235 0.358111,-1.85989 0.653682,-2.7594 0,0 0.951156,-0.45564 0.951156,-0.45564 z"
       inkscape:connector-curvature="0" />
    <path
       style="opacity:1;fill:#000000;fill-opacity:1;fill-rule:nonzero;stroke:#bd5c00;stroke-width:0.56300002;stroke-linejoin:round;stroke-miterlimit:4;stroke-dasharray:none;stroke-dashoffset:0;stroke-opacity:0.82352941"
       id="path2218"
       d="m 39.21076,149.08889 c -0.129297,0.67791 -0.246907,1.35214 -0.436007,2.01705 -0.06459,0.22016 -0.135023,0.43858 -0.214689,0.65374 -0.01249,-0.008 -7.93e-4,0.0516 -0.0019,0.0458 -0.03024,-0.16807 -0.0067,-0.0912 0.124275,-0.17898 0.281644,-0.16421 0.609669,-0.26859 0.933085,-0.21653 0.413486,0.0756 0.745546,0.28865 1.046073,0.57377 0.269623,0.36461 0.356819,0.82081 0.31538,1.2651 -0.16116,0.55487 -0.520123,0.98937 -0.955363,1.35457 -0.705281,0.4266 -1.431287,0.84032 -2.211821,1.11544 -0.206674,0.0645 -0.358264,0.18174 -0.509138,-0.0122 0,0 0.909871,-0.54662 0.909871,-0.54662 v 0 c 0.09328,0.0944 0.323638,-0.0842 0.429104,-0.0894 0.380349,-0.14152 1.913718,-0.90622 0.408664,-0.0771 0.443823,-0.33388 0.791242,-0.75406 0.985679,-1.27896 0.06466,-0.4068 -0.02275,-0.84218 -0.268843,-1.17795 -0.287462,-0.26902 -0.612333,-0.46097 -1.008396,-0.51534 -0.323667,-0.008 -0.621249,0.11042 -0.904115,0.2622 -0.141725,0.0372 -0.257154,0.026 -0.259189,-0.0803 0.09552,-0.20948 0.164036,-0.43009 0.235061,-0.6488 0.19894,-0.6605 0.325594,-1.32902 0.43098,-2.01001 0,0 0.951156,-0.45564 0.951156,-0.45564 z"
       inkscape:connector-curvature="0" />
    <path
       style="opacity:1;fill:#000000;fill-opacity:1;fill-rule:nonzero;stroke:#bd5c00;stroke-width:0.56300002;stroke-linejoin:round;stroke-miterlimit:4;stroke-dasharray:none;stroke-dashoffset:0;stroke-opacity:0.82352941"
       id="path2220"
       d="m 39.721575,148.42891 c 0.62439,-0.12847 1.273442,-0.0345 1.904984,5.3e-4 0.383894,0.0197 0.768053,0.0332 1.152292,0.0437 0,0 -0.85204,0.61512 -0.85204,0.61512 v 0 c -0.382982,-0.0127 -0.765726,-0.0311 -1.148464,-0.0497 -0.628954,-0.0347 -1.27599,-0.12405 -1.89457,0.0311 0,0 0.837798,-0.64063 0.837798,-0.64063 z"
       inkscape:connector-curvature="0" />
    <path
       style="opacity:1;fill:#000000;fill-opacity:1;fill-rule:nonzero;stroke:#bd5c00;stroke-width:0.56300002;stroke-linejoin:round;stroke-miterlimit:4;stroke-dasharray:none;stroke-dashoffset:0;stroke-opacity:0.82352941"
       id="path2222"
       d="m 151.45353,94.71691 c -0.60197,-0.0546 -1.18306,0.0202 -1.743,0.24436 1.36367,-0.78586 0.38702,-0.20276 0.13572,0.006 -0.26328,0.21912 -0.47207,0.4787 -0.67535,0.7516 -0.34912,0.51936 -0.589,1.09962 -0.74498,1.70339 -0.14052,0.49405 -0.0526,0.93326 0.27906,1.31722 0.41476,0.34633 0.83724,0.31212 1.3255,0.15777 0.10088,-0.0495 0.40123,-0.20238 0.30264,-0.14848 -1.07075,0.58542 -0.62128,0.34631 -0.33477,0.11609 0.2312,-0.18577 0.41742,-0.3898 0.59053,-0.6282 0.15556,-0.22018 0.5142,-0.53805 0.3422,-0.83938 -0.21773,-0.37517 -0.72594,-0.25283 -1.08127,-0.17413 -0.35345,0.17005 -0.17611,0.0826 -0.53194,0.26253 0,0 0.81779,-0.65365 0.81779,-0.65365 v 0 c 0.36185,-0.17555 0.17859,-0.0955 0.54962,-0.24062 0.41422,-0.069 0.91927,-0.1464 1.16336,0.27787 0.19643,0.35655 -0.0643,0.68291 -0.29778,0.94817 -0.53866,0.825 -1.47893,1.32111 -2.35007,1.71856 -0.52595,0.13446 -0.97466,0.12648 -1.39739,-0.25419 -0.34234,-0.41077 -0.46733,-0.8805 -0.32013,-1.40792 0.14816,-0.61588 0.38373,-1.20719 0.72962,-1.74019 0.59759,-0.85182 1.38256,-1.34903 2.32131,-1.81766 0.5767,-0.20237 1.17808,-0.27853 1.7875,-0.19836 0,0 -0.86817,0.59882 -0.86817,0.59882 z"
       inkscape:connector-curvature="0" />
    <path
       style="opacity:1;fill:#000000;fill-opacity:1;fill-rule:nonzero;stroke:#bd5c00;stroke-width:0.56300002;stroke-linejoin:round;stroke-miterlimit:4;stroke-dasharray:none;stroke-dashoffset:0;stroke-opacity:0.82352941"
       id="path2224"
       d="m 146.96458,105.46068 c 0.61153,-0.15433 1.24221,-0.21316 1.86939,-0.26341 0.4478,0.004 0.93472,-0.14148 1.34578,0.0791 0.23294,0.19289 0.34366,0.50742 0.43465,0.78907 0.13865,0.60584 -0.11949,1.23366 -0.32253,1.79799 -0.29825,0.75024 -0.62469,1.4791 -0.8087,2.26799 -0.0977,0.56084 -0.28989,1.09807 -0.41082,1.65396 -0.0679,0.34146 -0.0882,0.68923 -0.0958,1.03647 0.10017,0.11901 0.20411,0.2145 0.27983,0.36166 0.003,-0.005 0.006,-0.009 0.01,-0.014 0,0 -0.89094,0.58091 -0.89094,0.58091 v 0 c -0.0134,-0.0139 -0.0268,-0.0277 -0.0402,-0.0416 -0.0808,-0.16245 -0.22615,-0.24579 -0.30268,-0.40901 0.0113,-0.35384 0.0286,-0.70833 0.0932,-1.05721 0.12169,-0.55839 0.3139,-1.09732 0.41868,-1.6589 0.17727,-0.79537 0.49771,-1.52913 0.80478,-2.28073 0.20021,-0.53762 0.45468,-1.15019 0.3418,-1.73036 -0.0797,-0.25378 -0.17623,-0.54891 -0.39393,-0.71468 -0.40233,-0.18004 -0.88012,-0.0255 -1.30461,-0.0385 -0.62697,0.0508 -1.25622,0.11782 -1.86526,0.28194 0,0 0.83779,-0.64063 0.83779,-0.64063 z"
       inkscape:connector-curvature="0" />
    <path
       style="opacity:1;fill:#000000;fill-opacity:1;fill-rule:nonzero;stroke:#bd5c00;stroke-width:0.56300002;stroke-linejoin:round;stroke-miterlimit:4;stroke-dasharray:none;stroke-dashoffset:0;stroke-opacity:0.82352941"
       id="path2226"
       d="m 147.68265,107.64408 c 0.65986,-0.11948 1.32171,-0.22675 1.98922,-0.29215 0.4339,0.032 0.22416,0.008 0.62953,0.0694 0,0 -0.85604,0.60355 -0.85604,0.60355 v 0 c -0.39513,-0.053 -0.19095,-0.0352 -0.61281,-0.0501 -0.67178,0.0708 -1.33579,0.18917 -2.00339,0.28936 0,0 0.85349,-0.6201 0.85349,-0.6201 z"
       inkscape:connector-curvature="0" />
    <path
       style="opacity:1;fill:#000000;fill-opacity:1;fill-rule:nonzero;stroke:#bd5c00;stroke-width:0.56300002;stroke-linejoin:round;stroke-miterlimit:4;stroke-dasharray:none;stroke-dashoffset:0;stroke-opacity:0.82352941"
       id="path2228"
       d="m 149.4716,115.20677 c 0.53475,0.23383 0.89584,0.66271 1.10867,1.19418 0.11224,0.71042 -0.29279,1.33702 -0.62359,1.93142 -0.36004,0.6379 -0.87184,1.17043 -1.28749,1.77021 -0.26075,0.3756 -0.51999,0.7476 -0.68139,1.17739 -0.0818,0.19528 -0.0914,0.33214 0.006,0.51596 0.27188,0.30224 0.63536,0.32355 1.00957,0.26166 -0.38086,0.36274 1.27322,-0.57622 0.82079,-0.32043 -0.84468,0.47757 -0.94282,0.58529 -0.62155,0.29183 0.27888,-0.33773 -0.0718,-0.66285 -0.33155,-0.88732 -0.56034,-0.45692 -1.17197,-0.84265 -1.75631,-1.26788 -0.52867,-0.42347 -1.08389,-0.85959 -1.27467,-1.52884 -0.11843,-0.61731 0.0955,-1.16807 0.40956,-1.68736 0,0 0.95697,-0.42113 0.95697,-0.42113 v 0 c -0.32438,0.48432 -0.5505,1.01425 -0.44799,1.60909 0.16924,0.64669 0.73587,1.06204 1.23652,1.46987 0.58568,0.42987 1.20424,0.81232 1.76762,1.27194 0.29221,0.26129 0.66366,0.63326 0.41492,1.03883 -0.49098,0.5159 -1.30169,0.91054 -2.01726,1.06119 -0.41149,0.0429 -0.80518,-0.0323 -1.08426,-0.36513 -0.11486,-0.20857 -0.14153,-0.36851 -0.0458,-0.59603 0.15816,-0.44152 0.40652,-0.82474 0.67979,-1.20485 0.40368,-0.60856 0.92903,-1.13045 1.29612,-1.7639 0.31583,-0.56949 0.72739,-1.16369 0.65795,-1.84529 -0.20149,-0.51471 -0.55279,-0.91169 -1.07276,-1.1262 0,0 0.88029,-0.57921 0.88029,-0.57921 z"
       inkscape:connector-curvature="0" />
    <path
       style="opacity:1;fill:#000000;fill-opacity:1;fill-rule:nonzero;stroke:#bd5c00;stroke-width:0.56300002;stroke-linejoin:round;stroke-miterlimit:4;stroke-dasharray:none;stroke-dashoffset:0;stroke-opacity:0.82352941"
       id="path2230"
       d="m 150.40339,127.13771 c -0.0776,0.0191 -0.15675,0.0331 -0.23293,0.0574 -0.19935,0.0637 -0.39752,0.13277 -0.58944,0.21625 -0.0994,0.0433 -0.38294,0.20367 -0.28834,0.15066 0.20041,-0.11228 0.38625,-0.26101 0.60582,-0.32853 0.10767,-0.0331 -0.17051,0.14725 -0.25576,0.22088 -0.37156,0.35725 -0.62194,0.83235 -0.60735,1.35425 0.0457,0.44976 0.38231,0.72263 0.82003,0.73112 -0.32207,0.28928 1.18303,-0.51231 0.78636,-0.31632 -1.18171,0.58386 -0.50708,0.26181 -0.20066,-0.0633 0.25715,-0.27388 0.54231,-0.51309 0.71354,-0.85213 0.21287,-0.51494 -0.0653,-0.15689 1.02769,-0.62153 -0.01,0.44305 0.005,0.88419 -0.052,1.32411 -0.0957,0.67075 -0.24323,1.32494 -0.62085,1.89443 -0.43847,0.53861 -1.06055,0.87855 -1.64032,1.24375 -0.72056,0.50601 -1.44326,0.80964 -2.28473,0.96462 -0.03,0.005 -0.06,0.009 -0.09,0.0135 0,0 0.8475,-0.63648 0.8475,-0.63648 v 0 c 0.0288,-0.005 0.0575,-0.01 0.0862,-0.0146 0.40061,-0.0789 1.88755,-0.65461 0.46651,0.0506 0.58008,-0.35485 1.1933,-0.69813 1.6552,-1.2043 0.40362,-0.54222 0.54459,-1.18925 0.64161,-1.8495 0.0655,-0.43319 0.0437,-0.86801 0.0451,-1.30542 0.90035,-0.51933 1.08691,-0.86971 0.88135,-0.29714 -0.16237,0.35917 -0.42788,0.61338 -0.71085,0.88376 -0.60483,0.70837 -1.49439,1.22179 -2.40769,1.39685 -0.47347,-0.0686 -0.83674,-0.36414 -0.89921,-0.85946 -0.0388,-0.54163 0.19883,-1.05787 0.57549,-1.44189 0.70633,-0.66852 1.62931,-1.10713 2.5655,-1.35219 0,0 -0.8378,0.64063 -0.8378,0.64063 z"
       inkscape:connector-curvature="0" />
    <path
       style="opacity:1;fill:#000000;fill-opacity:1;fill-rule:nonzero;stroke:#bd5c00;stroke-width:0.56300002;stroke-linejoin:round;stroke-miterlimit:4;stroke-dasharray:none;stroke-dashoffset:0;stroke-opacity:0.82352941"
       id="path2232"
       d="m 148.58442,138.43562 c -0.20363,0.77638 -0.42007,1.55016 -0.63844,2.32315 -0.1984,0.76969 -0.46068,1.51906 -0.62535,2.29767 0.0377,0.34831 -0.24259,0.58989 -0.33538,0.88458 0.022,0.0981 -0.003,0.0564 0.0793,0.12251 0,0 -0.90171,0.55485 -0.90171,0.55485 v 0 c -0.11666,-0.12517 -0.0789,-0.056 -0.12428,-0.20089 -0.0241,-0.30089 0.44188,-0.55037 0.34066,-0.90554 0.16189,-0.78341 0.43035,-1.5348 0.63027,-2.308 0.21679,-0.76862 0.43273,-1.53846 0.62383,-2.31269 0,0 0.95115,-0.45564 0.95115,-0.45564 z"
       inkscape:connector-curvature="0" />
    <path
       style="opacity:1;fill:#000000;fill-opacity:1;fill-rule:nonzero;stroke:#bd5c00;stroke-width:0.56300002;stroke-linejoin:round;stroke-miterlimit:4;stroke-dasharray:none;stroke-dashoffset:0;stroke-opacity:0.82352941"
       id="path2234"
       d="m 154.90292,138.06411 c -0.56483,0.57235 -0.87839,1.26102 -1.09358,2.02376 -0.22532,0.75208 -0.47609,1.51296 -0.47567,2.30476 0.0278,0.38481 0.0654,0.85244 0.44427,1.05431 0.43537,0.19098 1.6924,-0.63698 0.1565,0.16545 0.44934,-0.42358 0.75057,-0.97767 0.98142,-1.54426 0.17743,-0.52512 0.24378,-1.05931 0.13229,-1.60198 -0.0671,-0.41855 -0.26525,-0.73614 -0.66691,-0.88145 -0.37121,-0.11105 -1.20473,0.4746 0.23953,-0.2799 0,0 -0.97444,0.3932 -0.97444,0.3932 v 0 c 0.45847,-0.28768 1.00428,-0.89966 1.61137,-0.69974 0.41389,0.18544 0.64246,0.52204 0.71609,0.97199 0.11914,0.56206 0.0678,1.10854 -0.1076,1.65788 -0.22207,0.57934 -0.52703,1.14037 -0.95748,1.59166 -0.47702,0.29929 -1.32913,1.11133 -2.01866,0.8003 -0.38426,-0.26299 -0.46257,-0.71153 -0.48744,-1.15222 -0.0109,-0.8013 0.23608,-1.57384 0.46902,-2.33354 0.20778,-0.77337 0.50467,-1.47198 1.05717,-2.06674 0,0 0.97412,-0.40348 0.97412,-0.40348 z"
       inkscape:connector-curvature="0" />
    <path
       style="opacity:1;fill:#000000;fill-opacity:1;fill-rule:nonzero;stroke:#bd5c00;stroke-width:0.56300002;stroke-linejoin:round;stroke-miterlimit:4;stroke-dasharray:none;stroke-dashoffset:0;stroke-opacity:0.82352941"
       id="path2236"
       d="m 148.51093,150.49293 c -0.51894,0.61325 -0.78762,1.39265 -1.08992,2.12614 -0.26847,0.68814 -0.58048,1.35654 -0.7911,2.06581 -0.0528,0.19155 -0.10156,0.38459 -0.13445,0.58066 0,0 -0.95432,0.4669 -0.95432,0.4669 v 0 c 0.0324,-0.2026 0.0872,-0.40088 0.14099,-0.5986 0.21196,-0.71451 0.52285,-1.38788 0.7958,-2.08001 0.30707,-0.73735 0.57199,-1.51538 1.05891,-2.15742 0,0 0.97409,-0.40348 0.97409,-0.40348 z"
       inkscape:connector-curvature="0" />
    <path
       style="opacity:1;fill:#000000;fill-opacity:1;fill-rule:nonzero;stroke:#bd5c00;stroke-width:0.56300002;stroke-linejoin:round;stroke-miterlimit:4;stroke-dasharray:none;stroke-dashoffset:0;stroke-opacity:0.82352941"
       id="path2238"
       d="m 156.00369,150.51997 c -0.39674,0.78147 -0.76451,1.57629 -1.05855,2.40234 -0.2318,0.55049 -0.4559,1.10374 -0.57631,1.69022 0,0 -0.94578,0.45906 -0.94578,0.45906 v 0 c 0.11123,-0.59506 0.33798,-1.15541 0.57909,-1.70881 0.29517,-0.82557 0.65852,-1.62028 1.04148,-2.40845 0,0 0.96007,-0.43436 0.96007,-0.43436 z"
       inkscape:connector-curvature="0" />
    <path
       style="opacity:1;fill:#000000;fill-opacity:1;fill-rule:nonzero;stroke:#a10b70;stroke-width:0.56300002;stroke-linejoin:round;stroke-miterlimit:4;stroke-dasharray:none;stroke-dashoffset:0;stroke-opacity:1"
       id="path2260"
       d="m -104.55601,112.87839 c -0.40164,0.58319 -0.73682,1.20964 -1.00407,1.86483 -0.18584,0.53599 -0.42714,1.05104 -0.58803,1.59577 -0.0862,0.29076 -0.10543,0.5913 -0.11172,0.89246 0.006,0.27033 -0.0692,0.55393 0.12674,0.7645 0.30023,0.21789 0.81215,0.0807 1.14438,-0.0246 -0.31236,0.3052 1.16107,-0.56814 0.73115,-0.3353 -0.22698,0.12293 -0.44782,0.25846 -0.68269,0.36556 -0.0805,0.0367 0.14098,-0.1077 0.21692,-0.15316 0.37376,-0.22378 0.75428,-0.43607 1.13142,-0.65411 -1.42744,0.89161 -0.31006,0.10039 -0.0457,-0.17412 0.13341,-0.13854 0.25335,-0.28947 0.38267,-0.43184 0.31932,-0.41102 0.62102,-0.84948 0.83791,-1.32482 0.1412,-0.37953 0.17625,-0.78288 0.19394,-1.18389 0.006,-0.24549 0.004,-0.4911 -7.9e-4,-0.73659 0.0245,-0.27456 -0.0621,-0.35712 -0.32313,-0.41066 -0.44899,-0.0579 -0.91222,-0.0928 -1.35837,-0.009 -0.24714,0.0401 -0.4631,0.10683 -0.67885,0.22906 -0.062,0.0352 -0.25002,0.1372 -0.18688,0.10407 0.77402,-0.40615 0.95717,-0.56749 0.55792,-0.25244 -0.0543,0.0522 -0.1086,0.10441 -0.1629,0.15661 0,0 -0.97101,0.40324 -0.97101,0.40324 v 0 c 0.0524,-0.0565 0.10485,-0.11295 0.15728,-0.16942 0.64081,-0.49218 1.3195,-0.9648 2.12348,-1.1009 0.45928,-0.0582 0.93271,-0.0422 1.38874,0.0399 0.27914,0.0854 0.42423,0.22242 0.39769,0.52695 0.001,0.24787 0.005,0.49579 -0.001,0.74362 -0.0132,0.4124 -0.0534,0.82596 -0.18035,1.22081 -0.2032,0.4911 -0.52069,0.9285 -0.82685,1.35853 -0.64722,0.68724 -1.1901,1.28691 -2.11933,1.66984 0.22021,-0.12986 0.43547,-0.26852 0.66064,-0.38959 0.0778,-0.0418 -0.14263,0.1046 -0.21759,0.15137 -0.58709,0.36628 -1.18117,0.79699 -1.85624,0.99644 -0.38325,0.0951 -0.89262,0.21838 -1.21577,-0.0694 -0.21406,-0.25111 -0.17176,-0.51591 -0.16527,-0.83299 0.005,-0.30945 0.0149,-0.61928 0.10351,-0.91865 0.15088,-0.55313 0.40886,-1.06811 0.59268,-1.60995 0.25717,-0.65616 0.58139,-1.29241 0.98978,-1.8679 0,0 0.96007,-0.43436 0.96007,-0.43436 z"
       inkscape:connector-curvature="0" />
    <path
       style="opacity:1;fill:#000000;fill-opacity:1;fill-rule:nonzero;stroke:#bd5d00;stroke-width:0.56300002;stroke-linejoin:round;stroke-miterlimit:4;stroke-dasharray:none;stroke-dashoffset:0;stroke-opacity:0.46568626"
       id="path2262"
       d="m 37.766779,93.682741 c -0.526465,0.450893 -0.97867,0.978326 -1.414251,1.515151 -0.278558,0.455082 -0.572865,0.911609 -0.755615,1.415231 -0.113176,0.416955 -0.308795,0.802087 -0.420203,1.219849 -0.07491,0.338056 -0.13683,0.676849 -0.0096,1.006378 0.254511,0.285005 0.59408,0.448009 0.95621,0.54769 0.559019,0.09178 1.134456,0.126651 1.696029,0.04931 0.699294,-0.0933 1.33336,-0.39824 1.93439,-0.752263 0.101394,-0.05382 0.404841,-0.216622 0.304178,-0.161452 -1.261692,0.691496 -0.443989,0.237148 -0.187309,-0.01217 0.151564,-0.147219 0.210674,-0.239519 0.333793,-0.404943 0.334613,-0.3881 0.515281,-0.816585 0.613661,-1.313286 0.06567,-0.417281 0.107773,-0.827253 -0.02066,-1.233557 -0.119824,-0.378543 -0.373372,-0.561798 -0.730676,-0.68948 -0.494511,-0.262459 -1.044151,-0.344659 -1.593175,-0.403359 -0.620448,-0.03148 -1.28974,0.04134 -1.876364,0.257007 0.761373,-0.411245 0.901652,-0.553305 0.546865,-0.244282 0,0 -0.973704,0.39985 -0.973704,0.39985 v 0 c 0.449797,-0.45559 0.08846,-0.115786 1.255223,-0.799199 0.608513,-0.183257 1.267113,-0.272228 1.900621,-0.218439 0.55753,0.06529 1.108988,0.163432 1.614858,0.42045 0.374938,0.15052 0.651275,0.371503 0.779965,0.770222 0.137401,0.424418 0.110927,0.842752 0.04206,1.281658 -0.09474,0.508925 -0.245782,0.95879 -0.594982,1.35523 -0.551688,0.782264 -1.368618,1.229708 -2.226125,1.652984 -0.612066,0.344624 -1.254482,0.637813 -1.960599,0.719209 -0.573829,0.0581 -1.160979,0.0355 -1.727251,-0.07941 -0.384471,-0.121453 -0.752356,-0.306865 -1.009448,-0.627713 -0.137981,-0.351129 -0.100497,-0.701533 -0.01778,-1.065554 0.100287,-0.425548 0.302992,-0.809411 0.419002,-1.229127 0.168613,-0.520417 0.477837,-0.976425 0.745717,-1.450272 0.428771,-0.54443 0.890323,-1.063078 1.397217,-1.536819 0,0 0.9779,-0.388896 0.9779,-0.388896 z"
       inkscape:connector-curvature="0" />
    <path
       style="opacity:1;fill:#000000;fill-opacity:1;fill-rule:nonzero;stroke:#000000;stroke-width:0.56300002;stroke-linejoin:round;stroke-miterlimit:4;stroke-dasharray:none;stroke-dashoffset:0;stroke-opacity:0.46568632"
       id="path2264"
       d="m -148.23445,107.19664 c -0.26508,0.60135 -0.51394,1.21112 -0.8053,1.80047 -0.27058,0.50725 -0.4209,1.05426 -0.49915,1.62014 -0.0511,0.47678 -0.0498,0.95726 -0.0485,1.43618 -0.0323,0.40213 0.0288,0.72571 0.30279,1.02565 0.17978,0.16799 0.45903,0.29008 0.69586,0.19151 0.38047,-0.14473 0.39897,-0.15948 -0.61483,0.36157 -0.0599,0.0308 0.11435,-0.0715 0.16797,-0.11226 0.18561,-0.14108 0.30855,-0.32603 0.45093,-0.50771 0.29738,-0.44749 0.59047,-0.89768 0.91799,-1.3241 0.30608,-0.44893 0.62414,-0.90003 0.85353,-1.39481 0.18159,-0.41422 0.18933,-0.86961 0.20342,-1.314 0.0307,-0.41198 0.0154,-0.78986 -0.15189,-1.16906 -0.22801,-0.39912 -0.70329,-0.48199 -1.12116,-0.55535 -0.34292,-0.0151 -0.71629,-0.12181 -1.05426,-0.012 -0.0715,0.0232 -1.455,0.76751 0.45213,-0.24808 -0.33982,0.28914 -0.1799,0.12448 -0.47303,0.50045 0,0 -0.95708,0.4135 -0.95708,0.4135 v 0 c 0.27717,-0.39923 0.12261,-0.22532 0.45476,-0.52952 1.0816,-0.65053 1.29086,-0.92082 2.43849,-0.7257 0.45241,0.0911 0.93713,0.20687 1.18058,0.63892 0.17165,0.39632 0.20552,0.78135 0.16904,1.21248 -0.0113,0.45433 -0.0126,0.92321 -0.18551,1.3507 -0.21553,0.50912 -0.55007,0.95778 -0.84662,1.4206 -0.33805,0.41629 -0.62594,0.87116 -0.91418,1.32315 -0.48991,0.60069 -0.97027,1.11044 -1.81071,1.31298 -0.28333,0.0283 -0.55967,-0.0814 -0.75813,-0.28711 -0.28302,-0.32407 -0.37507,-0.66446 -0.33688,-1.09439 6.6e-4,-0.48331 -0.004,-0.96782 0.043,-1.44945 0.0774,-0.57573 0.21469,-1.13556 0.48844,-1.65352 0.29967,-0.58255 0.54847,-1.19167 0.79819,-1.79686 0,0 0.96007,-0.43436 0.96007,-0.43436 z"
       inkscape:connector-curvature="0" />
    <path
       style="opacity:1;fill:#000000;fill-opacity:1;fill-rule:nonzero;stroke:#000000;stroke-width:0.56300002;stroke-linejoin:round;stroke-miterlimit:4;stroke-dasharray:none;stroke-dashoffset:0;stroke-opacity:0.46568632"
       id="path2266"
       d="m -149.34426,131.46565 c 0.45379,-0.45135 0.79743,-0.97197 1.12634,-1.51594 0.22605,-0.35178 0.35994,-0.74237 0.64762,-1.05127 0.108,-0.12112 0.17962,-0.26757 0.23045,-0.42043 -0.45654,0.50389 1.24905,-0.96224 0.58345,-0.17844 -0.28553,0.46597 -0.30804,1.05036 -0.41817,1.57743 -0.17649,0.82783 -0.22653,1.67451 -0.26102,2.518 0.0297,0.74768 -0.11134,1.47823 -0.23097,2.21192 -0.071,0.44124 -0.10844,0.88709 -0.13082,1.3332 -0.0543,0.25033 -0.21258,0.44145 -0.38286,0.62338 -0.56608,0.43599 -1.23361,0.73853 -1.90524,0.97665 -0.2954,0.15096 -0.6472,0.1097 -0.94033,0.24819 -0.80127,0.47061 1.03466,-0.66306 0.44055,-0.23922 -0.32258,0.18189 0.38575,-0.14823 -0.93887,0.35371 0.65329,-0.59461 1.45686,-0.67838 2.22555,-0.98428 0.68836,-0.24121 1.364,-0.51197 2.07451,-0.68271 0.59303,-0.17491 1.16904,-0.43823 1.79635,-0.36871 0.20358,0.0304 0.40387,0.0779 0.6024,0.13143 0,0 -0.87277,0.59975 -0.87277,0.59975 v 0 c -0.19305,-0.0516 -0.38796,-0.0975 -0.58694,-0.11977 -0.6152,-0.0396 -1.18234,0.23769 -1.76766,0.39068 -0.70611,0.18083 -1.38252,0.45051 -2.06846,0.69438 -0.27852,0.10343 -0.55734,0.193 -0.8435,0.27298 -0.0679,0.019 -0.26122,0.0954 -0.20466,0.0533 0.30614,-0.22781 1.07792,-0.63059 0.62296,-0.39119 -0.0715,0.0341 -1.33766,0.82294 -1.0261,0.44447 0.41025,-0.33964 0.90001,-0.57533 1.37798,-0.80633 0.30912,-0.0923 0.63952,-0.10791 0.93739,-0.24487 0.19972,-0.0778 0.3953,-0.16385 0.59447,-0.24299 0.0505,-0.02 0.1974,-0.089 0.15151,-0.06 -0.24594,0.15579 -1.13054,0.6565 -0.64502,0.38121 0.16322,-0.16678 0.32325,-0.33495 0.41307,-0.55517 0.0297,-0.45095 0.0678,-0.90209 0.137,-1.34887 0.12464,-0.73021 0.27094,-1.45762 0.24166,-2.20271 0.0344,-0.84773 0.082,-1.6993 0.25189,-2.53255 0.11183,-0.54083 0.14166,-1.11856 0.38361,-1.61844 0.31266,-0.3789 0.94414,-1.13537 1.34963,-0.68976 -0.0439,0.16782 -0.12015,0.32553 -0.21404,0.47099 -0.31394,0.29237 -0.44755,0.67149 -0.66749,1.03241 -0.33238,0.54438 -0.66068,1.07715 -1.10938,1.53603 0,0 -0.97409,0.40348 -0.97409,0.40348 z"
       inkscape:connector-curvature="0" />
    <path
       style="opacity:1;fill:#000000;fill-opacity:1;fill-rule:nonzero;stroke:#000000;stroke-width:0.56300002;stroke-linejoin:round;stroke-miterlimit:4;stroke-dasharray:none;stroke-dashoffset:0;stroke-opacity:0.46568632"
       id="path2268"
       d="m -150.40959,97.73027 c 0.57736,-0.601954 1.23564,-1.11491 2.034,-1.405047 0.40437,-0.120128 0.69111,0.0022 0.98141,0.285492 0.26153,0.405407 0.29965,0.923657 0.25432,1.3929 -0.11214,0.689883 -0.49856,1.301859 -0.87366,1.879343 -0.43004,0.715872 -0.8491,1.445252 -1.20389,2.202052 -0.30607,0.49039 -0.48788,1.03885 -0.74237,1.55431 -0.14007,0.24256 -0.23631,0.50599 -0.30585,0.77641 -0.0195,0.38629 -0.97397,0.88932 -0.97071,0.43016 0.15867,-0.48636 0.96151,-0.71729 1.24342,-0.89917 1.71905,-1.10899 -1.63833,0.96666 -0.55038,0.2953 0.80045,-0.55908 1.61007,-0.80041 2.53359,-1.00507 0.71842,-0.13624 1.44508,-0.14803 2.15878,-0.30906 0.50126,-0.12238 1.01216,-0.19163 1.5252,-0.23905 0,0 -0.84735,0.62767 -0.84735,0.62767 v 0 c -0.50846,0.0472 -1.01321,0.12476 -1.51025,0.24366 -0.71404,0.14759 -1.44263,0.15789 -2.15649,0.30882 -0.38609,0.0907 -2.43466,0.8157 -0.72194,-0.005 -0.58485,0.33641 -2.2368,1.28831 -0.50723,0.2983 0.087,-0.0498 -0.30964,0.25105 -0.22155,0.20327 -0.006,0.42476 -1.10237,1.01947 -0.932,0.50865 0.0687,-0.27783 0.15839,-0.55477 0.30521,-0.80177 0.2643,-0.51286 0.43442,-1.06796 0.75139,-1.55443 0.34775,-0.76406 0.78034,-1.49071 1.19936,-2.21702 0.37348,-0.56121 0.75799,-1.161482 0.88605,-1.831582 0.0609,-0.432855 0.0263,-0.927437 -0.21222,-1.305142 -0.2751,-0.258815 -0.54907,-0.320635 -0.91063,-0.187601 -0.0598,0.02646 -0.23437,0.115086 -0.17953,0.07938 0.22508,-0.146547 0.44873,-0.298876 0.69187,-0.412964 0.0777,-0.03645 -0.12192,0.121037 -0.18754,0.176324 -0.19276,0.162403 -0.39386,0.311369 -0.55691,0.507689 0,0 -0.9741,0.403483 -0.9741,0.403483 z"
       inkscape:connector-curvature="0" />
    <path
       style="opacity:1;fill:#000000;fill-opacity:1;fill-rule:nonzero;stroke:#000000;stroke-width:0.56300002;stroke-linejoin:round;stroke-miterlimit:4;stroke-dasharray:none;stroke-dashoffset:0;stroke-opacity:0.46568632"
       id="path2270"
       d="m -149.02461,119.00979 c 0.21439,-0.4971 0.59116,-0.87183 0.99877,-1.21335 0.60166,-0.46765 1.25284,-1.01605 1.88541,-0.47487 0.32932,0.31644 0.40033,0.74674 0.44218,1.18059 -0.0293,0.52217 -0.1851,1.0157 -0.45334,1.46215 -0.31778,0.41232 -0.68501,0.78571 -1.1219,1.07 -0.54928,0.3502 -1.05991,0.67108 -1.69677,0.73577 -0.20334,0.016 -0.11466,-0.20013 -0.0173,-0.28807 0.42605,-0.32959 0.89847,-0.54922 1.37929,-0.81173 0.23675,-0.12926 -0.9372,0.53451 -0.70525,0.39681 1.05965,-0.62908 0.74413,-0.48654 1.35578,-0.73917 0.49408,-0.17095 0.98227,-0.26237 1.4937,-0.13575 0.41355,0.16475 0.63986,0.46161 0.77805,0.87074 0.17776,0.3861 0.17586,0.8125 0.0272,1.2048 -0.48682,0.74891 -1.43217,1.0546 -2.17954,1.47164 -0.53645,0.29064 -1.14022,0.3884 -1.71415,0.57959 -0.26956,0.0555 -0.54089,0.27785 -0.8143,0.19848 0,0 0.86526,-0.60929 0.86526,-0.60929 v 0 c 0.26971,-0.009 0.51498,-0.17582 0.77657,-0.23184 0.5718,-0.18834 1.17561,-0.28585 1.70181,-0.59356 0.54564,-0.2882 0.20785,-0.11823 -0.3421,0.2407 -0.0824,0.0538 0.1727,-0.0949 0.25433,-0.14981 0.18736,-0.12606 0.37328,-0.27195 0.49424,-0.46483 0.16902,-0.3647 0.18409,-0.76901 0.006,-1.13743 -0.12044,-0.37932 -0.32807,-0.64807 -0.7192,-0.77957 -0.49718,-0.10291 -0.98095,0.0121 -1.4512,0.18731 -0.079,0.0363 -0.30999,0.1563 -0.2371,0.10886 0.22156,-0.14421 0.91394,-0.53186 0.6847,-0.4002 -3.62099,2.07966 0.72622,-0.47048 -0.6675,0.41272 -0.0472,0.0168 -0.29084,0.0786 -0.11868,0.0348 0.41547,-0.0636 1.29625,-0.48079 -0.13521,0.27941 0.44599,-0.26631 0.81139,-0.62779 1.14177,-1.02783 0.28677,-0.41884 0.42617,-0.89654 0.48344,-1.39929 -0.0371,-0.40503 -0.09,-0.8136 -0.40344,-1.10628 -0.145,-0.10999 -0.2528,-0.17622 -0.44121,-0.16298 -0.051,0.004 -0.19259,0.0544 -0.15126,0.0244 0.17958,-0.13041 1.15627,-0.72274 0.57385,-0.33765 -0.41249,0.31771 -0.80017,0.68549 -1.0132,1.17031 0,0 -0.96007,0.43437 -0.96007,0.43437 z"
       inkscape:connector-curvature="0" />
    <path
       style="opacity:1;fill:#000000;fill-opacity:1;fill-rule:nonzero;stroke:#000000;stroke-width:0.56300002;stroke-linejoin:round;stroke-miterlimit:4;stroke-dasharray:none;stroke-dashoffset:0;stroke-opacity:0.46568632"
       id="path2272"
       d="m -146.81402,141.28713 c -0.3249,0.75595 -0.521,1.56603 -0.71839,2.36387 -0.17876,0.56874 -0.17285,1.17339 -0.30337,1.74931 -0.13317,0.35974 -0.21769,0.7323 -0.28264,1.10948 -0.0272,0.18522 -0.0381,0.3725 -0.0401,0.55957 0.01,-0.0317 -0.006,0.0594 2.4e-4,0.0456 0.024,-0.053 0.0269,-0.11826 0.0653,-0.16203 0.0332,-0.0378 0.17873,-0.0919 0.13532,-0.0666 -0.24489,0.14304 -0.98708,0.55907 -0.74005,0.41977 0.36778,-0.20739 0.73485,-0.41602 1.10228,-0.62403 0.47763,-0.26007 1.0038,-0.40601 1.49924,-0.6232 0.46109,-0.20583 0.95084,-0.32747 1.45079,-0.3862 0,0 -0.84304,0.62932 -0.84304,0.62932 v 0 c -0.49385,0.0705 -0.97532,0.19939 -1.431,0.40608 -0.5051,0.19903 -1.01322,0.37968 -1.49603,0.63221 1.97637,-1.16994 -0.62679,0.59586 -0.69057,0.21015 0.003,-0.19284 0.0166,-0.38549 0.0376,-0.5772 0.0677,-0.37909 0.1384,-0.76045 0.28444,-1.1187 0.15689,-0.57109 0.12297,-1.18762 0.31595,-1.75489 0.19564,-0.80115 0.39763,-1.60871 0.69395,-2.37816 0,0 0.96007,-0.43437 0.96007,-0.43437 z"
       inkscape:connector-curvature="0" />
    <path
       style="opacity:1;fill:#000000;fill-opacity:1;fill-rule:nonzero;stroke:#000000;stroke-width:0.56300002;stroke-linejoin:round;stroke-miterlimit:4;stroke-dasharray:none;stroke-dashoffset:0;stroke-opacity:0.46568632"
       id="path2274"
       d="m -142.86979,140.92138 c -0.13914,0.73973 -0.35765,1.45982 -0.49531,2.19992 -0.13955,0.85549 -0.16642,1.72292 -0.18266,2.58779 -0.0617,0.64421 -0.20087,1.27711 -0.28745,1.91807 -0.0446,0.35272 -0.0588,0.7081 -0.0627,1.06328 -5.3e-4,0.0585 -6e-5,0.11691 8.5e-4,0.17536 0,0 -0.94683,0.48325 -0.94683,0.48325 v 0 c 10e-5,-0.0599 6.9e-4,-0.11981 0.002,-0.1797 0.008,-0.35998 0.0204,-0.72025 0.064,-1.07803 0.0899,-0.63955 0.22496,-1.27144 0.30412,-1.91249 0.0147,-0.86973 0.039,-1.74154 0.17495,-2.60253 0.12879,-0.74107 0.35717,-1.45684 0.47786,-2.19928 0,0 0.95115,-0.45564 0.95115,-0.45564 z"
       inkscape:connector-curvature="0" />
    <path
       style="opacity:1;fill:#000000;fill-opacity:1;fill-rule:nonzero;stroke:#000000;stroke-width:0.56300002;stroke-linejoin:round;stroke-miterlimit:4;stroke-dasharray:none;stroke-dashoffset:0;stroke-opacity:0.46568632"
       id="path2276"
       d="m -146.02888,154.40388 c -0.0646,0.65921 -0.25099,1.28845 -0.4482,1.9171 -0.31757,1.05377 -0.004,0.75057 -1.24222,1.44986 -0.15458,-0.0332 -0.2498,-0.0776 -0.27927,-0.23312 0.64312,-0.48847 1.40172,-0.66134 2.08775,-1.04947 -1.71104,1.02172 0.33119,-0.32409 0.95686,-0.42009 0.14623,-0.0224 0.31376,0.008 0.45844,0.0264 0.46953,0.20322 0.69394,0.61345 0.82694,1.08246 0.12811,0.64419 0.12233,1.3052 0.12728,1.95923 -0.0321,0.66518 -0.25299,1.26887 -0.6376,1.80648 -0.60303,0.7398 -1.52222,1.14239 -2.37332,1.52756 -0.49601,0.16624 -1.02391,0.46412 -1.56005,0.39999 -0.34364,-0.0557 -0.42082,-0.28161 -0.40972,-0.59259 0,0 0.94448,-0.4735 0.94448,-0.4735 v 0 c -0.0267,0.271 0.0128,0.42119 0.32149,0.45225 0.53091,0.001 1.03435,-0.25397 1.52223,-0.43551 0.10295,-0.0464 0.39623,-0.21059 0.30885,-0.13908 -0.18657,0.1527 -0.412,0.25092 -0.61129,0.38661 -0.0836,0.0569 0.17894,-0.0949 0.26374,-0.14998 0.23685,-0.15392 0.46042,-0.3369 0.63318,-0.56125 0.39455,-0.51315 0.62428,-1.09524 0.66815,-1.74634 -0.005,-0.64486 0.002,-1.29623 -0.11898,-1.93223 -0.1171,-0.42588 -0.31505,-0.82276 -0.76309,-0.97408 -0.24506,-0.0183 -0.42698,-0.003 -0.65998,0.0833 -0.0843,0.0313 -0.323,0.15384 -0.24984,0.1016 0.14219,-0.10153 2.39254,-1.39944 -0.4637,0.25664 -0.4045,0.21617 -2.04982,0.93608 -0.27898,0.0104 -0.14728,-0.15777 0.0175,0.0108 0.12512,-0.0352 -1.42858,0.86786 -0.8167,0.71221 -0.72701,0.30666 0.0494,-0.22332 0.10322,-0.44635 0.18382,-0.66087 0.19919,-0.61802 0.38927,-1.23465 0.45493,-1.88437 0,0 0.93999,-0.47895 0.93999,-0.47895 z"
       inkscape:connector-curvature="0" />
    <path
       style="opacity:1;fill:#000000;fill-opacity:1;fill-rule:nonzero;stroke:#000000;stroke-width:0.56300002;stroke-linejoin:round;stroke-miterlimit:4;stroke-dasharray:none;stroke-dashoffset:0;stroke-opacity:0.46568632"
       id="path2278"
       d="m -145.91007,153.75555 c 0.69981,-0.27316 1.43131,-0.44707 2.15007,-0.6622 0.61812,-0.061 1.16078,-0.44469 1.77007,-0.50784 0.32277,-0.0699 0.6438,-0.13753 0.9715,-0.17943 0.0865,-0.011 0.1733,-0.0197 0.26036,-0.0248 0,0 -0.85686,0.631 -0.85686,0.631 v 0 c -0.0839,0.008 -0.16777,0.0159 -0.25131,0.0269 -0.325,0.044 -0.64306,0.12085 -0.96604,0.17676 -0.59593,0.10994 -1.1444,0.42938 -1.75143,0.51335 -0.72334,0.21729 -1.45717,0.39837 -2.16416,0.6669 0,0 0.8378,-0.64063 0.8378,-0.64063 z"
       inkscape:connector-curvature="0" />
  </g>
</svg>
