<?xml version="1.0" encoding="UTF-8" standalone="no"?>
<!-- Created with Inkscape (http://www.inkscape.org/) -->

<svg
   xmlns:dc="http://purl.org/dc/elements/1.1/"
   xmlns:cc="http://creativecommons.org/ns#"
   xmlns:rdf="http://www.w3.org/1999/02/22-rdf-syntax-ns#"
   xmlns:svg="http://www.w3.org/2000/svg"
   xmlns="http://www.w3.org/2000/svg"
   xmlns:sodipodi="http://sodipodi.sourceforge.net/DTD/sodipodi-0.dtd"
   xmlns:inkscape="http://www.inkscape.org/namespaces/inkscape"
   width="387.70337mm"
   height="93.321472mm"
   viewBox="0 0 387.70337 93.321472"
   version="1.1"
   id="svg8"
   inkscape:version="0.92.5 (2060ec1f9f, 2020-04-08)"
   sodipodi:docname="tensor.svg">
  <defs
     id="defs2">
    <marker
       inkscape:stockid="Arrow1Lstart"
       orient="auto"
       refY="0"
       refX="0"
       id="Arrow1Lstart"
       style="overflow:visible"
       inkscape:isstock="true">
      <path
         id="path1071"
         d="M 0,0 5,-5 -12.5,0 5,5 Z"
         style="fill:#000000;fill-opacity:1;fill-rule:evenodd;stroke:#000000;stroke-width:1.00000003pt;stroke-opacity:1"
         transform="matrix(0.8,0,0,0.8,10,0)"
         inkscape:connector-curvature="0" />
    </marker>
    <marker
       inkscape:stockid="Arrow1Lstart"
       orient="auto"
       refY="0"
       refX="0"
       id="Arrow1Lstart-6"
       style="overflow:visible"
       inkscape:isstock="true">
      <path
         inkscape:connector-curvature="0"
         id="path1071-1"
         d="M 0,0 5,-5 -12.5,0 5,5 Z"
         style="fill:#000000;fill-opacity:1;fill-rule:evenodd;stroke:#000000;stroke-width:1.00000003pt;stroke-opacity:1"
         transform="matrix(0.8,0,0,0.8,10,0)" />
    </marker>
  </defs>
  <sodipodi:namedview
     id="base"
     pagecolor="#ffffff"
     bordercolor="#666666"
     borderopacity="1.0"
     inkscape:pageopacity="0.0"
     inkscape:pageshadow="2"
     inkscape:zoom="0.74507576"
     inkscape:cx="1135.9521"
     inkscape:cy="140.0765"
     inkscape:document-units="mm"
     inkscape:current-layer="layer1"
     showgrid="false"
     inkscape:window-width="1294"
     inkscape:window-height="704"
     inkscape:window-x="72"
     inkscape:window-y="27"
     inkscape:window-maximized="1" />
  <metadata
     id="metadata5">
    <rdf:RDF>
      <cc:Work
         rdf:about="">
        <dc:format>image/svg+xml</dc:format>
        <dc:type
           rdf:resource="http://purl.org/dc/dcmitype/StillImage" />
        <dc:title></dc:title>
      </cc:Work>
    </rdf:RDF>
  </metadata>
  <g
     inkscape:label="Layer 1"
     inkscape:groupmode="layer"
     id="layer1"
     transform="translate(114.27445,-87.07496)">
    <path
       style="fill:none;stroke:#be5d01;stroke-width:1.16499996;stroke-linecap:butt;stroke-linejoin:miter;stroke-miterlimit:4;stroke-dasharray:none;stroke-opacity:1"
       d="M 46.874427,92.101931 V 179.81393 H 139.55795 V 91.391712 H 46.874427 Z"
       id="path12"
       inkscape:connector-curvature="0" />
    <path
       style="fill:none;stroke:#be5d01;stroke-width:1.16499996;stroke-linecap:butt;stroke-linejoin:miter;stroke-miterlimit:4;stroke-dasharray:none;stroke-opacity:0.82156863"
       d="m 140.62328,103.82054 c 13.90714,0.45145 31.07671,0.49509 52.55618,0"
       id="path14"
       inkscape:connector-curvature="0"
       sodipodi:nodetypes="cc" />
    <path
       style="fill:none;stroke:#be5d01;stroke-width:1.16499996;stroke-linecap:butt;stroke-linejoin:miter;stroke-miterlimit:4;stroke-dasharray:none;stroke-opacity:0.82156863"
       d="m 140.27091,114.65127 c 13.90714,0.45145 31.07671,0.49509 52.55618,0"
       id="path14-3"
       inkscape:connector-curvature="0"
       sodipodi:nodetypes="cc" />
    <path
       style="fill:none;stroke:#be5d01;stroke-width:1.16499996;stroke-linecap:butt;stroke-linejoin:miter;stroke-miterlimit:4;stroke-dasharray:1.165, 1.165;stroke-dashoffset:0;stroke-opacity:0.82156863"
       d="m 140.27091,124.59433 c 13.90714,0.45145 31.07671,0.49509 52.55618,0"
       id="path14-6"
       inkscape:connector-curvature="0"
       sodipodi:nodetypes="cc" />
    <path
       style="fill:none;stroke:#be5d01;stroke-width:1.16499996;stroke-linecap:butt;stroke-linejoin:miter;stroke-miterlimit:4;stroke-dasharray:none;stroke-opacity:0.82156863"
       d="m 139.56069,169.3381 c 13.90714,0.45145 31.07671,0.49509 52.55618,0"
       id="path14-7"
       inkscape:connector-curvature="0"
       sodipodi:nodetypes="cc" />
    <path
       style="fill:none;stroke:#be5d01;stroke-width:1.16499996;stroke-linecap:butt;stroke-linejoin:miter;stroke-miterlimit:4;stroke-dasharray:none;stroke-opacity:0.82156863"
       d="m 140.27091,157.97461 c 13.90714,0.45145 31.07671,0.49509 52.55618,0"
       id="path14-5"
       inkscape:connector-curvature="0"
       sodipodi:nodetypes="cc" />
    <path
       style="fill:none;stroke:#be5d01;stroke-width:1.16499996;stroke-linecap:butt;stroke-linejoin:miter;stroke-miterlimit:4;stroke-dasharray:1.165, 1.165;stroke-dashoffset:0;stroke-opacity:0.82156863"
       d="m 139.20558,136.66805 c 13.90714,0.45145 31.07671,0.49509 52.55618,0"
       id="path14-35"
       inkscape:connector-curvature="0"
       sodipodi:nodetypes="cc" />
    <path
       style="fill:none;stroke:#be5d01;stroke-width:1.16499996;stroke-linecap:butt;stroke-linejoin:miter;stroke-miterlimit:4;stroke-dasharray:1.165, 1.165;stroke-dashoffset:0;stroke-opacity:0.82156863"
       d="m 140.98113,147.67644 c 13.90714,0.45145 31.07671,0.49509 52.55618,0"
       id="path14-62"
       inkscape:connector-curvature="0"
       sodipodi:nodetypes="cc" />
    <path
       style="fill:none;stroke:#be5d01;stroke-width:1.16499996;stroke-linecap:butt;stroke-linejoin:miter;stroke-miterlimit:4;stroke-dasharray:none;stroke-opacity:0.82156863"
       d="m -5.4978197,102.84394 c 13.9071403,0.45145 31.0767107,0.49509 52.5561807,0"
       id="path14-9"
       inkscape:connector-curvature="0"
       sodipodi:nodetypes="cc" />
    <path
       style="fill:none;stroke:#be5d01;stroke-width:1.16499996;stroke-linecap:butt;stroke-linejoin:miter;stroke-miterlimit:4;stroke-dasharray:none;stroke-opacity:0.82156863"
       d="m -5.8501897,113.67467 c 13.9071403,0.45145 31.0767107,0.49509 52.5561817,0"
       id="path14-3-2"
       inkscape:connector-curvature="0"
       sodipodi:nodetypes="cc" />
    <path
       style="fill:none;stroke:#be5d01;stroke-width:1.16499996;stroke-linecap:butt;stroke-linejoin:miter;stroke-miterlimit:4;stroke-dasharray:1.16500001, 1.16500001;stroke-dashoffset:0;stroke-opacity:0.82156863"
       d="m -5.8501897,123.61773 c 13.9071403,0.45145 31.0767107,0.49509 52.5561817,0"
       id="path14-6-2"
       inkscape:connector-curvature="0"
       sodipodi:nodetypes="cc" />
    <path
       style="fill:none;stroke:#be5d01;stroke-width:1.16499996;stroke-linecap:butt;stroke-linejoin:miter;stroke-miterlimit:4;stroke-dasharray:none;stroke-opacity:0.82156863"
       d="m -6.5604097,168.36151 c 13.9071403,0.45144 31.0767097,0.49508 52.5561807,0"
       id="path14-7-8"
       inkscape:connector-curvature="0"
       sodipodi:nodetypes="cc" />
    <path
       style="fill:none;stroke:#be5d01;stroke-width:1.16499996;stroke-linecap:butt;stroke-linejoin:miter;stroke-miterlimit:4;stroke-dasharray:none;stroke-opacity:0.82156863"
       d="m -5.8501897,156.99801 c 13.9071403,0.45145 31.0767107,0.49509 52.5561817,0"
       id="path14-5-9"
       inkscape:connector-curvature="0"
       sodipodi:nodetypes="cc" />
    <path
       style="fill:none;stroke:#be5d01;stroke-width:1.16499996;stroke-linecap:butt;stroke-linejoin:miter;stroke-miterlimit:4;stroke-dasharray:1.16500001, 1.16500001;stroke-dashoffset:0;stroke-opacity:0.82156863"
       d="m -6.9155197,135.69145 c 13.9071403,0.45145 31.0767097,0.49509 52.5561797,0"
       id="path14-35-7"
       inkscape:connector-curvature="0"
       sodipodi:nodetypes="cc" />
    <path
       style="fill:none;stroke:#be5d01;stroke-width:1.16499996;stroke-linecap:butt;stroke-linejoin:miter;stroke-miterlimit:4;stroke-dasharray:1.16500001, 1.16500001;stroke-dashoffset:0;stroke-opacity:0.82156863"
       d="m -5.1399697,146.69984 c 13.9071403,0.45145 31.0767097,0.49509 52.5561797,0"
       id="path14-62-3"
       inkscape:connector-curvature="0"
       sodipodi:nodetypes="cc" />
    <text
       xml:space="preserve"
       style="font-style:normal;font-weight:normal;font-size:10.58333302px;line-height:1.25;font-family:sans-serif;letter-spacing:0px;word-spacing:0px;fill:#000000;fill-opacity:1;stroke:none;stroke-width:0.26458332"
       x="78.834259"
       y="129.03329"
       id="text966"><tspan
         sodipodi:role="line"
         id="tspan964"
         x="78.834259"
         y="138.39706"
         style="stroke-width:0.26458332"></tspan></text>
    <path
       style="opacity:1;fill:#000000;fill-opacity:1;fill-rule:nonzero;stroke:#0106be;stroke-width:1.16499996;stroke-linejoin:round;stroke-miterlimit:4;stroke-dasharray:none;stroke-dashoffset:0;stroke-opacity:0.82156863"
       id="path972"
       d="m 76.70607,119.80085 c 0.580271,-0.99181 1.334289,-1.85512 2.104581,-2.70115 0.515265,-0.59755 1.011203,-1.21153 1.496065,-1.83391 1.426308,-1.43439 1.345364,0.50328 1.399516,1.25865 -0.01871,1.98291 -0.287366,3.95465 -0.586097,5.91175 -0.405598,2.65227 -0.852688,5.29892 -1.327531,7.93977 -0.601022,2.83165 -1.100465,5.68072 -1.565391,8.53732 -0.445495,2.46568 -0.593053,4.9605 -0.326882,7.45128 0.266263,1.69511 0.74155,2.79665 2.206902,3.7202 1.594387,0.65849 2.917193,0.23385 4.408083,-0.44925 1.792272,-1.13711 3.289247,-2.64857 4.745784,-4.1761 2.053203,-2.17092 3.857032,-4.55795 5.655579,-6.93885 1.877817,-2.50435 3.572553,-5.13457 5.217861,-7.7949 1.41788,-2.44012 2.92313,-4.82789 4.36525,-7.25322 1.16718,-1.88418 2.1725,-3.85581 2.99532,-5.91254 0.44815,-1.07331 0.80079,-2.18128 0.99034,-3.32922 0.0125,-0.0992 0.0263,-0.1982 0.0374,-0.29754 0.008,-0.075 0.0146,-0.15012 0.0211,-0.22525 0.004,-0.0481 -0.0408,-0.12638 0.004,-0.1448 1.02516,-0.42297 1.05002,-0.64784 0.81568,-0.10149 -0.66282,1.55299 -1.1675,3.16837 -1.70955,4.76627 -0.98544,3.00868 -1.87859,6.04474 -2.58268,9.13173 -0.75478,3.265 -1.12467,6.59588 -1.47148,9.92299 -0.24029,2.85277 -0.31236,5.71197 0.0914,8.54996 0.3173,1.42983 0.84905,2.92494 2.08609,3.81713 0.20061,0.14469 0.42543,0.25245 0.63815,0.37867 1.36108,0.54938 2.75572,0.41465 4.14987,0.10524 0,0 -0.80253,0.60959 -0.80253,0.60959 v 0 c -1.41666,0.29809 -2.83262,0.4206 -4.20349,-0.16101 -0.21566,-0.13142 -0.4437,-0.2444 -0.64699,-0.39425 -1.24659,-0.91892 -1.78057,-2.43791 -2.10003,-3.89198 -0.39497,-2.85091 -0.31534,-5.72071 -0.075,-8.58507 0.34516,-3.33057 0.71304,-6.66526 1.46725,-9.93376 0.69803,-3.08435 1.58728,-6.11759 2.55274,-9.12845 0.53056,-1.58907 1.02226,-3.19486 1.6543,-4.74712 0.23117,-0.61226 0.011,-0.19945 1.10335,-0.78344 0.0368,-0.0197 -0.0249,0.0802 -0.0294,0.12171 -0.008,0.0766 -0.0147,0.15349 -0.0238,0.23003 -0.0121,0.10113 -0.0266,0.20196 -0.0399,0.30294 -0.19196,1.15992 -0.55384,2.27868 -1.00787,3.36237 -0.83228,2.06367 -1.83995,4.04541 -3.0134,5.93766 -1.44428,2.42833 -2.95868,4.81487 -4.37578,7.25978 -1.647762,2.66143 -3.340698,5.29547 -5.216475,7.80413 -1.797465,2.38008 -3.593457,4.77148 -5.642014,6.94509 -1.913954,2.01982 -3.909137,3.94336 -6.440858,5.18052 -1.519923,0.67713 -2.878376,1.07914 -4.481089,0.37729 -1.478765,-0.95959 -1.967426,-2.08238 -2.230131,-3.81167 -0.262805,-2.50205 -0.114062,-5.00881 0.335026,-7.48501 0.466323,-2.85631 0.960641,-5.70642 1.562814,-8.53782 0.473644,-2.63835 0.916284,-5.28305 1.319713,-7.93294 0.292275,-1.94445 0.550524,-3.90353 0.56003,-5.87304 -0.03105,-0.3907 -0.0404,-0.63701 -0.104687,-1.01303 -0.01987,-0.11619 -0.04336,-0.23208 -0.07561,-0.34546 -0.02267,-0.0797 -0.144063,-0.17054 -0.08874,-0.23225 0.230651,-0.25724 0.562991,-0.40075 0.84065,-0.60638 0.027,-0.02 -0.0587,0.0327 -0.08805,0.049 -0.496258,0.62464 -0.9998,1.24363 -1.516944,1.85112 -0.766987,0.8356 -1.525645,1.68385 -2.092097,2.67312 0,0 -0.96016,0.42556 -0.96016,0.42556 z"
       inkscape:connector-curvature="0" />
    <path
       style="opacity:1;fill:#000000;fill-opacity:1;fill-rule:nonzero;stroke:#0106be;stroke-width:1.16499996;stroke-linejoin:round;stroke-miterlimit:4;stroke-dasharray:none;stroke-dashoffset:0;stroke-opacity:0.82156863"
       id="path1000"
       d="m -8.4865545,91.458729 c 0.6475047,-0.477801 1.1857699,-1.083699 1.6072297,-1.766443 0.197513,-0.371002 0.4064963,-0.775674 0.2844668,-1.198237 -0.034595,-0.0978 -0.1168591,-0.235075 -0.2336827,-0.257334 -0.087067,-0.01659 -0.3223445,0.147553 -0.2425044,0.109061 0.2493211,-0.120192 0.4900375,-0.257476 0.7350562,-0.386215 -0.6300777,0.554929 -0.9030684,1.338128 -1.1095702,2.126644 -0.3135315,1.022665 -0.4636486,2.078607 -0.5533559,3.141041 -0.049254,0.683861 -0.06193,1.369666 -0.060572,2.055082 0.033758,0.280369 -0.040707,0.481677 -0.2305071,0.684951 -0.6155246,0.603575 -1.2674894,0.597474 -1.9887139,0.813586 -0.340559,0.10314 -0.690175,0.198405 -1.045414,0.233209 -0.874934,0.184533 0.304643,-0.60469 0.828331,-0.604319 0.5324306,-0.07007 1.0618989,-0.194943 1.5996113,-0.260863 0.6978925,-0.07444 1.4002586,-0.08292 2.1013238,-0.09301 0.3002997,-0.04647 0.5968214,-0.113155 0.8948848,-0.171712 0,0 -0.834486,0.631467 -0.834486,0.631467 v 0 c -0.3005392,0.05947 -0.6001425,0.128585 -0.9058968,0.156203 -0.6984598,0.008 -1.3982862,0.02138 -2.0929005,0.101647 -0.5416906,0.07221 -1.0737666,0.21385 -1.6163056,0.256829 -0.668339,0.0031 0.524549,-0.758616 0.873059,-0.647999 0.349263,-0.0516 0.6934994,-0.13598 1.0297986,-0.24315 0.2266373,-0.06565 0.4404645,-0.105272 0.6716535,-0.145706 0.058864,-0.01029 0.2231474,-0.07591 0.1744633,-0.04125 -0.2929662,0.208537 -1.1072849,0.649364 -0.6700491,0.411562 0.2208345,-0.141938 0.2960164,-0.349909 0.2734869,-0.60407 0.00588,-0.690642 0.024331,-1.381434 0.072524,-2.07056 0.09006,-1.066694 0.2316067,-2.129452 0.5464661,-3.156559 0.1955912,-0.797425 0.4555054,-1.596183 1.0670985,-2.177825 0.3821694,-0.240115 1.3057529,-1.188521 1.6423775,-0.367077 0.1403887,0.454485 -0.035884,0.874405 -0.2564525,1.281948 -0.408514,0.693293 -0.9456287,1.307507 -1.5835219,1.800207 0,0 -0.9778987,0.388895 -0.9778987,0.388895 z"
       inkscape:connector-curvature="0" />
    <path
       style="opacity:1;fill:#000000;fill-opacity:1;fill-rule:nonzero;stroke:#0106be;stroke-width:1.16499996;stroke-linejoin:round;stroke-miterlimit:4;stroke-dasharray:none;stroke-dashoffset:0;stroke-opacity:0.82156863"
       id="path1002"
       d="m -7.807899,89.186746 c -0.3858996,0.36567 -0.7888515,0.713309 -1.1778888,1.076074 -0.3045838,0.281038 -0.6736392,0.486172 -0.9597146,0.786783 -0.3503446,0.560335 -0.6833896,0.61395 -1.3633376,0.99708 -0.04448,0.02252 -0.08636,0.03305 -0.133554,0.0314 0,0 0.852917,-0.637244 0.852917,-0.637244 v 0 c 0.03474,-0.0181 0.07162,-0.04097 0.110137,-0.05352 -1.515576,0.885542 -0.669775,0.520891 -0.437526,0.07387 0.253661,-0.332502 0.649434,-0.52288 0.9597798,-0.79819 0.3760264,-0.373698 0.7941646,-0.704421 1.1750945,-1.072769 0,0 0.9740927,-0.403482 0.9740927,-0.403482 z"
       inkscape:connector-curvature="0" />
    <path
       style="opacity:1;fill:#000000;fill-opacity:1;fill-rule:nonzero;stroke:#0106be;stroke-width:1.16499996;stroke-linejoin:round;stroke-miterlimit:4;stroke-dasharray:none;stroke-dashoffset:0;stroke-opacity:0.82156863"
       id="path1004"
       d="m -12.898822,105.66565 c -0.04537,-0.50435 0.08296,-0.98024 0.208849,-1.46194 0.246088,-0.59366 0.899705,-0.96911 1.527597,-1.04186 0.268623,-0.0349 0.482499,-0.0415 0.71122,0.11078 0.256483,0.35103 0.239045,0.83139 0.258827,1.24905 -0.07749,0.71041 -0.250732,1.40584 -0.480617,2.08127 -0.228963,0.65858 -0.545665,1.28559 -0.875877,1.89884 -0.209848,0.34772 -0.293511,0.74643 -0.481734,1.10346 -0.07376,0.13354 -0.157629,0.26095 -0.246211,0.38499 -0.0436,0.0393 -0.03616,0.0709 -0.03603,0.14183 2.4e-4,0.0604 0.0014,0.12076 0.0026,0.18113 6.88e-4,0.004 -3.97e-4,0.008 -6.08e-4,0.0123 -0.329587,0.18293 -0.659174,0.36586 -0.988761,0.5488 -0.08436,-0.002 -0.168815,-0.001 -0.252887,0.006 -0.340784,0.10945 0.671605,-0.62547 1.042697,-0.62342 0.468663,-0.0738 0.941037,-0.28633 1.380809,-0.47242 0.698731,-0.29946 1.3863776,-0.61268 2.1241627,-0.80566 0.2862879,-0.0626 0.5741506,-0.13222 0.8673933,-0.15319 0.063923,0.0127 0.085979,0.009 0.1531374,0.01 0.097077,0.0913 0.05336,0.0444 0.1324303,0.13948 0,0 -0.9081145,0.54783 -0.9081145,0.54783 v 0 c -0.055326,-0.06 -0.024873,-0.0412 -0.085088,-0.0654 -0.083927,-0.004 -0.082521,-0.0198 -0.1462398,7.9e-4 -0.2845506,0.031 -0.5654534,0.0897 -0.843158,0.15801 -0.7309464,0.20443 -1.4157154,0.51864 -2.1129224,0.814 -0.451845,0.18389 -0.927778,0.41517 -1.418561,0.44896 -0.514213,0.001 0.315793,-0.6492 0.671264,-0.62852 0.08548,-7e-5 0.170992,5.3e-4 0.256333,0.006 -0.21747,0.14836 -0.818997,0.89216 -0.819899,0.54159 -5.6e-5,-0.0611 -1.2e-4,-0.12211 -4.5e-4,-0.18317 -4.5e-4,-0.0654 -0.03921,-0.17594 0.0031,-0.20743 0.09949,-0.11435 0.183221,-0.24116 0.2618,-0.37066 0.203233,-0.35365 0.284106,-0.75195 0.48941,-1.10572 0.328127,-0.61236 0.658983,-1.22999 0.889421,-1.88681 0.234646,-0.66264 0.392806,-1.34481 0.489043,-2.04121 -0.01655,-0.37823 0.01143,-0.83571 -0.214789,-1.15642 -0.207976,-0.11835 -0.436104,-0.0781 -0.6658,-0.0489 -0.08374,0.0195 -0.318495,0.12417 -0.245749,0.0783 1.398956,-0.88131 0.732048,-0.53301 0.512269,-0.12539 -0.128072,0.47365 -0.275135,0.93814 -0.218957,1.4364 0,0 -0.939993,0.47895 -0.939993,0.47895 z"
       inkscape:connector-curvature="0" />
    <path
       style="opacity:1;fill:#000000;fill-opacity:1;fill-rule:nonzero;stroke:#0106be;stroke-width:1.16499996;stroke-linejoin:round;stroke-miterlimit:4;stroke-dasharray:none;stroke-dashoffset:0;stroke-opacity:0.82156863"
       id="path1006"
       d="m -14.08296,124.06945 c -0.398561,0.10132 -0.804313,0.17205 -1.208816,0.24515 0,0 0.84142,-0.63438 0.84142,-0.63438 v 0 c 0.404083,-0.0716 0.808622,-0.14462 1.205192,-0.2514 0,0 -0.837796,0.64063 -0.837796,0.64063 z"
       inkscape:connector-curvature="0" />
    <path
       style="opacity:1;fill:#000000;fill-opacity:1;fill-rule:nonzero;stroke:#0106be;stroke-width:1.16499996;stroke-linejoin:round;stroke-miterlimit:4;stroke-dasharray:none;stroke-dashoffset:0;stroke-opacity:0.82156863"
       id="path1008"
       d="m -14.371775,131.42827 c 0.233346,0.51718 0.400207,1.05887 0.550582,1.60481 0.317868,0.555 -0.647934,1.31416 -1.055955,0.57673 -0.06665,-0.2026 -0.03781,-0.10138 -0.08711,-0.30349 0,0 0.9297,-0.50119 0.9297,-0.50119 v 0 c 0.04292,0.18836 0.01796,0.0959 0.07454,0.27737 0.03274,0.0591 0.164745,0.12502 0.112893,0.16834 -0.942132,0.78698 -0.764103,0.83018 -0.900232,0.28478 -0.1381,-0.54211 -0.298008,-1.07975 -0.540138,-1.58595 0,0 0.915722,-0.5214 0.915722,-0.5214 z"
       inkscape:connector-curvature="0" />
    <path
       style="opacity:1;fill:#000000;fill-opacity:1;fill-rule:nonzero;stroke:#0106be;stroke-width:1.16499996;stroke-linejoin:round;stroke-miterlimit:4;stroke-dasharray:none;stroke-dashoffset:0;stroke-opacity:0.82156863"
       id="path1010"
       d="m -15.191709,142.82465 c -0.301442,1.12621 0.08156,0.82724 -1.288288,1.36395 -0.181565,-0.1979 -0.207758,-0.41708 -0.180709,-0.67181 0,0 0.947774,-0.46553 0.947774,-0.46553 v 0 c -0.04315,0.22171 -0.03998,0.40256 0.127691,0.57623 -0.270149,0.19978 -0.530425,0.41366 -0.810447,0.59936 -0.02642,0.0175 0.02852,-0.0569 0.03807,-0.0872 0.08882,-0.28112 0.133636,-0.57614 0.214754,-0.8594 0,0 0.951155,-0.45564 0.951155,-0.45564 z"
       inkscape:connector-curvature="0" />
    <path
       style="opacity:1;fill:#000000;fill-opacity:1;fill-rule:nonzero;stroke:#0106be;stroke-width:1.16499996;stroke-linejoin:round;stroke-miterlimit:4;stroke-dasharray:none;stroke-dashoffset:0;stroke-opacity:0.82156863"
       id="path1012"
       d="m -17.995687,153.11116 c -0.160315,0.90562 -0.242478,1.82038 -0.29949,2.73748 -0.04171,0.73374 -0.05298,1.46858 -0.05814,2.20331 0.0062,0.74361 0.110038,0.42865 -0.940297,0.85681 0.02975,-0.60757 0.248634,-1.20039 0.46161,-1.7653 0.28021,-0.74196 0.601835,-1.47041 1.00774,-2.15257 0.267593,-0.50077 0.618834,-0.95787 1.060303,-1.31618 0.371298,-0.16796 1.156651,-0.97139 1.632994,-0.75057 0.387194,0.47867 0.259787,1.1944 0.208364,1.75973 -0.111978,0.99477 -0.174503,1.99377 -0.212248,2.9938 -0.0185,0.58152 -0.02524,1.16338 -0.02157,1.74516 3.97e-4,0.0364 7.94e-4,0.0728 0.0012,0.10915 7.41e-4,0.01 0.0015,0.0197 0.0022,0.0296 0,0 -0.947136,0.48356 -0.947136,0.48356 v 0 c 5.56e-4,-0.0109 0.0011,-0.0217 0.0017,-0.0326 3.97e-4,-0.0369 7.68e-4,-0.0738 0.0012,-0.11072 0.007,-0.58563 0.01529,-1.17126 0.03581,-1.75661 0.04001,-1.00157 0.103625,-2.00227 0.21115,-2.99909 0.04329,-0.49358 0.189972,-1.20569 -0.156065,-1.626 -0.166628,-0.0184 -0.497931,0.18711 -0.367134,0.10843 0.193946,-0.11668 1.154667,-0.6764 0.586095,-0.34284 -0.459766,0.32481 -0.81444,0.79213 -1.082597,1.28271 -0.415785,0.67288 -0.738262,1.39805 -1.018201,2.13681 -0.213693,0.54873 -0.428756,1.13243 -0.4616,1.72322 -1.144433,0.71988 -0.933712,0.87217 -0.941411,0.10016 0.0092,-0.73938 0.03883,-1.47855 0.07353,-2.2171 0.05535,-0.91063 0.123796,-1.82186 0.282015,-2.72146 0,0 0.939992,-0.47896 0.939992,-0.47896 z"
       inkscape:connector-curvature="0" />
    <path
       style="opacity:1;fill:#000000;fill-opacity:1;fill-rule:nonzero;stroke:#0106be;stroke-width:1.16499996;stroke-linejoin:round;stroke-miterlimit:4;stroke-dasharray:none;stroke-dashoffset:0;stroke-opacity:0.82156863"
       id="path1014"
       d="m -11.832169,155.71155 c 0.684008,0.005 1.368045,0.004 2.0520661,0.003 0.3568726,-0.001 0.1905743,0.0207 0.5004334,-0.0523 0,0 -0.8388975,0.63397 -0.8388975,0.63397 v 0 c -0.319689,0.0472 -0.150815,0.0338 -0.507155,0.0327 -0.686647,-7.9e-4 -1.373308,-0.003 -2.059942,0.003 0,0 0.853495,-0.6201 0.853495,-0.6201 z"
       inkscape:connector-curvature="0" />
    <path
       style="opacity:1;fill:#000000;fill-opacity:1;fill-rule:nonzero;stroke:#0106be;stroke-width:1.16499996;stroke-linejoin:round;stroke-miterlimit:4;stroke-dasharray:none;stroke-dashoffset:0;stroke-opacity:0.82156863"
       id="path1016"
       d="m -5.6037577,151.34727 c -0.1657694,0.92142 -0.3630515,1.83615 -0.4988507,2.76299 -0.1029171,0.97279 -0.303721,1.93087 -0.4320204,2.90047 -0.050552,0.36561 -0.079379,0.73356 -0.09516,1.10214 0,0 -0.9421601,0.47543 -0.9421601,0.47543 v 0 c 0.013219,-0.37381 0.049254,-0.74684 0.1024496,-1.11706 0.1357778,-0.97064 0.3376239,-1.93083 0.4402714,-2.90555 0.1333537,-0.92606 0.3350461,-1.83799 0.4743154,-2.76278 0,0 0.9511551,-0.45564 0.9511548,-0.45564 z"
       inkscape:connector-curvature="0" />
    <path
       style="opacity:1;fill:#000000;fill-opacity:1;fill-rule:nonzero;stroke:#0106be;stroke-width:1.16499996;stroke-linejoin:round;stroke-miterlimit:4;stroke-dasharray:none;stroke-dashoffset:0;stroke-opacity:0.82156863"
       id="path1018"
       d="m -16.576403,167.00349 c 0.0095,1.1722 -0.01516,2.3386 -0.112592,3.50681 -0.101203,1.06319 -0.171621,2.12889 -0.220898,3.19565 -0.003,0.0729 -0.0061,0.14578 -0.0089,0.21867 -0.0031,0.0809 -0.01633,0.16219 -0.0079,0.2427 0.0015,0.0145 0.02161,-0.0487 0.0081,-0.0431 -0.293305,0.12289 -0.557166,0.32284 -0.865129,0.40215 -0.06691,0.0172 0.04415,-0.13095 0.06623,-0.19642 0.338166,-1.11548 0.694481,-2.22825 1.101619,-3.32083 0.452936,-1.02268 0.959283,-2.03877 1.657117,-2.91796 0.685457,-0.67645 1.599171,-1.66643 2.638652,-1.49773 0.758317,0.49179 0.784252,1.66816 0.89146,2.47881 0.149415,1.31663 0.0086,2.64478 -0.08079,3.96136 -0.01513,0.36676 0.01894,0.71219 0.127504,1.06005 0,0 -0.919,0.50371 -0.919,0.50371 v 0 c -0.11229,-0.36218 -0.148542,-0.71944 -0.132765,-1.10133 0.103345,-1.31043 0.244537,-2.63462 0.09769,-3.94622 -0.09441,-0.70336 -0.137375,-1.96246 -0.840433,-2.34916 -0.396565,-0.0257 -1.12173,0.30397 0.09431,-0.30649 0.10619,-0.0533 -0.196747,0.1335 -0.291171,0.20563 -0.35574,0.27173 -0.31443,0.25464 -0.631394,0.58466 -0.717231,0.86069 -1.217457,1.88024 -1.683317,2.89315 -0.40949,1.08227 -0.761109,2.18919 -1.078675,3.30134 -0.197939,0.79643 -1.387021,1.3173 -1.07822,0.29695 0.06795,-1.07056 0.138666,-2.14116 0.241156,-3.20907 0.09671,-1.16113 0.128136,-2.32041 0.08963,-3.48557 0,0 0.937687,-0.47778 0.937687,-0.47778 z"
       inkscape:connector-curvature="0" />
    <path
       style="opacity:1;fill:#000000;fill-opacity:1;fill-rule:nonzero;stroke:#0106be;stroke-width:1.16499996;stroke-linejoin:round;stroke-miterlimit:4;stroke-dasharray:none;stroke-dashoffset:0;stroke-opacity:0.82156863"
       id="path1020"
       d="m 172.69801,93.097693 c -0.0265,0.996262 -0.25059,1.980594 -0.46894,2.949747 -0.27554,1.199422 -0.59458,2.385316 -0.80563,3.598846 0.0673,0.214797 -0.26338,0.733234 -0.0996,0.936354 0.0455,0.0564 0.13776,-0.0485 0.19929,-0.0868 -0.23013,0.11435 -0.43847,0.29238 -0.6904,0.34305 -0.11987,0.0241 0.17932,-0.16666 0.26188,-0.25686 0.10367,-0.11324 0.20221,-0.23132 0.29614,-0.35276 0.37142,-0.480199 0.73064,-0.971483 1.10142,-1.452731 0.72158,-0.885047 1.27577,-1.888244 1.90144,-2.840265 0.3036,-0.448723 1.21871,-1.5406 1.76397,-1.130046 0.40836,0.748655 0.24729,1.703229 0.14959,2.515635 -0.10096,0.949449 -0.33331,1.873062 -0.57594,2.793917 -0.0668,0.25963 -0.11916,0.52257 -0.16421,0.78674 0,0 -0.95058,0.46367 -0.95058,0.46367 v 0 c 0.0487,-0.26854 0.10413,-0.53584 0.17086,-0.80054 0.25569,-0.916692 0.49335,-1.838382 0.59602,-2.787095 0.0944,-0.763794 0.25818,-1.689942 -0.11401,-2.398681 -0.38574,-0.157139 -0.1294,-0.02439 0.72917,-0.534723 0.0443,-0.02633 -0.0871,0.05531 -0.12804,0.08651 -0.21252,0.161771 -0.39066,0.354388 -0.524,0.587512 -0.63792,0.950796 -1.19249,1.960026 -1.91249,2.852767 -0.25674,0.33569 -0.52448,0.662988 -0.77638,1.002321 -0.25081,0.337854 -0.49664,0.822249 -0.85255,1.072229 -0.3587,0.25194 -0.74348,0.46453 -1.11521,0.69679 -0.58609,0.0718 -0.21812,-0.71829 -0.19793,-1.04283 0.22061,-1.215322 0.53514,-2.40583 0.81381,-3.608068 0.21593,-0.956574 0.43775,-1.93213 0.45232,-2.915771 0,0 0.94,-0.478949 0.94,-0.478949 z"
       inkscape:connector-curvature="0" />
    <path
       style="opacity:1;fill:#000000;fill-opacity:1;fill-rule:nonzero;stroke:#0106be;stroke-width:1.16499996;stroke-linejoin:round;stroke-miterlimit:4;stroke-dasharray:none;stroke-dashoffset:0;stroke-opacity:0.82156863"
       id="path1022"
       d="m 181.38243,97.778757 c 0.95282,-0.15371 1.91601,-0.215281 2.87893,-0.261165 0.73341,-0.11335 1.46812,-0.22074 2.17563,-0.448265 0.31694,-0.106104 0.64012,-0.183028 0.96786,-0.245917 0,0 -0.83947,0.635259 -0.83947,0.635259 v 0 c -0.32341,0.06562 -0.64196,0.148508 -0.9559,0.250918 -0.71065,0.214042 -1.44712,0.324622 -2.18208,0.420084 -0.96507,0.04713 -1.93186,0.109887 -2.88379,0.284197 0,0 0.83882,-0.635111 0.83882,-0.635111 z"
       inkscape:connector-curvature="0" />
    <path
       style="opacity:1;fill:#000000;fill-opacity:1;fill-rule:nonzero;stroke:#0106be;stroke-width:1.16499996;stroke-linejoin:round;stroke-miterlimit:4;stroke-dasharray:none;stroke-dashoffset:0;stroke-opacity:0.82156863"
       id="path1024"
       d="m 185.44505,94.174674 c -0.28875,0.767622 -0.58523,1.524791 -0.78526,2.321589 -0.16708,0.905944 -0.35704,1.807207 -0.60134,2.695432 -0.0814,0.553942 -0.30527,1.045005 -0.53633,1.545875 -0.024,0.13397 -0.0248,0.0719 -0.008,0.18608 0,0 -0.9346,0.49924 -0.9346,0.49924 v 0 c -0.0351,-0.15281 -0.0265,-0.0705 -0.0174,-0.24761 0.2316,-0.50043 0.48641,-0.9775 0.55711,-1.536746 0.24732,-0.887074 0.44868,-1.786057 0.60485,-2.69395 0.19388,-0.794452 0.47585,-1.552435 0.76941,-2.314266 0,0 0.95116,-0.455644 0.95116,-0.455644 z"
       inkscape:connector-curvature="0" />
    <path
       style="opacity:1;fill:#000000;fill-opacity:1;fill-rule:nonzero;stroke:#0106be;stroke-width:1.16499996;stroke-linejoin:round;stroke-miterlimit:4;stroke-dasharray:none;stroke-dashoffset:0;stroke-opacity:0.82156863"
       id="path1026"
       d="m 193.05805,94.935123 c 0.45918,-0.109069 0.93799,-0.217024 1.36833,-0.418433 0.11931,-0.05584 0.46517,-0.246501 0.3446,-0.193445 -0.19221,0.08458 -0.37343,0.192196 -0.56014,0.288293 0.46989,-0.33618 0.88273,-0.726898 1.1839,-1.220727 0.15157,-0.317764 0.14821,-0.245014 -0.0337,-0.145068 0.26706,-0.145198 0.51727,-0.326975 0.80119,-0.435589 0.0728,-0.02786 -0.0981,0.121322 -0.14413,0.184222 -0.063,0.08607 -0.12522,0.172889 -0.1831,0.262514 -0.22475,0.34803 -0.40347,0.716277 -0.57762,1.091181 -0.44502,1.058873 -0.82484,2.144961 -1.23039,3.219868 -0.30128,0.863987 -0.60891,1.726113 -0.89482,2.595531 -0.27874,1.04376 0.0291,0.69814 -1.22305,1.44387 -0.35694,0.0691 -0.72678,0.05 -1.08904,0.0479 -0.17812,-0.001 -0.35625,-0.003 -0.53434,-0.008 -0.006,-2.3e-4 -0.0118,-5.3e-4 -0.0177,-7.9e-4 0.32564,-0.20763 0.63468,-0.44396 0.97694,-0.6229 0.14443,-0.0755 0.32636,0.0141 0.48894,0.003 0.11851,-0.008 0.65986,-0.0902 0.75972,-0.10489 0.77199,-0.0516 1.50619,-0.28837 2.25752,-0.44922 0.23656,-0.0521 0.47451,-0.092 0.71463,-0.1223 0,0 -0.84301,0.62998 -0.84301,0.62998 v 0 c -0.23598,0.0341 -0.47091,0.0735 -0.7039,0.12481 -0.74948,0.16723 -1.4883,0.38066 -2.25808,0.44035 -0.35491,0.0509 -0.69702,0.0963 -1.05551,0.0989 -0.61012,0.004 0.0267,-0.11854 0.54292,-0.61898 0.17477,0.006 0.3496,0.01 0.52446,0.0113 0.3522,0.002 0.72639,0.0307 1.06195,-0.0909 -0.26343,0.16277 -0.52297,0.33203 -0.7903,0.48833 -0.0261,0.0152 0.0516,-0.0365 0.0643,-0.0639 0.10546,-0.22794 0.0463,-0.53816 0.17604,-0.76173 0.29689,-0.871465 0.60645,-1.738279 0.9101,-2.607182 0.40883,-1.073009 0.78381,-2.159693 1.21863,-3.221974 0.12086,-0.268951 0.64379,-1.403564 0.87077,-1.568648 0.31908,-0.232072 0.67059,-0.415907 1.00588,-0.623859 0.27765,-0.10751 0.31813,0.198906 0.1681,0.376828 -0.29756,0.510355 -0.69901,0.920205 -1.17868,1.26701 -0.95665,0.584838 -1.83824,1.163286 -2.95922,1.345256 0,0 0.8378,-0.640628 0.8378,-0.640628 z"
       inkscape:connector-curvature="0" />
    <path
       style="opacity:1;fill:#000000;fill-opacity:1;fill-rule:nonzero;stroke:#0106be;stroke-width:1.16499996;stroke-linejoin:round;stroke-miterlimit:4;stroke-dasharray:none;stroke-dashoffset:0;stroke-opacity:0.82156863"
       id="path1028"
       d="m 172.9782,108.03458 c -0.48177,0.86276 -0.91276,1.74825 -1.30847,2.65343 -0.34655,0.91301 -0.64882,1.8468 -0.91361,2.78747 -0.24868,0.92982 0.0576,0.63211 -1.13352,1.11267 0.18375,-0.74073 0.51091,-1.44185 0.85326,-2.12202 0.43308,-0.87239 0.93878,-1.66758 1.65091,-2.33374 0.65451,-0.52375 1.41252,-1.27527 2.29659,-1.2196 0.63263,0.085 0.82514,0.62069 0.96243,1.16778 0.0902,0.94592 -0.14922,1.86911 -0.4448,2.75874 -0.13521,0.45358 -0.32043,0.89435 -0.43243,1.35479 -0.0175,0.0747 -0.0223,0.15122 -0.03,0.22717 0,0 -0.95667,0.46487 -0.95667,0.46487 v 0 c 0.0118,-0.0756 0.026,-0.15514 0.0345,-0.23208 0.0897,-0.47196 0.32282,-0.91016 0.44435,-1.37386 0.30248,-0.86977 0.54182,-1.77335 0.46682,-2.70317 -0.12602,-0.51006 -0.2942,-1.00396 -0.89581,-1.04643 -0.46464,0.025 -0.8531,0.37834 0.25453,-0.33955 0.41969,-0.27201 -1.13255,0.64743 -0.73704,0.54737 -0.72226,0.65319 -1.24288,1.42716 -1.67206,2.30221 -0.33681,0.66714 -0.63426,1.3446 -0.85373,2.05958 -1.24007,0.74367 -0.97488,0.7439 -0.75019,-0.17685 0.27282,-0.94514 0.58016,-1.88326 0.91986,-2.80554 0.39029,-0.90238 0.81456,-1.78565 1.28502,-2.64888 0,0 0.96007,-0.43436 0.96007,-0.43436 z"
       inkscape:connector-curvature="0" />
    <path
       style="opacity:1;fill:#000000;fill-opacity:1;fill-rule:nonzero;stroke:#0106be;stroke-width:1.16499996;stroke-linejoin:round;stroke-miterlimit:4;stroke-dasharray:none;stroke-dashoffset:0;stroke-opacity:0.82156863"
       id="path1030"
       d="m 181.73754,109.85247 c 0.94595,-0.29415 1.92827,-0.43827 2.89276,-0.66005 0.75743,-0.17955 1.52955,-0.28007 2.30487,-0.33748 0.15982,-0.0114 0.31987,-0.0184 0.47997,-0.0238 0,0 -0.8545,0.62499 -0.8545,0.62499 v 0 c -0.15658,0.005 -0.31312,0.0107 -0.46942,0.0216 -0.76848,0.0568 -1.53269,0.16279 -2.28318,0.34085 -0.97081,0.22072 -1.95748,0.37176 -2.90932,0.66904 0,0 0.83882,-0.63511 0.83882,-0.63511 z"
       inkscape:connector-curvature="0" />
    <path
       style="opacity:1;fill:#000000;fill-opacity:1;fill-rule:nonzero;stroke:#0106be;stroke-width:1.16499996;stroke-linejoin:round;stroke-miterlimit:4;stroke-dasharray:none;stroke-dashoffset:0;stroke-opacity:0.82156863"
       id="path1032"
       d="m 185.08994,106.6035 c -0.2346,0.84821 -0.41984,1.7026 -0.54128,2.57447 -0.0402,0.77821 -0.18824,1.5375 -0.34576,2.29827 0.0385,0.22138 -0.24278,0.68075 -0.10731,0.88367 0,0 -0.91831,0.53141 -0.91831,0.53141 v 0 c -0.15105,-0.2673 0.087,-0.67094 0.0818,-0.95881 0.1655,-0.75987 0.32542,-1.51746 0.36094,-2.29731 0.11915,-0.8711 0.29847,-1.72565 0.51876,-2.57606 0,0 0.95116,-0.45564 0.95116,-0.45564 z"
       inkscape:connector-curvature="0" />
    <path
       style="opacity:1;fill:#000000;fill-opacity:1;fill-rule:nonzero;stroke:#0106be;stroke-width:1.16499996;stroke-linejoin:round;stroke-miterlimit:4;stroke-dasharray:none;stroke-dashoffset:0;stroke-opacity:0.82156863"
       id="path1034"
       d="m 193.13949,108.12912 c 0.54904,-0.85642 1.54971,-1.30855 2.39744,-1.79722 0.54953,-0.21302 0.77662,0.008 0.8955,0.53725 0.11859,0.81725 -0.16677,1.60433 -0.49259,2.33908 -0.4625,0.93691 -1.15219,1.7248 -1.85274,2.48876 -0.42133,0.45578 -0.81659,0.93148 -1.27334,1.35334 -0.14542,0.13254 -0.12465,0.0521 0.045,0.0565 0.27565,0.007 0.13857,0.005 0.44734,0.007 0.7834,-0.0394 1.55831,-0.19355 2.34119,-0.26832 0.73077,-0.10264 1.43887,-0.37442 2.18244,-0.34696 0,0 -0.8485,0.61432 -0.8485,0.61432 v 0 c -0.73682,0.003 -1.4391,0.26173 -2.16712,0.35053 -0.78754,0.0795 -1.56744,0.2422 -2.35803,0.26685 -0.14671,-0.001 -0.95522,0.0347 -0.61956,-0.28104 0.47138,-0.41539 0.87361,-0.89052 1.29692,-1.35265 0.70008,-0.75609 1.39285,-1.53337 1.86531,-2.45798 0.32527,-0.71092 0.61514,-1.47626 0.50784,-2.27244 -0.11531,-0.54835 -0.25922,-0.5849 -0.78317,-0.37725 1.55575,-0.92031 -0.47258,0.25963 -0.62384,0.70584 0,0 -0.96007,0.43436 -0.96007,0.43436 z"
       inkscape:connector-curvature="0" />
    <path
       style="opacity:1;fill:#000000;fill-opacity:1;fill-rule:nonzero;stroke:#0106be;stroke-width:1.16499996;stroke-linejoin:round;stroke-miterlimit:4;stroke-dasharray:none;stroke-dashoffset:0;stroke-opacity:0.82156863"
       id="path1036"
       d="m 165.68482,151.13101 c -0.0834,-0.52656 0.0401,-0.97631 0.41241,-1.35632 0.54992,-0.50537 1.21642,-0.91435 1.93808,-1.11826 0.40591,0.0632 0.38202,0.5087 0.35386,0.83228 -0.1154,0.82196 -0.57194,1.53129 -1.03355,2.20083 -0.42433,0.66399 -0.94887,1.25702 -1.38071,1.91556 -0.21238,0.30905 -0.48984,0.56007 -0.65722,0.89815 -0.12211,0.25707 0.19088,0.36566 0.38346,0.41072 0.63273,0.1413 1.25262,0.0266 1.87982,-0.0738 0.54667,-0.18699 1.07894,-0.38796 1.65157,-0.47635 0.0968,-0.01 0.1937,-0.0196 0.29055,-0.0293 0,0 -0.84071,0.62506 -0.84071,0.62506 v 0 c -0.0959,0.0115 -0.19189,0.023 -0.28784,0.0346 -0.56705,0.10193 -1.09451,0.31799 -1.64791,0.4726 -0.63825,0.10106 -1.27422,0.19716 -1.91454,0.0426 -0.23362,-0.0769 -0.59314,-0.26023 -0.47769,-0.56757 0.15903,-0.35427 0.4204,-0.61577 0.66258,-0.91561 0.42177,-0.67011 0.96559,-1.25465 1.38942,-1.92364 0.45887,-0.65168 0.91732,-1.34364 1.04191,-2.14725 0.0302,-0.22642 0.0996,-0.6869 -0.24891,-0.65361 -0.38419,0.12137 -0.84875,0.42766 0.39611,-0.32024 0.32817,-0.19716 -0.20668,0.11282 -0.36261,0.24039 -0.0578,0.0473 -0.10817,0.10305 -0.16225,0.15457 -0.39624,0.32513 -0.53006,0.74733 -0.45813,1.25293 0,0 -0.9277,0.50169 -0.9277,0.50169 z"
       inkscape:connector-curvature="0" />
    <path
       style="opacity:1;fill:#000000;fill-opacity:1;fill-rule:nonzero;stroke:#0106be;stroke-width:1.16499996;stroke-linejoin:round;stroke-miterlimit:4;stroke-dasharray:none;stroke-dashoffset:0;stroke-opacity:0.82156863"
       id="path1038"
       d="m 175.10885,150.29258 c -0.34082,0.83125 -0.46611,1.72842 -0.66023,2.60104 -0.14613,0.65956 -0.25785,1.32571 -0.31157,1.99916 -0.0637,0.0346 0.039,0.43519 -0.0197,0.46181 -1.01585,0.46106 -1.01492,0.684 -0.90523,0.19274 0.17707,-0.68707 0.6478,-1.24114 1.01043,-1.8369 0.50239,-0.78994 1.00552,-1.58929 1.59129,-2.32084 0.39556,-0.50746 0.80573,-1.00259 1.35712,-1.34285 0.73446,-0.44281 1.36305,-1.02383 1.97217,-0.2797 0.32591,0.63561 0.26544,1.37473 0.19358,2.06146 -0.0866,0.78124 -0.30865,1.53969 -0.47485,2.30683 -0.0569,0.28938 -0.10148,0.58163 -0.12363,0.87584 0.006,-0.002 0.011,-0.005 0.0165,-0.007 0,0 -0.90216,0.56037 -0.90216,0.56037 v 0 c -0.0214,-0.0262 -0.0429,-0.0525 -0.0643,-0.0787 0.0251,-0.30061 0.0746,-0.59876 0.12955,-0.89515 0.17426,-0.76398 0.39436,-1.52202 0.48855,-2.30046 0.0716,-0.65752 0.14135,-1.36847 -0.16636,-1.98058 -0.5647,-0.65718 -1.34588,0.18618 -0.0891,-0.64007 -0.56738,0.31999 -0.98722,0.79861 -1.38102,1.31286 -0.59939,0.71745 -1.0911,1.52505 -1.59925,2.308 -0.35063,0.58977 -0.82145,1.13233 -1.00621,1.80278 -0.23834,0.74264 -1.25503,1.17843 -0.96816,0.26929 0.0576,-0.68029 0.16993,-1.35291 0.31973,-2.01914 0.19603,-0.87576 0.32684,-1.76962 0.63271,-2.61631 0,0 0.96006,-0.43437 0.96006,-0.43437 z"
       inkscape:connector-curvature="0" />
    <path
       style="opacity:1;fill:#000000;fill-opacity:1;fill-rule:nonzero;stroke:#0106be;stroke-width:1.16499996;stroke-linejoin:round;stroke-miterlimit:4;stroke-dasharray:none;stroke-dashoffset:0;stroke-opacity:0.82156863"
       id="path1040"
       d="m 186.31097,152.81794 c 0.72712,-0.11979 1.43014,-0.33932 2.15329,-0.48051 0.51084,-0.12332 1.00341,-0.15229 1.51739,-0.0566 0,0 -0.85929,0.60203 -0.85929,0.60203 v 0 c -0.5035,-0.0809 -0.99074,-0.0305 -1.48824,0.083 -0.72454,0.14771 -1.4336,0.35849 -2.16095,0.49266 0,0 0.8378,-0.64063 0.8378,-0.64063 z"
       inkscape:connector-curvature="0" />
    <path
       style="opacity:1;fill:#000000;fill-opacity:1;fill-rule:nonzero;stroke:#0106be;stroke-width:1.16499996;stroke-linejoin:round;stroke-miterlimit:4;stroke-dasharray:none;stroke-dashoffset:0;stroke-opacity:0.82156863"
       id="path1042"
       d="m 198.50364,148.56392 c -0.68838,1.12041 -1.27565,2.29236 -1.80053,3.49652 -0.48547,1.04759 -0.92138,2.1182 -1.32442,3.20007 -0.0821,0.22252 -0.15917,0.44683 -0.23456,0.6717 0,0 -0.95562,0.44773 -0.95562,0.44773 v 0 c 0.0801,-0.22772 0.16154,-0.45496 0.24686,-0.68079 0.41231,-1.08529 0.84984,-2.16207 1.34198,-3.21381 0.519,-1.20103 1.09902,-2.3691 1.76613,-3.49587 0,0 0.96016,-0.42555 0.96016,-0.42555 z"
       inkscape:connector-curvature="0" />
    <path
       style="opacity:1;fill:#000000;fill-opacity:1;fill-rule:nonzero;stroke:#0106be;stroke-width:1.16499996;stroke-linejoin:round;stroke-miterlimit:4;stroke-dasharray:none;stroke-dashoffset:0;stroke-opacity:0.82156863"
       id="path1044"
       d="m 170.01936,162.82659 c 0.37012,-1.05269 1.2926,-1.39666 2.2238,-1.90029 0.48629,-0.10989 1.05767,-0.34356 1.55746,-0.20013 0.44171,0.39983 0.14754,1.06159 -0.0284,1.52612 -0.43817,0.94953 -1.05279,1.79511 -1.70801,2.6038 -0.55898,0.61398 -1.04323,1.29472 -1.60339,1.90669 -0.20111,0.22232 -0.38893,0.45698 -0.5574,0.70502 -0.0171,0.0832 -0.0379,-0.0168 -0.0283,-0.0251 0.0922,-0.0794 0.64956,-0.002 0.74631,-0.002 0.99447,0.0412 1.97942,-0.11821 2.96573,-0.22121 0.60444,-0.0849 1.17677,-0.30843 1.76926,-0.44045 0,0 -0.83854,0.63969 -0.83854,0.63969 v 0 c -0.58454,0.14824 -1.16104,0.33399 -1.76065,0.41704 -0.992,0.1035 -1.98256,0.25464 -2.98282,0.22038 -0.1215,5.3e-4 -0.89724,0.0969 -0.84367,-0.16285 0.16786,-0.25681 0.36317,-0.49474 0.56288,-0.72715 0.58474,-0.5923 1.04747,-1.30087 1.6208,-1.90546 0.65564,-0.79852 1.26846,-1.63305 1.71363,-2.57068 0.14555,-0.36566 0.48322,-1.04179 0.10476,-1.36269 -0.5024,-0.0803 -1.03309,0.10846 -1.50794,0.24767 0.19351,-0.12426 0.39013,-0.24382 0.58055,-0.37278 0.095,-0.0643 -0.20132,0.11118 -0.29402,0.17872 -0.3437,0.25046 -0.58318,0.59906 -0.74089,0.98988 0,0 -0.95116,0.45565 -0.95116,0.45565 z"
       inkscape:connector-curvature="0" />
    <path
       style="opacity:1;fill:#000000;fill-opacity:1;fill-rule:nonzero;stroke:#0106be;stroke-width:1.16499996;stroke-linejoin:round;stroke-miterlimit:4;stroke-dasharray:none;stroke-dashoffset:0;stroke-opacity:0.82156863"
       id="path1046"
       d="m 182.60417,161.29033 c -0.19627,0.8698 -0.47499,1.71762 -0.69977,2.58006 -0.17329,0.89484 -0.28862,1.79494 -0.47963,2.68685 -0.0642,0.30512 -0.12854,0.61025 -0.18879,0.9162 -0.35952,0.15909 -1.14363,0.70997 -0.76916,0.18971 0.18261,-0.25371 0.35119,-0.51326 0.52096,-0.77586 0.50335,-0.6979 0.82521,-1.49958 1.30163,-2.21427 0.50273,-0.71115 1.12292,-1.31349 1.82631,-1.82202 0.80511,-0.51724 1.60591,-1.07016 2.52479,-1.35777 0.61584,-0.0435 0.72895,0.40955 0.75346,0.93274 -0.0272,0.8849 -0.25033,1.75542 -0.46725,2.61044 -0.16212,0.65029 -0.28762,1.31038 -0.35495,1.97735 0.0298,0.19509 -0.009,0.11275 0.10431,0.25252 0,0 -0.90769,0.53961 -0.90769,0.53961 v 0 c -0.14093,-0.19375 -0.094,-0.0859 -0.13899,-0.32412 0.0711,-0.67379 0.20031,-1.34025 0.36229,-1.99798 0.21637,-0.84462 0.43931,-1.70503 0.47146,-2.57905 -0.0137,-0.46633 -0.0895,-0.87238 -0.65327,-0.76724 -0.24231,0.0816 -1.1196,0.56502 -0.72534,0.30773 1.30338,-0.85055 0.27526,-0.1094 -0.002,0.0242 -0.71108,0.49121 -1.33107,1.08623 -1.84036,1.78738 -0.48833,0.70713 -0.80388,1.50855 -1.29907,2.21054 -0.58802,0.91208 -0.50649,0.98628 -1.66401,1.46853 0.0694,-0.3081 0.13749,-0.61647 0.20547,-0.92488 0.19607,-0.8942 0.32805,-1.7934 0.48601,-2.69458 0.22176,-0.85836 0.50357,-1.7015 0.6819,-2.57047 0,0 0.95115,-0.45565 0.95115,-0.45565 z"
       inkscape:connector-curvature="0" />
    <path
       style="fill:none;stroke:#000000;stroke-width:0.96499997;stroke-linecap:butt;stroke-linejoin:miter;stroke-miterlimit:4;stroke-dasharray:none;stroke-opacity:1;marker-start:url(#Arrow1Lstart)"
       d="m 214.12566,134.94244 h 59.30325"
       id="path1069"
       inkscape:connector-curvature="0"
       sodipodi:nodetypes="cc" />
    <path
       style="fill:none;stroke:#000000;stroke-width:0.96499997;stroke-linecap:butt;stroke-linejoin:miter;stroke-miterlimit:4;stroke-dasharray:none;stroke-opacity:1;marker-start:url(#Arrow1Lstart-6)"
       d="m -100.80735,139.20375 h 59.303246"
       id="path1069-2"
       inkscape:connector-curvature="0"
       sodipodi:nodetypes="cc" />
    <path
       style="opacity:1;fill:#000000;fill-opacity:1;fill-rule:nonzero;stroke:#0106be;stroke-width:0.96499997;stroke-linejoin:round;stroke-miterlimit:4;stroke-dasharray:none;stroke-dashoffset:0;stroke-opacity:0.82156863"
       id="path2072"
       d="m -109.6278,118.86435 c 0.42488,-0.31827 -1.75767,0.41815 -1.34785,0.37239 0.18131,-0.0202 0.39278,-0.3851 0.49484,-0.23388 0.10101,0.14968 -0.28861,0.2171 -0.43291,0.32564 -0.86807,0.72034 -1.38385,1.68568 -1.79707,2.7135 -0.28662,0.90486 -0.19848,1.70998 0.3348,2.48512 0.71287,0.72481 1.62907,0.66963 2.55262,0.47748 1.26236,-0.4767 1.3734,-0.56395 2.51817,-1.79772 0.79555,-0.94943 1.34537,-2.05766 1.52712,-3.28388 0.0793,-0.98969 -0.16643,-1.68836 -0.99404,-2.25205 -0.15374,-0.0485 -0.30251,-0.11725 -0.46121,-0.14562 -0.6163,-0.11018 -1.28339,0.0217 -1.86072,0.23518 -0.36057,0.13331 -1.03265,0.48498 -0.59421,0.25758 -0.93064,0.67823 -0.48245,0.32642 -1.34602,1.05357 0,0 -0.9401,0.38039 -0.9401,0.38039 v 0 c 0.86211,-0.73619 0.41574,-0.37874 1.3404,-1.07075 1.4316,-0.82269 3.02251,-1.94428 4.73629,-1.26778 0.84427,0.59963 1.12516,1.32213 1.04767,2.35301 -0.16999,1.24416 -0.71866,2.37461 -1.51304,3.34525 -1.16285,1.28637 -2.62178,2.27609 -4.283,2.81536 -0.96565,0.18005 -1.90218,0.191 -2.6273,-0.57263 -0.54886,-0.80336 -0.65725,-1.63732 -0.37468,-2.57854 0.40388,-1.04138 0.91935,-2.02009 1.77515,-2.76554 0.90014,-0.68532 1.91522,-1.55399 3.11326,-1.4449 0,0 -0.86817,0.59882 -0.86817,0.59882 z"
       inkscape:connector-curvature="0" />
    <path
       style="opacity:1;fill:#000000;fill-opacity:1;fill-rule:nonzero;stroke:#0106be;stroke-width:0.96499997;stroke-linejoin:round;stroke-miterlimit:4;stroke-dasharray:none;stroke-dashoffset:0;stroke-opacity:0.82156863"
       id="path2074"
       d="m -100.49668,118.178 c -0.72021,0.66704 -1.20139,1.53067 -1.64599,2.39368 -0.53863,0.99451 -0.8692,2.04282 -0.90003,3.17214 0.0669,0.72234 0.36042,1.36114 1.05468,1.63519 0.11259,0.0211 0.22344,0.0563 0.33777,0.0634 0.25027,0.0157 0.48122,-0.0336 0.71441,-0.12136 0.1257,-0.0473 0.4732,-0.25058 0.36448,-0.17172 -0.16074,0.11659 -0.32649,0.25397 -0.52242,0.28628 -0.16185,0.0267 0.27506,-0.17878 0.41259,-0.26817 0.983329,-0.67505 1.651796,-1.62784 2.284534,-2.61493 0.599824,-0.91901 0.953413,-1.94874 1.28674,-2.98498 0.170818,-0.52988 0.29958,-1.07304 0.383535,-1.62333 0.04283,-0.17172 -0.158306,-0.0618 0.879959,-0.4603 0.04618,-0.0177 -0.04755,0.0869 -0.06738,0.1322 -0.09445,0.21583 -0.127871,0.33247 -0.20605,0.56288 -0.292005,1.01172 -0.480031,2.04313 -0.601522,3.08781 -0.05444,0.85776 -0.178615,1.72906 -0.08195,2.58738 0,0 -0.925643,0.48538 -0.925643,0.48538 v 0 c -0.106209,-0.86643 0.03258,-1.74868 0.08375,-2.61534 0.1201,-1.04768 0.304671,-2.08155 0.579525,-3.10052 0.04469,-0.14071 0.925907,-2.73925 1.289222,-1.14482 -0.09184,0.55795 -0.222528,1.11024 -0.397796,1.64796 -0.334205,1.0432 -0.681606,2.08338 -1.280477,3.01141 -0.632553,0.99177 -1.286145,1.9593 -2.261928,2.65261 -0.937029,0.62106 -1.957369,1.48263 -3.140549,1.16751 -0.71351,-0.32704 -1.03834,-0.97637 -1.10991,-1.74642 0.0254,-1.1433 0.34265,-2.20747 0.88624,-3.21676 0.43687,-0.86354 0.90548,-1.73551 1.61011,-2.41372 0,0 0.97409,-0.40348 0.97409,-0.40348 z"
       inkscape:connector-curvature="0" />
    <path
       style="opacity:1;fill:#000000;fill-opacity:1;fill-rule:nonzero;stroke:#0106be;stroke-width:0.96499997;stroke-linejoin:round;stroke-miterlimit:4;stroke-dasharray:none;stroke-dashoffset:0;stroke-opacity:0.82156863"
       id="path2076"
       d="m -87.957468,113.92143 c -0.123142,0.9198 -0.293883,1.83082 -0.500793,2.73527 -0.313613,1.30442 -0.429149,2.6426 -0.62525,3.96713 -0.177702,1.01597 -0.150243,2.04685 0.06992,3.0509 0.117951,0.38622 0.149765,0.96896 0.601988,1.09962 0.524528,0.003 0.989766,-0.34579 1.432391,-0.58942 -2.031384,1.12159 2.125244,-1.16552 0.126658,-0.0735 -0.208774,0.11407 0.406453,-0.24753 0.605552,-0.37776 0,0 0.972005,-0.3801 0.972005,-0.3801 v 0 c -0.594561,0.40062 -1.219626,0.74739 -1.844918,1.0998 -0.186023,0.10484 0.735743,-0.4338 0.550719,-0.32721 -0.408799,0.23551 -0.81472,0.47599 -1.222081,0.71398 -0.451829,0.25157 -0.953995,0.61345 -1.496991,0.52414 -0.462148,-0.20989 -0.528667,-0.74996 -0.642599,-1.197 -0.221689,-1.01657 -0.251886,-2.06285 -0.07301,-3.09143 0.197612,-1.32604 0.315544,-2.66495 0.619133,-3.973 0.204472,-0.89356 0.366098,-1.79386 0.487288,-2.70244 0,0 0.939993,-0.47895 0.939993,-0.47895 z"
       inkscape:connector-curvature="0" />
    <path
       style="opacity:1;fill:#000000;fill-opacity:1;fill-rule:nonzero;stroke:#0106be;stroke-width:0.96499997;stroke-linejoin:round;stroke-miterlimit:4;stroke-dasharray:none;stroke-dashoffset:0;stroke-opacity:0.82156863"
       id="path2078"
       d="m -92.773371,121.03838 c 1.019394,-0.35047 2.012664,-0.76955 3.036527,-1.10755 0.851784,-0.32165 1.744938,-0.4992 2.623937,-0.72554 0,0 -0.813626,0.62281 -0.813626,0.62281 v 0 c -0.879433,0.22287 -1.769277,0.41144 -2.620584,0.73232 -1.028152,0.3477 -2.031037,0.76208 -3.052725,1.12787 0,0 0.826471,-0.64991 0.826471,-0.64991 z"
       inkscape:connector-curvature="0" />
    <path
       style="opacity:1;fill:#000000;fill-opacity:1;fill-rule:nonzero;stroke:#0106be;stroke-width:0.96499997;stroke-linejoin:round;stroke-miterlimit:4;stroke-dasharray:none;stroke-dashoffset:0;stroke-opacity:0.82156863"
       id="path2080"
       d="m -78.802438,117.5338 c -0.382378,1.15935 -0.495046,2.38933 -0.666697,3.59317 -0.227041,1.81594 -0.271962,3.64634 -0.422335,5.46922 -0.105141,1.22969 -0.185338,2.46137 -0.237469,3.69442 -0.01876,0.50705 0.05353,0.41692 -0.958887,0.62787 -0.06803,0.0142 5.29e-4,-0.13897 0.0011,-0.20846 0.0021,-0.27323 0.0047,-0.54646 0.0071,-0.81969 -0.08544,-1.70834 -0.06629,-3.42501 0.02384,-5.13287 0.132008,-1.95053 0.632513,-3.41956 1.66203,-5.06368 0.854723,-1.14784 1.85886,-2.21754 3.095435,-2.96166 0.481848,-0.28996 0.981479,-0.54929 1.472218,-0.82393 1.064432,-0.45922 1.565352,-0.53756 1.95131,0.64727 0.216599,1.29633 -0.213855,2.42111 -0.958194,3.45962 -1.134824,1.29907 -2.696183,2.10088 -4.296862,2.68199 0,0 0.808688,-0.63225 0.808688,-0.63225 v 0 c 0.198456,-0.0739 0.399362,-0.14155 0.595368,-0.22173 0.207606,-0.0849 0.395822,-0.22518 0.614889,-0.27336 0.113284,-0.0249 -0.381553,0.26385 -0.284294,0.20065 0.593317,-0.38557 1.158171,-0.80895 1.62234,-1.34896 0.749239,-1.00303 1.190019,-2.0924 0.987626,-3.36547 -0.366305,-1.13193 -0.865907,-0.92757 -1.839074,-0.5063 0.09094,-0.0633 0.364443,-0.25226 0.272825,-0.18993 -0.961805,0.65431 -1.810803,1.34434 -2.567598,2.23512 -0.190638,0.22438 -0.366403,0.46099 -0.549606,0.69149 -1.038207,1.62807 -1.547955,3.07725 -1.688537,5.01938 -0.09399,1.70107 -0.109823,3.41397 5.3e-4,5.11437 0.0094,1.15779 0.309641,0.8853 -0.933104,1.56073 -0.06495,0.0353 0.399418,-0.58606 0.02635,-0.22018 0.07626,-1.23893 0.161705,-2.47731 0.269219,-3.71396 0.154855,-1.82282 0.197175,-3.65257 0.411183,-5.47009 0.167984,-1.20541 0.282337,-2.43051 0.626245,-3.60144 0,0 0.954278,-0.44134 0.954278,-0.44134 z"
       inkscape:connector-curvature="0" />
    <path
       style="opacity:1;fill:#000000;fill-opacity:1;fill-rule:nonzero;stroke:#0106be;stroke-width:0.96499997;stroke-linejoin:round;stroke-miterlimit:4;stroke-dasharray:none;stroke-dashoffset:0;stroke-opacity:0.82156863"
       id="path2082"
       d="m -68.501372,116.42949 c -0.528794,0.83241 -0.71536,1.80173 -0.854388,2.7619 -0.139025,0.9835 -0.19092,1.93943 0.106503,2.89318 0.364667,0.76591 0.810713,0.75304 1.539343,0.50049 -0.167177,0.0903 -0.319227,0.32435 -0.501533,0.27083 -0.160129,-0.047 0.273812,-0.1918 0.400428,-0.30051 0.60792,-0.52196 1.085466,-1.16978 1.5446,-1.81944 0.67509,-1.01847 1.164739,-2.12751 1.613332,-3.25791 0.2506,-0.63468 0.43765,-1.29288 0.576889,-1.9604 0.09247,-0.37926 -0.719143,0.0693 0.840507,-0.53393 0.04664,-0.018 -0.04314,0.0903 -0.06119,0.13698 -0.03243,0.0838 -0.0601,0.1694 -0.09014,0.2541 -0.335261,1.09777 -0.525692,2.23081 -0.749159,3.35496 -0.240798,1.04636 -0.315299,2.09335 -0.212072,3.15829 0.10283,0.41201 0.02774,0.22478 0.212635,0.56659 0,0 -0.908949,0.52087 -0.908949,0.52087 v 0 c -0.196443,-0.37095 -0.117573,-0.17022 -0.226653,-0.60601 -0.10224,-1.07621 -0.03027,-2.13536 0.21355,-3.19269 0.221581,-1.12328 0.413708,-2.25321 0.720712,-3.35695 0.02793,-0.0841 0.05758,-0.16754 0.08379,-0.25214 0.01675,-0.0541 -1.61e-4,-0.12964 0.04505,-0.16367 0.238014,-0.17914 1.1147,-1.01815 1.082352,-0.34558 -0.14937,0.67485 -0.339161,1.34224 -0.590907,1.98639 -0.454927,1.13493 -0.934709,2.25461 -1.609217,3.28208 -0.86505,1.24998 -1.771327,2.26939 -3.207001,2.89581 -0.788699,0.23088 -1.259076,0.15574 -1.629953,-0.6376 -0.29804,-0.97161 -0.262167,-1.93717 -0.116435,-2.93928 0.130466,-0.96031 0.301432,-1.94339 0.81784,-2.782 0,0 0.960068,-0.43436 0.960068,-0.43436 z"
       inkscape:connector-curvature="0" />
    <path
       style="opacity:1;fill:#000000;fill-opacity:1;fill-rule:nonzero;stroke:#0106be;stroke-width:0.96499997;stroke-linejoin:round;stroke-miterlimit:4;stroke-dasharray:none;stroke-dashoffset:0;stroke-opacity:0.82156863"
       id="path2084"
       d="m -53.906096,112.1983 c -0.212056,1.21813 -0.573998,2.40412 -0.859806,3.60639 -0.401079,1.41934 -0.653537,2.8694 -0.796668,4.33547 -0.108696,0.85797 -0.09839,1.68839 0.214124,2.49829 0.235122,0.46023 0.613741,0.57717 1.095164,0.62639 0.841864,-0.0934 1.623226,-0.46082 2.363999,-0.85181 0.455292,-0.23425 0.91341,-0.46294 1.371068,-0.69252 0,0 -0.808659,0.64698 -0.808659,0.64698 v 0 c -0.457153,0.22889 -0.914289,0.45784 -1.368528,0.69248 -0.753655,0.38636 -1.55533,0.76721 -2.414286,0.81173 -0.514361,-0.0694 -0.908863,-0.23477 -1.153197,-0.7244 -0.314807,-0.82934 -0.338275,-1.67191 -0.218951,-2.55007 0.14654,-1.47093 0.396023,-2.92722 0.798772,-4.35164 0.279059,-1.1952 0.642215,-2.37479 0.830265,-3.58822 0,0 0.946703,-0.45907 0.946703,-0.45907 z"
       inkscape:connector-curvature="0" />
    <path
       style="opacity:1;fill:#000000;fill-opacity:1;fill-rule:nonzero;stroke:#0106be;stroke-width:0.96499997;stroke-linejoin:round;stroke-miterlimit:4;stroke-dasharray:none;stroke-dashoffset:0;stroke-opacity:0.82156863"
       id="path2086"
       d="m -59.074803,118.95484 c 0.784188,-0.30028 1.593048,-0.53078 2.411227,-0.71715 1.219113,-0.30619 2.457493,-0.54287 3.699502,-0.73629 0,0 -0.818454,0.61448 -0.818454,0.61448 v 0 c -1.2432,0.19943 -2.482662,0.43854 -3.703219,0.74826 -0.823386,0.19438 -1.632149,0.44076 -2.426854,0.73133 0,0 0.837798,-0.64063 0.837798,-0.64063 z"
       inkscape:connector-curvature="0" />
    <path
       style="opacity:1;fill:#000000;fill-opacity:1;fill-rule:nonzero;stroke:#0106be;stroke-width:0.96499997;stroke-linejoin:round;stroke-miterlimit:4;stroke-dasharray:none;stroke-dashoffset:0;stroke-opacity:0.82156863"
       id="path2088"
       d="m 230.10627,116.08332 c -0.57545,0.77857 -0.93411,1.67606 -1.29459,2.56655 -0.30896,0.83248 -0.62736,1.68674 -0.58037,2.58564 0.066,0.57709 0.28167,0.61194 0.79093,0.45539 0.50123,-0.24354 0.41387,-0.20788 -0.23837,0.1527 0,0 0.97101,-0.37496 0.97101,-0.37496 v 0 c -1.34007,0.77912 -0.79886,0.53202 -1.56443,0.85926 -0.56788,0.12023 -0.82201,-0.0142 -0.88942,-0.61202 -0.0513,-0.91617 0.25929,-1.78428 0.57603,-2.63401 0.35689,-0.89171 0.70758,-1.79079 1.26274,-2.58207 0,0 0.96647,-0.41648 0.96647,-0.41648 z"
       inkscape:connector-curvature="0" />
    <path
       style="opacity:1;fill:#000000;fill-opacity:1;fill-rule:nonzero;stroke:#0106be;stroke-width:0.96499997;stroke-linejoin:round;stroke-miterlimit:4;stroke-dasharray:none;stroke-dashoffset:0;stroke-opacity:0.82156863"
       id="path2090"
       d="m 229.2818,110.48496 c 0.0776,4e-4 0.15562,0.008 0.23294,0.001 0.23868,-0.022 0.32308,-0.0555 0.53967,-0.15755 0.0788,-0.0371 0.30801,-0.16322 0.23045,-0.12346 -0.75972,0.38947 -0.89803,0.56408 -0.567,0.22125 0.17101,-0.22893 0.23933,-0.59098 -0.13718,-0.54827 -0.38844,0.23507 -0.17325,0.10043 0.68447,-0.33376 0,0 -0.96752,0.42316 -0.96752,0.42316 v 0 c 1.02788,-0.69626 0.60147,-0.56118 1.1394,-0.70887 0.41257,0.0543 0.44524,0.44177 0.25133,0.76033 -0.53369,0.62233 -1.42708,1.08501 -2.26006,1.08611 0,0 0.8535,-0.6201 0.8535,-0.6201 z"
       inkscape:connector-curvature="0" />
    <path
       style="opacity:1;fill:#000000;fill-opacity:1;fill-rule:nonzero;stroke:#0106be;stroke-width:0.96499997;stroke-linejoin:round;stroke-miterlimit:4;stroke-dasharray:none;stroke-dashoffset:0;stroke-opacity:0.82156863"
       id="path2092"
       d="m 236.57554,115.35352 c -0.19107,0.90859 -0.34242,1.82583 -0.54016,2.7332 -0.21289,0.84743 -0.36301,1.70714 -0.44805,2.57633 -0.0197,0.0136 -0.0668,0.94283 0.12111,0.68265 -0.28763,0.15405 -0.56091,0.33858 -0.86289,0.46215 -0.0411,0.0168 0.0325,-0.083 0.0422,-0.12633 0.0143,-0.0636 0.0225,-0.1284 0.0294,-0.19316 0.0372,-0.34871 0.0438,-0.69531 0.0857,-1.04433 0.2125,-1.00263 0.67005,-1.93832 1.17939,-2.82121 0.64808,-0.96654 1.60068,-1.6121 2.69316,-2.01953 0.58054,-0.19427 0.85822,-0.0348 1.17067,0.44395 0.37238,0.78831 0.38644,1.64936 0.33432,2.5011 -0.0579,0.718 -0.13717,1.43415 -0.18845,2.15269 -0.009,0.12965 -0.0157,0.25944 -0.0217,0.38927 0,0 -0.94704,0.47591 -0.94704,0.47591 v 0 c 0.009,-0.13172 0.0178,-0.26341 0.0283,-0.39499 0.0583,-0.7205 0.1442,-1.43837 0.20354,-2.15883 0.0552,-0.82844 0.0512,-1.66764 -0.31552,-2.43427 -0.3044,-0.45174 -0.5556,-0.51985 -1.08708,-0.32834 -0.38452,0.16022 -0.62272,0.2754 0.31195,-0.23806 0.11544,-0.0634 -0.22778,0.13344 -0.33331,0.21227 -0.35951,0.26859 -0.64122,0.61866 -0.90358,0.97854 -0.51353,0.86811 -0.96802,1.79216 -1.19236,2.78055 -0.0135,0.10997 -0.0842,1.36568 -0.12087,1.39439 -0.29678,0.23224 -0.63386,0.40776 -0.95079,0.61164 -0.35634,-0.0914 -0.22739,-0.60249 -0.21201,-0.86069 0.0859,-0.87504 0.23912,-1.74084 0.45492,-2.59352 0.20176,-0.90252 0.3511,-1.81649 0.51796,-2.72574 0,0 0.95116,-0.45564 0.95116,-0.45564 z"
       inkscape:connector-curvature="0" />
    <path
       style="opacity:1;fill:#000000;fill-opacity:1;fill-rule:nonzero;stroke:#0106be;stroke-width:0.96499997;stroke-linejoin:round;stroke-miterlimit:4;stroke-dasharray:none;stroke-dashoffset:0;stroke-opacity:0.82156863"
       id="path2094"
       d="m 246.5555,115.69698 c -0.14748,1.07774 -0.25553,2.1589 -0.40277,3.2368 -0.19365,1.38111 -0.25842,2.77465 -0.29853,4.16718 0.009,0.89934 -0.11983,1.79282 -0.26782,2.67774 -0.10355,0.5973 -0.0511,0.5308 -1.05702,0.77756 -0.0349,0.009 -0.0765,-0.18835 -0.13502,-0.42416 -0.15744,-0.90999 -0.18649,-1.83974 -0.13729,-2.76015 0.0367,-1.41475 0.54262,-2.7318 0.99223,-4.05269 0.38753,-1.06398 0.86648,-2.11313 1.48055,-3.06726 0.49335,-0.55712 1.27892,-1.54197 2.00449,-0.77937 0.41463,0.6943 0.57875,1.52846 0.76597,2.31113 0.15589,0.88097 -0.0759,1.62152 -0.59828,2.32542 -0.93149,0.95562 -2.19308,1.52792 -3.40601,2.05083 0,0 0.81667,-0.646 0.81667,-0.646 v 0 c 0.28657,-0.12501 1.2075,-0.60603 1.23407,-0.59388 0.14488,0.0662 -0.47025,0.40284 -0.40159,0.2591 0.14949,-0.31289 0.7048,-0.28525 0.80365,-0.6606 0.53287,-0.66899 0.77525,-1.37955 0.63666,-2.24157 -0.17949,-0.76343 -0.33951,-1.58114 -0.74607,-2.25588 -0.0572,-0.0536 -0.10488,-0.11968 -0.17155,-0.16088 -0.0446,-0.0276 -0.1913,-0.004 -0.15235,-0.0392 0.21622,-0.19467 0.48834,-0.31647 0.72898,-0.47996 0.0833,-0.0566 -0.62225,0.37983 -0.56012,0.49313 -0.6417,0.93458 -1.10988,1.99666 -1.51162,3.05198 -0.44458,1.31225 -0.96062,2.61744 -0.99552,4.02325 -0.0515,0.90817 -0.0172,1.82589 0.14017,2.72344 0.0206,0.0815 0.036,0.16461 0.0618,0.24464 0.0159,0.0487 0.10107,0.10648 0.0626,0.14033 -1.154,1.0158 -0.89715,0.75947 -0.79957,0.2211 0.16664,-0.88187 0.3029,-1.77562 0.29708,-2.67521 0.0408,-1.3958 0.10686,-2.79267 0.29519,-4.17761 0.14375,-1.06886 0.24704,-2.1403 0.38095,-3.21023 0,0 0.94001,-0.47894 0.94001,-0.47894 z"
       inkscape:connector-curvature="0" />
    <path
       style="opacity:1;fill:#000000;fill-opacity:1;fill-rule:nonzero;stroke:#0106be;stroke-width:0.96499997;stroke-linejoin:round;stroke-miterlimit:4;stroke-dasharray:none;stroke-dashoffset:0;stroke-opacity:0.82156863"
       id="path2096"
       d="m 255.39634,114.6433 c -0.21516,0.88612 -0.5488,1.73159 -0.75467,2.62161 -0.30787,0.97461 -0.4467,1.95667 -0.40786,2.97464 0.0683,0.58832 0.23718,1.0842 0.88443,1.13603 0.0928,-0.0217 0.18775,-0.0357 0.27839,-0.0652 0.40974,-0.13319 0.82349,-0.39302 0.73028,-0.34091 -0.80989,0.45272 -0.47234,0.27398 -0.0824,-0.0648 0.13719,-0.1192 0.26559,-0.24815 0.39838,-0.37223 0.83474,-0.86564 1.35168,-1.96903 1.88617,-3.03157 0.31395,-0.71718 0.6364,-1.4308 0.94705,-2.14983 0.30432,-0.70822 -0.70554,-0.017 0.87667,-0.78247 -0.20635,0.64238 -0.3878,1.29439 -0.53153,1.95403 -0.17084,0.90177 -0.28971,1.81045 -0.17827,2.72468 0.0563,0.3802 0.071,0.79702 0.38838,1.05498 0,0 -0.89593,0.55715 -0.89593,0.55715 v 0 c -0.3202,-0.29851 -0.36716,-0.70788 -0.41598,-1.12749 -0.11099,-0.92642 -0.003,-1.84415 0.17058,-2.75898 0.13692,-0.67007 0.34538,-1.32035 0.48842,-1.987 0.18661,-0.10656 1.4723,-1.09326 1.05277,-0.0729 -0.32064,0.72193 -0.65084,1.43831 -0.96324,2.16343 -0.53969,1.06632 -1.04984,2.1785 -1.87047,3.06362 -0.87315,0.83708 -1.92156,1.63866 -3.13656,1.84088 -0.67495,-0.12632 -0.87857,-0.62219 -0.95287,-1.26552 -0.0342,-1.02647 0.0857,-2.02031 0.40392,-3.00259 0.19693,-0.88837 0.53022,-1.72953 0.73318,-2.61389 0,0 0.95118,-0.45564 0.95118,-0.45564 z"
       inkscape:connector-curvature="0" />
    <path
       style="opacity:1;fill:#000000;fill-opacity:1;fill-rule:nonzero;stroke:#0106be;stroke-width:0.96499997;stroke-linejoin:round;stroke-miterlimit:4;stroke-dasharray:none;stroke-dashoffset:0;stroke-opacity:0.82156863"
       id="path2098"
       d="m 269.52025,109.72929 c -0.60603,1.22929 -1.03653,2.53475 -1.4124,3.84975 -0.44513,1.41248 -0.69636,2.87224 -0.97983,4.32253 -0.21585,0.84299 -0.21889,1.6816 -0.11031,2.53583 0.0326,0.36393 0.0628,0.61391 0.44641,0.68354 0.69001,0.0691 1.33215,-0.23882 1.94855,-0.50406 0.7258,-0.38987 1.47272,-0.72902 2.22242,-1.06812 0.10573,-0.0496 0.21146,-0.0992 0.31718,-0.1488 0,0 -0.81714,0.64989 -0.81714,0.64989 v 0 c -0.10527,0.0486 -0.21058,0.0972 -0.31586,0.14588 -0.7517,0.33433 -1.4891,0.69276 -2.22258,1.06596 -0.63039,0.26849 -1.29857,0.56234 -2.00051,0.4593 -0.40553,-0.11764 -0.48046,-0.39525 -0.50612,-0.79625 -0.10732,-0.86728 -0.10618,-1.71987 0.11456,-2.57496 0.28538,-1.45462 0.54544,-2.9174 0.98708,-4.33539 0.36989,-1.31566 0.8019,-2.61391 1.36838,-3.85954 0,0 0.96017,-0.42556 0.96017,-0.42556 z"
       inkscape:connector-curvature="0" />
    <path
       style="opacity:1;fill:#000000;fill-opacity:1;fill-rule:nonzero;stroke:#0106be;stroke-width:0.96499997;stroke-linejoin:round;stroke-miterlimit:4;stroke-dasharray:none;stroke-dashoffset:0;stroke-opacity:0.82156863"
       id="path2100"
       d="m 262.66206,116.16671 c 1.24823,-0.0189 2.48897,-0.23684 3.71563,-0.45598 1.40258,-0.21955 2.76217,-0.63066 4.13541,-0.97803 0.66484,-0.20599 0.33978,-0.10546 0.97512,-0.30161 0,0 -0.81941,0.63349 -0.81941,0.63349 v 0 c -0.63302,0.19359 -0.30851,0.0955 -0.97364,0.29392 -1.36973,0.34668 -2.72871,0.74538 -4.12777,0.96303 -1.24185,0.22022 -2.49555,0.43666 -3.75883,0.46528 0,0 0.85349,-0.6201 0.85349,-0.6201 z"
       inkscape:connector-curvature="0" />
  </g>
</svg>
