<?xml version="1.0" encoding="UTF-8" standalone="no"?>
<svg
   xmlns:osb="http://www.openswatchbook.org/uri/2009/osb"
   xmlns:dc="http://purl.org/dc/elements/1.1/"
   xmlns:cc="http://creativecommons.org/ns#"
   xmlns:rdf="http://www.w3.org/1999/02/22-rdf-syntax-ns#"
   xmlns:svg="http://www.w3.org/2000/svg"
   xmlns="http://www.w3.org/2000/svg"
   id="svg8"
   version="1.1"
   viewBox="0 0 210 297"
   height="297mm"
   width="210mm">
  <defs
     id="defs2">
    <linearGradient
       osb:paint="solid"
       id="linearGradient6153">
      <stop
         id="stop6151"
         offset="0"
         style="stop-color:#4200ff;stop-opacity:1;" />
    </linearGradient>
  </defs>
  <metadata
     id="metadata5">
    <rdf:RDF>
      <cc:Work
         rdf:about="">
        <dc:format>image/svg+xml</dc:format>
        <dc:type
           rdf:resource="http://purl.org/dc/dcmitype/StillImage" />
        <dc:title></dc:title>
      </cc:Work>
    </rdf:RDF>
  </metadata>
  <g
     id="layer1">
    <path
       transform="matrix(0.979138,0,0,1,-8.013568,0)"
       id="path4594"
       d="m 56.218465,295.39639 c -1.060838,-31.36016 -2.145758,-63.43223 12.8687,-82.58645 15.014457,-19.15423 46.115925,-25.74687 61.495925,-42.94132 15.37999,-17.19444 15.03881,-44.99045 1.96547,-62.89735 C 119.47521,89.064357 93.66964,81.046307 79.927002,65.455373 66.184363,49.864439 64.505075,26.701171 62.825798,3.5380588"
       style="fill:none;stroke:#0000b0;stroke-width:2.79126919;stroke-linecap:butt;stroke-linejoin:miter;stroke-opacity:1;stroke-miterlimit:4;stroke-dasharray:none" />
    <path
       id="path4602"
       d="M 37.952272,30.265012 53.501557,3.5380588 74.300928,30.79955"
       style="fill:none;stroke:#0000c6;stroke-width:1.865;stroke-linecap:butt;stroke-linejoin:miter;stroke-opacity:1;stroke-miterlimit:4;stroke-dasharray:none" />
    <path
       id="path4604"
       d="m 66.817382,21.177847 7.483546,9.621703 v 0 0"
       style="fill:none;stroke:#000000;stroke-width:0.26458332px;stroke-linecap:butt;stroke-linejoin:miter;stroke-opacity:1" />
    <path
       id="path4606"
       d="m 74.300928,30.79955 v 0"
       style="fill:none;stroke:#000000;stroke-width:0.26458332px;stroke-linecap:butt;stroke-linejoin:miter;stroke-opacity:1" />
    <path
       transform="matrix(-0.97913801,0,0,1,207.54451,4.3031748)"
       id="path4594-5"
       d="m 56.218465,295.39639 c -1.060838,-31.36016 -2.145758,-63.43223 12.8687,-82.58645 15.014457,-19.15423 46.115925,-25.74687 61.495925,-42.94132 15.37999,-17.19444 15.03881,-44.99045 1.96547,-62.89735 C 119.47521,89.064357 93.66964,81.046307 79.927002,65.455373 66.184363,49.864439 64.505075,26.701171 62.825798,3.5380588"
       style="fill:none;stroke:#a7003c;stroke-width:2.79126917;stroke-linecap:butt;stroke-linejoin:miter;stroke-miterlimit:4;stroke-dasharray:none;stroke-opacity:1;fill-opacity:1" />
    <path
       id="path4602-3"
       d="M 130.4801,34.568187 146.02938,7.8412336 166.82875,35.102725"
       style="fill:none;stroke:#b9002e;stroke-width:1.86500001;stroke-linecap:butt;stroke-linejoin:miter;stroke-miterlimit:4;stroke-dasharray:none;stroke-opacity:1" />
  </g>
</svg>
